<svg id="Capa_1"  enable-background="new 0 0 511.993 511.993" height="512" viewBox="0 0 511.993 511.993" width="512" xmlns="http://www.w3.org/2000/svg"><g><g><g><g><g><path fill="currentcolor" d="m487.9 451.495h-5.579c-2.489-3.864-4.671-7.99-6.461-12.314-1.585-3.828-5.972-5.645-9.799-4.061-3.827 1.585-5.645 5.972-4.061 9.799.927 2.24 1.964 4.425 3.056 6.576h-294.205c-2.266 0-4.456.321-6.537.909-4.689-7.95-11.023-22.733-11.023-44.652 0-3.27.145-6.494.427-9.653h143.695c4.143 0 7.5-3.358 7.5-7.5s-3.357-7.5-7.5-7.5h-137.378l17.623-19.09h287.359c-3.086 6.058-5.505 12.452-7.22 19.09h-98.584c-4.143 0-7.5 3.358-7.5 7.5s3.357 7.5 7.5 7.5h95.959c-.294 3.048-.464 6.125-.477 9.229-.018 4.142 3.326 7.514 7.469 7.532h.032c4.127 0 7.481-3.337 7.499-7.468.066-15.749 4.431-30.713 12.612-43.383h5.594c13.285 0 24.094-10.809 24.094-24.094s-10.809-24.094-24.094-24.094h-93.755l85.898-85.899c4.878-4.877 7.563-11.361 7.563-18.258s-2.686-13.381-7.562-18.256l-1.888-1.889c-4.877-4.876-11.361-7.563-18.258-7.563-6.29 0-12.233 2.241-16.93 6.334l-13.276-13.276 4.52-4.52c6.067-6.066 7.89-15.117 4.643-23.058l-6.109-14.944c-2.107-5.154-6.615-8.891-12.066-10.012l-10.431-10.431c-2.93-2.929-7.678-2.929-10.607 0s-2.929 7.678 0 10.606l5.132 5.132-118.2 118.199-34.761-34.76 118.201-118.2 4.601 4.601c1.464 1.465 3.384 2.197 5.303 2.197s3.839-.732 5.304-2.197c2.929-2.929 2.929-7.678-.001-10.606l-9.9-9.9c-1.121-5.451-4.858-9.959-10.012-12.067-.001 0-.001 0-.001 0l-14.943-6.109c-7.938-3.245-16.991-1.425-23.058 4.642l-4.52 4.52-13.278-13.276c4.093-4.697 6.333-10.64 6.333-16.93 0-6.897-2.686-13.381-7.562-18.256l-1.888-1.889c-4.877-4.876-11.361-7.563-18.258-7.563s-13.381 2.686-18.258 7.563l-93.335 93.335c-4.877 4.877-7.563 11.361-7.563 18.258s2.686 13.381 7.563 18.257l1.886 1.887c4.877 4.877 11.361 7.563 18.258 7.563 6.291 0 12.233-2.241 16.931-6.334l13.277 13.278-4.521 4.521c-6.066 6.066-7.888 15.117-4.642 23.057l6.109 14.943c2.085 5.1 6.521 8.809 11.895 9.972l-37.606 44.859c-9.282-3.831-20.376-1.984-27.907 5.548-4.837 4.837-7.501 11.268-7.501 18.108 0 3.062.538 6.04 1.561 8.831l-17.055 15.744c-3.043 2.81-3.233 7.554-.423 10.598 1.478 1.602 3.492 2.413 5.513 2.413 1.819 0 3.643-.658 5.085-1.989l15.76-14.548 18.58 18.58-139.657 151.285c-3.983 4.314-9.41 6.755-15.281 6.873-5.88.113-11.391-2.104-15.543-6.257s-6.374-9.672-6.257-15.543 2.558-11.298 6.873-15.281l109.548-101.128c3.043-2.81 3.233-7.555.423-10.598-2.808-3.043-7.553-3.234-10.598-.423l-109.548 101.128c-7.342 6.778-11.495 16.012-11.695 26.002s3.582 19.384 10.647 26.449c6.888 6.889 15.988 10.655 25.697 10.655.25 0 .501-.002.752-.007 9.99-.2 19.225-4.353 26.002-11.695l44.95-48.693c3.665 12.565 8.836 21.182 12.058 25.712 3.252 4.573 8.569 7.303 14.223 7.303h12.635c-.137 1.038-.215 2.095-.215 3.17 0 13.285 10.809 24.094 24.094 24.094h317.05c13.285 0 24.094-10.809 24.094-24.094-.001-13.285-10.809-24.094-24.094-24.094zm9.093-111.58c0 5.014-4.079 9.094-9.094 9.094h-296.394l12.467-13.505c2.842 1.038 5.831 1.563 8.821 1.563 5.985 0 11.967-2.087 16.762-6.246h258.345c5.014 0 9.093 4.08 9.093 9.094zm-226.262-86.557-43.427 36.407-17.267-17.266 36.407-43.428zm-32.718 62.463c.81-4.735.291-9.654-1.564-14.15l44.858-37.606c1.164 5.373 4.873 9.81 9.972 11.895l14.944 6.109c2.613 1.068 5.346 1.587 8.054 1.587 5.52 0 10.934-2.16 15.003-6.229l4.521-4.521 13.277 13.277c-7.267 8.354-8.262 20.298-2.985 29.637h-106.08zm221.887-116.864c2.891 0 5.607 1.126 7.65 3.168l1.888 1.889c2.044 2.043 3.169 4.761 3.169 7.65 0 2.89-1.125 5.607-3.17 7.651l-93.336 93.336c-2.043 2.043-4.761 3.169-7.65 3.169s-5.607-1.125-7.65-3.169l-1.887-1.887c-4.219-4.219-4.219-11.083 0-15.302l93.336-93.336c2.042-2.044 4.76-3.169 7.65-3.169zm-27.587 1.891-74.678 74.678-13.227-13.226 74.678-74.679zm-135.903 58.517 119.741-119.741c.38-.38.794-.49 1.146-.49.129 0 .249.015.355.036.397.08.931.318 1.209 1l6.109 14.944c.954 2.333.419 4.991-1.364 6.773l-104.933 104.935c-1.78 1.781-4.44 2.317-6.773 1.363l-14.943-6.109c-.682-.278-.92-.811-1-1.209s-.067-.982.453-1.502zm-99.722-115.307c-2.89 0-5.607-1.125-7.65-3.169l-1.887-1.887c-2.044-2.043-3.169-4.76-3.169-7.65 0-2.891 1.125-5.607 3.169-7.651l93.336-93.336c2.043-2.044 4.761-3.169 7.65-3.169 2.891 0 5.607 1.126 7.65 3.168l1.888 1.889c2.044 2.043 3.169 4.761 3.169 7.651s-1.125 5.607-3.17 7.651l-93.335 93.336c-2.044 2.041-4.761 3.167-7.651 3.167zm27.586-1.891 74.679-74.679 13.227 13.227-74.679 74.679zm8.706 38.96 104.934-104.934c1.195-1.195 2.785-1.83 4.407-1.83.796 0 1.599.153 2.367.467l14.943 6.109c.681.278.919.811.999 1.209s.066.981-.454 1.501l-119.74 119.741c-.52.52-1.103.533-1.502.454-.397-.08-.93-.318-1.208-1l-6.11-14.944c-.953-2.332-.418-4.99 1.364-6.773zm-55.258 105.881c0-2.833 1.104-5.498 3.107-7.501 4.137-4.136 10.866-4.136 15.003 0l24.461 24.461c4.137 4.137 4.137 10.867 0 15.003s-10.867 4.136-15.003 0l-24.46-24.461c-2.004-2.004-3.108-4.668-3.108-7.502zm-45.384 169.414c-3.328-4.679-9.204-14.745-12.012-30.309l17.978-19.474c-.003.371-.012.741-.012 1.113 0 23.126 6.275 39.717 11.633 49.667h-15.587c-.809 0-1.556-.372-2-.997zm355.562 28.261h-317.049c-5.014 0-9.094-4.08-9.094-9.094 0-5.015 4.08-9.094 9.094-9.094h317.049c5.015 0 9.094 4.08 9.094 9.094-.001 5.015-4.08 9.094-9.094 9.094z"/><path d="m209.827 417.166c-4.142 0-7.5 3.358-7.5 7.5s3.358 7.5 7.5 7.5h174.727c4.143 0 7.5-3.358 7.5-7.5s-3.357-7.5-7.5-7.5z"/></g></g></g></g></g></svg>
