<?xml version="1.0" encoding="UTF-8"?>
<svg xmlns="http://www.w3.org/2000/svg" viewBox="0 0 64 64" width="512" height="512"><g id="Air_Conditioner-Snowflakes-Car-Vehicle-Automobile" data-name="Air Conditioner-Snowflakes-Car-Vehicle-Automobile"><path d="M11,51V49H9v2a3,3,0,0,0,3,3h4V52H12A1,1,0,0,1,11,51Z"/><path d="M49,51a1,1,0,0,1-1,1H44v2h4a3,3,0,0,0,3-3V49H49Z"/><path d="M62,17a15,15,0,1,0-29.69,3H19.66a5.036,5.036,0,0,0-3.54,1.46l-2.83,2.83a1.055,1.055,0,0,0-.23.36l-2,5.35H10V28a2.006,2.006,0,0,0-2-2H5a3.009,3.009,0,0,0-3,3v1a2.006,2.006,0,0,0,2,2h6.31l-.15.39L6.12,35.62A3.012,3.012,0,0,0,5,37.96V51a6.96,6.96,0,0,0,2,4.88V59a3.009,3.009,0,0,0,3,3h4a3.009,3.009,0,0,0,3-3V58h.46a2,2,0,0,0,1.67-.9l.74-1.1H40.13l.74,1.11a2.011,2.011,0,0,0,1.67.89H43v1a3.009,3.009,0,0,0,3,3h4a3.009,3.009,0,0,0,3-3V55.88A6.978,6.978,0,0,0,55,51V37.96a2.991,2.991,0,0,0-1.13-2.34l-4.03-3.23L49.69,32H56a2.006,2.006,0,0,0,2-2V29a2.878,2.878,0,0,0-.39-1.44A14.96,14.96,0,0,0,62,17ZM8,30H4V29a1,1,0,0,1,1-1H8Zm9.54-7.12A3,3,0,0,1,19.66,22H32.87a14.273,14.273,0,0,0,.88,2H16.41ZM14.69,26H35.04A14.956,14.956,0,0,0,47,32c.18,0,.36-.02.55-.03l.01.03H12.44Zm-3.34,8h37.3l.81.65L46.77,36a18.925,18.925,0,0,1-6.65,1.91,18,18,0,0,1-1.84.09H21.72c-.65,0-1.25-.03-1.86-.09A18.942,18.942,0,0,1,13.23,36l-2.7-1.35ZM49,37.12v2.24a1,1,0,0,1-.81.98l-5.56,1.11A3,3,0,0,1,39.44,40l-.02-.03c.31-.02.61-.04.91-.07a20.8,20.8,0,0,0,7.34-2.12ZM20.6,39.94l-.04.06a3,3,0,0,1-3.19,1.45l-5.56-1.11a1,1,0,0,1-.81-.98V37.12l1.33.66a20.582,20.582,0,0,0,7.33,2.11C19.96,39.93,20.29,39.92,20.6,39.94ZM15,59a1,1,0,0,1-1,1H10a1,1,0,0,1-1-1V57.32A7.008,7.008,0,0,0,12,58h3Zm6.2-5,1.34-2,14.93.01L38.8,54ZM51,59a1,1,0,0,1-1,1H46a1,1,0,0,1-1-1V58h3a7.008,7.008,0,0,0,3-.68Zm2-8a5.018,5.018,0,0,1-5,5H42.53l-3.4-5.11A2.011,2.011,0,0,0,37.46,50H22.54a2.011,2.011,0,0,0-1.67.89L17.46,56H12a5.02,5.02,0,0,1-5-5V45.62A156.573,156.573,0,0,0,32,48a102.442,102.442,0,0,0,21-2.33ZM51,39.36V36.12l.19-.09,1.43,1.15a1,1,0,0,1,.38.78v5.67A100.934,100.934,0,0,1,32,46,154.679,154.679,0,0,1,7,43.59V37.96a1.022,1.022,0,0,1,.37-.78l1.44-1.15.19.09v3.24a3.007,3.007,0,0,0,2.41,2.94l5.56,1.11a4.916,4.916,0,0,0,1,.1A4.989,4.989,0,0,0,22.3,41l.57-1H37.13l.57,1a4.989,4.989,0,0,0,4.33,2.51,4.916,4.916,0,0,0,1-.1l5.56-1.11A3.007,3.007,0,0,0,51,39.36ZM56,30H54.46a15.644,15.644,0,0,0,1.53-1.02A.035.035,0,0,1,56,29Zm-.39-3.28a12.87,12.87,0,0,1-4.89,2.74,13.6,13.6,0,0,1-2.59.49,12.918,12.918,0,0,1-11.79-5.52A12.924,12.924,0,0,1,34,17a13,13,0,1,1,21.61,9.72Z"/><path d="M56.04,17.94l-3.7.99-2.4-1.38a2.551,2.551,0,0,0,0-1.1l2.4-1.38,3.7.99.51-1.93-1.76-.47,1.37-.79-1-1.74-1.37.8.47-1.77-1.93-.52-.99,3.7-2.4,1.39a3.059,3.059,0,0,0-.94-.55V11.41l2.71-2.7L49.29,7.29,48,8.59V7H46V8.59l-1.29-1.3L43.29,8.71,46,11.41v2.77a3.059,3.059,0,0,0-.94.55l-2.4-1.39-.99-3.7-1.93.52.47,1.77-1.37-.8-1,1.74,1.37.79-1.76.47.51,1.93,3.7-.99,2.4,1.38a2.551,2.551,0,0,0,0,1.1l-2.4,1.38-3.7-.99-.51,1.93,1.76.47-1.37.79,1,1.74,1.37-.8-.47,1.77,1.93.52.99-3.7,2.4-1.39a3.059,3.059,0,0,0,.94.55v2.77l-2.71,2.7,1.42,1.42L46,25.41V27h2V25.41l1.29,1.3,1.42-1.42L48,22.59V19.82a3.059,3.059,0,0,0,.94-.55l2.4,1.39.99,3.7,1.93-.52-.47-1.77,1.37.8,1-1.74-1.37-.79,1.76-.47ZM47,18a1,1,0,1,1,1-1A1,1,0,0,1,47,18Z"/></g></svg>
