<svg height="512" viewBox="0 0 60 60" width="512" xmlns="http://www.w3.org/2000/svg"><g id="Page-1" fill="none" fill-rule="evenodd"><g id="029---Pottery-Wheel" fill="rgb(0,0,0)"><path id="Shape" d="m47.539 35.612c.3022291-1.5400915.4565974-3.1055399.461-4.675-.1252595-3.8126919-.809901-7.5863061-2.032-11.2-.31-2.427-4.727-3.594-7.918-4.12v-2.088c2.4841851 1.3218434 5.2821033 1.9404143 8.092 1.789 1.5735096-.092393 2.8150066-1.3728491 2.8587519-2.9484618.0437453-1.5756126-1.1247927-2.922981-2.6907519-3.1025382-.9740457-.11465298-1.9143303-.42740054-2.763-.919-.7786004-.39861701-1.3771474-1.07756583-1.675-1.9-.5779322-1.25524202-1.3625034-2.40454917-2.321-3.4-.6602478-.7256973-1.3979781-1.37691192-2.2-1.942-.2554833-.19727164-.4808519-.43072512-.669-.693-.1886013-.2601198-.4907024-.41377464-.812-.413h-13.7c-.3481562-.00001898-.6712625.18104174-.853.478-1.317 2.15-1.317 3.784-1.317 7.732v7.79c-3.723.852-5.721 2.089-5.951 3.686-1.2401743 3.6488841-1.9307296 7.4619357-2.049 11.314.0050476 1.5483822.1580768 3.0927377.457 4.612-5.057 1.045-12.457 3.275-12.457 7.388v4c0 5.311 12.759 8.4 26 8.921v2.079c0 1.1045695.8954305 2 2 2h4c1.1045695 0 2-.8954305 2-2v-2.079c13.241-.521 26-3.61 26-8.921v-4c0-4.114-7.4-6.345-12.461-7.388zm-3.539-15.612c0 .38-1.446 1.575-5.95 2.359v-4.717c4.504.783 5.95 1.978 5.95 2.358zm-21.249-18h12.641c.2359875.26669317.4979467.50922315.782.724.6988958.48922164 1.3408858 1.05507179 1.914 1.687.8235469.84864814 1.4943987 1.83310543 1.983 2.91.4757589 1.18187469 1.3523014 2.15860357 2.476 2.759 1.0833926.6281876 2.284149 1.0274187 3.528 1.173.5701611.0649657.9822997.5760175.925 1.147-.0651147.5035889-.4782115.8902643-.985.922-2.580803.1402873-5.1464222-.47592-7.382-1.773-.5160449-.3313037-1.1717748-.3545145-1.7099531-.0605271-.5381782.2939874-.8729728.8582862-.8730469 1.4715271v9.685c-.664.08-1.347.149-2.05.2v-6.845c0-.5522847-.4477153-1-1-1s-1 .4477153-1 1v6.961c-.662.024-1.329.039-2 .039v-7c0-.5522847-.4477153-1-1-1s-1 .4477153-1 1v6.958c-.681-.025-1.345-.065-2-.115v-6.843c0-.5522847-.4477153-1-1-1s-1 .4477153-1 1v6.648c-.692-.083-1.357-.181-2-.293v-14.145c0-3.478 0-4.765.751-6.21zm-2.751 16.05v3.9c-3.246-.809-4-1.74-4-1.95s.754-1.141 4-1.95zm-4.663 4.13c1.665926 1.0344627 3.5268118 1.7152331 5.467 2 2.6821317.5034322 5.4031833.7711205 8.132.8.022 0 .041.013.064.013s.034-.009.052-.01c.317 0 .627.02.948.02 1 0 2-.034 2.973-.086.0089418.001468.017954.0024694.027.003.016 0 .029-.008.045-.009 1.444-.078 2.848-.205 4.145-.391 2.282-.323 5.631-1 7.473-2.339.7713654 2.8809822 1.2197907 5.8388448 1.337 8.819.037288 4.4278113-1.3140383 8.7559725-3.864 12.376-.1429977.1875683-.3471309.3191758-.577.372-3.7924573.8579118-7.6708039 1.2779905-11.559 1.252-3.8875416.0261105-7.7652396-.3939707-11.557-1.252-.2281064-.0508549-.4311965-.1799975-.574-.365-2.5612297-3.638861-3.9146077-7.990379-3.869-12.44.120737-2.9614067.5691379-5.9003274 1.337-8.763zm-2.419 15.384c.6915393 2.511599 1.8212225 4.8813271 3.337 7 .4239257.5674597 1.0343938.9672384 1.724 1.129 3.9437596.8943772 7.9771802 1.3329165 12.021 1.307 4.0445366.0259359 8.0786597-.4129423 12.023-1.308.6913243-.1626493 1.302973-.5642762 1.727-1.134 1.5138132-2.1170512 2.6411834-4.4852056 3.33-6.995 7.525 1.537 10.92 3.815 10.92 5.437 0 2.923-10.652 7-28 7s-28-4.077-28-7c0-1.622 3.394-3.894 10.918-5.436zm19.082 20.436h-4v-2.022c.667.013 1.335.022 2 .022s1.333-.009 2-.022zm-2-4c-17.348 0-28-4.077-28-7v-.595c4.635 3.655 16.6 5.595 28 5.595s23.365-1.94 28-5.595v.595c0 2.923-10.652 7-28 7z" fill-rule="nonzero"/><path id="Path" d="m18.521 37.878c.159.086 3.979 2.122 11.479 2.122s11.32-2.036 11.479-2.122c.4760004-.2681867.6486469-.8687635.3877337-1.3487892-.2609133-.4800258-.8587937-.6617902-1.3427337-.4082108-.035.018-3.586 1.879-10.524 1.879s-10.489-1.861-10.521-1.878c-.484906-.2645444-1.0924556-.085906-1.357.399s-.085906 1.0924556.399 1.357z"/></g></g></svg>