<svg height="512pt" viewBox="-40 0 512 512" width="512pt" xmlns="http://www.w3.org/2000/svg"><path d="m378.585938 216.566406c29.433593-1.582031 52.894531-26.023437 52.894531-55.847656 0-29.613281-23.136719-53.914062-52.285157-55.800781-6.660156-16.597657-16.265624-32.183594-28.546874-46.003907-2.75-3.09375-7.492188-3.375-10.589844-.625-3.09375 2.753907-3.375 7.492188-.621094 10.589844 12.375 13.925782 21.75 29.816406 27.773438 46.730469-45.546876 13.699219-93.601563 5.648437-126.597657-3.878906-41.710937-12.039063-73.460937-30.441407-82.683593-39.664063-1.40625-1.40625-3.3125-2.199218-5.300782-2.199218-1.988281 0-3.898437.792968-5.304687 2.199218-26.15625 26.15625-53.460938 40.542969-83.164063 43.769532 20.742188-58.453126 80.847656-100.835938 151.582032-100.835938 36.363281 0 70.601562 10.910156 99.011718 31.558594 3.351563 2.433594 8.042969 1.6875 10.476563-1.660156 2.433593-3.351563 1.691406-8.042969-1.660157-10.476563-30.992187-22.519531-68.277343-34.421875-107.828124-34.421875-74.851563 0-138.832032 43.722656-163.484376 104.921875-29.132812 1.898437-52.257812 26.191406-52.257812 55.796875 0 29.824219 23.460938 54.265625 52.898438 55.847656 6.433593 14.628906 15.515624 28.117188 27.113281 40.101563 11.257812 11.636719 24.503906 21.515625 39.371093 29.453125-44.640624 29.589844-73.28125 77.839844-77.441406 131.648437-.085937 1.117188-.0625 2.238281.046875 3.359375-3.929687 10.890625-4.222656 23.15625.035157 34.859375 6.75 18.542969 23.808593 31.695313 43.464843 33.511719.234375.019531.464844.03125.699219.03125 3.828125 0 7.097656-2.921875 7.457031-6.8125.382813-4.125-2.652343-7.777344-6.777343-8.15625-13.90625-1.285156-25.976563-10.585938-30.75-23.703125-3.308594-9.09375-2.878907-18.933594 1.210937-27.707031 4.089844-8.773438 11.351563-15.425782 20.445313-18.738282l80.644531-29.351562c1.023437-.371094 2.132812-.324219 3.117187.136719.246094.113281.472656.25.6875.40625.007813.007812.019532.015625.027344.023437.632812.46875 1.117188 1.113282 1.394531 1.871094l22 60.4375c.273438.757812.316407 1.558594.136719 2.324219-.003906.015625-.007812.03125-.011719.046875-.0625.253906-.148437.503906-.261719.746094-.460937.988281-1.277343 1.738281-2.300781 2.109374l-66.890625 24.347657c-3.890625 1.414062-5.898437 5.71875-4.480468 9.609375 1.417968 3.894531 5.71875 5.898437 9.613281 4.484375l59.707031-21.734375.78125 13.238281c.558594 9.46875 8.425781 16.886719 17.910156 16.886719h8.394532v14.503906c0 4.140625 3.355468 7.5 7.5 7.5 4.140624 0 7.5-3.359375 7.5-7.5v-14.5h8.394531c9.484375 0 17.351562-7.417969 17.910156-16.886719l2.011719-34.222656h118.351562c5.476563 0 10.75-2.304687 14.472656-6.328125 3.695313-3.992188 5.578126-9.382812 5.15625-14.792969-4.160156-53.808593-32.800781-102.058593-77.441406-131.648437 14.867188-7.9375 28.113282-17.816406 39.371094-29.449219 11.601562-11.988281 20.679688-25.476563 27.117188-40.105469zm5.992187-95.765625c18.238281 4.125 31.902344 20.453125 31.902344 39.917969 0 19.53125-13.753907 35.902344-32.082031 39.957031 3.75-12.6875 5.664062-26.070312 5.664062-39.957031.003906-13.535156-1.875-26.945312-5.484375-39.917969zm-369.578125 39.917969c0-19.453125 13.644531-35.765625 31.859375-39.90625-.078125.28125-.148437.570312-.226563.851562-.105468.320313-.199218.648438-.261718.988282-3.230469 12.207031-4.953125 24.953125-4.953125 38.066406 0 13.886719 1.917969 27.269531 5.664062 39.957031-18.328125-4.054687-32.082031-20.425781-32.082031-39.957031zm137.964844 155.855469v44.515625l-80.316406 29.230468c-4.5625 1.660157-8.738282 3.917969-12.488282 6.632813 9.484375-43.152344 36.554688-80.589844 75.382813-103.234375 8.226562 3.378906 16.84375 6.230469 25.808593 8.519531-5 2.832031-8.386718 8.191407-8.386718 14.335938zm15 45.078125v-45.078125c0-.8125.660156-1.472657 1.472656-1.472657h12.535156.046875 67.371094c.007813 0 .015625.003907.023437.003907.007813 0 .015626-.003907.023438-.003907h12.609375c.808594 0 1.46875.660157 1.46875 1.472657v46.015625c0 .652344-.425781 1.199218-1.011719 1.390625-4.566406-6.777344-10.894531-12.214844-18.492187-15.757813-11.019531-5.136718-23.378907-5.675781-34.804688-1.519531l-41.171875 14.984375c-.023437-.007812-.046875-.023438-.070312-.035156zm12.371094-116.300782c3.847656-7.261718 11.34375-11.773437 19.5625-11.773437h31.683593c8.21875 0 15.714844 4.511719 19.5625 11.773437 7.128907 13.453126 7.128907 29.519532 0 42.976563l-6.238281 11.773437h-58.332031l-6.238281-11.773437c-7.125-13.457031-7.125-29.519531 0-42.976563zm54.234374 226.878907c-.089843 1.550781-1.378906 2.765625-2.933593 2.765625h-31.789063c-1.554687 0-2.84375-1.214844-2.9375-2.765625l-1.167968-19.867188c1.355468-1.453125 2.496093-3.113281 3.359374-4.964843.027344-.054688.042969-.113282.070313-.167969l37.675781-13.710938zm6.675782-57.070313c-.039063.023438-.078125.050782-.117188.074219-1.824218 1.160156-3.800781 2.148437-5.914062 2.917969l-36.035156 13.113281-20.875-57.351563 36.035156-13.113281c7.660156-2.789062 15.945312-2.429687 23.335937 1.015625 6.007813 2.804688 10.835938 7.371094 13.929688 13.101563.046875.09375.089843.1875.140625.277343.648437 1.234376 1.222656 2.511719 1.707031 3.84375 4.96875 13.652344-.457031 28.589844-12.207031 36.121094zm133.339844 3.765625c.132812 1.71875-.703126 2.898438-1.210938 3.449219-.523438.5625-1.671875 1.511719-3.464844 1.511719h-115.355468c12.902343-11.191407 18.789062-29.113281 14.160156-46.25 5.765625-2.566407 9.804687-8.339844 9.804687-15.046875v-46.015625c0-6.144531-3.386719-11.503907-8.386719-14.335938 8.964844-2.289062 17.582032-5.140625 25.804688-8.519531 45.292969 26.414062 74.605469 72.945312 78.648438 125.207031zm-80.859376-140.589843c-.210937.078124-.417968.171874-.621093.269531-7.980469 3.457031-16.386719 6.363281-25.179688 8.6875 5.703125-15.976563 4.546875-33.730469-3.527343-48.964844-6.453126-12.183594-19.027344-19.753906-32.816407-19.753906h-31.683593c-13.789063 0-26.363282 7.570312-32.816407 19.753906-8.070312 15.234375-9.230469 32.988281-3.523437 48.964844-8.796875-2.324219-17.210938-5.234375-25.191406-8.691407-.199219-.097656-.402344-.1875-.609376-.265624-18.152343-7.949219-34.046874-18.75-46.964843-32.097657-22.488281-23.238281-34.375-52.8125-34.375-85.519531 0-10.085938 1.125-19.933594 3.269531-29.445312 33.632812-2.089844 64.238281-16.433594 93.203125-43.710938 18.855469 14.859375 55.546875 30.492188 83.5625 38.578125 21.441406 6.191406 48.9375 11.78125 78.308594 11.78125 18.507812 0 37.757812-2.226563 56.707031-7.914063 2.375 10.042969 3.597656 20.339844 3.597656 30.710938 0 32.707031-11.886718 62.277344-34.375 85.519531-12.917968 13.347657-28.8125 24.144531-46.964844 32.097657zm-10.101562-131.9375c-4.140625 0-7.5 3.359374-7.5 7.5v11.265624c0 4.144532 3.359375 7.5 7.5 7.5s7.5-3.355468 7.5-7.5v-11.265624c0-4.144532-3.359375-7.5-7.5-7.5zm-45.058594 13.613281c-3.121094-2.722657-7.859375-2.398438-10.582031.726562-3.089844 3.546875-7.554687 5.582031-12.242187 5.582031-4.691407 0-9.152344-2.035156-12.246094-5.582031-2.71875-3.125-7.457032-3.449219-10.582032-.726562-3.121093 2.722656-3.445312 7.460937-.722656 10.582031 5.941406 6.816406 14.523438 10.726562 23.550782 10.726562 9.023437 0 17.609374-3.910156 23.550781-10.726562 2.722656-3.121094 2.394531-7.859375-.726563-10.582031zm39.542969 219.710937v6.308594c0 8.972656 7.296875 16.273438 16.269531 16.273438h39.6875c8.96875 0 16.269532-7.296876 16.269532-16.273438v-6.308594c0-8.972656-7.296876-16.269531-16.269532-16.269531h-39.6875c-8.972656 0-16.269531 7.296875-16.269531 16.269531zm57.226563 0v6.308594c0 .703125-.570313 1.273438-1.273438 1.273438h-39.683594c-.699218 0-1.273437-.570313-1.273437-1.273438v-6.308594c0-.699218.570312-1.269531 1.273437-1.269531h39.683594c.703125 0 1.273438.570313 1.273438 1.269531zm-187.480469-233.324218c-4.140625 0-7.5 3.359374-7.5 7.5v11.265624c0 4.144532 3.359375 7.5 7.5 7.5 4.144531 0 7.5-3.355468 7.5-7.5v-11.265624c0-4.144532-3.355469-7.5-7.5-7.5zm0 0"/></svg>