<svg id="Layer_1" enable-background="new 0 0 64 64" height="512" viewBox="0 0 64 64" width="512" xmlns="http://www.w3.org/2000/svg"><path d="m19.9 35c.8-.6 1.7-.9 2.7-1.1l5.3-.9c1.3.6 2.7.9 4.1.9s2.8-.3 4.1-.9l5.3.9c1.7.3 3.3 1.2 4.3 2.7.2.3.9.7 1.4.2.4-.4.5-.9.2-1.4-1.3-1.9-3.3-3.1-5.6-3.5l-4.7-.7v-3.7c2.1-1.4 3.5-3.6 3.9-6.2.1-.5-.3-1.1-.8-1.1-.5-.1-1.1.3-1.1.8-.5 3.4-3.5 6-6.9 6s-6.4-2.6-6.9-6c-.1-.5-.6-.9-1.1-.8s-.9.6-.8 1.1c.4 2.6 1.9 4.8 3.9 6.2v3.7l-5 .8c-1.3.2-2.4.7-3.5 1.4-.5.3-.6.9-.3 1.4.4.5 1.3.3 1.5.2zm9.1-6.5c.9.3 2 .5 3 .5s2.1-.2 3-.5v2.9c-1.9.8-4.1.8-6 0z"/><path d="m22 19h20c1.7 0 3-1.3 3-3 0-1.3-.9-2.4-2.1-2.8-.1-1.6-.6-3.1-1.3-4.5-.3-.5-.9-.7-1.4-.4s-.7.9-.4 1.4c.6 1 .9 2.2 1.1 3.4h-17.8c.4-3.4 2.7-6.3 5.9-7.5v4.4c0 .6.4 1 1 1s1-.4 1-1v-7h2v7c0 .6.4 1 1 1s1-.4 1-1v-4.5c.9.3 1.7.7 2.4 1.3.2.1.9.5 1.4-.2.3-.4.2-1.1-.2-1.4-1.1-.8-2.3-1.4-3.6-1.8v-1.4c0-.6-.4-1-1-1h-4c-.6 0-1 .4-1 1v1.4c-4.5 1.3-7.6 5.1-8 9.7-1.2.4-2 1.5-2 2.8 0 1.8 1.3 3.1 3 3.1zm0-4h20c.6 0 1 .4 1 1s-.4 1-1 1h-20c-.6 0-1-.4-1-1s.4-1 1-1z"/><path d="m50 54c-.6 0-1 .4-1 1v5.6l-10-3.3v-19.9l10 3.3v2.3c0 .6.4 1 1 1s1-.4 1-1v-3c0-.4-.3-.8-.7-.9l-11.7-3.9c-.3-.1-.8-.1-1.2 0l-11.4 3.7-11.7-3.9c-.3-.1-.6-.1-.9.1-.2.3-.4.6-.4.9v7c0 .6.4 1 1 1s1-.4 1-1v-5.6l10 3.3v8.3c0 .6.4 1 1 1s1-.4 1-1v-8.3l10-3.3v19.9l-10 3.3v-2.6c0-.6-.4-1-1-1s-1 .4-1 1v2.6l-10-3.3v-2.2c0-.6-.4-1-1-1s-1 .4-1 1v2.9c0 .4.3.8.7.9l11.8 3.9c.3.1.8.1 1.1 0l11.4-3.7 11.7 3.9c.1 0 .5.2.9-.1.3-.2.4-.5.4-.8v-7c0-.7-.4-1.1-1-1.1z"/><path d="m50 45c-1.7 0-3 1.3-3 3v2c0 1.7 1.3 3 3 3s3-1.3 3-3v-2c0-1.7-1.3-3-3-3zm1 5c0 .6-.4 1-1 1s-1-.4-1-1v-2c0-.6.4-1 1-1s1 .4 1 1z"/><path d="m17 50v-2c0-1.7-1.3-3-3-3s-3 1.3-3 3v2c0 1.7 1.3 3 3 3s3-1.3 3-3zm-4 0v-2c0-.6.4-1 1-1s1 .4 1 1v2c0 .6-.4 1-1 1s-1-.4-1-1z"/><path d="m26 56c.6 0 1-.4 1-1v-2.4c0-.6-.4-1-1-1s-1 .4-1 1v2.4c0 .5.4 1 1 1z"/></svg>