<?xml version="1.0" encoding="UTF-8"?>
<svg fill="#3E7FCA" xmlns="http://www.w3.org/2000/svg" xmlns:xlink="http://www.w3.org/1999/xlink" width="512" height="512" viewBox="0 0 60 60" version="1.1"><!-- Generator: Sketch 51.3 (57544) - http://www.bohemiancoding.com/sketch --><title>029 - Pottery</title><desc>Created with Sketch.</desc><defs/><g id="Page-1" stroke="none" stroke-width="1" fill="none" fill-rule="evenodd"><g id="029---Pottery" transform="translate(0.000000, -1.000000)" fill="#000000" fill-rule="nonzero"><path d="M23,43 L27,43 C27.5522847,43 28,42.5522847 28,42 C28,41.4477153 27.5522847,41 27,41 L23,41 C22.4477153,41 22,41.4477153 22,42 C22,42.5522847 22.4477153,43 23,43 Z" id="Shape"/><path d="M60,42 C60,41.4477153 59.5522847,41 59,41 L56.71,41 C56.33,40.071 55.934,39.145 55.538,38.225 C55.506,38.149 55.474,38.075 55.438,38 L57,38 C57.5522847,38 58,37.5522847 58,37 C58,36.4477153 57.5522847,36 57,36 L54.591,36 C52.504,30.989 50.991,26.225 53.224,21.729 C53.6505117,21.0876546 53.6844405,20.2621842 53.312,19.588 C52.077,17.336 46.828,17 43.81,17 L43.61,17 C43.5893619,15.8128079 43.185637,14.6640686 42.459,13.725 L41.802,12.88 L45.118,13.601 L48.618,14.281 C49.7190547,14.487237 50.8566082,14.3601458 51.885,13.916 C52.934465,13.4548546 53.6115199,12.4163113 53.61,11.27 C53.6077118,10.8863461 53.5302518,10.5068601 53.382,10.153 C53.0625926,9.37955303 52.4158543,8.78814472 51.617,8.539 L48.16,7.42 L35.36,3.607 L28.387,1.375 C26.2320907,0.685695829 23.8861655,0.939976976 21.929,2.075 L16.77,5.075 C15.4901006,5.82754414 14.9476848,7.39923525 15.491,8.781 L18,15.077 C18.1723084,15.5069871 18.4198423,15.9028382 18.731,16.246 L22.75,20.754 C22.856,20.874 22.95,21 23.059,21.121 L11.79,21.121 C11.0161904,21.123251 10.2500019,21.2739766 9.533,21.565 L6.082,22.971 L1.746,24.971 C0.685280329,25.4617934 0.0045627214,26.522247 1.45952586e-15,27.691 L1.45952586e-15,40.863 C-0.0112002361,42.3841935 1.12991467,43.6674078 2.642,43.834 C3.26132453,43.8991792 3.87005586,44.0416197 4.454,44.258 L7.048,45.215 C9.63561163,46.168557 12.5073708,45.9709689 14.94,44.672 L15.67,44.283 C17.4221413,43.3504978 18.9937845,42.1127568 20.311,40.628 C21.8912537,40.1196114 23.1582295,38.9261047 23.76,37.379 C25.0021555,36.6147362 25.7562921,35.2584272 25.75,33.8 L25.75,33.5 L27.422,33.278 L30.109,32.809 C31.3420335,32.6002487 32.2433681,31.5305748 32.24,30.28 C32.2297661,29.7167922 32.0449247,29.1706541 31.711,28.717 C32.5125463,28.1556196 32.989913,27.2385828 32.99,26.26 C32.9945124,26.1103407 32.984128,25.9606037 32.959,25.813 C32.5852899,23.3030812 31.6336091,20.9142941 30.179,18.835 L28.152,15.951 C27.6878322,15.279552 27.6335815,14.4063014 28.0110735,13.6825653 C28.3885655,12.9588292 29.1357395,12.503592 29.952,12.5 C30.2302917,12.4980966 30.5062255,12.5511085 30.764,12.656 L32.258,13.266 C32.6473753,13.4240204 32.9818486,13.6927812 33.22,14.039 L35.493,17.339 L35.22,18.631 C34.8473319,18.8752012 34.5359435,19.201988 34.31,19.586 C33.9381444,20.2596197 33.9720683,21.0842018 34.398,21.725 C36.962,26.882 34.592,32.39 32.083,38.225 C30.9255357,40.7423566 29.9536132,43.3409458 29.175,46 L23,46 C22.4477153,46 22,46.4477153 22,47 C22,47.5522847 22.4477153,48 23,48 L28.746,48 C28.5755173,48.990638 28.4968502,49.9948991 28.511,51 L23,51 C22.4477153,51 22,51.4477153 22,52 C22,52.5522847 22.4477153,53 23,53 L28.7,53 C28.8491815,53.8456674 29.0861291,54.6734761 29.407,55.47 C28.2762832,56.1795772 27.7519297,57.5520052 28.1214484,58.8347664 C28.4909672,60.1175276 29.6650768,61.0006876 31,61 L57,61 C58.4032133,61.0057481 59.6220354,60.0358583 59.9315457,58.6671933 C60.2410561,57.2985283 59.5581498,55.898581 58.289,55.3 C59.849,51.241 58.989,47.1 57.489,43 L59,43 C59.5522847,43 60,42.5522847 60,42 Z M25.79,24.993 L27.079,27.264 C26.0216667,27.1133333 24.9533333,26.98 23.874,26.864 L22.493,26.72 C23.2286852,26.4122682 23.9219794,26.0116833 24.556,25.528 C24.9467,25.216444 25.2345288,24.7944577 25.382,24.317 C25.519,24.542 25.66,24.765 25.79,24.993 Z M29.769,30.835 L27.119,31.299 L24.678,31.623 L24.667,31.623 L15.236,32.311 C14.6837153,32.3515929 14.2689071,32.8322153 14.3095,33.3845 C14.3500929,33.9367847 14.8307153,34.3515929 15.383,34.311 L23.75,33.697 L23.75,33.8 C23.7487048,34.5937237 23.3178555,35.3245605 22.624,35.71 L12.8,36.5 C12.2477153,36.5218152 11.8176848,36.9872153 11.8395,37.5395 C11.8613152,38.0917847 12.3267153,38.5218152 12.879,38.5 C12.905,38.5 12.933,38.5 12.96,38.5 L21.116,37.841 C20.6749805,38.2940409 20.1197496,38.6195092 19.509,38.783 L11.612,40.4 C11.11086,40.5043352 10.7694234,40.9702647 10.820893,41.4795563 C10.8723626,41.9888479 11.3001179,42.377042 11.812,42.379 C11.8792305,42.3792654 11.9462909,42.3722241 12.012,42.358 L16.412,41.458 C15.8772338,41.850214 15.316257,42.2053768 14.733,42.521 L14.002,42.911 C12.072337,43.9397669 9.79546399,44.0965543 7.743,43.342 L5.152,42.385 C4.41260535,42.1116086 3.6419851,41.9315509 2.858,41.849 C2.36072775,41.7903876 1.98934572,41.3636012 2,40.863 L2,27.691 C2.0001745,27.3006892 2.22742326,26.9461499 2.582,26.783 L6.882,24.806 L10.287,23.418 C10.765963,23.2228386 11.277811,23.1210121 11.795,23.118 L23.05,23.118 C23.2646783,23.1243924 23.4483581,23.2740423 23.498,23.483 C23.5077197,23.5171073 23.5117736,23.5525791 23.51,23.588 C23.5069301,23.7265902 23.442448,23.8566536 23.334,23.943 C22.1567397,24.8437821 20.7301412,25.3592434 19.249,25.419 L12.649,25.689 C12.1244521,25.7091789 11.7047952,26.1315154 11.6879554,26.6561811 C11.6711155,27.1808468 12.0628257,27.6292252 12.585,27.683 L23.664,28.852 C25.764,29.075 27.83,29.371 29.813,29.729 C30.0636283,29.7935889 30.2390915,30.0191846 30.24,30.278 C30.241187,30.554175 30.0415334,30.7902834 29.769,30.835 Z M37.143,16.2 L34.862,12.9 C34.4039081,12.2335507 33.7603194,11.7161763 33.011,11.412 L31.52,10.805 C31.0212761,10.6034437 30.4879019,10.5015251 29.95,10.505 C28.3890832,10.5095347 26.9594374,11.379341 26.2378808,12.7634789 C25.5163241,14.1476168 25.6218955,15.8177381 26.512,17.1 L28.542,19.99 C29.825265,21.8266675 30.6627554,23.9371706 30.988,26.154 C31.045454,26.6372115 30.7522226,27.0933122 30.2887586,27.2416207 C29.8252946,27.3899292 29.3217488,27.1887971 29.088,26.762 L27.527,24.01 C26.5946722,22.3731656 25.4944036,20.8378836 24.244,19.429 L20.215,14.9 C20.0630379,14.7319999 19.9421567,14.5383191 19.858,14.328 L17.349,8.042 C17.1653168,7.58164751 17.3465616,7.05620774 17.775,6.807 L22.935,3.807 C24.4017602,2.95434241 26.16094,2.76251115 27.777,3.279 L34.771,5.517 L43.279,8.08 L47.572,9.331 L51.017,10.446 C51.2513585,10.5221439 51.4408706,10.6966849 51.536,10.924 C51.583318,11.0333007 51.6084707,11.1509064 51.61,11.27 C51.6113523,11.6199626 51.4063502,11.937853 51.087,12.081 C50.4252426,12.3636774 49.6951141,12.4460776 48.987,12.318 L45.517,11.643 L40.877,10.634 C40.2619614,10.5012627 39.6294489,10.766476 39.2930072,11.2981701 C38.9565655,11.8298642 38.9877092,12.5150213 39.371,13.014 L40.884,14.958 C41.3501714,15.5618447 41.6068012,16.3011914 41.615,17.064 C40.2123809,17.1287893 38.8196051,17.3321117 37.457,17.671 C37.5423956,17.1585953 37.4301753,16.6328756 37.143,16.2 Z M57,59 L31,59 C30.4477153,59 30,58.5522847 30,58 C30,57.4477153 30.4477153,57 31,57 L57,57 C57.5522847,57 58,57.4477153 58,58 C58,58.5522847 57.5522847,59 57,59 Z M56.24,55 L31.381,55 C31.1010267,54.3567066 30.8872584,53.6865864 30.743,53 L38,53 C38.5522847,53 39,52.5522847 39,52 C39,51.4477153 38.5522847,51 38,51 L30.513,51 C30.4942172,49.9937874 30.580349,48.9883568 30.77,48 L34,48 C34.5522847,48 35,47.5522847 35,47 C35,46.4477153 34.5522847,46 34,46 L31.246,46 C31.9908592,43.6183398 32.8835936,41.2854744 33.919,39.015 C36.504,33.006 39.178,26.792 36.163,20.792 C36.147912,20.7614737 36.131222,20.7317656 36.113,20.703 C36.0859096,20.6633938 36.0650036,20.619896 36.051,20.574 C36.077,20.464 36.238,20.305 36.551,20.13 C36.5954018,20.110476 36.6384921,20.0880958 36.68,20.063 C37.655,19.577 39.829,19 43.81,19 C49.441,19 51.468,20.152 51.568,20.567 C51.5569084,20.6161155 51.5358017,20.6624141 51.506,20.703 C51.488,20.731 51.472,20.761 51.456,20.792 C48.944,25.792 50.386,30.944 52.432,36 L47,36 C46.4477153,36 46,36.4477153 46,37 C46,37.5522847 46.4477153,38 47,38 L53.266,38 C53.41,38.339 53.556,38.677 53.701,39.015 C53.9883333,39.6816667 54.2703333,40.3433333 54.547,41 L49,41 C48.4477153,41 48,41.4477153 48,42 C48,42.5522847 48.4477153,43 49,43 L55.354,43 C56.966,47.182 57.892,51.186 56.24,55 Z" id="Shape"/></g></g></svg>
