<svg id="Capa_1"  enable-background="new 0 0 512 512" height="512" viewBox="0 0 512 512" width="512" xmlns="http://www.w3.org/2000/svg"><g><g><path d="m288.859 148.312-15.766-2.291-7.051-14.286c-1.899-3.851-5.747-6.243-10.041-6.244-.001 0-.001 0-.002 0-4.293 0-8.142 2.392-10.043 6.243l-7.05 14.287-15.766 2.291c-4.25.617-7.714 3.538-9.041 7.623-1.327 4.084-.241 8.483 2.834 11.48l11.408 11.121-2.693 15.702c-.726 4.232.981 8.43 4.455 10.954 1.963 1.426 4.26 2.151 6.573 2.151 1.78 0 3.569-.43 5.223-1.298l14.101-7.414 14.102 7.414c3.802 1.998 8.32 1.67 11.793-.852 3.475-2.523 5.183-6.72 4.457-10.955l-2.693-15.701 11.409-11.121c3.074-2.998 4.16-7.397 2.833-11.481s-4.792-7.006-9.042-7.623zm-17.099 20.875c-2.643 2.574-3.847 6.281-3.223 9.915l1.729 10.082-9.052-4.759c-1.633-.859-3.424-1.288-5.214-1.288s-3.58.429-5.211 1.287l-9.054 4.76 1.729-10.081c.624-3.635-.581-7.342-3.221-9.914l-7.325-7.14 10.124-1.471c3.647-.531 6.799-2.82 8.432-6.127l4.527-9.172 4.528 9.174c1.632 3.305 4.783 5.595 8.432 6.125l10.123 1.471z"/><path d="m504.5 426.704h-23.085l-28.451-55.515v-162.937l24.442-8.896c9.066-3.3 13.759-13.362 10.459-22.43l-10.641-29.235c-1.599-4.393-4.813-7.9-9.05-9.875-4.235-1.976-8.988-2.184-13.381-.584l-33.293 12.118v-50.49h25.525c6.927 0 12.562-5.635 12.562-12.563v-33.04c0-6.927-5.635-12.562-12.562-12.562h-382.05c-6.927 0-12.562 5.635-12.562 12.562v33.04c0 6.927 5.635 12.563 12.562 12.563h25.525v50.489l-33.295-12.118c-9.069-3.3-19.13 1.392-22.431 10.459l-10.641 29.235c-3.3 9.067 1.392 19.129 10.459 22.431l24.442 8.896v162.938l-28.45 55.514h-23.084c-4.142 0-7.5 3.358-7.5 7.5s3.358 7.5 7.5 7.5h15.398l-9.572 18.678c-1.889 3.686-.433 8.206 3.254 10.095 1.095.562 2.263.827 3.414.827 2.725 0 5.353-1.49 6.681-4.081l13.078-25.519h19.283v22.098c0 4.142 3.358 7.5 7.5 7.5s7.5-3.358 7.5-7.5v-22.098h19.283l13.078 25.519c1.889 3.688 6.409 5.144 10.095 3.254 3.687-1.889 5.143-6.409 3.254-10.095l-9.572-18.678h84.373v22.098c0 4.142 3.358 7.5 7.5 7.5s7.5-3.358 7.5-7.5v-22.098h92.91v22.098c0 4.142 3.357 7.5 7.5 7.5s7.5-3.358 7.5-7.5v-22.098h84.372l-9.572 18.678c-1.889 3.686-.432 8.206 3.254 10.095 3.689 1.89 8.206.432 10.096-3.254l13.078-25.519h19.282v22.098c0 4.142 3.357 7.5 7.5 7.5s7.5-3.358 7.5-7.5v-22.098h19.282l13.078 25.519c1.328 2.592 3.956 4.081 6.681 4.081 1.151 0 2.32-.266 3.415-.827 3.686-1.889 5.143-6.409 3.254-10.095l-9.572-18.678h15.395c4.143 0 7.5-3.358 7.5-7.5s-3.357-7.5-7.5-7.5zm-445.465 0h-11.595l11.595-22.626zm15 0v-22.626l11.595 22.626zm16.465-23.387-16.465-32.127v-157.478l16.465 5.993zm-50.776-218.056c-1.295-.472-1.966-1.909-1.494-3.205l10.641-29.235c.369-1.014 1.33-1.645 2.352-1.645.283 0 .572.048.853.151l57.132 20.794-12.351 33.934zm244.276 201.979c-4.143 0-7.5 3.358-7.5 7.5s3.357 7.5 7.5 7.5h18.455v24.464h-92.91v-24.464h39.455c4.142 0 7.5-3.358 7.5-7.5s-3.358-7.5-7.5-7.5h-54.562v-18.013h123.125v18.013zm-56.881-66.433h57.762v33.419h-57.762zm-22.815-15v-46.625h103.392v46.625zm233.661 120.897h-11.595l11.595-22.626zm0-55.515-16.465 32.127v-86.317c0-4.142-3.357-7.5-7.5-7.5s-7.5 3.358-7.5 7.5v109.705h-89.045v-24.464h2.545c6.927 0 12.563-5.635 12.563-12.562v-22.889c0-6.927-5.636-12.562-12.563-12.562h-20.119v-33.419h10.253c6.927 0 12.563-5.635 12.563-12.562v-51.5c0-6.927-5.636-12.562-12.563-12.562h-108.268c-6.927 0-12.562 5.635-12.562 12.562v51.5c0 6.927 5.635 12.562 12.562 12.562h10.253v33.419h-20.119c-6.927 0-12.562 5.635-12.562 12.562v22.889c0 6.927 5.635 12.562 12.562 12.562h2.545v24.464h-89.045v-204.309l25.811 30.76c2.01 2.396 4.982 3.751 8.056 3.751.602 0 1.208-.052 1.811-.158 3.683-.649 6.766-3.235 8.045-6.75l28.346-77.879c1.279-3.514.58-7.477-1.824-10.341-2.403-2.864-6.182-4.242-9.866-3.591l-41.2 7.265c-.063-.152-.117-.307-.187-.458-1.185-2.542-3.29-4.47-5.925-5.429l-13.065-4.755v-55.95h238.498c4.143 0 7.5-3.358 7.5-7.5s-3.357-7.5-7.5-7.5h-276.587v-28.164h377.174v28.164h-65.587c-4.143 0-7.5 3.358-7.5 7.5s3.357 7.5 7.5 7.5h27.5v55.949l-13.063 4.755c-2.637.958-4.741 2.887-5.927 5.43-.07.15-.124.305-.187.458l-41.199-7.264c-3.687-.653-7.464.726-9.868 3.59-2.403 2.864-3.103 6.827-1.823 10.341l28.346 77.88c1.279 3.514 4.362 6.101 8.045 6.75.604.106 1.208.158 1.811.158 3.073 0 6.046-1.355 8.055-3.75l25.812-30.76v59.604c0 4.142 3.357 7.5 7.5 7.5s7.5-3.358 7.5-7.5v-62.295l16.465-5.993v157.476zm-325.585-163.93 9.493-26.081 38.933-6.865-23.014 63.231zm287.24-.001-25.412 30.285-23.014-63.231 38.933 6.865zm15.525-1.203-12.351-33.934 57.132-20.795c.848-.308 1.562-.08 1.912.083.35.164.984.564 1.292 1.411l10.641 29.235c.472 1.295-.199 2.733-1.494 3.205zm37.82 220.649v-22.626l11.595 22.626z"/></g></g></svg>