<svg height="512" viewBox="0 0 60 60" width="512" xmlns="http://www.w3.org/2000/svg"><g id="Page-1" fill="none" fill-rule="evenodd"><g id="024---Barber-Shop" fill="rgb(0,0,0)" fill-rule="nonzero"><path id="Shape" d="m30 19c1.3306523.6282915 2.7788009.9690324 4.25 1 1.0095462.0030962 2.0082409-.2082317 2.93-.62 3.58-1.64 4.74-5.88 4.79-6 .1190236-.4397524-.0742235-.9043679-.47-1.13-.3928886-.2275312-.8897542-.16183-1.21.16-1.097357 1.0604405-2.8456975 1.0336117-3.91-.06-1.7815752-1.5604384-4.3770857-1.7638483-6.38-.5-1.9921144-1.277632-4.5869466-1.0946109-6.38.45-.5071112.5326443-1.2070583.8390685-1.9424115.8503527s-1.4443728-.273519-1.9675885-.7903527c-.3208382-.3449386-.8389087-.4191803-1.2437075-.1782286-.4047989.2409517-.5865379.7317466-.4362925 1.1782286 0 .17 1.21 4.41 4.79 6 2.08.97 4.5.84 7.18-.36zm-9-3.9c1.4149972.1639363 2.831293-.2959949 3.88-1.26 1.2853038-1.0942749 3.1746962-1.0942749 4.46 0 .3707811.3088335.9092189.3088335 1.28 0 1.2883405-1.0859925 3.1716595-1.0859925 4.46 0 1.0589405.9740621 2.4918354 1.4346354 3.92 1.26-.6222303 1.0591374-1.5396305 1.9139876-2.64 2.46-1.63.74-3.61.55-5.91-.58-.277569-.136003-.602431-.136003-.88 0-2.29 1.12-4.27 1.32-5.9.58-1.1138017-.5377516-2.0430118-1.3938777-2.67-2.46z"/><path id="Shape" d="m59 20.25c0-.27-.09-.52-.15-.78 0 0 0-.09 0-.14-.1893648-.6584442-.4940905-1.2780532-.9-1.83l-3.69-7.39c-.3516402-.70957372-1.0888413-1.14483606-1.88-1.11h-8.64c-2.389952-5.45691576-7.7826684-8.98232603-13.74-8.98232603s-11.350048 3.52541027-13.74 8.98232603h-8.64c-.75671772-.00149109-1.44947784.42422742-1.79 1.1l-4.51 9c-.79883119.2887644-1.32811881 1.0506177-1.32 1.9v2c0 1.1045695.8954305 2 2 2v33c0 1.1045695.8954305 2 2 2h52c1.1045695 0 2-.8954305 2-2v-2c1.1045695 0 2-.8954305 2-2v-3c0-1.1045695-.8954305-2-2-2v-22c1.1045695 0 2-.8954305 2-2v-3c.0064537-.7209354-.3756099-1.3895467-1-1.75zm-3 23.06-6 2.25v-2.87l6-2.25zm-10 7.69h-20v-16h22v14c-1.1045695 0-2 .8954305-2 2zm10-12.69-6 2.25v-2.87l6-2.25zm0-5-6 2.25v-2.87l6-2.25zm-10-11.31v1h-3.33c.403532-.6405139.7610969-1.3088596 1.07-2h2.54c-.1797532.3028656-.2763425.6478276-.28 1zm10.86-2h-7.72c.4733978-1.7419603 2.0548597-2.9510005 3.86-2.9510005s3.3866022 1.2090402 3.86 2.9510005zm-4.48-9 2.09 4.19c-.4801051-.1246677-.9739751-.1885012-1.47-.19-2.540182.0029024-4.8032738 1.6050913-5.65 4h-2.91c.7464383-2.614432.7464383-5.385568 0-8zm-22.38-9c7.1797017 0 13 5.82029825 13 13 0 7.1797017-5.8202983 13-13 13s-13-5.8202983-13-13c0-7.17970175 5.8202983-13 13-13zm-28 21v-2h14.26c.3089031.6911404.666468 1.3594861 1.07 2zm5.62-12h7.94c-.7464383 2.614432-.7464383 5.385568 0 8h-11.94zm1.38 47v-25h11v25zm47 0h-34v-25c0-1.1045695-.8954305-2-2-2h-11c-1.1045695 0-2 .8954305-2 2v25h-3v-33h14.85c2.8329832 3.1814065 6.8900539 5.001133 11.15 5.001133s8.3170168-1.8197265 11.15-5.001133h4.85c0 1.1045695.8954305 2 2 2v6h-22c-1.1045695 0-2 .8954305-2 2v16c0 1.1045695.8954305 2 2 2h20v1c0 1.1045695.8954305 2 2 2h8zm2-4h-10v-3h10zm-8-5v-1.31l6-2.25v3.56zm6-20.69-6 2.25v-3.56h6zm1-3.31h-9v-3h10v1 2z"/><path id="Shape" d="m29 41c.265803.0015368.5212812-.1028135.71-.29l2-2c.2536586-.2536586.3527235-.623374.259878-.969878-.0928454-.3465041-.3634959-.6171546-.71-.71-.346504-.0928455-.7162194.0062194-.969878.259878l-2 2c-.1893127.1877666-.2957983.4433625-.2957983.71s.1064856.5222334.2957983.71c.1887188.1871865.444197.2915368.71.29z"/><path id="Shape" d="m35.29 37.29-7 7c-.1893127.1877666-.2957983.4433625-.2957983.71s.1064856.5222334.2957983.71c.1877666.1893127.4433625.2957983.71.2957983s.5222334-.1064856.71-.2957983l7-7c.3921222-.3921222.3921222-1.0278778 0-1.42s-1.0278778-.3921222-1.42 0z"/><path id="Shape" d="m16 35h-3c-1.1045695 0-2 .8954305-2 2v3c0 1.1045695.8954305 2 2 2h3c1.1045695 0 2-.8954305 2-2v-3c0-1.1045695-.8954305-2-2-2zm-3 5v-3h3v3z"/><circle id="Oval" cx="17" cy="46" r="1"/></g></g></svg>