<svg fill="#3E7FCA" id="Capa_1"  enable-background="new 0 0 512 512" height="512" viewBox="0 0 512 512" width="512" xmlns="http://www.w3.org/2000/svg"><g><path d="m257.363 105.442c-82.177 0-149.033 66.856-149.033 149.033s66.856 149.032 149.033 149.032 149.033-66.855 149.033-149.032-66.856-149.033-149.033-149.033zm0 283.066c-73.906 0-134.033-60.127-134.033-134.032 0-73.906 60.127-134.033 134.033-134.033s134.033 60.127 134.033 134.033c0 73.905-60.127 134.032-134.033 134.032z"/><path d="m302.371 188.206c-16.95-1.554-33.438 4.696-45.007 16.626-11.571-11.93-28.063-18.177-45.008-16.626-26.447 2.424-47.958 24.229-50.039 50.722-1.237 15.757 3.991 30.766 14.721 42.263 7.158 7.671 46.627 37.182 69.516 54.09 3.233 2.389 7.021 3.583 10.81 3.583 3.788-.001 7.577-1.194 10.809-3.583 7.58-5.6 15.22-11.287 22.093-16.447 3.313-2.486 3.982-7.189 1.496-10.501-2.487-3.313-7.188-3.982-10.5-1.495-6.844 5.138-14.452 10.801-22.002 16.379-1.134.838-2.658.838-3.793 0-37.119-27.42-62.97-47.445-67.463-52.26-7.825-8.385-11.637-19.342-10.733-30.855 1.516-19.304 17.187-35.192 36.453-36.958 14.812-1.352 29.152 5.44 37.414 17.74 1.393 2.073 3.727 3.317 6.226 3.317s4.833-1.244 6.226-3.318c8.262-12.298 22.6-19.095 37.413-17.739 19.266 1.765 34.938 17.652 36.454 36.957.904 11.514-2.908 22.471-10.732 30.856-1.157 1.239-5.133 4.905-18.759 15.526-3.267 2.546-3.852 7.259-1.305 10.525 2.547 3.268 7.258 3.853 10.526 1.305 14.876-11.594 18.827-15.324 20.504-17.122 10.73-11.497 15.958-26.506 14.721-42.264-2.082-26.493-23.595-48.299-50.041-50.721z"/><path d="m457.51 98.111 4.983-4.983c6.206-6.205 9.624-14.456 9.624-23.232s-3.418-17.027-9.624-23.232c-6.206-6.206-14.457-9.624-23.232-9.624-8.777 0-17.027 3.418-23.233 9.623l-5.341 5.341c-44.771-34.041-98.139-52.004-154.687-52.004-57.875 0-112.479 18.842-157.908 54.489-3.259 2.557-3.828 7.271-1.271 10.53 2.558 3.26 7.272 3.827 10.53 1.271 42.762-33.555 94.164-51.29 148.649-51.29 52.546 0 102.166 16.482 143.969 47.721l-33.642 33.643c-32.114-22.199-69.647-33.898-108.963-33.898-105.875 0-192.011 86.136-192.011 192.011s86.136 192.011 192.011 192.011 192.011-86.136 192.011-192.011c0-40.711-12.466-79.328-36.12-112.108l33.572-33.572c32.391 41.965 50.173 94.009 50.173 147.203 0 64.374-25.068 124.895-70.587 170.413-45.519 45.519-106.039 70.587-170.413 70.587s-124.894-25.068-170.413-70.587c-45.519-45.518-70.587-106.039-70.587-170.413 0-61.338 23.058-119.779 64.925-164.558 2.829-3.025 2.669-7.771-.357-10.601-3.025-2.83-7.771-2.669-10.6.356-44.474 47.569-68.968 109.648-68.968 174.803 0 68.38 26.628 132.668 74.981 181.02 48.352 48.351 112.639 74.98 181.019 74.98s132.668-26.629 181.02-74.98c48.351-48.352 74.98-112.64 74.98-181.02 0-57.147-19.328-113.045-54.49-157.889zm-60.082 48.134c24.17 31.232 36.946 68.657 36.946 108.23 0 97.605-79.407 177.011-177.011 177.011s-177.01-79.406-177.01-177.01 79.406-177.011 177.01-177.011c38.247 0 74.661 12.008 105.302 34.724 2.985 2.215 7.142 1.907 9.77-.721l54.198-54.199c3.372-3.372 7.856-5.229 12.627-5.229 4.77 0 9.253 1.857 12.626 5.229v.001c3.373 3.372 5.23 7.856 5.23 12.626s-1.857 9.253-5.23 12.625l-53.83 53.831c-2.67 2.669-2.938 6.908-.628 9.893z"/></g></svg>