<svg id="Outline_expand" enable-background="new 0 0 512 512" height="512" viewBox="0 0 512 512" width="512" xmlns="http://www.w3.org/2000/svg"><g id="_20_copy_3"><g><path d="m128 128h16v16h-16z"/><path d="m192 128h16v16h-16z"/><path d="m192 178h-16c0 1.41-3.037 4-8 4s-8-2.59-8-4h-16c0 11.215 10.542 20 24 20s24-8.785 24-20z"/><path d="m160 328h16v16h-16z"/><path d="m160 368h16v16h-16z"/><path d="m208 16h-8v6.826l-15.111 50.369c-4.003 13.575-16.497 22.871-30.65 22.805h-48.239c-1.105 0-2-.895-2-2v-40c.014-12.145 9.855-21.986 22-22h58v-16h-58c-20.977.024-37.976 17.023-38 38v40c.001 6.009 3.003 11.621 8 14.959v3.041h-6c-9.936.012-17.988 8.064-18 18v20c.012 9.936 8.064 17.988 18 18h6v13.459c-.049 14.407 8.098 27.589 21.006 33.988l9.21 4.6-13.1 39.316-3.783 3.242-68.97 26.527c-14.636 5.695-24.299 19.763-24.363 35.468v67.4h16v-67.4c.038-9.09 5.63-17.232 14.1-20.53l26.95-10.364-14.257 12.22c-3.354 2.876-3.741 7.927-.864 11.281.84.979 1.903 1.74 3.1 2.219l31.928 12.774-12.112 24.222c-1.284 2.568-1.093 5.627.5 8.016l39.707 59.562h-33.052v-16h-16v24c0 4.418 3.582 8 8 8h112v40h-148c-6.624-.007-11.993-5.376-12-12v-60h-16v60c.018 15.457 12.543 27.982 28 28h252c4.418 0 8-3.582 8-8-.018-23.76-13.184-45.559-34.206-56.633l-5.794-63.73v-47.637h80v40h-24c-4.418 0-8 3.582-8 8 0 .242.011.484.033.725l7.173 78.9c.011.124.024.247.038.37h-7.244v16h168v16h-160v16h168c4.418 0 8-3.582 8-8v-31.995c0-4.418-3.582-8-8-8h-16.285c-2.006-13.767-13.802-23.983-27.715-24h-4v-44.995l54.021-61.737c1.276-1.458 1.979-3.33 1.979-5.268v-16c0-4.418-3.582-8-8-8h-1.371c4.244-12.015-1.638-25.252-13.4-30.154 2.49-5.958 8.313-9.84 14.771-9.846v-16c-15.016.019-28.007 10.46-31.255 25.121-12.638 4.011-19.631 17.507-15.62 30.144.078.246.16.491.246.735h-65.371c-4.418 0-8 3.582-8 8v16c0 1.938.703 3.81 1.979 5.268l54.021 61.737v45h-4c-6.421-.006-12.648 2.205-17.627 6.26l5.594-61.535c.403-4.4-2.837-8.293-7.237-8.697-.243-.022-.487-.033-.73-.033h-40v-48c0-.029 0-.059 0-.088s0-.085 0-.127v-.062c0-.053 0-.105-.007-.158v-.033c0-.063-.008-.127-.013-.19v-.008c-.022-.263-.055-.522-.1-.777l-3.8-22.8c-1.944-11.853-9.395-22.082-20.08-27.568v-26.189c-.012-9.936-8.064-17.988-18-18h-28c-9.936.012-17.988 8.064-18 18v26.189c-9.737 5.002-16.832 13.973-19.455 24.6l-29.656-25.42-13.175-39.525 9.453-4.786c12.808-6.439 20.875-19.566 20.833-33.902v-13.156h6c9.936-.012 17.988-8.064 18-18v-20c-.012-9.936-8.064-17.988-18-18h-6v-68c-.018-15.457-12.543-27.982-28-28zm32 112h6c1.105 0 2 .895 2 2v20c0 1.105-.895 2-2 2h-6zm-144 24h-6c-1.105 0-2-.895-2-2v-20c0-1.105.895-2 2-2h6zm157.182 273.365c-4.335-.909-8.753-1.367-13.182-1.365h-25.052l33.537-50.3zm-10.138-93.165 4.956-1.983v11.894zm-42.83-254.407 13.693-45.641c5.812.944 10.085 5.959 10.093 11.848v36h-24.5c.253-.727.491-1.462.714-2.207zm-76.053 123.344c-7.473-3.705-12.189-11.337-12.161-19.678v-69.459h42.239c13.695.058 26.756-5.769 35.861-16h33.9v85.156c.023 8.299-4.647 15.899-12.062 19.627l-38.574 19.533c-3.391 1.707-7.388 1.718-10.788.028zm43.839 85.248-25.652-17.1-12.826-8.551 11.151-33.452 14.747 7.373c7.932 3.946 17.26 3.923 25.172-.064l14.692-7.44 11.2 33.583zm36.428-4.385-3.332 17.5-14.663-5.5zm-53.154 12.469-16.019 6.865-3.829-20.1zm-10.993 129.531-43.05-64.575 13.924-27.847c1.976-3.952.375-8.757-3.577-10.733-.198-.099-.401-.19-.607-.273l-27.736-11.094 35.49-30.419 27.608 144.941zm37.1 0h-18.761l-20.3-106.576 30.346-13.006 29.392 11.022zm16.287 0 27.608-144.941 28.092 24.078-1.237 7.418c-.046.255-.079.514-.1.777v.008c0 .063-.009.127-.013.19v.033c0 .053 0 .105-.007.158v.062.127s0 .059 0 .088v.986l-18.971 7.588c-4.102 1.641-6.098 6.297-4.457 10.399.082.206.173.409.273.607l13.924 27.847-43.061 64.575zm93.666 56h-79.334v-40h32c23.412.03 43.399 16.92 47.333 40zm.666-246c0-1.105.895-2 2-2h28c1.105 0 2 .895 2 2v22h-32zm-22.556 70 2.269-13.616c1.741-10.624 10.936-18.413 21.701-18.384h29.172c10.765-.028 19.959 7.761 21.7 18.384l2.27 13.616zm119.415 142.181c-.089 1.032-.955 1.823-1.991 1.819h-14.868v-48h-16v48h-14.868c-1.036.004-1.902-.787-1.991-1.819l-6.381-70.181h62.48zm79.141-174.181c4.418 0 8 3.582 8 8s-3.582 8-8 8-8-3.582-8-8c.005-4.416 3.584-7.995 8-8zm-80 36.994v-4.994h96v4.994l-9.63 11.006h-76.74zm60 131.006c5.084.006 9.614 3.209 11.314 8h-46.628c1.7-4.791 6.23-7.994 11.314-8zm-12-76.148-24.37-27.852h48.74z"/></g></g></svg>