<?xml version="1.0" encoding="UTF-8"?>
<svg xmlns="http://www.w3.org/2000/svg" viewBox="0 0 512 512" width="512" height="512"><g id="OUTLINE"><path d="M211.03906,287.89258C195.37207,280.5625,176.06006,277,152,277c-24.06055,0-43.37256,3.5625-59.03906,10.89258-16.98682,7.94726-32.24512,21.22949-45.35059,39.47949C33.7417,346.68457,27,365.207,27,384a82.56891,82.56891,0,0,0,6.29828,31.20654q-2.91111,9.98292-4.89545,20.30225L20.0708,479.252l7.8584,1.4961,8.332-43.74317c.68121-3.57617,1.47192-7.11743,2.33209-10.634a136.629,136.629,0,0,0,9.017,14.25708c13.10547,18.25,28.36377,31.53223,45.35059,39.47949C108.62793,487.4375,127.93994,491,152,491c24.06055,0,43.37256-3.5625,59.03906-10.89258,16.98682-7.94726,32.24512-21.22949,45.35059-39.47949C270.2583,421.31543,277,402.793,277,384s-6.7417-37.31543-20.61035-56.62793C243.28418,309.12207,228.02588,295.83984,211.03906,287.89258ZM269,384a72.80119,72.80119,0,0,1-3.72925,22.75562,242.51532,242.51532,0,0,0-133.80939-22.78394q7.14075-9.82654,15.1681-18.95947a236.05977,236.05977,0,0,1,122.34307,17.78955C268.97937,383.20117,269,383.60059,269,384Zm-43.65924,15.88672a123.40195,123.40195,0,0,0-87.00867,82.67187,146.13,146.13,0,0,1-21.32879-2.88818,116.10257,116.10257,0,0,1,63.42443-88.331A233.683,233.683,0,0,1,225.34076,399.88672ZM154.77039,356.1394A265.11506,265.11506,0,0,1,181.301,332.01758a235.44191,235.44191,0,0,1,76.321,12.09912,85.82688,85.82688,0,0,1,10.61993,29.68872A244.06926,244.06926,0,0,0,154.77039,356.1394Zm95.12121-24.10131c.39551.55078.76538,1.09814,1.14838,1.647a243.59284,243.59284,0,0,0-59.32019-9.51587,263.95717,263.95717,0,0,1,31.78747-19.50488A122.97546,122.97546,0,0,1,249.8916,332.03809ZM35,384c0-17.05957,6.25049-34.05664,19.1084-51.96191,12.29785-17.124,26.51025-29.53907,42.24219-36.89942,10.92779-5.1123,23.88867-8.25561,39.31976-9.51025A220.24166,220.24166,0,0,0,37.45642,402.42993,71.61411,71.61411,0,0,1,35,384Zm6.79688,30.73853a212.07834,212.07834,0,0,1,112.43579-129.718,163.5275,163.5275,0,0,1,32.12384,3.16406A257.058,257.058,0,0,0,55.82556,438.28931c-.575-.76929-1.15027-1.53809-1.71716-2.3274A117.29094,117.29094,0,0,1,41.79688,414.73853ZM61.83612,445.7959A249.12723,249.12723,0,0,1,198.25281,291.40674a86.0484,86.0484,0,0,1,17.72229,8.19189A273.13362,273.13362,0,0,0,83.209,465.27881,112.726,112.726,0,0,1,61.83612,445.7959Zm28.43842,23.92334a264.46667,264.46667,0,0,1,35.03192-76.877A237.52413,237.52413,0,0,1,165.639,390.4707a124.3326,124.3326,0,0,0-56.44837,87.20459,91.14018,91.14018,0,0,1-12.8396-4.814Q93.2728,471.42139,90.27454,469.71924ZM146.63641,482.929a115.31977,115.31977,0,0,1,94.17383-77.91358q10.882,4.03455,21.43689,9.16895a123.08033,123.08033,0,0,0-87.98132,67.58618A189.40576,189.40576,0,0,1,152,483C150.1792,483,148.39862,482.97119,146.63641,482.929ZM249.8916,435.96191c-12.29785,17.124-26.51025,29.53907-42.24219,36.89942a99.7049,99.7049,0,0,1-23.63934,7.41553,115.06759,115.06759,0,0,1,73.94379-56.9773A129.30982,129.30982,0,0,1,249.8916,435.96191Z"/><path d="M43.85986,205.19531a32.31819,32.31819,0,0,0,26.69062-6.39062L68.022,222.8252a4.0125,4.0125,0,0,0-.022.41894c0,24.67285,36.897,44,84,44s84-19.32715,84-44a4.0125,4.0125,0,0,0-.022-.41894L219.98413,70.8833c-.3244-12.12622-16.92206-21.92407-43.70807-25.89892l-4.3537-21.76856A3.99993,3.99993,0,0,0,168,20H136a3.99993,3.99993,0,0,0-3.92236,3.21582l-4.3537,21.76856c-26.786,3.97485-43.38367,13.7727-43.70807,25.89892L71.846,186.49731,67.63428,190.709a24.40723,24.40723,0,0,1-39.92041-8.19433l-7.42774,2.9707A32.32006,32.32006,0,0,0,43.85986,205.19531ZM198.65918,91.96a48.40045,48.40045,0,0,0,14.64209-8.144l.87872,8.3479L77.11768,229.22559a17.1833,17.1833,0,0,1-1.1167-5.78321l3.50439-33.291,92.01557-92.01612A117.095,117.095,0,0,0,198.65918,91.96Zm28.22321,137.26563L157.65686,160l18.34332-18.343,48.49445,48.49439,3.50439,33.291A17.18345,17.18345,0,0,1,226.88239,229.22559Zm-45.22547-93.22535,33.60053-33.60058,7.90619,75.10718ZM109.6568,208l18.34351-18.34326L192.00073,253.658a136.49117,136.49117,0,0,1-31.353,5.3335ZM81.38031,236.27637,104,213.65674l45.55664,45.55713C119.02374,258.729,92.3775,249.2251,81.38031,236.27637Zm119.02118,14.46875L133.657,184l18.34308-18.34326,70.61957,70.61963C217.843,241.90088,210.12231,246.87622,200.40149,250.74512ZM139.2793,28h25.4414l6.647,33.23535a72.48861,72.48861,0,0,1-38.73536,0ZM126.04608,53.37354l-1.96844,9.84228a4.00081,4.00081,0,0,0,2.65722,4.5791A79.98732,79.98732,0,0,0,152,71.86816a79.98732,79.98732,0,0,0,25.26514-4.07324,4.00081,4.00081,0,0,0,2.65722-4.5791l-1.96844-9.84228C195.3338,56.44873,212,63.26562,212,71.24414c0,4.48926-6.03711,9.43359-16.14941,13.22559C184.2002,88.83789,168.62744,91.24414,152,91.24414s-32.2002-2.40625-43.85059-6.77441C98.03711,80.67773,92,75.7334,92,71.24414,92,63.26562,108.6662,56.44873,126.04608,53.37354ZM90.691,83.88989c5.6239,4.81616,14.37335,8.54468,24.64349,11.11939L86.48352,123.85986Zm-5.53845,52.61426,39.53076-39.53027A163.18369,163.18369,0,0,0,152,99.24414q3.66047,0,7.25238-.15381l-78.416,78.41651Z"/><path d="M475.72992,296.01489c18.509-56.552,1.92084-84.63159-22.72913-103.66577a113.71847,113.71847,0,0,0,16.58612-28.29443c7.48829-18.01465,14.6626-47.3711,6.31788-84.92285-4.19532-18.87793-17.48243-35.3125-37.41407-46.27637a108.55371,108.55371,0,0,0-62.75-12.36817c-21.28271,2.33692-39.52051,11.03711-52.74218,25.16211C307.73779,61.95215,300,84.27539,300,112c0,28.29883,6.14209,50.40137,16.12646,68.26074C308.09229,193.40332,298,212.97559,292.97412,234.85742c-6.32666,27.54883-3.21387,52.06153,9.25342,72.85547a97.07323,97.07323,0,0,0,10.22571,13.92822c-7.58637,15.89185-16.47107,39.17334-18.381,64.02979-2.39258,31.13965,6.53808,57.27148,26.54345,77.67187,15.00244,15.29883,36.30811,25.25684,59.99121,28.041a116.04569,116.04569,0,0,0,13.54688.79785c18.16455,0,35.52832-4.34473,49.9458-12.63574,30.37573-17.46631,42.08508-49.06152,32.31744-86.86817a93.7128,93.7128,0,0,0,13.5019-32.55468C493.26349,343.76807,493.02344,320.23438,475.72992,296.01489ZM308,112c0-47.60645,25.6499-78.84375,68.61377-83.56055a100.38168,100.38168,0,0,1,58.021,11.42578c17.88818,9.83985,29.77148,24.40137,33.46044,41.00293,7.85206,35.333,1.20606,62.88184-5.75244,79.76954a106.13822,106.13822,0,0,1-15.84063,27.00219c-7.90424-5.3938-16.34479-10.09839-24.54706-14.66919-23.25488-12.96-45.22022-25.20019-51.439-49.1875-8.57568-33.07812,19.9336-43.57715,21.15137-44.00781l-2.63477-7.55371a47.284,47.284,0,0,0-17.063,11.4707C364.77,91.31152,357.33008,104.79883,362.772,125.791c7.07813,27.30078,31.58692,40.959,55.28907,54.168,37.04113,20.64209,72.09191,40.1792,51.67578,108.457-.90583-1.04761-1.83448-2.09522-2.81006-3.14258-15.65186-16.80078-37.33985-28.43653-60.30127-40.75489C358.13818,218.50488,308,191.60645,308,112ZM440.11182,472.61133c-13.646,7.84668-29.7295,11.61621-45.92969,11.61523-25.32422-.002-50.92236-9.21875-67.85449-26.48535-17.4737-17.81787-41.2464-58.11426-7.97815-129.84375C336.85315,346.176,364.68768,362.313,401.502,376.0459A477.568,477.568,0,0,0,468.864,395.45752C480.44232,441.4314,455.95807,463.499,440.11182,472.61133Zm42.03027-114.39356a86.963,86.963,0,0,1-11.94189,29.34571c-18.08692-3.72657-127.78907-28.38379-161.11133-83.96387-10.77051-17.96484-23.144-56.498,11.7417-115.64258,20.30761,30.50684,52.37548,47.71094,82.01269,63.61035,22.36084,11.99707,43.48145,23.32813,58.23,39.15918C479.96582,311.00586,487.05469,333.71289,482.14209,358.21777Z"/><path d="M399.62988,211.74805l54.3545,31.707,4.03124-6.91016-54.35449-31.707a146.75367,146.75367,0,0,1-59.97021-66.38477,60.80092,60.80092,0,0,1,15.40674-71.34863,42.68376,42.68376,0,1,1,55.43213,64.91406l-1.09083.90918,5.12208,6.14454,1.09033-.90821A50.68382,50.68382,0,1,0,353.8291,61.084a69.172,69.172,0,0,0-17.42139,80.67969A154.71133,154.71133,0,0,0,399.62988,211.74805Z"/><path d="M377.03369,302.0459l-30.42383-10.86621a68.42147,68.42147,0,0,1-23.3999-14.125l-5.41308,5.89062a76.364,76.364,0,0,0,26.12255,15.76758l30.42383,10.86621A68.26732,68.26732,0,0,1,413.72314,345.669l7.27051-3.3379A76.20212,76.20212,0,0,0,377.03369,302.0459Z"/><path d="M339.52441,415.49219l-9.13232-14.61231-6.78418,4.24024,9.13232,14.6123c11.54053,18.46387,48.36182,36.94043,77.09131,36.94043a52.10437,52.10437,0,0,0,14.26758-1.82715l-2.19824-7.6914C396.77148,454.333,351.34863,434.41016,339.52441,415.49219Z"/><path d="M419.11572,409.78223c-3.22558-.98926-6.59424-1.96485-10.16015-2.99707-27.54786-7.97754-61.83252-17.90625-80.32569-48.19629l-6.82812,4.168c20.1123,32.94238,57.5747,43.791,84.92822,51.71191,3.53564,1.02441,6.87451,1.99121,10.04,2.96191,24.94922,7.65039,26.19238,28.834,26.2334,29.73243L447,447l3.99756-.14551a39.33423,39.33423,0,0,0-4.41162-15.14551C442.81689,424.39355,434.9917,414.65039,419.11572,409.78223Z"/><path d="M380.80469,270.15625c-17.23291-9.24512-35.05225-18.80469-50.59522-30.89746l-4.91211,6.31445c16.07666,12.50781,34.19922,22.23047,51.72559,31.63281,22.36035,11.99707,43.481,23.32813,58.22949,39.15918,8.48291,9.10547,14.65479,18.86231,18.34424,29l7.51758-2.73632c-4.05811-11.15039-10.79-21.82227-20.0083-31.7168C425.4541,294.11133,403.76611,282.47559,380.80469,270.15625Z"/></g></svg>
