<svg height="512" viewBox="0 0 512 512" width="512" xmlns="http://www.w3.org/2000/svg"><g id="Outline"><path d="m207.069 164.583a32.041 32.041 0 0 1 -7.306-17.827l-6.18-74.183 2.835-1.418a8 8 0 0 0 4.422-7.155v-24a24.027 24.027 0 0 0 -24-24h-64a24.027 24.027 0 0 0 -24 24v24a8 8 0 0 0 4.422 7.155l16 8a8 8 0 0 0 7.156 0l12.422-6.211 12.422 6.211a8 8 0 0 0 7.156 0l12.422-6.211 12.422 6.211a7.748 7.748 0 0 0 4.873.726l5.682 68.2a48.041 48.041 0 0 0 10.958 26.742 129.3 129.3 0 0 1 16.425 25.177h-132.723a129.383 129.383 0 0 1 16.428-25.178 47.713 47.713 0 0 0 10.957-26.738l4.576-54.923-15.945-1.328-4.576 54.925a31.8 31.8 0 0 1 -7.3 17.819 145.275 145.275 0 0 0 -23.88 40.494q-.627 1.593-1.2 3.187a145.316 145.316 0 0 0 -8.7 49.592v34.99a144.1 144.1 0 0 0 2.886 28.727c.724 3.627 1.626 7.343 2.682 11.052a128.7 128.7 0 0 1 4.955 35.381 128.7 128.7 0 0 1 -4.955 35.39 144.742 144.742 0 0 0 -5.565 39.77v20.84a32.036 32.036 0 0 0 32 32h128a32.037 32.037 0 0 0 32-32v-20.84a144.791 144.791 0 0 0 -5.568-39.778 128.878 128.878 0 0 1 0-70.771c1.053-3.7 1.955-7.412 2.672-11 .592-2.877 1.1-5.805 1.5-8.689a144.822 144.822 0 0 0 1.4-20.083v-34.989a145.654 145.654 0 0 0 -33.771-93.267zm-42.651-107.738a8 8 0 0 0 -7.156 0l-12.422 6.211-12.422-6.211a8 8 0 0 0 -7.156 0l-12.422 6.211-8-4v-19.056a8.009 8.009 0 0 1 8-8h64a8.009 8.009 0 0 1 8 8v19.056l-8 4zm-99.578 201.005a129.314 129.314 0 0 1 6.939-41.85h146.121a129.115 129.115 0 0 1 6.941 41.85v34.99a128.913 128.913 0 0 1 -1.244 17.871c-.06.428-.136.86-.2 1.289h-157.121a128.7 128.7 0 0 1 -1.436-19.16zm160 206.15a16.019 16.019 0 0 1 -16 16h-128a16.019 16.019 0 0 1 -16-16v-20.84a128.86 128.86 0 0 1 4.951-35.381 144.693 144.693 0 0 0 5.569-39.779 144.7 144.7 0 0 0 -5.566-39.771c-.022-.076-.041-.153-.063-.229h150.217c-.02.074-.039.148-.06.222a144.868 144.868 0 0 0 0 79.555 128.816 128.816 0 0 1 4.952 35.383z"/><path d="m101.181 233.491-15.719-2.982a135.985 135.985 0 0 0 -2.124 17l15.971.974a119.668 119.668 0 0 1 1.872-14.992z"/><path d="m83.086 264h16v32h-16z"/><path d="m136.84 131.156v-19.156h-16v19.156a86.994 86.994 0 0 1 -14.656 48.406l13.312 8.876a102.934 102.934 0 0 0 17.344-57.282z"/><path d="m152.84 112v19.156a102.941 102.941 0 0 0 17.344 57.282l13.312-8.876a86.991 86.991 0 0 1 -14.656-48.406v-19.156z"/><path d="m136.84 352h16v80h-16z"/><path d="m96.84 352h16v80h-16z"/><path d="m176.84 352h16v80h-16z"/><path d="m462.752 195.7-2.359-28.36a8 8 0 0 0 -7.973-7.34h-176a8 8 0 0 0 -7.973 7.337l-2.359 28.363a359.065 359.065 0 0 0 14.645 135.537 343.741 343.741 0 0 1 9.48 38.647 344.784 344.784 0 0 1 4.944 39.493l5.281 79.16a8 8 0 0 0 7.982 7.463h112a8 8 0 0 0 7.982-7.468l5.281-79.16a343.726 343.726 0 0 1 14.423-78.14 359.285 359.285 0 0 0 15.832-99.079q.062-3.3.062-6.6c0-9.869-.42-19.914-1.248-29.853zm-180.719 1.326 1.749-21.026h161.276l1.749 21.024c.749 8.984 1.135 18.049 1.176 26.976h-167.129c.046-8.965.431-18.006 1.179-26.977zm150.78 129.5a359.7 359.7 0 0 0 -15.095 81.782l-4.782 71.692h-97.036l-4.782-71.689a360.614 360.614 0 0 0 -5.175-41.331 359.84 359.84 0 0 0 -9.921-40.452 343.313 343.313 0 0 1 -14.865-86.528h166.526a343.3 343.3 0 0 1 -14.87 86.526z"/><path d="m372.42 320v-48a8 8 0 0 0 -8-8h-48a8 8 0 0 0 -8 8v48a8 8 0 0 0 8 8h48a8 8 0 0 0 8-8zm-16-8h-32v-32h32z"/><path d="m370.077 346.343a8 8 0 0 0 -11.314 0l-32 32a8 8 0 0 0 0 11.314l32 32a8 8 0 0 0 11.314 0l32-32a8 8 0 0 0 0-11.314zm-5.657 58.343-20.687-20.686 20.687-20.686 20.686 20.686z"/><path d="m388.42 320h16v16h-16z"/><path d="m412.42 264h16v16h-16z"/><path d="m332.42 440h16v16h-16z"/><path d="m380.42 432h16v16h-16z"/></g></svg>