<svg id="a" height="512" viewBox="0 0 512 512" width="512" xmlns="http://www.w3.org/2000/svg"><path d="m212.038 129.957c.099.007-.099-.013 0 0z"/><path d="m112.081 415.5c27.6 0 54.942-12.714 75.017-34.883 16.085-17.763 25.354-39.592 26.355-61.378h12.564c2.443 12.775 12.724 22.802 25.638 24.875v12.788h-8.901c-2.761 0-5 2.239-5 5s2.239 5 5 5h35.018c2.761 0 5-2.239 5-5s-2.239-5-5-5h-16.117v-12.803c14.789-2.415 26.113-15.263 26.113-30.708 0-8.408-3.361-16.043-8.805-21.65l69.402-93.437 9.987 24.953c-34.671 15.859-58.817 50.841-58.817 91.353 0 55.37 45.102 100.417 100.539 100.417 27.452 0 54.647-12.646 74.614-34.695 18.998-20.979 28.438-47.66 25.899-73.203-2.454-24.696-13.543-47.757-31.226-64.938-18.583-18.055-43.19-27.999-69.288-27.999-11.343 0-22.252 1.888-32.431 5.362l-5.117-12.786 9.008-1.86.045.135c1.049 3.167 3.99 5.289 7.322 5.289h.029l63.58-.219c4.241-.014 7.69-3.475 7.69-7.714v-67.66c0-2.472-1.198-4.812-3.204-6.257-2.007-1.447-4.607-1.844-6.953-1.061l-77.513 25.821c-4.029 1.343-6.221 5.713-4.886 9.744l.54 1.631-11.247 3.207-7.134-17.823h15.862c7.59 0 14.521-3.842 18.539-10.277 4.014-6.428 4.424-14.331 1.097-21.139-3.639-7.447-11.348-12.258-19.641-12.258h-14.839v-3.417c0-3.534-2.875-6.41-6.41-6.41h-35.962c-8.276 0-15.009 6.733-15.009 15.008s6.733 15.009 15.009 15.009h35.962c3.535 0 6.41-2.875 6.41-6.41v-3.781h14.839c4.5 0 8.682 2.609 10.656 6.648 1.802 3.689 1.58 7.971-.595 11.453-2.179 3.49-5.938 5.574-10.057 5.574h-21.37c-2.084 0-4.026 1.03-5.194 2.755s-1.404 3.91-.63 5.846l3.671 9.172-113.636 71.789-34.449-66.887 32.045-.452c3.757-.053 7.345-1.692 9.844-4.498 2.487-2.792 3.697-6.52 3.321-10.231-.93-9.146-8.103-16.367-17.231-17.54l-21.446-1.465c-2.992-.174-5.839-1.291-8.321-2.914-5.2-3.121-11.672-7.004-17.512-8.59-2.77-.752-5.63-1.198-8.503-1.325-6.504-.279-12.661 2.064-17.355 6.618-4.684 4.545-7.318 10.894-7.226 17.417.183 12.961 10.795 23.38 23.73 23.379l17.485-.244 27.568 53.527-22.958 21.487c-18.108-15.686-41.119-24.267-65.42-24.267-55.736 0-101.081 45.29-101.081 100.959s45.345 100.959 101.081 100.959zm256.311-167.159 16.849 42.097-30.49-33.51c4.201-3.333 8.765-6.229 13.641-8.587zm48.212 76.567c1.151-1.713 2.015-3.627 2.568-5.669h53.867c-1.233 17.581-8.719 33.458-20.257 45.43zm28.766 46.474c-11.077 8.742-24.733 14.347-39.629 15.481l-.095-54.111c1.186-.321 2.325-.751 3.409-1.282l36.314 39.911zm-26.199-62.143c-.386-1.426-.916-2.794-1.603-4.069l39.935-36.244c8.897 11.246 14.553 25.15 15.556 40.313h-53.889zm-8.481-11.331c-1.551-.956-3.243-1.696-5.044-2.183l.097-54.399c17.424 1.328 33.152 8.774 45.038 20.197zm-.835 16.331c0 5.072-4.134 9.198-9.216 9.198s-9.216-4.126-9.216-9.198 4.134-9.198 9.216-9.198 9.216 4.126 9.216 9.198zm-27.748 5c.324 1.195.759 2.342 1.296 3.434l-40.502 36.759c-8.917-11.203-14.606-25.067-15.667-40.192h54.873zm-54.895-10c1.166-17.627 8.621-33.556 20.145-45.578l36.914 40.571c-.947 1.541-1.681 3.221-2.164 5.007zm62.773 20.965c1.712 1.144 3.623 2.003 5.661 2.552l.095 54.199c-17.832-1.062-33.952-8.538-46.095-20.141zm5.672-40.65-17.98-44.924c5.747-1.858 11.8-3.023 18.067-3.396l-.086 48.32zm-30.986-50.507c-28.131 13.316-47.639 41.944-47.639 75.048 0 45.769 37.28 83.004 83.104 83.004s83.104-37.236 83.104-83.004-37.28-83.005-83.104-83.005c-9.146 0-17.943 1.505-26.18 4.244l-2.593-6.479c9.025-3.021 18.679-4.662 28.709-4.662 23.481 0 45.614 8.939 62.32 25.17 15.992 15.538 26.022 36.404 28.243 58.754 2.259 22.739-6.255 46.613-23.361 65.502-18.075 19.959-42.569 31.407-67.202 31.407-49.923 0-90.539-40.561-90.539-90.417 0-36.31 21.546-67.684 52.539-82.056l2.599 6.493zm75.527-101.137v62.212l-59.65.205-12.695-38.318zm-78.867 36.209 7.034 21.233-9.617 1.986-8.077-20.18 10.659-3.039zm-30.51-57.602h-32.372c-2.762 0-5.009-2.247-5.009-5.009s2.247-5.008 5.009-5.008h32.372zm-175.217 36.56c-7.607.121-13.823-5.958-13.93-13.519-.054-3.838 1.434-7.424 4.191-10.1 4.295-4.41 10.742-4.406 16.273-2.819 4.503 1.223 10.563 4.859 14.987 7.514 3.821 2.457 8.226 4.026 12.787 4.315l21.133 1.439c4.428.629 7.822 4.147 8.274 8.599-.121 2.466-.901 3.32-3.356 3.719l-60.359.851zm106.05 180.803v-22.637c0-2.761-2.239-5-5-5s-5 2.239-5 5v22.659c-9.277-2.237-16.197-10.572-16.197-20.512 0-11.647 9.49-21.122 21.155-21.122s21.155 9.475 21.155 21.122c0 9.909-6.879 18.223-16.113 20.49zm74.267-166.665 8.081 20.19-73.061 98.364c-4.293-2.232-9.164-3.501-14.329-3.501-3.532 0-6.925.599-10.093 1.686l-23.416-45.466zm-130.703 58.388 32.486 63.076c-6.397 4.896-10.841 12.208-11.961 20.56h-12.418c-.053-.74-.114-1.48-.188-2.219-2.326-23.4-12.37-45.34-28.401-62.247zm-27.784 26.004c14.535 15.308 23.643 35.187 25.751 56.402.041.41.07.82.104 1.23h-8.87c-1.173-20.194-9.611-38.461-22.73-52.255zm-81.83 52.625c-.947 1.541-1.681 3.221-2.164 5.007h-54.894c1.166-17.627 8.621-33.556 20.145-45.578l36.914 40.571zm-29.521-47.304c11.404-9.049 25.557-14.775 40.993-15.694l-.097 54.487c-1.446.39-2.833.925-4.123 1.623zm27.357 62.311c.324 1.195.759 2.342 1.296 3.434l-40.502 36.758c-8.917-11.203-14.606-25.067-15.666-40.192h54.873zm7.878 10.965c1.712 1.144 3.623 2.003 5.661 2.552l.095 54.199c-17.832-1.062-33.951-8.538-46.095-20.141zm1.438-15.965c0-5.072 4.134-9.198 9.216-9.198s9.216 4.126 9.216 9.198-4.134 9.198-9.216 9.198-9.216-4.126-9.216-9.198zm14.226-19.748.095-53.164c15.027 1.145 28.792 6.838 39.921 15.713l-40.015 37.452zm3.407 36.98 36.314 39.911c-11.077 8.742-24.733 14.347-39.629 15.481l-.095-54.111c1.186-.321 2.325-.751 3.409-1.282zm7.548-6.563c1.151-1.713 2.015-3.627 2.568-5.669h53.867c-1.233 17.581-8.719 33.458-20.257 45.43zm2.568-15.669c-.922-3.407-2.751-6.439-5.225-8.818l39.114-36.609c11.442 12.004 18.839 27.873 20 45.427zm-18.424-85.657c21.518 0 41.895 7.483 58.06 21.155l-5.765 5.396c-14.382-11.889-32.823-19.043-52.906-19.043-45.823 0-83.104 37.236-83.104 83.005s37.28 83.004 83.104 83.004c44.092 0 80.257-34.48 82.928-77.86h9.041c-1.001 19.328-9.345 38.755-23.754 54.666-18.183 20.079-42.824 31.595-67.604 31.595-50.222 0-91.081-40.804-91.081-90.959s40.859-90.959 91.081-90.959z"/></svg>