<?xml version="1.0" encoding="UTF-8"?>
<svg fill="#3E7FCA" xmlns="http://www.w3.org/2000/svg" id="Outline" viewBox="0 0 512 512" width="512" height="512"><path d="M438.628,169.373h0a31.843,31.843,0,0,0-9.129-6.387,39.987,39.987,0,0,0-41.579-65.116A166.484,166.484,0,0,0,325.228,53.45c14.052-.958,26.71-2.058,37.134-3.073a24,24,0,1,0-1.711-15.911c-15.265,1.478-38.76,3.462-64.675,4.6A24.025,24.025,0,0,0,272,16H240a24.025,24.025,0,0,0-23.976,23.07c-25.714-1.132-49.036-3.089-64.675-4.6a24,24,0,1,0-1.71,15.909c9.8.951,22.617,2.076,37.161,3.069a166.6,166.6,0,0,0-62.719,44.425A39.982,39.982,0,0,0,82.5,162.985a31.843,31.843,0,0,0-9.129,6.387h0a32,32,0,0,0,9.13,51.642,40,40,0,0,0,37.533,66.174,31.978,31.978,0,0,0,39.991,31.773c-.009.346-.026.69-.026,1.038a39.976,39.976,0,0,0,66.992,29.49A32.135,32.135,0,0,0,248,366.987v17.594a56,56,0,1,0,49.988,92.462,8,8,0,0,0-7.026-13.227A23.125,23.125,0,0,1,288,464a24,24,0,0,1,0-48,23.125,23.125,0,0,1,2.962.184,8,8,0,0,0,7.026-13.227A56.031,56.031,0,0,0,264,384.593V366.987a32.135,32.135,0,0,0,21.008-17.5A39.976,39.976,0,0,0,352,320c0-.348-.017-.692-.026-1.038a31.949,31.949,0,0,0,39.991-31.773A39.983,39.983,0,0,0,429.5,221.015a32,32,0,0,0,9.13-51.642ZM424,136a24,24,0,1,1-24-24A24.028,24.028,0,0,1,424,136ZM384,32a8,8,0,1,1-8,8A8.009,8.009,0,0,1,384,32ZM232,40a8.009,8.009,0,0,1,8-8h32a8.009,8.009,0,0,1,8,8V56a8.009,8.009,0,0,1-8,8H240a8.009,8.009,0,0,1-8-8ZM128,48a8,8,0,1,1,8-8A8.009,8.009,0,0,1,128,48Zm88.457,12.656A24.038,24.038,0,0,0,240,80h32a24.038,24.038,0,0,0,23.543-19.344c30.682,7.366,57.913,23.146,78.125,45.272a39.962,39.962,0,0,0,15.536,68.58,32.1,32.1,0,0,0,0,34.984,40.016,40.016,0,0,0-28.393,46.543A31.922,31.922,0,0,0,328.333,283.5a39.958,39.958,0,0,0-54.845,25.72,31.9,31.9,0,0,0-34.976,0,39.958,39.958,0,0,0-54.845-25.72,31.922,31.922,0,0,0-32.478-27.466A40.016,40.016,0,0,0,122.8,209.492a32.1,32.1,0,0,0,0-34.984,39.962,39.962,0,0,0,15.536-68.58C158.534,83.818,185.781,68.024,216.457,60.656ZM112,112a24,24,0,1,1-24,24A24.028,24.028,0,0,1,112,112ZM84.687,180.686h0a16,16,0,1,1,0,22.627A16.017,16.017,0,0,1,84.686,180.687ZM88,248a24,24,0,1,1,24,24A24.028,24.028,0,0,1,88,248Zm52.687,51.314a16.018,16.018,0,0,1,0-22.628h0a16,16,0,1,1,0,22.627ZM200,344a24,24,0,1,1,24-24A24.028,24.028,0,0,1,200,344Zm48,96a40.059,40.059,0,0,0,23.993,36.657,40,40,0,1,1,0-73.314A40.059,40.059,0,0,0,248,440Zm8-88a16,16,0,1,1,16-16A16.019,16.019,0,0,1,256,352Zm56-8a24,24,0,1,1,24-24A24.028,24.028,0,0,1,312,344Zm59.314-44.687a15.992,15.992,0,1,1,0-22.627A16.017,16.017,0,0,1,371.314,299.313ZM400,272a24,24,0,1,1,24-24A24.028,24.028,0,0,1,400,272Zm27.314-68.687a15.992,15.992,0,1,1,0-22.627A16.017,16.017,0,0,1,427.314,203.313Z"/></svg>
