<svg id="Layer_1" enable-background="new 0 0 450 450" height="512" viewBox="0 0 450 450" width="512" xmlns="http://www.w3.org/2000/svg"><g><g><path d="m411.436 445.779h-39.598c-2.762 0-5-2.238-5-5v-232.583h-283.156v232.583c0 2.762-2.239 5-5 5h-39.597c-2.761 0-5-2.238-5-5v-291.108c0-2.761 2.239-5 5-5s5 2.239 5 5v286.108h29.597v-232.583c0-2.761 2.239-5 5-5h293.156c2.762 0 5 2.239 5 5v232.583h29.598v-286.108c0-2.761 2.238-5 5-5s5 2.239 5 5v291.108c0 2.762-2.239 5-5 5z"/></g><g><path d="m31.169 158.797c-1.805 0-3.548-.98-4.439-2.691l-17.214-33.054c-.613-1.176-.733-2.547-.334-3.813.399-1.265 1.284-2.319 2.459-2.932l211.31-110.042c1.446-.754 3.171-.754 4.619 0l211.309 110.042c2.449 1.275 3.4 4.295 2.125 6.744l-17.213 33.054c-.612 1.176-1.667 2.061-2.932 2.459-1.268.397-2.637.278-3.813-.334l-191.786-99.875-191.785 99.876c-.738.384-1.528.566-2.306.566zm-10.474-35.93 12.595 24.185 189.661-98.769c1.446-.754 3.171-.755 4.619 0l189.661 98.769 12.594-24.185-204.565-106.53z"/></g><g><path d="m247.679 180.248h-44.837c-2.761 0-5-2.239-5-5v-73.371c0-2.761 2.239-5 5-5h44.837c2.762 0 5 2.239 5 5v73.371c0 2.761-2.239 5-5 5zm-39.838-10h34.837v-63.371h-34.837z"/></g><g><path d="m162.226 180.248h-67.839c-2.761 0-5-2.239-5-5v-26.204c0-2.761 2.239-5 5-5h67.839c2.761 0 5 2.239 5 5v26.204c0 2.761-2.239 5-5 5zm-62.839-10h57.839v-16.204h-57.839z"/></g><g><path d="m356.134 180.248h-67.839c-2.762 0-5-2.239-5-5v-26.204c0-2.761 2.238-5 5-5h67.839c2.762 0 5 2.239 5 5v26.204c0 2.761-2.238 5-5 5zm-62.839-10h57.839v-16.204h-57.839z"/></g><g><path d="m371.838 237.895h-293.155c-2.761 0-5-2.238-5-5s2.239-5 5-5h293.155c2.762 0 5 2.238 5 5s-2.238 5-5 5z"/></g><g><path d="m371.838 267.592h-293.155c-2.761 0-5-2.238-5-5s2.239-5 5-5h293.155c2.762 0 5 2.238 5 5s-2.238 5-5 5z"/></g><g><path d="m371.838 297.29h-293.155c-2.761 0-5-2.238-5-5s2.239-5 5-5h293.155c2.762 0 5 2.238 5 5s-2.238 5-5 5z"/></g><g><path d="m371.838 326.987h-293.155c-2.761 0-5-2.238-5-5s2.239-5 5-5h293.155c2.762 0 5 2.238 5 5s-2.238 5-5 5z"/></g><g><path d="m371.838 356.686h-293.155c-2.761 0-5-2.238-5-5s2.239-5 5-5h293.155c2.762 0 5 2.238 5 5s-2.238 5-5 5z"/></g><g><path d="m371.838 386.383h-293.155c-2.761 0-5-2.238-5-5s2.239-5 5-5h293.155c2.762 0 5 2.238 5 5s-2.238 5-5 5z"/></g><g><path d="m371.838 416.081h-293.155c-2.761 0-5-2.238-5-5s2.239-5 5-5h293.155c2.762 0 5 2.238 5 5s-2.238 5-5 5z"/></g><g><path d="m371.838 445.779h-293.156c-2.761 0-5-2.238-5-5s2.239-5 5-5h293.156c2.762 0 5 2.238 5 5s-2.238 5-5 5z"/></g></g></svg>