<?xml version="1.0" encoding="UTF-8"?>
<svg xmlns="http://www.w3.org/2000/svg" id="Line_Expand" data-name="Line Expand" viewBox="0 0 64 64" width="512" height="512"><path d="M56,47.25A2.2531,2.2531,0,0,1,53.75,45a.75.75,0,0,0-.75-.75H11a.75.75,0,0,0-.75.75A2.2531,2.2531,0,0,1,8,47.25a.75.75,0,0,0-.75.75v5a.75.75,0,0,0,.75.75A2.2531,2.2531,0,0,1,10.25,56a.75.75,0,0,0,.75.75H53a.75.75,0,0,0,.75-.75A2.2531,2.2531,0,0,1,56,53.75a.75.75,0,0,0,.75-.75V48A.75.75,0,0,0,56,47.25Zm-.75,5.0752A3.7623,3.7623,0,0,0,52.3252,55.25h-40.65A3.7623,3.7623,0,0,0,8.75,52.3252v-3.65A3.7623,3.7623,0,0,0,11.6748,45.75h40.65A3.7623,3.7623,0,0,0,55.25,48.6748Z"/><path d="M63,37.25H60.75V19.75h.75a2.25,2.25,0,0,0,0-4.5H60.4636L57.1587,8.64A2.2435,2.2435,0,0,0,56.5,4.25H44.75V3A2.7528,2.7528,0,0,0,42,.25H22A2.7528,2.7528,0,0,0,19.25,3V4.25H7.5a2.2435,2.2435,0,0,0-.6587,4.39L3.5364,15.25H2.5a2.25,2.25,0,0,0,0,4.5h.75v17.5H1A.75.75,0,0,0,.25,38v3a.75.75,0,0,0,.75.75H3.25v17.5H2.5a2.25,2.25,0,0,0,0,4.5h59a2.25,2.25,0,0,0,0-4.5h-.75V41.75H63a.75.75,0,0,0,.75-.75V38A.75.75,0,0,0,63,37.25Zm-4.2136-22H49.3582l-1.9495-6.5h8.1277ZM44.75,6V5.75H56.5a.75.75,0,0,1,0,1.5H44.4355A2.7152,2.7152,0,0,0,44.75,6Zm1.092,2.75,1.95,6.5H38.2782l-.65-6.5ZM20.75,3A1.2511,1.2511,0,0,1,22,1.75H42A1.2511,1.2511,0,0,1,43.25,3V6A1.2511,1.2511,0,0,1,42,7.25H22A1.2511,1.2511,0,0,1,20.75,6ZM36.7711,15.25H27.2289l.65-6.5h8.2424ZM26.3716,8.75l-.65,6.5H16.2085l1.95-6.5ZM6.75,6.5a.7511.7511,0,0,1,.75-.75H19.25V6a2.7152,2.7152,0,0,0,.3145,1.25H7.5A.7511.7511,0,0,1,6.75,6.5ZM8.4636,8.75h8.1277l-1.95,6.5H5.2136ZM2.5,18.25a.75.75,0,0,1,0-1.5h59a.75.75,0,0,1,0,1.5Zm56.75,1.5v17.5h-1.5V19.75ZM48,29.25H40A3.7544,3.7544,0,0,0,36.25,33v4.25H27.3148l.4323-5.1875A.75.75,0,0,0,27,31.25H25.75V29.5405l2.4873-.8291a.75.75,0,1,0-.4746-1.4228l-3,1A.75.75,0,0,0,24.25,29v2.25H22a.75.75,0,0,0-.7471.8125l.4323,5.1875h-3.37l.4323-5.1875A.75.75,0,0,0,18,31.25H16.75V29.5405l2.4873-.8291a.75.75,0,1,0-.4746-1.4228l-3,1A.75.75,0,0,0,15.25,29v2.25H13a.75.75,0,0,0-.7471.8125l.4323,5.1875H7.75V19.75h48.5v17.5h-4.5V33A3.7544,3.7544,0,0,0,48,29.25ZM50.25,33v4.25H37.75V33A2.2528,2.2528,0,0,1,40,30.75h8A2.2528,2.2528,0,0,1,50.25,33Zm-24.0654-.25-.3745,4.5H23.19l-.3745-4.5Zm-9,0-.3745,4.5H14.19l-.3745-4.5ZM6.25,19.75v17.5H4.75V19.75Zm55.25,41a.75.75,0,0,1,0,1.5H2.5a.75.75,0,0,1,0-1.5ZM4.75,59.25V41.75h54.5v17.5Zm57.5-19H1.75v-1.5h60.5Z"/><path d="M24,5.25H40a.75.75,0,0,0,0-1.5H24a.75.75,0,0,0,0,1.5Z"/></svg>
