<svg id="Layer_5" enable-background="new 0 0 64 64" height="512" viewBox="0 0 64 64" width="512" xmlns="http://www.w3.org/2000/svg"><g><circle cx="42" cy="22" r="1"/><path d="m53 37.274v-.274-1-1.307l.862-.323c4.27-1.601 7.138-5.74 7.138-10.3v-10.07c0-4.963-4.038-9-9-9h-8c-4.624 0-8.442 3.507-8.941 8h-1.059c-.352 0-.686.072-1 .184v-2.741c1.19-.693 2-1.969 2-3.443 0-2.206-1.794-4-4-4h-7.54c-1.1-1.224-2.689-2-4.46-2h-8c-3.309 0-6 2.691-6 6s2.691 6 6 6h8c1.771 0 3.36-.776 4.46-2h1.54v4h-3c-1.654 0-3 1.346-3 3v1h-1c-1.44 0-2.644 1.02-2.932 2.375l-8.068-3.996v-.379c0-1.103-.897-2-2-2h-2c-1.103 0-2 .897-2 2v20c0 1.103.897 2 2 2h2c1.103 0 2-.897 2-2v-.385l8.056-4.066c.259 1.393 1.478 2.451 2.944 2.451h1v1c0 1.421.996 2.609 2.325 2.917 3.139 6.87 9.266 11.835 16.616 13.485-.038.272-.083.542-.109.817l-.932 9.781h26.1v-11.56c0-6.439-3.988-12.041-10-14.166zm-2-.274v.236c-1.417.419-2.754 1.005-4 1.726v-5.962h-4-1c-1.302 0-2.402-.839-2.816-2h1.816c2.206 0 4-1.794 4-4h-2c0 1.103-.897 2-2 2h-2v-1.382c0-.764-.424-1.449-1.106-1.789l-.246-.123c-.399-.2-.648-.602-.648-1.049 0-.231.068-.456.197-.649l1.299-1.948c.33-.495.504-1.07.504-1.665v-1.395h12v4h1.667c1.286 0 2.333 1.047 2.333 2.333 0 .73-.349 1.429-.934 1.867l-3.066 2.3v6.5zm-8.834 6h-4.102c-3.428 0-6.589-1.476-8.79-4h15.726v1.298c-1.04.799-1.988 1.707-2.834 2.702zm-5.412-15.505.246.123v2.382c0 1.13.391 2.162 1.026 3h-13.026v-12h11.798l-1.265 1.898c-.349.523-.533 1.131-.533 1.759 0 1.209.672 2.297 1.754 2.838zm16.406 5.002-.16.06v-2.057l2.267-1.7c1.085-.815 1.733-2.111 1.733-3.467 0-2.277-1.766-4.149-4-4.32v-2.013h6v5.07c0 3.731-2.347 7.118-5.84 8.427zm-9.16-25.497h8c3.86 0 7 3.141 7 7v3h-8.101c-.464-2.279-2.485-4-4.899-4h-8.92c.488-3.386 3.401-6 6.92-6zm-10 8h12c1.304 0 2.416.836 2.829 2h-14.829c-.551 0-1-.448-1-1s.449-1 1-1zm-15-4h-8c-2.206 0-4-1.794-4-4s1.794-4 4-4h8c2.206 0 4 1.794 4 4s-1.794 4-4 4zm5.65-6h6.35c1.103 0 2 .897 2 2s-.897 2-2 2h-6.35c.222-.627.35-1.298.35-2s-.128-1.373-.35-2zm2.35 6h4v4h-4zm-24 26v-20h2l.001 20zm4-17.388 8 3.963v6.764l-8 4.038zm11 13.388c-.551 0-1-.448-1-1v-10c0-.552.449-1 1-1h1v12zm3-15c0-.552.449-1 1-1h9.184c.414 1.161 1.514 2 2.816 2h-11v16h19 1 2v2h-23c-.551 0-1-.448-1-1zm2.579 21h3.181c2.556 3.757 6.727 6 11.303 6h2.624c-1.065 1.658-1.879 3.487-2.374 5.438-6.381-1.454-11.754-5.631-14.734-11.438zm16.244 14.408c.653-6.853 5.521-12.593 12.152-14.369 5.41 1.744 9.025 6.693 9.025 12.401v1.56h-6v-4h-2v12h-13.9zm15.177 7.592v-6h6v6z"/></g></svg>