<svg height="409pt" viewBox="0 0 409.6 409" width="409pt" xmlns="http://www.w3.org/2000/svg"><path d="m249.371094 258.519531h-89.140625c-2.832031 0-5.121094 2.289063-5.121094 5.121094v27.65625c0 2.828125 2.289063 5.117187 5.121094 5.117187h89.140625c2.828125 0 5.117187-2.289062 5.117187-5.117187v-27.65625c0-2.832031-2.289062-5.121094-5.117187-5.121094zm-5.121094 27.65625h-78.898438v-17.414062h78.898438zm0 0"/><path d="m105.890625 252.386719c-13.6875 0-24.820313 11.253906-24.820313 25.082031 0 13.832031 11.132813 25.082031 24.820313 25.082031s24.824219-11.25 24.824219-25.082031c0-13.828125-11.136719-25.082031-24.824219-25.082031zm0 39.921875c-8.039063 0-14.582031-6.652344-14.582031-14.839844 0-8.183594 6.542968-14.84375 14.582031-14.84375s14.585937 6.660156 14.585937 14.84375c0 8.1875-6.546874 14.839844-14.585937 14.839844zm0 0"/><path d="m278.886719 277.46875c0 13.832031 11.132812 25.082031 24.824219 25.082031 13.683593 0 24.820312-11.25 24.820312-25.082031 0-13.828125-11.136719-25.082031-24.820312-25.082031-13.691407 0-24.824219 11.253906-24.824219 25.082031zm39.402343 0c0 8.1875-6.539062 14.839844-14.578124 14.839844-8.039063 0-14.585938-6.652344-14.585938-14.839844 0-8.183594 6.546875-14.84375 14.585938-14.84375 8.039062 0 14.578124 6.660156 14.578124 14.84375zm0 0"/><path d="m335.4375 86.558594c1.292969-5.355469 1.972656-10.863282 1.972656-16.429688 0-38.503906-31.324218-69.828125-69.832031-69.828125-38.503906 0-69.828125 31.324219-69.828125 69.828125 0 18.253906 7.09375 34.835938 18.597656 47.292969h-82.851562c-15.542969 0-29.042969 11.363281-32.082032 26.914063l-16.773437 77.027343c-18.9375 3.871094-33.253906 21.042969-33.253906 41.589844v58.535156h-2.921875c-2.828125 0-5.121094 2.292969-5.121094 5.121094v31.675781c0 2.828125 2.292969 5.121094 5.121094 5.121094h18.035156v22.71875c0 12.941406 10.421875 23.46875 23.230469 23.46875 12.808593 0 23.234375-10.527344 23.234375-23.46875v-22.71875h183.671875v22.71875c0 12.941406 10.421875 23.46875 23.234375 23.46875 12.808594 0 23.230468-10.527344 23.230468-23.46875v-22.71875h18.035157c2.828125 0 5.117187-2.292969 5.117187-5.121094v-31.675781c0-2.828125-2.289062-5.121094-5.117187-5.121094h-2.921875v-58.535156c0-20.546875-14.320313-37.71875-33.253906-41.589844l-6.453126-29.621093c2.019532.234374 4.058594.382812 6.136719.382812 29.410157 0 53.335938-23.925781 53.335938-53.335938 0-25.707031-18.289063-47.222656-42.542969-52.230468zm-67.859375-76.019532c32.863281 0 59.59375 26.730469 59.59375 59.589844 0 5.21875-.710937 10.367188-2.039063 15.355469-.164062 0-.324218-.023437-.488281-.023437-26.226562 0-48.042969 19.046874-52.464843 44.023437-1.523438.117187-3.046876.234375-4.601563.234375-32.859375 0-59.589844-26.730469-59.589844-59.589844s26.730469-59.589844 59.589844-59.589844zm-164.851563 375.585938c0 7.296875-5.832031 13.230469-12.996093 13.230469-7.164063 0-12.992188-5.933594-12.992188-13.230469v-22.71875h25.988281zm230.132813 0c0 7.296875-5.824219 13.230469-12.988281 13.230469-7.167969 0-12.996094-5.933594-12.996094-13.230469v-22.71875h25.984375zm23.15625-32.960938h-302.429687v-21.433593h302.429687zm-8.039063-90.210937v58.535156h-286.351562v-58.535156c0-17.742187 13.953125-32.179687 31.109375-32.179687h224.128906c17.15625 0 31.113281 14.4375 31.113281 32.179687zm-220.746093-42.417969c2.132812-11.59375 13.125-20.476562 26.417969-20.476562 13.296874 0 24.289062 8.882812 26.421874 20.476562zm187.066406 0h-123.8125c-2.152344-17.265625-17.835937-30.714844-36.835937-30.714844-18.996094 0-34.679688 13.449219-36.835938 30.714844h-21.507812l16.140624-74.128906c2.121094-10.859375 11.394532-18.746094 22.050782-18.746094h94.589844c11.242187 7.742188 24.839843 12.300782 39.492187 12.300782 1.257813 0 2.523437-.125 3.785156-.191407.421875 22.96875 15.414063 42.398438 36.117188 49.46875zm10.347656-38.648437c-23.757812 0-43.089843-19.332031-43.089843-43.097657 0-23.757812 19.332031-43.089843 43.089843-43.089843 23.765625 0 43.09375 19.332031 43.09375 43.089843 0 23.765626-19.328125 43.097657-43.09375 43.097657zm0 0"/><path d="m320.421875 109.5c-13.976563 0-25.347656 11.363281-25.347656 25.339844 0 2.832031 2.289062 5.121094 5.121093 5.121094 2.828126 0 5.121094-2.289063 5.121094-5.121094 0-8.324219 6.773438-15.101563 15.105469-15.101563 2.828125 0 5.117187-2.289062 5.117187-5.117187 0-2.832032-2.289062-5.121094-5.117187-5.121094zm0 0"/><path d="m0 79.855469c0 29.410156 23.925781 53.335937 53.328125 53.335937 29.410156 0 53.335937-23.925781 53.335937-53.335937 0-29.40625-23.925781-53.332031-53.335937-53.332031-29.402344 0-53.328125 23.925781-53.328125 53.332031zm96.425781 0c0 23.765625-19.332031 43.09375-43.097656 43.09375-23.757813 0-43.089844-19.328125-43.089844-43.09375 0-23.761719 19.332031-43.089844 43.089844-43.089844 23.765625 0 43.097656 19.328125 43.097656 43.089844zm0 0"/><path d="m49.105469 50.566406c-13.976563 0-25.34375 11.363282-25.34375 25.339844 0 2.828125 2.289062 5.117188 5.117187 5.117188 2.832032 0 5.121094-2.289063 5.121094-5.117188 0-8.328125 6.773438-15.101562 15.105469-15.101562 2.828125 0 5.121093-2.289063 5.121093-5.121094 0-2.828125-2.292968-5.117188-5.121093-5.117188zm0 0"/><path d="m233.871094 70.128906c0-19.914062 16.203125-36.113281 36.117187-36.113281 2.832031 0 5.121094-2.289063 5.121094-5.121094 0-2.828125-2.289063-5.121093-5.121094-5.121093-25.5625 0-46.359375 20.796874-46.359375 46.355468 0 2.832032 2.292969 5.121094 5.121094 5.121094s5.121094-2.289062 5.121094-5.121094zm0 0"/><path d="m404.480469 38.726562h-6.71875v-6.722656c0-2.828125-2.292969-5.117187-5.121094-5.117187-2.832031 0-5.121094 2.289062-5.121094 5.117187v6.722656h-6.71875c-2.832031 0-5.121093 2.289063-5.121093 5.117188 0 2.832031 2.289062 5.121094 5.121093 5.121094h6.71875v6.71875c0 2.832031 2.289063 5.121094 5.121094 5.121094 2.828125 0 5.121094-2.289063 5.121094-5.121094v-6.71875h6.71875c2.828125 0 5.121093-2.289063 5.121093-5.121094 0-2.828125-2.292968-5.117188-5.121093-5.117188zm0 0"/><path d="m152.210938 42.246094c2.828124 0 5.117187-2.292969 5.117187-5.121094v-6.71875h6.722656c2.828125 0 5.121094-2.292969 5.121094-5.121094 0-2.832031-2.292969-5.121094-5.121094-5.121094h-6.722656v-6.71875c0-2.832031-2.289063-5.121093-5.117187-5.121093-2.832032 0-5.121094 2.289062-5.121094 5.121093v6.71875h-6.71875c-2.832032 0-5.121094 2.289063-5.121094 5.121094 0 2.828125 2.289062 5.121094 5.121094 5.121094h6.71875v6.71875c0 2.828125 2.289062 5.121094 5.121094 5.121094zm0 0"/><path d="m49.785156 185.40625v-6.722656h6.71875c2.832032 0 5.121094-2.289063 5.121094-5.117188 0-2.832031-2.289062-5.121094-5.121094-5.121094h-6.71875v-6.71875c0-2.832031-2.289062-5.121093-5.121094-5.121093-2.828124 0-5.117187 2.289062-5.117187 5.121093v6.71875h-6.722656c-2.828125 0-5.121094 2.289063-5.121094 5.121094 0 2.828125 2.292969 5.117188 5.121094 5.117188h6.722656v6.722656c0 2.828125 2.289063 5.117188 5.117187 5.117188 2.832032 0 5.121094-2.289063 5.121094-5.117188zm0 0"/></svg>