<svg height="512" viewBox="0 0 64 64" width="512" xmlns="http://www.w3.org/2000/svg"><path d="m30.35059 43.12793a.9995.9995 0 0 0 .69531-.457l2.3164-3.69238 4.30762-.66016a.99824.99824 0 0 0 .69434-.45508l2.39648-3.80469 4.15546-1.64965 2.46661 1.40942a.99976.99976 0 0 0 1.20313-.16113l11.72754-11.72855a5.02211 5.02211 0 0 0 -.00006-7.07031l-11.34272-11.34375a5.00644 5.00644 0 0 0 -7.07129 0l-16.72753 16.72851a1.11039 1.11039 0 0 0 .293 1.707l-22.17288 22.17289a4.00209 4.00209 0 0 0 0 5.65332l3.14942 3.15039a3.91172 3.91172 0 0 0 4.77539.57715l4.50781-.75782a.99985.99985 0 0 0 .68066-.45507l2.31739-3.69239 4.30761-.66015a.99952.99952 0 0 0 .69532-.457l2.3164-3.69239zm12.96289-38.19922a3.00719 3.00719 0 0 1 4.24316 0l11.34277 11.34375a2.9989 2.9989 0 0 1 0 4.24219l-11.1875 11.18847c-.10272-.00439-6.92163-4.10394-6.83294-3.753l-5.34381.00007a3.02126 3.02126 0 0 1 -2.1211-.87891l-6.12106-6.12108zm-18.72168 37.41016-2.31641 3.69238-4.30762.66016a.99944.99944 0 0 0 -.69531.457l-2.32226 3.69925-4.25782.71582a1.00707 1.00707 0 0 0 -.38281.15039 1.91318 1.91318 0 0 1 -2.4541-.20117l-3.14942-3.1504a2.001 2.001 0 0 1 0-2.82519l22.17286-22.17285 5.12109 5.12109a4.96787 4.96787 0 0 0 3.53516 1.46485h5.07812l2.08057 1.1888-2.97412 1.18127a.99773.99773 0 0 0 -.47657.39649l-2.32716 3.69437-4.3086.66016a.99947.99947 0 0 0 -.69531.457l-2.31639 3.69241-4.30859.66114a.99942.99942 0 0 0 -.69531.45703z"/><path d="m33.87885 18.9502a3.00019 3.00019 0 0 0 .00006 6 3.00019 3.00019 0 0 0 -.00006-6zm.00006 2a1.0001 1.0001 0 0 1 -.00006 2 1.0001 1.0001 0 0 1 .00006-2z"/><path d="m44.8584 26.07129a3.00474 3.00474 0 0 0 4.24219.001l4.19241-4.19338a3.00008 3.00008 0 0 0 0-4.24317l-7.10059-7.10156a3.00717 3.00717 0 0 0 -4.24316.001l-4.19141 4.19238a3.00363 3.00363 0 0 0 0 4.24316zm-5.68652-9.92969 4.1914-4.1914a1.002 1.002 0 0 1 1.415-.001l7.10059 7.10058a1.00444 1.00444 0 0 1 0 1.41407l-4.19239 4.19336a1.00319 1.00319 0 0 1 -1.41406 0l-7.10058-7.10059a1.00594 1.00594 0 0 1 .00004-1.41502z"/><path d="m50.87891 36.9502c-5.29786 0-11 1.252-11 4v6.4c-3.66162-2.23071-15.7583-2.01782-16.00013 2.6l.00013 7.74115a3.0094 3.0094 0 0 0 1.80859 2.75976 17.99153 17.99153 0 0 0 15.56775-.57068 3.85328 3.85328 0 0 0 1.33948.767 27.0229 27.0229 0 0 0 16.502.02149 3.98788 3.98788 0 0 0 2.78223-3.81348v-15.90524c-.00005-2.74805-5.7022-4-11.00005-4zm-11 21.38671a16.17051 16.17051 0 0 1 -3 1.10315v-1.48986a1.0001 1.0001 0 0 0 -2 0v1.87066a16.03341 16.03341 0 0 1 -8.39258-1.20367 1.00845 1.00845 0 0 1 -.60742-.92578v-5.13379a11.56283 11.56283 0 0 0 3 1.00653v2.38605a1 1 0 0 0 2 0v-2.0962a17.496 17.496 0 0 0 9-1.29638zm-7-6.38671c-4.54688 0-7-1.41993-7-2s2.45312-2 7-2 7 1.41992 7 2-2.45313 2-7 2zm18-13c5.79089 0 8.78711 1.43 8.99572 1.9978-3.44018 3.03821-16.05944 2.31653-17.99267.00769.18004-.56091 3.1748-2.00549 8.99695-2.00549zm9 17.90527a1.99267 1.99267 0 0 1 -1.38965 1.90723 25.09077 25.09077 0 0 1 -15.28126-.01954 1.97784 1.97784 0 0 1 -1.3291-1.88378v-13.47657a15.16726 15.16726 0 0 0 4 1.17548v5.39191a1 1 0 0 0 2 0v-5.13556a33.3474 33.3474 0 0 0 7-.10968v3.24524a1.0001 1.0001 0 0 0 2-.00007v-3.5838a13.5502 13.5502 0 0 0 3-.98352z"/><path d="m51.87891 47.9502a.99942.99942 0 0 0 -1 1v8a1 1 0 0 0 2 0v-8a.99942.99942 0 0 0 -1-1z"/><path d="m46.87988 52.9502a1.00011 1.00011 0 0 0 .00006 2 1.00011 1.00011 0 0 0 -.00006-2z"/></svg>