<svg fill="#3E7FCA" id="Capa_1"  enable-background="new 0 0 609.623 609.623" height="512" viewBox="0 0 609.623 609.623" width="512" xmlns="http://www.w3.org/2000/svg"><g><g id="Page-1_44_"><g id="_x30_45---Locksmith-Service"><path id="Shape_139_" d="m579.142 325.132h-133.609c-8.634-.168-16.409 5.205-19.305 13.341-1.37 4.17-5.263 6.988-9.652 6.988s-8.282-2.818-9.652-6.988c-2.896-8.136-10.67-13.508-19.305-13.341h-1.524v-60.962c-.052-4.139-.529-8.262-1.422-12.304l21.398-19.051c5.389 6.032 12.973 9.652 21.052 10.049h1.646c7.508.006 14.751-2.779 20.321-7.813l8.697-7.813c6.533-5.654 8.722-14.85 5.436-22.841-1.719-4.021-.713-8.688 2.51-11.644 3.257-2.928 8.023-3.44 11.827-1.27 7.631 4.134 17.053 2.905 23.369-3.048l98.556-90.082c6.011-5.407 9.628-12.98 10.055-21.053s-2.371-15.986-7.779-21.996l-40.713-45.204c-11.292-12.512-30.585-13.513-43.11-2.235l-98.558 90.081c-6.548 5.644-8.743 14.849-5.446 22.841 1.714 4.018.709 8.68-2.51 11.634-3.259 2.924-8.025 3.432-11.827 1.26-7.598-4.113-16.974-2.911-23.288 2.987l-8.697 7.823c-6.011 5.407-9.628 12.98-10.055 21.053-.427 8.074 2.371 15.986 7.779 21.996l-20.859 18.807c-6.238-2.078-12.77-3.138-19.345-3.14h-213.368v-57.741c-.773-43.606 32.259-80.407 75.695-84.331 22.498-1.611 44.642 6.271 61.064 21.733 16.419 15.389 25.757 36.874 25.807 59.377 0 16.834 13.647 30.481 30.481 30.481s30.481-13.647 30.481-30.481c0-78.56-63.685-142.245-142.245-142.245s-142.245 63.685-142.245 142.245v61.877c-29.296 4.977-50.747 30.333-50.802 60.048v284.49c.034 33.655 27.308 60.929 60.962 60.962h264.17c33.655-.034 60.929-27.308 60.962-60.962v-101.603h1.524c8.634.168 16.409-5.205 19.305-13.341 1.37-4.17 5.263-6.988 9.652-6.988s8.282 2.818 9.652 6.988c2.896 8.136 10.67 13.508 19.305 13.341h133.609c16.834 0 30.481-13.647 30.481-30.481v-60.962c.001-16.835-13.646-30.482-30.48-30.482zm-197.925-165.533 8.362-8.24c11.404 6.486 25.68 4.947 35.439-3.82 9.643-8.7 12.842-22.488 8.017-34.545l98.556-90.072c2.004-1.804 4.643-2.738 7.336-2.595s5.218 1.35 7.02 3.357l40.753 45.325c1.809 2.014 2.74 4.667 2.586 7.37-.155 2.703-1.381 5.233-3.409 7.027l-98.231 90.498c-11.363-6.41-25.539-4.918-35.318 3.718s-13.013 22.519-8.057 34.587l-8.697 7.813c-4.172 3.75-10.595 3.409-14.346-.762l-6.777-7.529-27.128-30.176h-.071l-6.767-7.529c-1.83-2.004-2.783-4.656-2.645-7.367.138-2.709 1.354-5.251 3.377-7.06zm-2.235 43.09 13.503 15.017-154.844 137.907h-28.337zm-208.765 206.906c-16.115-10.73-22.397-31.356-14.999-49.247s26.412-28.058 45.399-24.273l-17.039 15.352c-6.906 6.277-10.846 15.174-10.851 24.507.072 21.717 17.206 39.54 38.904 40.469-.214 1.189-.214 2.407 0 3.597l11.766 58.453c.461 2.294-.141 4.673-1.636 6.472-1.434 1.758-3.584 2.777-5.852 2.774h-45.722c-2.272.006-4.426-1.013-5.863-2.774-1.483-1.774-2.091-4.12-1.656-6.391l11.786-58.534c.807-4.005-.862-8.104-4.237-10.405zm43.151-13.34c-11.223 0-20.321-9.098-20.321-20.321h152.406v20.321zm54.866-40.642 97.54-86.902v58.29c-12.135 4.29-20.267 15.741-20.321 28.612zm-197.111-213.368c0-67.337 54.587-121.925 121.925-121.925s121.925 54.587 121.925 121.925c0 5.611-4.549 10.16-10.16 10.16s-10.16-4.549-10.16-10.16c-.067-28.112-11.736-54.949-32.249-74.171-20.5-19.357-48.183-29.221-76.304-27.189-54.067 4.699-95.353 50.314-94.654 104.581v57.741h-20.323zm294.651 406.415c0 22.446-18.196 40.641-40.642 40.641h-264.17c-22.446 0-40.642-18.196-40.642-40.641v-284.49c0-22.446 18.196-40.642 40.642-40.642h264.17.325l-107.446 96.828c-27.612-12.345-60.1-2.579-76.328 22.945s-11.288 59.086 11.606 78.852l-10.557 52.417c-1.614 8.216.528 16.724 5.841 23.197 5.312 6.472 13.239 10.232 21.613 10.251h45.722c8.336.009 16.237-3.72 21.53-10.16 5.373-6.51 7.544-15.087 5.913-23.369l-10.536-52.326c1.831-1.755 3.551-3.621 5.151-5.588h107.487c.053 12.871 8.186 24.321 20.321 28.612zm223.528-132.084c0 5.611-4.549 10.16-10.16 10.16l-133.65.528c-4.146-12.449-15.795-20.848-28.916-20.849-12.968.001-24.546 8.126-28.957 20.321h-11.684c-5.611 0-10.16-4.549-10.16-10.16v-60.962c0-5.611 4.549-10.16 10.16-10.16l11.725-.528c4.146 12.449 15.795 20.848 28.916 20.849 12.968-.001 24.546-8.126 28.957-20.321h133.609c5.611 0 10.16 4.549 10.16 10.16z"/></g></g></g></svg>