<svg id="Capa_1" enable-background="new 0 0 512 512" height="512" viewBox="0 0 512 512" width="512" xmlns="http://www.w3.org/2000/svg"><g><path d="m421.674 451.833c-5.488-.001-9.998 4.478-9.999 10.007-.001 5.508 4.484 9.998 9.997 10 5.496 0 9.998-4.47 9.999-9.998.001-5.612-4.588-10.008-9.997-10.009z"/><path d="m88.32 451.834c-5.488-.001-9.999 4.478-10 10.006 0 5.509 4.484 9.999 9.997 10 5.496 0 9.999-4.469 9.999-9.998.001-5.612-4.587-10.008-9.996-10.008z"/><path d="m271.06 381.551h-10.04c-5.523 0-10 4.477-10 10 0 5.522 4.478 10 10 10h10.04c5.523 0 10-4.478 10-10 0-5.523-4.477-10-10-10z"/><path d="m502 341.388h-13.901l-7.277-14.554c-2.688-5.375-9.489-7.187-14.491-3.849l-21.802 14.535-14.534-21.802c-3.948-5.923-12.681-5.941-16.641 0l-8.943 13.414c-4.233 6.35-10.826 10.582-18.201 11.853l-56.943-75.925c-2.516-3.354-6.856-4.786-10.873-3.578l-97.18 29.153-77.171-28.938c-4.22-1.583-8.903-.114-11.511 3.363l-26.139 34.852-33.722-8.431c-5.534-1.384-11.112 2.141-12.231 7.74l-8.434 42.165h-21.924c-16.587.002-30.082 13.497-30.082 30.084v72.233c0 4.747 3.337 8.84 7.986 9.795l30.223 6.212c-1.2 28.699 21.812 52.29 50.109 52.29 24.236 0 44.512-17.277 49.159-40.163h235.036c4.648 22.886 24.924 40.163 49.16 40.163 24.535 0 44.998-17.71 49.312-41.014 23.305-4.314 41.015-24.777 41.015-49.312v-70.286c0-5.523-4.478-10-10-10zm-184.547-58.742 44.057 58.742h-130.653v-32.764zm-166.922 2.846 60.326 22.621v33.274h-60.326zm-72.537 27.937 29.988 7.497c3.906.975 8.012-.482 10.426-3.701l12.123-16.164v40.327h-58.129zm-47.912 47.959h20.049c-.879 11.265-10.32 20.163-21.807 20.163h-8.324v-10.081c0-5.56 4.522-10.082 10.082-10.082zm-10.082 74.162v-33.999h8.324c22.518 0 40.932-17.865 41.836-40.163h140.697v90.449h-73.38c-4.647-22.886-24.923-40.163-49.159-40.163-19.949 0-37.212 11.707-45.288 28.609zm68.318 56.45c-16.632 0-30.163-13.531-30.163-30.163s13.531-30.163 30.163-30.163 30.163 13.531 30.163 30.163-13.531 30.163-30.163 30.163zm333.356 0c-16.633 0-30.164-13.531-30.164-30.163s13.531-30.163 30.164-30.163c16.632 0 30.163 13.531 30.163 30.163s-13.531 30.163-30.163 30.163zm48.867-41.449c-5.136-22.24-25.088-38.877-48.867-38.877-24.236 0-44.512 17.277-49.16 40.163h-141.657v-90.449h150.653c15.926 0 30.708-7.911 39.541-21.161l.623-.934 11.761 17.642c3.06 4.592 9.273 5.838 13.867 2.773l20.697-13.798 4.975 9.949c1.694 3.389 5.156 5.528 8.944 5.528h10.082v20.163h-30.163c-5.522 0-10 4.477-10 10 0 5.522 4.478 10 10 10h30.163v20.123c0 13.607-9.058 25.134-21.459 28.878z"/><path d="m70.245 240.898h311.265c16.587 0 30.082-13.495 30.082-30.082s-13.495-30.082-30.082-30.082h-70.326v-9.077c0-16.817-13.428-30.55-30.123-31.061v-130.596c0-5.523-4.477-10-10-10h-80.326c-5.523 0-10 4.477-10 10v130.596c-16.695.512-30.122 14.244-30.122 31.061v9.077h-80.368c-16.587 0-30.082 13.495-30.082 30.082s13.495 30.082 30.082 30.082zm190.815-220.898v120.571h-60.326v-120.571zm-90.448 151.657c0-6.113 4.973-11.086 11.086-11.086h98.399c6.113 0 11.086 4.973 11.086 11.086v9.077h-120.571zm-100.367 29.077h311.265c5.56 0 10.082 4.522 10.082 10.082s-4.522 10.082-10.082 10.082h-311.265c-5.56 0-10.082-4.522-10.082-10.082s4.523-10.082 10.082-10.082z"/></g></svg>