<svg fill="#3E7FCA" id="Capa_1"  enable-background="new 0 0 512.012 512.012" height="512" viewBox="0 0 512.012 512.012" width="512" xmlns="http://www.w3.org/2000/svg"><g><path d="m488.458.012h-464.9c-11.44-.421-23.772 10.406-23.551 23.55v165.377c0 4.142 3.357 7.5 7.5 7.5s7.5-3.358 7.5-7.5v-164.81l233.5 206.017v192.796c0 4.142 3.357 7.5 7.5 7.5s7.5-3.358 7.5-7.5v-188.68h233.5v254.2c0 4.715-3.835 8.55-8.55 8.55h-224.95v-38.526c0-4.142-3.357-7.5-7.5-7.5s-7.5 3.358-7.5 7.5v38.526h-224.95c-4.715 0-8.55-3.835-8.55-8.55v-261.7c0-4.142-3.357-7.5-7.5-7.5s-7.5 3.358-7.5 7.5v261.7c0 12.986 10.564 23.55 23.55 23.55h464.9c12.985 0 23.55-10.564 23.55-23.55v-464.9c0-12.986-10.564-23.55-23.549-23.55zm8.549 23.55v178.448l-57.321-85.91c-2.3-3.446-6.957-4.375-10.401-2.076-3.445 2.299-4.375 6.956-2.075 10.401l14.996 22.476h-76.516l-47.678-57.958h85.522l4.257 6.38c2.3 3.446 6.957 4.375 10.402 2.076s4.375-6.956 2.075-10.401l-48.031-71.987h116.219c4.716.001 8.551 3.836 8.551 8.551zm-155.011 195.7-56.1-57.361h72.71l47.187 57.361zm-70.77-72.361-56.684-57.958h84.046l47.678 57.958zm-160.086-57.957h82.42l56.683 57.958h-73.413zm126.63-73.932 48.479 58.932h-86.377l-57.636-58.932zm155.756 58.932h-87.854l-48.479-58.932h97.012zm-272.272-58.932 57.636 58.932h-84.75l-66.794-58.932zm137.589 204.25-65.013-57.361h71.084l56.1 57.361zm166.373 0-47.187-57.361h74.185l38.273 57.361z"/></g></svg>