<svg id="Capa_1"  enable-background="new 0 0 512 512" height="512" viewBox="0 0 512 512" width="512" xmlns="http://www.w3.org/2000/svg"><g><path d="m511.349 317.086.008-.003-21.847-49.156c-7.359-16.558-20.584-29.608-37.239-36.746l-28.444-12.19v-35.827c0-2.056.742-4.042 2.089-5.594l40.478-46.626c6.659-7.67 10.087-17.485 9.651-27.635l-3.624-84.375c-.457-10.618-9.138-18.934-19.765-18.934-10.908 0-19.782 8.875-19.782 19.782v66.784c-6.484-8.743-16.877-14.421-28.573-14.421-19.606 0-35.557 15.951-35.557 35.557 0 17.135 12.185 31.477 28.344 34.82l-4.086 4.823c-2.67 3.153-6.572 4.961-10.704 4.961-11.034 0-21.646 4.657-29.117 12.777l-16.244 17.656-28.855-25.304c-3.94-3.454-8.988-5.11-14.206-4.666-5.221.446-9.912 2.935-13.209 7.008-1.282 1.583-2.273 3.348-2.991 5.24l-44.471 25.516-20.101-20.101c-10.141-10.142-23.632-15.881-37.781-16.257v-3.819c7.367-6.519 12.024-16.035 12.024-26.623 0-19.606-15.95-35.557-35.556-35.557s-35.557 15.951-35.557 35.557c0 14.046 8.188 26.213 20.041 31.986v1.61l-17.408 1.582c-12.248 1.114-23.451 8.005-29.969 18.433l-30.399 48.639-46.832 20.071c-7.087 3.037-11.667 9.982-11.667 17.693 0 6.17 2.988 12.008 7.994 15.616 5.005 3.608 11.488 4.598 17.342 2.646l46.79-15.596c7.984-2.662 14.791-7.689 19.683-14.538l23.693-33.171 3.288 18.206-21.925 32.276c-10.968 16.146-15.619 35.699-13.094 55.055l20.439 156.699v23.56c0 4.142 3.358 7.5 7.5 7.5h48.097c3.034 0 5.768-1.827 6.929-4.63s.519-6.028-1.626-8.173l-21.852-21.852v-157.216c0-4.142-3.358-7.5-7.5-7.5s-7.5 3.358-7.5 7.5v152.823h-9.963l-19.648-150.652c-1.18-9.046-.418-18.142 2.131-26.736h54.032l73.911 177.387h-8.319l-53.989-100.266c-1.965-3.647-6.514-5.011-10.159-3.048-3.647 1.964-5.012 6.512-3.048 10.159l55.216 102.545v22.159c0 4.142 3.358 7.5 7.5 7.5h48.097c3.034 0 5.768-1.827 6.929-4.63s.519-6.028-1.626-8.173l-22.998-22.999-77.909-186.981c19.711-26.048 26.873-51.574 29.476-66.896l14.566 11.652c11.442 9.153 27.511 9.264 39.077.268l44.185-34.366 24.608 26.178c4.613 4.908 10.87 7.409 17.156 7.409 5.347 0 10.716-1.812 15.107-5.493l15.599-13.075 3.41 10.799c1.01 3.199 3.965 5.244 7.15 5.244.748 0 1.509-.113 2.26-.35 3.95-1.247 6.141-5.46 4.894-9.41l-9.018-28.558c-1.247-3.949-5.461-6.14-9.41-4.894-3.95 1.247-6.141 5.46-4.894 9.41l.721 2.283-18.302 15.341v-18.626l19.222-20.893c4.638-5.042 11.227-7.933 18.078-7.933 8.55 0 16.624-3.742 22.149-10.266l31.108-36.725 10.899 10.711-31.868 36.709c-3.716 4.28-5.762 9.758-5.762 15.427v38.142l-62.486 78.107c-.49.612-.896 1.308-1.183 2.084-1.436 3.886.546 8.198 4.432 9.633 1.237.482 4.787 2.944 5.68 3.854 1.13 1.19 2.148 5.158 2.891 8.055 1.481 5.776 3.148 12.274 8.268 16.296l-77.115 161.942c-1.106 2.324-.944 5.053.43 7.229s3.768 3.496 6.342 3.496h14.569c8.583 0 16.484-4.672 20.62-12.192l79.093-143.809c1.799 1.008 3.779 1.733 5.985 1.998.616.074 1.223.109 1.822.109 3.191 0 6.138-.994 8.842-2.397l28.093 140.469c1.834 9.167 9.951 15.821 19.301 15.821 5.712 0 11.134-2.476 14.875-6.794 3.741-4.317 5.42-10.037 4.606-15.692l-20.26-140.801c3.289-3.024 5.495-7.154 7.514-10.946 1.406-2.64 3.332-6.255 4.711-7.145 1.345-.867 5.101-1.041 8.119-1.18 4.432-.205 9.456-.437 13.828-2.58 3.635-1.78 5.177-6.108 3.546-9.776zm-392.137 170.866h13.442l9.048 9.048h-22.491v-9.048zm126.7 9.048h-22.49v-9.048h13.442zm-114.675-373.266c0-11.335 9.222-20.557 20.557-20.557 11.334 0 20.556 9.222 20.556 20.557s-9.222 20.557-20.556 20.557c-11.336 0-20.557-9.222-20.557-20.557zm29.089 34.515v24.323c-5.366-2.739-9.048-8.322-9.048-14.749v-8.545c.172.003.343.013.516.013 2.94 0 5.797-.366 8.532-1.042zm-139.731 109.529c-1.794.599-3.169-.108-3.828-.584-.659-.475-1.765-1.554-1.765-3.447 0-1.702 1.011-3.235 2.576-3.906l13.322-5.709 4.154 8.826zm221.729-45.377c-6.067 4.719-14.496 4.66-20.498-.14l-25.268-20.214c-2.245-1.796-5.32-2.142-7.917-.902-2.596 1.239-4.254 3.863-4.269 6.739-.002.367-.525 36.269-28.237 72.68h-48.739c.601-.996 1.221-1.983 1.878-2.951l23.646-34.809c1.103-1.624 1.525-3.615 1.177-5.547l-6.989-38.703c-.536-2.967-2.796-5.325-5.738-5.985-2.943-.663-5.993.505-7.746 2.958l-34.02 47.628c-3.038 4.252-7.263 7.374-12.221 9.026l-18 6-4.688-9.962 21.874-9.375c1.406-.603 2.595-1.621 3.405-2.918l31.645-50.631c4.047-6.475 11.003-10.753 18.607-11.445l16.381-1.489c2.208 15.252 15.363 27.01 31.217 27.01 4.142 0 7.5-3.358 7.5-7.5v-22.684c10.175.375 19.868 4.546 27.174 11.852l24.151 24.151c2.392 2.391 6.087 2.887 9.024 1.208l20.647-11.798 8.42 10.364zm48.192-39.391c-.046.749-.331 2.166-1.711 3.239l-12.219 9.504-7.064-8.695 14.339-8.194c1.74-.995 3.943-.699 5.36.718 1.236 1.237 1.342 2.678 1.295 3.428zm14.348 4.694c.324-1.223.544-2.48.624-3.762.249-3.997-.762-7.926-2.802-11.289l27.314 23.952v17.839zm119.868-77.816-14.916 17.609c-1.786.496-3.636.761-5.514.761-11.335 0-20.557-9.222-20.557-20.557s9.222-20.557 20.557-20.557 20.557 9.222 20.557 20.557c-.001.733-.051 1.464-.127 2.187zm20.547-1.049.818-.966c1.147-1.354 1.777-3.072 1.777-4.848v-83.243c0-2.637 2.146-4.782 4.782-4.782 2.569 0 4.667 2.011 4.778 4.577l3.624 84.375c.243 5.664-1.466 11.15-4.814 15.663zm-127.151 383.741c-1.5 2.727-4.364 4.42-7.476 4.42h-2.69l9.398-19.736h9.192zm16.674-30.316h-10.299l57.052-119.81c1.706-.213 3.364-.511 4.918-.793 2.845-.516 6.744-1.225 8.248-.673 1.073.392 2.855 2.343 4.458 4.227zm144.242 29.386c.265 1.842-.573 3.129-1.096 3.733s-1.679 1.616-3.539 1.616c-2.225 0-4.156-1.583-4.592-3.764l-3.048-15.239h10.31zm-4.123-28.653h-11.151l-23.232-116.163c.315-.13.609-.232.844-.258 1.6-.177 5.211 1.428 7.855 2.602 2.946 1.309 6.287 2.785 9.806 3.468zm18.361-148.538c-5.067.234-10.811.5-15.552 3.557-4.658 3.003-7.402 8.155-9.823 12.701-1.274 2.392-3.644 6.841-4.896 7.299-.003.001-.007.002-.01.003-1.215.311-5.418-1.547-7.676-2.551-4.681-2.079-9.988-4.437-15.625-3.798-5.449.615-10.062 4.035-14.132 7.052-2.139 1.586-6.126 4.545-7.433 4.381-.74-.089-2.071-1.338-3.396-2.777-.456-.764-1.053-1.451-1.777-2.023-.372-.439-.718-.854-1.017-1.213-3.243-3.893-6.918-8.305-12.068-10.189-5.33-1.951-11.042-.914-16.079 0-2.435.442-6.966 1.265-8.06.668-1.119-.738-2.374-5.63-3.047-8.258-1.279-4.989-2.729-10.643-6.547-14.661-.682-.718-1.671-1.579-2.813-2.465l55.287-69.108 27.744 11.891c13.167 5.643 23.623 15.96 29.441 29.051l17.964 40.418c-.162.007-.326.015-.485.022z"/></g></svg>