<svg height="512" viewBox="0 0 60 60" width="512" xmlns="http://www.w3.org/2000/svg"><g id="Page-1" fill="none" fill-rule="evenodd"><g id="018---Sewing-Machine" fill="rgb(0,0,0)" fill-rule="nonzero"><path id="Shape" d="m57 32h-8.184c.263-.738.184.428.184-17h2c1.6568542 0 3-1.3431458 3-3v-2c0-1.65685425-1.3431458-3-3-3h-2c-.0044086-3.86416566-3.1358343-6.99559136-7-7h-18c-3.8641657.00440864-6.9955914 3.13583434-7 7v6.5c0 1.9329966 1.5670034 3.5 3.5 3.5h1.5v3h-1c-.5522847 0-1-.4477153-1-1s-.4477153-1-1-1c-1.909 0-.975 4 2 4h1v2h-6c-2.209139 0-4 1.790861-4 4v4h-9c-1.65685425 0-3 1.3431458-3 3v2c.00525139 1.2667854.80564914 2.3937454 2 2.816v18.184c0 1.1045695.8954305 2 2 2h3c1.1045695 0 2-.8954305 2-2v-18h3v13.336c.0011942.8312636.5164488 1.5751262 1.2942367 1.8684634.7777878.2933371 1.6559345.0749858 2.2057633-.5484634.435-.5.607-.656.994-.656s.562.161 1 .658c.5558236.8379356 1.4944773 1.3416876 2.5 1.3416876s1.9441764-.503752 2.5-1.3416876c.437-.5.61-.659 1-.659s.564.161 1 .66c.548785.6279994 1.4296554.8495375 2.2102381.5558728.7805826-.2936648 1.2969968-1.0408784 1.2957619-1.8748728v-13.34h23v18c0 1.1045695.8954305 2 2 2h3c1.1045695 0 2-.8954305 2-2v-18.184c1.1943509-.4222546 1.9947486-1.5492146 2-2.816v-2c0-1.6568542-1.3431458-3-3-3zm-8-23h2c.5522847 0 1 .44771525 1 1v2c0 .5522847-.4477153 1-1 1h-2zm-42 49h-3v-18h3zm5-20h-9c-.55228475 0-1-.4477153-1-1v-2c0-.5522847.44771525-1 1-1h9zm8.5-23c-.8284271 0-1.5-.6715729-1.5-1.5v-6.5c.0033061-2.76005315 2.2399468-4.99669388 5-5h18c2.7600532.00330612 4.9966939 2.23994685 5 5v24c0 .5522847-.4477153 1-1 1h-18v-4c0-1.1045695.8954305-2 2-2h4c1.6568542 0 3-1.3431458 3-3v-9.5c0-1.9329966-1.5670034-3.5-3.5-3.5h-5c-1.9312982.0087793-3.4939777 1.5736912-3.5 3.505-.0027549.8264738-.6735216 1.4950046-1.5 1.495zm5.5 13c.01 25.876.09 25.444 0 25.344-.98.855-1.03.9 0 0-.5576305-.8382885-1.4976836-1.3420037-2.5045-1.3420037s-1.9468695.5037152-2.5045 1.3420037c-.436.5-.61.659-1 .659s-.561-.161-1-.658c-.5738749-.8137031-1.4958498-1.3115177-2.491-1.345-.998788.0208509-1.9276246.5172213-2.5 1.336v-25.336c0-1.1045695.8954305-2 2-2h10.537c-.3527836.6074196-.5380879 1.2975659-.537 2zm-2-4v-2h2c.5522847 0 1-.4477153 1-1s-.4477153-1-1-1h-2v-3.05c1.7206471-.230801 3.0038701-1.7009468 3-3.437-.0005756-.8307805.6692455-1.5064067 1.5-1.513h5c.8284271 0 1.5.6715729 1.5 1.5v9.5c0 .5522847-.4477153 1-1 1zm32 34h-3v-18h3zm2-21c0 .5522847-.4477153 1-1 1h-29v-4h29c.5522847 0 1 .4477153 1 1z"/><path id="Shape" d="m40 14h4c.5522847 0 1-.4477153 1-1s-.4477153-1-1-1h-4c-.5522847 0-1 .4477153-1 1s.4477153 1 1 1z"/><path id="Shape" d="m40 18h4c.5522847 0 1-.4477153 1-1s-.4477153-1-1-1h-4c-.5522847 0-1 .4477153-1 1s.4477153 1 1 1z"/><path id="Shape" d="m40 22h4c.5522847 0 1-.4477153 1-1s-.4477153-1-1-1h-4c-.5522847 0-1 .4477153-1 1s.4477153 1 1 1z"/><path id="Shape" d="m42 10c1.6568542 0 3-1.34314575 3-3s-1.3431458-3-3-3-3 1.34314575-3 3 1.3431458 3 3 3zm0-4c.5522847 0 1 .44771525 1 1s-.4477153 1-1 1-1-.44771525-1-1 .4477153-1 1-1z"/><path id="Shape" d="m18 28c-.5522847 0-1 .4477153-1 1v2c0 .5522847.4477153 1 1 1s1-.4477153 1-1v-2c0-.5522847-.4477153-1-1-1z"/><path id="Shape" d="m18 34c-.5522847 0-1 .4477153-1 1v2c0 .5522847.4477153 1 1 1s1-.4477153 1-1v-2c0-.5522847-.4477153-1-1-1z"/><path id="Shape" d="m18 40c-.5522847 0-1 .4477153-1 1v2c0 .5522847.4477153 1 1 1s1-.4477153 1-1v-2c0-.5522847-.4477153-1-1-1z"/><path id="Shape" d="m18 46c-.5522847 0-1 .4477153-1 1v2c0 .5522847.4477153 1 1 1s1-.4477153 1-1v-2c0-.5522847-.4477153-1-1-1z"/></g></g></svg>