<svg id="Image" height="512" viewBox="0 0 64 64" width="512" xmlns="http://www.w3.org/2000/svg"><g><path d="m57.971 40.103-1.971-14.131c-.461-3.3-2.475-6.07-5.23-7.624 1.261-.737 1.984-1.686 2.032-1.751.54-.724.034-1.571-.703-1.577-.358-.2-.936-1.644-1.318-2.599-.801-2.003-1.767-4.406-3.564-5.17l.752-3.009c.159-.629-.318-1.242-.969-1.242h-8c-.651 0-1.128.613-.97 1.242l.778 3.115c-1.351.856-2.108 3.145-2.843 5.38-.382 1.161-1.022 3.104-1.434 3.381-.638.338-.717 1.223-.149 1.669.189.148.773.591 1.508.998-1.596 1.146-2.842 2.771-3.482 4.726l-1.36 4.18c-.08.246-.052.497.046.715l-.835.284-3.935-3.848c.421-.685.676-1.482.676-2.342-.013-.886.031-1.076-.05-1.642 1.377-2.957-.022-6.529-4.331-6.823-.83-1.338-2.347-2.15-3.939-2.057-3.721.208-5.465 4.708-2.871 7.375-.117.889.131 1.539.518 2.174-5.177 2.876-8.713 8.183-9.336 14.18l-.99 19.24c-.029.577.431 1.053.999 1.053h4v4c0 1.324 2 1.323 2 0v-4h3v4c0 1.324 2 1.323 2 0v-4h3v4c0 1.324 2 1.323 2 0v-4h2c.552 0 1-.447 1-1v-16.475c.995-.521 1.787-1.429 2.192-3.176l.638.403c.611.392 1.364.539 2.158.319.189.25.412.479.672.673l3.168 2.377-1.819 13.748c-.079.597.386 1.131.991 1.131h3v6c0 1.324 2 1.323 2 0v-6h4v6c0 1.324 2 1.323 2 0v-6h4v6c0 1.324 2 1.323 2 0v-6h3c.61 0 1.079-.542.989-1.146l-1.415-9.551c2.517.85 4.712-.909 4.397-3.2zm-14.39-22.14c-1.522.245-3-.841-3.251-2.498-.062-.417-.113-.769-.16-1.067.923-.333 1.905-1.027 2.973-2.097.845.618 1.738 1.31 2.725 1.581l.094.647c.248 1.641-.82 3.181-2.381 3.434zm2.418 1.051c.394.015.784.051 1.164.119-.663 2.12-1.687 3.373-3.205 4.623-1.923-1.409-2.697-2.853-3.152-4.396 1.607.922 3.572.883 5.193-.346zm-.279-14.014-.553 2.214c-1.666.485-2.892.492-4.326.025l-.56-2.239zm-9.224 11.818c.477-.796.874-1.952 1.369-3.456.411-1.248 1.348-4.089 2.041-4.337 2.19.785 3.928.703 6.177-.006 1.217.1 2.118 2.331 2.843 4.144.476 1.191.915 2.287 1.5 3-.607.489-1.543 1.029-2.697 1.046-.072-.015-.143-.031-.216-.044.414-.881.585-1.893.428-2.929l-.2-1.38c-.073-.498-.501-.856-.989-.856-.011 0-.02 0-.03 0-.603 0-1.407-.589-2.116-1.109-.1-.035-1.489-1.423-2.775-.107-1.44 1.472-2.339 1.814-2.841 1.844-.597.034-1.029.581-.928 1.167.028.189.29 1.962.291 1.966.086.57.281 1.098.537 1.591-.22.06-.436.131-.649.207-.454-.04-1.131-.363-1.745-.741zm-14.114 3.609c.789.466 1.675.738 2.59.82.052.519.017.578.028 1.253 0 1.379-1.122 2.5-2.5 2.5-1.216 0-2.23-.874-2.452-2.027.949-.678 1.755-1.537 2.334-2.546zm-5.706-4.786c.634-2.104 3.552-2.237 4.405-.246.129.302.487.611.927.607 1.569.001 2.612.441 3.099 1.309.334.596.371 1.343.262 1.964-.991-.037-1.929-.441-2.686-1.089-.933-.799-1.512.06-1.617.378-.426 1.125-1.197 2.088-2.173 2.786-.683-.408-1.333-1.242-1.043-1.987.064-.409.14-.809-.333-1.164-.788-.589-1.125-1.617-.841-2.558zm7.324 38.359h-15.947l.932-18.137c.571-5.489 3.932-10.355 8.813-12.847.087.054.178.097.269.145.323 2.167 2.178 3.839 4.433 3.839.834 0 1.607-.244 2.278-.641.324.696.321 1.517-.05 2.229-1.128 2.161-4.391 1.617-4.738-.813-.186-1.309-2.167-1.028-1.979.283.582 4.074 5.866 5.306 8.195 1.936.271 1.759.55 4.81-.52 6.246-.766 1.03-2.497.818-2.723.487-.345-1.219-2.177-.789-1.945.455.125.675.895 1.818 2.982 1.818zm4.443-20.858c.026-1.276-.11-2.58-.299-3.725l1.157 1.132c.27.264.667.354 1.021.231l.731-.249-.654 2.703c-.075.311-.102.625-.09.934-.382.019-.458-.183-1.866-1.026zm3.9.563 1.018-4.206 2.506.823-.743 2.567c-.114.394.023.815.346 1.067l3.648 2.844c.36.281.474.782.27 1.19-.386.772-1.381 1.013-2.079.491l-4.449-3.337c-.445-.333-.648-.898-.517-1.439zm2.799 18.295 1.532-11.583c1.712.826 3.69.091 4.502-1.533.628-1.257.28-2.797-.829-3.662l-3.115-2.428.098-.339c1.167 1.095 2.629 1.171 4.154.661 1.248-.419.628-2.313-.636-1.896-1.439.482-2.156.066-2.637-.892.051-.074.097-.153.127-.243l1-3c.418-1.254-1.479-1.889-1.897-.633l-.685 2.056-3.497-1.147 1.051-3.23c.715-2.185 2.374-3.865 4.452-4.647.561 2.138 1.597 4.337 4.692 6.354.355.231.818.214 1.156-.045 2.065-1.59 3.561-3.216 4.457-6.069 2.595 1.151 4.541 3.575 4.953 6.524l.384 2.752h-2.948l-.466-3.146c-.192-1.297-2.174-1.023-1.979.293l.575 3.882c-.023.803-1.051 1.531-2.2 1.048-1.221-.51-1.992 1.335-.771 1.846 1.101.46 2.332.409 3.369-.209l2.857 19.286zm18.028-11.428-1.418-9.572h2.93l1.307 9.377c.189 1.361-1.915 1.608-2.819.195z"/><path d="m19 38.667v-2.667c.552 0 1-.447 1-1v-2c0-1.324-2-1.323-2 0v1h-4v-5c0-1.324-2-1.323-2 0v6c0 .553.448 1 1 1v4c0 .197.059.391.168.555l2.234 3.351c1.269 1.903 3.95 2.155 5.558.55.775-.776.864-2.023.206-2.901zm-1.934 4.129-2.066-3.099v-3.697h2v3c0 .217.07.427.2.6l2.365 3.153c.35.467-1.595 1.398-2.499.043z"/></g></svg>