<svg fill="#3E7FCA" id="Outline" height="512" viewBox="0 0 64 64" width="512" xmlns="http://www.w3.org/2000/svg"><path d="m2.88 61.123c.062.507.494.877.991.877.042 0 .083-.002.125-.008.548-.067.938-.567.869-1.115-.088-.71-.221-1.423-.395-2.119-.312-1.248-.47-2.533-.47-3.819v-7.938c0-.552.449-1 1-1s1 .448 1 1v1c0 .553.448 1 1 1s1-.447 1-1v-2c0-.552.449-1 1-1s1 .448 1 1v2c0 .553.448 1 1 1s1-.447 1-1v-3c0-.552.449-1 1-1s1 .448 1 1v4c0 .553.448 1 1 1s1-.447 1-1v-10c0-.552.449-1 1-1s1 .448 1 1v13c0 .399.238.761.604.918.367.16.792.083 1.083-.191l4.506-4.262c.389-.392 1.024-.391 1.415 0 .188.188.292.438.292.706s-.104.518-.298.712l-5.715 5.793c-1.217 1.234-1.887 2.868-1.887 4.601v.723c0 .553.448 1 1 1s1-.447 1-1v-.723c0-.094.021-.184.027-.277h23.946c.006.093.027.183.027.277v.723c0 .553.448 1 1 1s1-.447 1-1v-.723c0-1.732-.67-3.366-1.887-4.601l-5.72-5.798c-.189-.189-.293-.44-.293-.707s.104-.518.293-.707c.391-.39 1.025-.39 1.435.02l4.486 4.242c.291.274.716.352 1.083.191.367-.157.604-.519.604-.918v-13c0-.552.449-1 1-1s1 .448 1 1v10c0 .553.448 1 1 1s1-.447 1-1v-4c0-.552.449-1 1-1s1 .448 1 1v3c0 .553.448 1 1 1s1-.447 1-1v-2c0-.552.449-1 1-1s1 .448 1 1v2c0 .553.448 1 1 1s1-.447 1-1v-1c0-.552.449-1 1-1s1 .448 1 1v7.938c0 1.286-.158 2.571-.47 3.819-.174.696-.307 1.409-.395 2.119-.068.548.321 1.048.869 1.115.042.006.083.008.125.008.497 0 .928-.37.991-.877.078-.63.196-1.263.351-1.881.352-1.406.53-2.854.53-4.304v-7.938c0-1.654-1.346-3-3-3v-11c0-.771-.301-1.468-.78-2 .48-.532.78-1.229.78-2v-23.999c0-1.654-1.346-3-3-3h-48.002c-1.654 0-3 1.346-3 3v24c0 .771.301 1.468.78 2-.48.532-.78 1.229-.78 2v11c-1.654 0-3 1.346-3 3v7.938c0 1.449.178 2.897.53 4.304.154.618.272 1.251.351 1.881zm16.935-23.123c-.169-.474-.449-.889-.816-1.22v-.78h2v2zm.184 6h1v2h-1zm0 4h1.774l-1.774 1.678zm7-2v-2h2v2zm10 0h-2v-2h2zm0 6v2h-10v-2zm6.371 6h-22.741c.191-.328.409-.642.682-.919l3.689-3.739v1.658c0 .553.448 1 1 1h12c.552 0 1-.447 1-1v-1.658l3.689 3.739c.273.277.491.591.682.919zm-1.145-10h1.775v1.678zm2.775-11.22c-.366.33-.647.746-.816 1.22h-1.184v-2h2zm-1 9.22h-1v-2h1zm11-3c-.535 0-1.037.141-1.472.387-.534-.833-1.468-1.387-2.528-1.387-.352 0-.686.072-1 .184v-2.184h4c.552 0 1-.447 1-1v-4c0-.553-.448-1-1-1h-4c-.552 0-1 .447-1 1v1.78c-.532-.48-1.229-.78-2-.78v-1c0-.553-.448-1-1-1h-4c-.552 0-1 .447-1 1v4c0 .553.448 1 1 1h2v2h-2c-.552 0-1 .447-1 1v3.87c-.579-.478-1.289-.711-2-.687v-3.183c0-.553-.448-1-1-1h-4c-.552 0-1 .447-1 1v4c0 .553.448 1 1 1h2.339c-.155.366-.239.762-.239 1.172 0 .286.053.561.13.828h-8.459c.077-.267.13-.542.13-.828 0-.41-.084-.806-.239-1.172h2.339c.552 0 1-.447 1-1v-4c0-.553-.448-1-1-1h-4c-.552 0-1 .447-1 1v3.18c-.715-.025-1.427.208-2 .687v-3.867c0-.553-.448-1-1-1h-2v-2h2c.552 0 1-.447 1-1v-4c0-.553-.448-1-1-1h-4c-.552 0-1 .447-1 1v1c-.771 0-1.468.301-2 .78v-1.78c0-.553-.448-1-1-1h-4c-.552 0-1 .447-1 1v4c0 .553.448 1 1 1h4v2.184c-.314-.112-.648-.184-1-.184-1.061 0-1.995.554-2.528 1.387-.435-.246-.937-.387-1.472-.387-.77 0-1.468.298-2 .777v-10.777c0-.552.449-1 1-1h47.999c.551 0 1 .448 1 1v10.777c-.532-.479-1.23-.777-2-.777zm-4-5v-2h2v2zm-38-2v2h-2v-2zm-6-31c0-.552.449-1 1-1h48c.551 0 1 .448 1 1v24c0 .552-.449 1-1 1h-48c-.551 0-1-.448-1-1z"/><path d="m30 34h-4c-.552 0-1 .447-1 1v4c0 .553.448 1 1 1h4c.552 0 1-.447 1-1v-4c0-.553-.448-1-1-1zm-1 4h-2v-2h2z"/><path d="m38 34h-4c-.552 0-1 .447-1 1v4c0 .553.448 1 1 1h4c.552 0 1-.447 1-1v-4c0-.553-.448-1-1-1zm-1 4h-2v-2h2z"/><path d="m10 28h44c.552 0 1-.447 1-1v-20c0-.553-.448-1-1-1h-44c-.552 0-1 .447-1 1v20c0 .553.448 1 1 1zm1-20h42v18h-42z"/><path d="m20.757 19.97c.082.021.163.03.244.03.448 0 .855-.303.969-.758l2-8c.134-.535-.192-1.078-.728-1.212-.534-.135-1.079.19-1.213.728l-2 8c-.134.535.192 1.078.728 1.212z"/><path d="m18.707 10.293c-.391-.391-1.023-.391-1.414 0l-4 4c-.391.391-.391 1.023 0 1.414l4 4c.195.195.451.293.707.293s.512-.098.707-.293c.391-.391.391-1.023 0-1.414l-3.293-3.293 3.293-3.293c.391-.391.391-1.023 0-1.414z"/><path d="m26.707 10.293c-.391-.391-1.023-.391-1.414 0s-.391 1.023 0 1.414l3.293 3.293-3.293 3.293c-.391.391-.391 1.023 0 1.414.195.195.451.293.707.293s.512-.098.707-.293l4-4c.391-.391.391-1.023 0-1.414z"/><path d="m40 10h-6c-.552 0-1 .447-1 1s.448 1 1 1h6c.552 0 1-.447 1-1s-.448-1-1-1z"/><path d="m50 10h-6c-.552 0-1 .447-1 1s.448 1 1 1h6c.552 0 1-.447 1-1s-.448-1-1-1z"/><path d="m40 18h-4c-.552 0-1 .447-1 1s.448 1 1 1h4c.552 0 1-.447 1-1s-.448-1-1-1z"/><path d="m44 20h2c.552 0 1-.447 1-1s-.448-1-1-1h-2c-.552 0-1 .447-1 1s.448 1 1 1z"/><path d="m17 22h-3c-.552 0-1 .447-1 1s.448 1 1 1h3c.552 0 1-.447 1-1s-.448-1-1-1z"/><path d="m30 22h-9c-.552 0-1 .447-1 1s.448 1 1 1h9c.552 0 1-.447 1-1s-.448-1-1-1z"/><path d="m40 14h-2c-.552 0-1 .447-1 1s.448 1 1 1h2c.552 0 1-.447 1-1s-.448-1-1-1z"/><path d="m44 16h4c.552 0 1-.447 1-1s-.448-1-1-1h-4c-.552 0-1 .447-1 1s.448 1 1 1z"/><path d="m40 22h-6c-.552 0-1 .447-1 1s.448 1 1 1h6c.552 0 1-.447 1-1s-.448-1-1-1z"/><path d="m50 22h-6c-.552 0-1 .447-1 1s.448 1 1 1h6c.552 0 1-.447 1-1s-.448-1-1-1z"/></svg>