<svg height="512pt" viewBox="0 0 512 512" width="512pt" xmlns="http://www.w3.org/2000/svg"><path d="m241.167969 200.925781c0-22.1875-18.050781-40.238281-40.242188-40.238281-22.1875 0-40.238281 18.050781-40.238281 40.238281 0 22.191407 18.050781 40.242188 40.238281 40.242188 22.191407 0 40.242188-18.054688 40.242188-40.242188zm-65.480469 0c0-13.917969 11.320312-25.238281 25.238281-25.238281s25.242188 11.320312 25.242188 25.238281-11.324219 25.242188-25.242188 25.242188-25.238281-11.324219-25.238281-25.242188zm310.824219 167.285157c-.757813-63.15625-35.394531-117.96875-85.84375-145.632813.777343-7.203125 1.183593-14.460937 1.183593-21.652344 0-110.789062-90.132812-200.925781-200.925781-200.925781-46.757812 0-92.296875 16.417969-128.222656 46.226562-3.1875 2.644532-3.628906 7.375-.980469 10.558594 2.644532 3.191406 7.371094 3.628906 10.558594.984375 33.242188-27.578125 75.375-42.769531 118.644531-42.769531 102.519531 0 185.925781 83.40625 185.925781 185.925781 0 4.871094-.214843 9.78125-.601562 14.675781-8.195312-3.460937-16.722656-6.230468-25.523438-8.253906 2.179688-1.308594 3.640626-3.691406 3.640626-6.421875 0-33.5-10.066407-65.699219-29.105469-93.117187-2.359375-3.402344-7.03125-4.246094-10.4375-1.882813-3.402344 2.363281-4.246094 7.035157-1.882813 10.4375 17.289063 24.894531 26.425782 54.136719 26.425782 84.5625 0 1.6875.5625 3.234375 1.5 4.488281-8.066407-1.304687-16.324219-1.984374-24.734376-1.984374-15.097656 0-29.710937 2.183593-43.570312 6.257812.3125-2.910156.476562-5.832031.476562-8.761719 0-45.273437-36.835937-82.109375-82.109374-82.109375-45.277344 0-82.113282 36.835938-82.113282 82.109375 0 41.546875 31.015625 75.957031 71.105469 81.355469-14.992187 25.015625-23.792969 54.433594-24.171875 85.933594-4.003906 3.933594-7.605469 8.253906-10.757812 12.898437-38.515626-9.808593-73.355469-32.097656-98.566407-63.191406-26.714843-32.945313-41.425781-74.492187-41.425781-116.996094 0-43.90625 15.589844-86.519531 43.902344-119.992187 2.671875-3.164063 2.277344-7.898438-.886719-10.570313-3.160156-2.675781-7.894531-2.28125-10.566406.882813-30.597657 36.175781-47.449219 82.230468-47.449219 129.679687 0 45.929688 15.898438 90.835938 44.773438 126.445313 26.40625 32.570312 62.605468 56.203125 102.722656 67.273437-4.652344 10.578125-7.230469 22.25-7.230469 34.476563 0 19.402344 7.511719 37.6875 21.152344 51.484375 12.476562 12.617187 28.769531 20.136719 46.300781 21.503906 3.589844 5.914063 10.074219 9.886719 17.484375 9.886719h17.378906c11.28125 0 20.460938-9.179688 20.460938-20.460938v-99.488281c48.914062-15.890625 90.058593-50.21875 114.601562-95.472656 1.816407 1.460937 3.585938 2.992187 5.285157 4.621093 4.8125 4.613282 11.132812 7.152344 17.796874 7.152344 5.246094 0 10.222657-1.550781 14.445313-4.429687 6.222656 9.347656 11.117187 19.609375 14.488281 30.460937-.855468-.105468-1.71875-.183594-2.597656-.183594h-17.382812c-11.28125 0-20.460938 9.179688-20.460938 20.460938v93.429688c0 4.140624 3.359375 7.5 7.5 7.5 4.144531 0 7.5-3.359376 7.5-7.5v-93.429688c0-3.011719 2.449219-5.460938 5.460938-5.460938h17.382812c2.613281 0 4.800781 1.847657 5.332031 4.308594.011719.058594.023438.121094.035157.179688.058593.316406.09375.640625.09375.972656v136.878906c0 .394532-.046876.777344-.125 1.152344-.019532.054688-.03125.113281-.046876.171875-.589843 2.371094-2.734374 4.136719-5.289062 4.136719h-17.382812c-3.011719 0-5.460938-2.449219-5.460938-5.460938v-7.960937c0-4.140625-3.355469-7.5-7.5-7.5-4.140625 0-7.5 3.359375-7.5 7.5v7.960937c0 11.28125 9.179688 20.460938 20.460938 20.460938h17.382812c7.410156 0 13.890625-3.972656 17.484375-9.886719 17.53125-1.367187 33.820313-8.886719 46.300781-21.507813 13.640625-13.792968 21.152344-32.078124 21.152344-51.480468 0-23.707032-9.636719-45.347656-25.488281-60.910156zm-352.695313-167.285157c0-37.003906 30.105469-67.109375 67.113282-67.109375 37.003906 0 67.109374 30.105469 67.109374 67.109375 0 4.867188-.542968 9.726563-1.597656 14.492188-26.554687 11.117187-49.613281 29.421875-66.945312 52.585937-36.34375-.765625-65.679688-30.550781-65.679688-67.078125zm70.925782 285.753907c-27.917969-4.273438-49.476563-28.574219-49.476563-57.558594 0-12.714844 3.367187-24.710938 9.3125-35.074219.269531-.371094.507813-.765625.707031-1.191406 3.390625-5.652344 7.5625-10.792969 12.382813-15.273438.453125-.328125.875-.699219 1.242187-1.117187 7.339844-6.496094 16.089844-11.5 25.832032-14.492188zm43.304687-100.296876v.054688 105.101562c0 3.011719-2.453125 5.460938-5.460937 5.460938h-17.382813c-2.503906 0-4.617187-1.699219-5.257813-4.003906-.027343-.109375-.050781-.222656-.082031-.328125-.078125-.367188-.121093-.742188-.121093-1.132813v-136.875c0-.316406.035156-.625.085937-.925781.015625-.082031.035156-.164063.046875-.25.539062-2.449219 2.722656-4.285156 5.328125-4.285156h17.382813c3.011718 0 5.460937 2.449219 5.460937 5.457031zm15-10.175781v-21.546875c0-11.285156-9.179687-20.460937-20.460937-20.460937h-17.382813c-.882813 0-1.746094.074219-2.597656.183593 3.371093-10.855468 8.265625-21.117187 14.492187-30.46875 9.828125 6.664063 23.332032 5.820313 32.238282-2.71875 15.113281-14.488281 35.285156-22.464843 56.796874-22.464843 13.867188 0 27.171876 3.335937 38.929688 9.574219-21.867188 40.992187-58.394531 72.4375-102.015625 87.902343zm137.679687-82.859375c-2.777343 0-5.410156-1.058594-7.417968-2.980468-17.921875-17.179688-41.777344-26.636719-67.175782-26.636719-25.402343 0-49.257812 9.457031-67.179687 26.636719-3.496094 3.351562-8.691406 3.855468-12.707031 1.582031 2.65625-3.035157 5.453125-5.949219 8.425781-8.691407 19.828125-18.304687 45.207031-28.382812 71.460937-28.382812 26.25 0 51.628907 10.078125 71.460938 28.382812 2.972656 2.742188 5.769531 5.65625 8.425781 8.695313-1.59375.90625-3.398437 1.394531-5.292969 1.394531zm21.582032-5.21875c-.15625-.230468-.332032-.449218-.515625-.664062-4.253907-5.433594-8.9375-10.535156-14.027344-15.230469-22.605469-20.867187-51.597656-32.359375-81.632813-32.359375-30.03125 0-59.023437 11.492188-81.636718 32.359375-5.089844 4.695313-9.773438 9.796875-14.027344 15.234375-.183594.210938-.359375.433594-.515625.664062-13.042969 16.882813-21.925781 36.957032-25.699219 58.40625-8.214844 2.097657-15.894531 5.359376-22.886718 9.578126 6.878906-77.117188 69.171874-137.691407 144.765624-137.691407 75.589844 0 137.886719 60.574219 144.765626 137.691407-6.996094-4.21875-14.675782-7.480469-22.886719-9.578126-3.777344-21.449218-12.660157-41.527343-25.703125-58.410156zm25.210937 198.550782v-124.707032c9.742188 2.992188 18.492188 7.996094 25.832031 14.492188.371094.417968.789063.792968 1.242188 1.121094 13.894531 12.902343 22.40625 31.304687 22.40625 51.535156 0 28.984375-21.558594 53.289062-49.480469 57.558594zm-285.804687-436.910157c-1.226563-3.953125-5.429688-6.164062-9.386719-4.933593-49.804687 15.492187-89.527344 54.246093-106.253906 103.671874-1.324219 3.925782.777343 8.179688 4.703125 9.507813.796875.269531 1.605468.398437 2.402344.398437 3.128906 0 6.046874-1.972656 7.105468-5.097656 15.1875-44.890625 51.261719-80.089844 96.496094-94.15625 3.957031-1.230468 6.164062-5.433594 4.933594-9.390625zm-56.84375 89.664063c-3.625-2.003906-8.191406-.6875-10.191406 2.9375-9.84375 17.828125-15.046876 38.074218-15.046876 58.554687 0 6.34375.496094 12.710938 1.472657 18.925781.578125 3.699219 3.769531 6.339844 7.398437 6.339844.386719 0 .777344-.03125 1.167969-.09375 4.09375-.640625 6.890625-4.476562 6.25-8.570312-.855469-5.449219-1.289063-11.035156-1.289063-16.601563 0-17.953125 4.558594-35.691406 13.179688-51.300781 2-3.628906.683594-8.191406-2.941406-10.191406zm0 0"/></svg>