<svg fill="#3E7FCA" id="Layer_5" enable-background="new 0 0 64 64" height="512" viewBox="0 0 64 64" width="512" xmlns="http://www.w3.org/2000/svg"><path d="m47 1v5.676c-.191.131-.37.28-.536.445l-3.222 3.222c-1.362 1.362-2.955 2.452-4.694 3.238.912-1.299 1.452-2.877 1.452-4.581 0-4.411-3.589-8-8-8s-8 3.589-8 8c0 1.704.54 3.281 1.451 4.58-1.739-.786-3.332-1.876-4.694-3.237l-3.222-3.222c-.723-.723-1.684-1.121-2.706-1.121-2.112 0-3.829 1.717-3.829 3.829v.229c0 .823.272 1.639.766 2.297l1.107 1.477c2.832 3.776 6.236 7.037 10.126 9.7v7.468h-10.999v2h40v-2h-11v-7.469c2.146-1.469 4.154-3.133 6-4.964v4.433h16v-22zm-15.092 15.995c.031.001.061.005.092.005.037 0 .073-.005.11-.006 1.08-.005 2.151-.109 3.212-.31l-3.322 3.797-3.326-3.801c1.082.202 2.161.308 3.234.315zm.092-13.995c3.309 0 6 2.691 6 6 0 3.077-2.329 5.617-5.316 5.958-.462.019-.925.018-1.391-.003-2.976-.351-5.293-2.886-5.293-5.955 0-3.309 2.691-6 6-6zm7.445 19.168-.445.297v8.535h-14v-8.535l-.445-.297c-3.887-2.591-7.278-5.8-10.082-9.537l-1.107-1.477c-.236-.314-.366-.704-.366-1.097v-.228c0-1.009.82-1.829 1.829-1.829.488 0 .947.19 1.293.536l3.222 3.222c1.645 1.645 3.591 2.938 5.721 3.834l6.935 7.927 6.937-7.928c2.128-.895 4.074-2.187 5.72-3.833l2.343-2.344v6.253c-2.247 2.463-4.782 4.653-7.555 6.501zm21.555-1.168h-12v-18h12z"/><path d="m56.157 49.822c2.3-1.407 3.843-3.935 3.843-6.822 0-4.411-3.589-8-8-8s-8 3.589-8 8c0 2.887 1.543 5.415 3.843 6.822-2.59 1.062-4.682 3.085-5.843 5.622-1.161-2.538-3.252-4.561-5.843-5.622 2.3-1.407 3.843-3.935 3.843-6.822 0-4.411-3.589-8-8-8s-8 3.589-8 8c0 2.887 1.543 5.415 3.843 6.822-2.59 1.062-4.682 3.085-5.843 5.622-1.161-2.538-3.252-4.561-5.843-5.622 2.3-1.407 3.843-3.935 3.843-6.822 0-4.411-3.589-8-8-8s-8 3.589-8 8c0 2.887 1.543 5.415 3.843 6.822-4.01 1.643-6.843 5.584-6.843 10.178v3h20 2 18 2 20v-3c0-4.594-2.833-8.535-6.843-10.178zm-10.157-6.822c0-3.309 2.691-6 6-6s6 2.691 6 6-2.691 6-6 6-6-2.691-6-6zm-20 0c0-3.309 2.691-6 6-6s6 2.691 6 6-2.691 6-6 6-6-2.691-6-6zm-20 0c0-3.309 2.691-6 6-6s6 2.691 6 6-2.691 6-6 6-6-2.691-6-6zm15 18h-3v-4h-2v4h-8v-4h-2v4h-3v-1c0-4.963 4.038-9 9-9s9 4.037 9 9zm20 0h-3v-4h-2v4h-8v-4h-2v4h-3v-1c0-4.963 4.038-9 9-9s9 4.037 9 9zm20 0h-3v-4h-2v4h-8v-4h-2v4h-3v-1c0-4.963 4.038-9 9-9s9 4.037 9 9z"/><path d="m51 5h8v2h-8z"/><path d="m51 9h8v2h-8z"/><path d="m51 13h8v2h-8z"/><path d="m51 17h8v2h-8z"/><path d="m31 26h2v2h-2z"/></svg>