<svg clip-rule="evenodd" fill-rule="evenodd" height="512" stroke-linejoin="round" stroke-miterlimit="2" viewBox="0 0 64 64" width="512" xmlns="http://www.w3.org/2000/svg"><g transform="translate(-560 -160)"><g id="icon"><path d="m596.419 215.086 10.076 5.7c.306.173.679.173.985 0l13-7.354c.314-.177.507-.51.507-.87v-14.708c0-.364-.197-.698-.515-.875l-4.9-2.717c.281-1.545.428-3.136.428-4.762 0-14.626-11.874-26.5-26.5-26.5s-26.5 11.874-26.5 26.5 11.874 26.5 26.5 26.5c2.393 0 4.713-.318 6.919-.914zm11.568 3.115 11-6.223v-12.349l-2.858 1.733v4.108c0 .537-.422.974-.952.999-.019.005-.307.076-.56.275-.032.054-.221.367-.33.55-.185.312-.395.596-.616.781-.479.402-1.386.711-1.386.711-.305.098-.638.045-.896-.144-.258-.188-.411-.488-.411-.808v-3.35l-2.991 1.812zm-2-11.897-10.999-6.484v12.158l10.999 6.223zm-4 5.039v2.657c0 .552.449 1 1 1 .552 0 1-.448 1-1v-1.344c.208.011.42-.043.606-.166.459-.307.583-.928.277-1.387l-1.05-1.576c-.235-.352-.665-.518-1.075-.415l-1.051.262c-.535.134-.861.678-.727 1.213.118.471.553.78 1.02.756zm-8.999-8.834c-1.801 3.667-3.85 5.041-6.167 5.849-.738.257-1.164.631-1.358 1.074-.3.688-.085 1.459.112 1.922.374.875.071 1.77-.575 2.233 1.458.271 2.963.413 4.5.413 1.476 0 2.921-.131 4.325-.381l-.33-.187c-.313-.177-.507-.51-.507-.87zm-17.109-10.988c-.093.07-.192.125-.293.169-.406.174-.95.171-1.56-.148-1.173-.613-2.97-2.751-3.969-4.223-.986-1.456-2.728-2.72-4.548-2.807-.334 1.61-.509 3.279-.509 4.988 0 10.792 6.993 19.963 16.69 23.227-1.868-1.535-2.482-2.997-2.62-4.492-.152-1.641.308-3.063.551-4.348.166-.876.224-1.674-.531-2.429-.669-.669-1.843-1.298-2.791-2.154-1.197-1.079-2.074-2.456-1.8-4.422.138-.988.577-2.263 1.38-3.361zm7.675 20.114c-1.749-1.252-2.38-2.37-2.493-3.584-.132-1.434.313-2.669.525-3.792.291-1.533.241-2.893-1.082-4.215-.688-.689-1.89-1.345-2.866-2.225-.727-.656-1.325-1.465-1.158-2.66.173-1.237.956-3.17 2.742-3.813.766-.276 1.709-.297 2.854.043 1.761.523 2.658 1.014 3.422 1.427 1.311.708 2.276 1.232 5.726 1.367.609.024 1.117.139 1.424.507.228.274.322.667.325 1.181.006.71-.172 1.597-.543 2.695-1.794 5.309-3.786 7.038-6.267 7.903-1.42.495-2.161 1.31-2.533 2.163-.449 1.029-.332 2.164-.076 3.003zm30.575-9.061-1.151.698v2.332c.112-.157.226-.287.335-.378.288-.239.567-.402.816-.514zm-15.081-6.487-3.261 1.883 11.193 6.598 3.297-1.998zm2-1.155 11.181 6.455 1.2-.728-11.15-6.437zm3.231-1.865 11.102 6.41 2.614-1.585-11.26-6.243zm-3.69-25.416c-3.33-1.695-7.099-2.651-11.089-2.651-.553 0-1.102.018-1.646.055-.217.539-.499 1.272-.549 2.01-.04.589.092 1.192.725 1.587 1.984 1.239 2.638 2.715 2.586 3.843-.063 1.35-1.058 2.433-2.62 2.633-.76.098-2.301-.317-3.864-.519-.627-.081-1.26-.12-1.822-.021-.406.072-.774.215-1.026.532-.374.474-.436 1.025-.432 1.707.005.928.153 2.048.212 3.443 0 0 .109 1.736-1.365 2.681-.795.51-2.157.843-4.497.179-.632-.18-1.132-.278-1.522-.303-.114-.008-.138.07-.035.223.268.398.658.792 1.03 1.055.799.564 1.372 1.476 1.7 2.506.46 1.447.428 3.11.039 4.165-.025.068-.053.132-.082.191.584-.641 1.317-1.18 2.213-1.503 1.101-.396 2.456-.481 4.1.008 1.958.581 2.955 1.126 3.804 1.584 1.109.6 1.933 1.014 4.853 1.129 1.263.05 2.248.462 2.883 1.225.503.604.809 1.493.766 2.733l8.523-4.921c-.318-1.165-.656-2.216-1.012-2.828-.332-.57-1.105-.798-2.024-1.021-1.863-.453-4.317-.625-6.457-1.242-2.236-.645-3.317-1.91-3.622-3.125-.34-1.354.223-2.77 1.524-3.653 1.739-1.181 3.678-4.011 5.083-7.292.895-2.089 2.417-3.529 3.623-4.41zm12.012 13.674c-.17.181-.323.49-.396.755-.163.6-.19 1.348-.171 2.159.047 1.999.262 3.717-.456 7.809l2.139 1.185c.186-1.217.283-2.464.283-3.733 0-2.865-.493-5.616-1.399-8.175zm-10.071-12.572c-.979.581-2.782 1.893-3.725 4.096-1.583 3.694-3.84 6.828-5.799 8.158-.548.373-.85.941-.707 1.513.179.711.926 1.311 2.236 1.689 2.113.609 4.536.773 6.375 1.221 1.55.376 2.721.997 3.281 1.959.362.623.723 1.647 1.063 2.806l.971-.561c.304-.176.678-.179.985-.009l2.512 1.393c.538-3.394.355-4.945.313-6.732-.025-1.027.034-1.971.241-2.732.197-.724.531-1.303 1.003-1.709.172-.147.363-.275.576-.378-1.99-4.423-5.255-8.15-9.325-10.714zm-16.889-3.45c-9.381 1.487-16.997 8.306-19.64 17.25 2.293.275 4.467 1.807 5.712 3.644.618.911 1.571 2.132 2.437 2.948.224.211.571.15.573-.248.004-.542-.08-1.133-.254-1.68-.19-.597-.485-1.151-.948-1.478-.819-.579-1.675-1.585-1.976-2.415-.215-.594-.183-1.139.037-1.559.21-.401.6-.76 1.312-.893.572-.106 1.489-.054 2.855.334 1.492.424 2.363.387 2.871.061.481-.308.447-.873.447-.873 0-.007 0-.014-.001-.02-.06-1.445-.209-2.589-.214-3.536-.007-1.194.208-2.129.864-2.958.842-1.066 2.214-1.408 3.714-1.341 1.086.049 2.235.301 3.172.473.472.087.87.167 1.139.133.4-.052.725-.229.837-.537.131-.361-.032-.8-.419-1.267-.28-.337-.673-.671-1.189-.993-1.378-.861-1.748-2.134-1.661-3.418.038-.56.172-1.12.332-1.627z"/></g></g></svg>