<svg id="Layer_1" height="512" viewBox="0 0 64 64" width="512" xmlns="http://www.w3.org/2000/svg" data-name="Layer 1"><g><path d="m61.8008 8.915a1.01 1.01 0 0 0 -.9717-.3877c-28.5634 4.9678-34.7269 33.9062-35.1924 36.3327l-7.3906 8.4838a1 1 0 1 0 1.5078 1.3134l7.4655-8.57c18.4245-3.344 27.5806-14.9672 29.9574-18.4778a1 1 0 0 0 -.4307-1.4781 9.7916 9.7916 0 0 1 -2.7471-1.7 32.8506 32.8506 0 0 0 5.1026-.9654 1.0009 1.0009 0 0 0 .7441-1.0171 27.5536 27.5536 0 0 1 2.05-12.49 1.0022 1.0022 0 0 0 -.0949-1.0438zm-3.9844 12.8135a24.829 24.829 0 0 1 -5.7373.8028.9994.9994 0 0 0 -.9482 1.3164c.0722.2182.7441 1.999 3.7177 3.5883a44.1238 44.1238 0 0 1 -25.4486 16.1485l15.787-18.1221a1 1 0 1 0 -1.5078-1.3135l-15.1276 17.3645c2.4239-8.0154 10.1084-26.1462 30.8371-30.6667a31.1911 31.1911 0 0 0 -1.5723 10.8818z"/><path d="m27 48.43a1 1 0 0 0 -1 1v.57a3.012 3.012 0 0 1 -2.9785 3 1 1 0 0 0 .0088 2h.0088a5.0187 5.0187 0 0 0 4.9609-5v-.57a1 1 0 0 0 -1-1z"/><path d="m16 53h-9a3.0033 3.0033 0 0 1 -3-3v-8a5.0059 5.0059 0 0 1 5-5h12a4.9955 4.9955 0 0 1 3.749 1.7007 1 1 0 0 0 1.502-1.3213 6.997 6.997 0 0 0 -4.251-2.2982v-2.2655a2.995 2.995 0 0 0 2-2.8157v-2a3.0033 3.0033 0 0 0 -3-3h-12a3.0033 3.0033 0 0 0 -3 3v2a2.995 2.995 0 0 0 2 2.8157v2.2643a7.005 7.005 0 0 0 -6 6.92v8a5.0059 5.0059 0 0 0 5 5h9a1 1 0 0 0 0-2zm-6-18v-2h10v2zm-2-7a1.0009 1.0009 0 0 1 1-1h12a1.0009 1.0009 0 0 1 1 1v2a1.0009 1.0009 0 0 1 -1 1h-12a1.0009 1.0009 0 0 1 -1-1z"/><path d="m19 42h-8a1 1 0 0 0 0 2h8a1 1 0 0 0 0-2z"/><path d="m19 46h-8a1 1 0 0 0 0 2h8a1 1 0 0 0 0-2z"/></g></svg>