<svg id="Layer_1" enable-background="new 0 0 512.014 512.014" height="512" viewBox="0 0 512.014 512.014" width="512" xmlns="http://www.w3.org/2000/svg"><g><path d="m464.007 32h-40v-8c0-13.233-10.767-24-24-24s-24 10.767-24 24v8h-240v-8c0-13.233-10.767-24-24-24s-24 10.767-24 24v8h-40c-17.645 0-32 14.355-32 32v336c0 17.645 14.355 32 32 32h56c4.418 0 8-3.582 8-8s-3.582-8-8-8h-56c-8.822 0-16-7.178-16-16v-272h448v272c0 8.822-7.178 16-16 16h-56c-4.418 0-8 3.582-8 8s3.582 8 8 8h56c17.645 0 32-14.355 32-32 0-14.641 0-319.924 0-336 0-17.645-14.355-32-32-32zm-72-8c0-4.411 3.589-8 8-8s8 3.589 8 8v40c0 4.411-3.589 8-8 8s-8-3.589-8-8zm-288 0c0-4.411 3.589-8 8-8s8 3.589 8 8v40c0 4.411-3.589 8-8 8s-8-3.589-8-8zm-72 88v-48c0-8.822 7.178-16 16-16h40v16c0 13.233 10.767 24 24 24s24-10.767 24-24v-16h240v16c0 13.233 10.767 24 24 24s24-10.767 24-24v-16h40c8.822 0 16 7.178 16 16v48z"/><path d="m273.664 342.343c-19.115-19.113-76.573-71.33-95.424-51.879-2.486 2.59-3.678 5.688-3.961 9.182-30.659 88.57-39.129 113.04-69.832 201.737-2.18 6.299 3.877 12.361 10.177 10.177l201.699-69.819c3.937-.31 7.096-1.824 9.341-4.083 19.086-19.087-33.087-76.402-52-95.315zm-2.662 98.155c-34.218-22.711-73.819-62.812-95.495-95.487l6.763-19.539c19.784 35.783 72.612 88.554 108.263 108.264zm-44.784 15.502h-89.13l5.538-16h100.543c3.081 2.433 6.135 4.755 9.154 6.963zm-72.515-48c57.861 0 53.588-.142 54.019.288 5.481 5.479 11.014 10.732 16.537 15.712h-76.094zm15.343-44.323c6.72 9.17 14.576 18.752 23.21 28.323h-33.014zm133.185 37.589c8.883 13.52 11.29 21.196 11.624 24.398l-.442.153c-3.349-.434-10.974-2.943-24.14-11.594-43.902-28.845-96.252-89.765-99.083-111.629l.153-.442c3.203.333 10.879 2.741 24.399 11.624 30.065 19.755 67.766 57.471 87.489 87.49zm-170.682 70.734h48.446l-55.041 19.053z"/><path d="m282.35 341.657c3.126 3.124 8.189 3.123 11.314 0l64-64c3.124-3.125 3.124-8.189 0-11.314-3.125-3.123-8.189-3.123-11.314 0l-64 64c-3.124 3.125-3.124 8.189 0 11.314z"/><path d="m250.35 309.657c3.126 3.124 8.189 3.123 11.314 0 25.175-25.176 25.175-66.139 0-91.314-3.125-3.123-8.189-3.123-11.314 0-3.124 3.125-3.124 8.189 0 11.314 18.938 18.937 18.938 49.749 0 68.686-3.124 3.125-3.124 8.189 0 11.314z"/><path d="m405.664 373.657c3.124-3.125 3.124-8.189 0-11.314-25.176-25.174-66.139-25.174-91.314 0-3.124 3.125-3.124 8.189 0 11.314 3.125 3.123 8.189 3.123 11.314 0 18.936-18.938 49.75-18.938 68.686 0 3.126 3.124 8.189 3.123 11.314 0z"/><path d="m176.007 224c-4.418 0-8 3.582-8 8v8h-8c-4.418 0-8 3.582-8 8s3.582 8 8 8h8v8c0 4.418 3.582 8 8 8s8-3.582 8-8v-8h8c4.418 0 8-3.582 8-8s-3.582-8-8-8h-8v-8c0-4.418-3.582-8-8-8z"/><path d="m384.007 432h-8v-8c0-4.418-3.582-8-8-8s-8 3.582-8 8v8h-8c-4.418 0-8 3.582-8 8s3.582 8 8 8h8v8c0 4.418 3.582 8 8 8s8-3.582 8-8v-8h8c4.418 0 8-3.582 8-8s-3.582-8-8-8z"/><circle cx="312.007" cy="248" r="8"/><circle cx="392.007" cy="288" r="8"/><circle cx="360.007" cy="392" r="8"/><circle cx="232.007" cy="272" r="8"/></g></svg>