<svg fill="#3E7FCA" id="Capa_1"  enable-background="new 0 0 1775.999 1775.999" height="512" viewBox="0 0 1775.999 1775.999" width="512" xmlns="http://www.w3.org/2000/svg"><g fill="rgb(0,0,0)"><path d="m757.622 929.009c12.002-7.898 15.328-24.031 7.434-36.033-7.898-12.002-24.031-15.328-36.033-7.434-6.584 4.332-24.073 15.838-50.921 16.3-26.893.441-47.73-10.399-51.632-12.578-12.543-7.01-28.392-2.529-35.405 10.011-7.01 12.543-2.529 28.392 10.011 35.405 10.465 5.852 38.413 19.21 75.303 19.21.864 0 1.738-.007 2.612-.021 41.942-.721 69.557-18.887 78.631-24.86z"/><path d="m803.878 645.935c9.341-3.417 19.03-5.689 28.787-6.754 21.478-2.341 43.904 1.214 64.865 10.285 3.365 1.457 6.868 2.147 10.32 2.147 10.059 0 19.64-5.869 23.889-15.689 5.71-13.185-.357-28.503-13.542-34.209-29.217-12.647-60.748-17.58-91.172-14.26-13.934 1.519-27.733 4.756-41.014 9.612-13.493 4.936-20.434 19.872-15.498 33.369 4.931 13.494 19.875 20.421 33.365 15.499z"/><path d="m571.083 597.067c-13.285-4.856-27.084-8.093-41.018-9.612-30.424-3.316-61.952 1.613-91.172 14.26-13.185 5.706-19.248 21.024-13.542 34.209 4.249 9.82 13.826 15.689 23.889 15.689 3.448 0 6.955-.69 10.32-2.147 20.958-9.067 43.39-12.626 64.862-10.285 9.761 1.065 19.449 3.337 28.794 6.754 13.493 4.929 28.433-2.005 33.366-15.502 4.936-13.493-2.002-28.433-15.499-33.366z"/><path d="m851.403 682.804c-14.367 0-26.016 11.648-26.016 26.016v56.478c0 14.368 11.648 26.016 26.016 26.016s26.016-11.648 26.016-26.016v-56.478c-.001-14.368-11.649-26.016-26.016-26.016z"/><path d="m505.691 682.804c-14.368 0-26.016 11.648-26.016 26.016v56.478c0 14.368 11.648 26.016 26.016 26.016 14.367 0 26.016-11.648 26.016-26.016v-56.478c-.001-14.368-11.649-26.016-26.016-26.016z"/><path d="m1191.596 874.993c14.08 31.382 60.231 12.245 48.042-19.911-14.17-31.312-60.255-12.206-48.042 19.911z"/><path d="m1609.094 864.24c6.376 16.796 30.088 21.496 42.419 8.429 18.017-17.951 1.512-48.937-23.483-43.88-15.676 2.672-25.392 20.924-18.936 35.451z"/><path d="m1451.856 793.443c-14.055-31.364-60.238-12.265-48.039 19.876 14.062 31.368 60.276 12.238 48.039-19.876z"/><path d="m1771.587 939.495c-.479-.923-1.03-1.793-1.575-2.664 3.719-25.384-3.254-51.591-19.366-71.775 13.608-17.042 20.948-38.604 20.375-60.557-.666-25.714-11.582-49.384-30.712-66.641-33.571-30.324-85.064-31.746-120.355-3.472-11.013-8.838-23.851-14.93-37.497-18.01-4.804-17.628-14.541-33.557-28.541-46.211-35.204-31.742-89.285-33.022-126.064-2.893-36.637-30.126-90.815-28.891-126.075 2.9-14 12.637-23.74 28.565-28.544 46.2-13.656 3.077-26.494 9.164-37.515 18.006-26.016-20.885-60.897-25.523-90.895-14.329l-9.286-33.394c13.83-19.942 21.302-43.564 21.302-68.352 0-32.963-13.337-62.864-34.885-84.616 11.901-11.09 19.401-26.848 19.401-44.358v-53.693c0-33.47-27.233-60.703-60.703-60.703h-43.345v-186.997c-.001-103.628-84.308-187.936-187.937-187.936h-341.636c-103.629 0-187.937 84.308-187.937 187.936v186.996h-43.356c-33.47 0-60.703 27.233-60.703 60.703v53.693c0 17.51 7.496 33.265 19.394 44.351-21.558 21.753-34.902 51.656-34.902 84.623 0 24.805 7.482 48.444 21.329 68.397l-58.681 211.014c-14.236 51.202-3.958 104.836 28.19 147.141 32.148 42.301 81.061 66.565 134.199 66.565h141.511c-3.913 4.308-8.852 7.718-14.541 9.841-.253.094-.506.187-.76.288-.128.045-.246.101-.375.142l-173.264 58.306c-.003 0-.01.004-.017.007l-118.34 39.821c-95.39 32.11-159.486 121.295-159.486 221.923v308.232c0 14.368 11.648 26.016 26.016 26.016s26.016-11.648 26.016-26.016v-114.142h207.524v114.142c0 14.368 11.648 26.016 26.016 26.016s26.016-11.648 26.016-26.016v-526.437l63.953-21.52v257.436c0 27.733 22.564 50.297 50.297 50.297h205.724c14.368 0 26.016-11.648 26.016-26.016 0-14.367-11.648-26.016-26.016-26.016h-203.99v-273.212l23.504-7.909c53.661 71.591 137.241 113.771 227.456 113.771 90.229 0 173.787-42.173 227.445-113.761l23.518 7.912v273.195h-176.527c-14.367 0-26.016 11.648-26.016 26.016 0 14.367 11.648 26.016 26.016 26.016h178.262c27.733 0 50.297-22.564 50.297-50.297v-257.429l63.953 21.517v526.437c0 14.368 11.645 26.016 26.016 26.016s26.016-11.648 26.016-26.016v-114.156h105.96l-13.004 38.371c-6.944 20.476 2.549 43.016 22.04 52.406 46.596 22.564 121.697 49.402 215.329 49.398h1.099c93.108-.212 167.891-26.976 214.195-49.374 19.588-9.442 29.054-32.02 22.051-52.427l-57.297-169.039c22.21-14.548 36.925-39.641 36.925-68.116 0-26.963-13.188-50.893-33.442-65.708l50.37-124.257c5.401-13.313-1.02-28.485-14.336-33.883-13.32-5.394-28.485 1.023-33.883 14.336l-51.937 128.125h-267.478l-157.661-388.901c92.896-20.66 188.04-31.42 283.056-31.996 100.514-.659 201.35 10.132 299.724 32.003l-60.075 148.212c-5.401 13.313 1.02 28.485 14.336 33.883 13.327 5.401 28.489-1.023 33.883-14.336l65.774-162.254c4.306-10.651 3.737-22.598-1.549-32.771zm-180.638-161.363c7.718 7.857 18.02 12.182 29.016 12.182 10.999 0 21.305-4.326 28.856-12.016 1.114-1.117 2.199-2.105 3.274-2.997 15.519-12.782 38.444-12.276 53.342 1.179 8.453 7.624 13.268 18.058 13.563 29.373.291 11.1-3.774 21.551-11.457 29.519-.205.187-.402.378-.597.572-7.85 7.805-12.161 18.162-12.148 29.169.017 10.961 4.329 21.263 12.141 29.019.035.031.066.062.094.094 5.314 5.314 8.932 11.932 10.701 19.005-44.778-9.511-90.007-16.834-135.475-21.902 8.634-29.821 2.518-62.763-18.339-87.981 7.846-9.581 13.74-20.594 17.441-32.329 2.31 1.249 4.523 2.713 6.587 4.416 1.034.824 2.064 1.761 3.001 2.697zm-387.42-2.865c1.218 1.006 2.265 1.956 3.209 2.921 7.732 7.822 18.02 12.127 28.992 12.127h.062c10.975-.017 21.26-4.343 28.988-12.213.86-.878 1.908-1.825 3.098-2.81 2.001-1.651 4.156-3.077 6.417-4.298 3.705 11.794 9.612 22.835 17.451 32.381-20.538 25.01-26.466 58.14-18.055 87.919-45.517 5.068-90.798 12.376-135.607 21.895 1.446-5.831 4.083-11.374 7.995-16.13.732-.905 1.658-1.908 2.789-3.039 7.763-7.673 12.054-17.909 12.068-28.825.014-11.041-4.312-21.43-12.189-29.259-.194-.191-.389-.382-.59-.569-7.687-7.968-11.749-18.422-11.461-29.522.257-9.858 3.951-19.04 10.496-26.293.128-.125.243-.26.371-.385.86-.93 1.755-1.838 2.713-2.702 14.885-13.443 37.796-13.956 53.253-1.198zm-22.936 438.837-101.169-34.035c-.083-.028-.167-.059-.25-.083l-115.495-38.857c-.194-.062-.382-.135-.576-.194l-52.95-17.815c-1.093-.368-2.164-.777-3.212-1.224-.031-.014-.062-.028-.094-.042-5.682-2.442-10.646-6.039-14.697-10.43h139.645c34.833 0 67.589-10.274 95.266-29.37zm-718.914-281.852c-57.942-57.942-89.851-134.969-89.851-216.89v-165.327h613.447v165.327c0 169.119-137.602 306.706-306.741 306.706-81.955 0-158.965-31.895-216.855-89.816zm-189.428-265.671c-12.89-12.893-19.99-30.036-19.99-48.275 0-37.383 30.23-67.81 67.536-68.227v136.453c-17.971-.193-34.833-7.242-47.546-19.951zm812.563 0c-12.709 12.709-29.557 19.758-47.508 19.952v-136.453c37.289.416 67.502 30.844 67.502 68.227 0 18.238-7.1 35.381-19.994 48.274zm-53.023 392.811h-151.168v-47.778c88.519-60.564 148.625-159.711 155.909-273.011h.01c19.706 0 38.68-4.724 55.653-13.604l8.325 29.935c-9.848 14.517-15.37 31.531-15.838 49.558-.572 21.95 6.764 43.508 20.369 60.554-16.123 20.119-22.967 46.335-19.304 71.657-.59.94-1.176 1.88-1.689 2.876-5.269 10.195-5.807 22.144-1.488 32.741l24.233 59.77c-20.847 17.686-46.95 27.302-75.012 27.302zm-659.962-871.452c0-74.939 60.967-135.905 135.905-135.905h341.636c74.939 0 135.905 60.967 135.905 135.905v186.996h-613.446zm-104.059 247.699c0-4.78 3.892-8.672 8.672-8.672h69.305c.021 0 .045.003.066.003s.045-.003.066-.003h665.346c.024 0 .045.003.066.003s.045-.003.066-.003h69.295c4.783 0 8.672 3.892 8.672 8.672v53.693c0 4.78-3.888 8.672-8.672 8.672h-804.21c-4.78 0-8.672-3.892-8.672-8.672zm-35.267 577.736c-22.224-29.245-29.328-66.322-19.487-101.721l51.896-186.639c16.969 8.866 35.94 13.584 55.646 13.584 5.533 87.072 42.069 168.178 104.326 230.435 16.015 16.026 33.296 30.324 51.598 42.853v47.501h-151.204c-36.734.004-70.551-16.768-92.775-46.013zm27.067 570.435h-207.525v-142.059c0-78.265 49.853-147.633 124.049-172.611l83.475-28.09v342.76zm418.975-345.466c-70.436 0-135.93-31.493-179.878-85.355 18.579-16.577 29.845-40.563 29.845-66.575v-44.996c46.433 21.392 97.35 32.682 150.023 32.682 53.547 0 104.378-11.811 150.058-32.929v40.838c0 1.023.087 2.029.121 3.049 0 .118-.017.232-.017.35 0 .905.049 1.804.139 2.685 1.578 24.854 12.737 47.563 30.393 63.905-43.95 54.472-109.8 86.346-180.684 86.346zm418.975 345.452v-342.743l83.503 28.093c9.071 3.046 17.94 6.858 26.477 11.336l36.828 90.839c-20.264 14.818-33.459 38.753-33.459 65.722 0 28.468 14.704 53.554 36.904 68.105l-26.657 78.647h-123.596zm465.915-176.108c16.189 0 29.359 13.171 29.359 29.356s-13.171 29.356-29.359 29.356h-271.179c-16.185 0-29.356-13.171-29.356-29.356s13.171-29.356 29.356-29.356zm-134.601 316.28c-.329 0-.656 0-.985 0-79.091 0-143.412-21.402-185.474-40.803l22.169-65.4c.031-.097.069-.194.101-.291l33.571-99.043h259.247l55.843 164.748c-41.817 19.265-105.846 40.608-184.472 40.789zm-9.64-841.239c-30.594.184-61.199 1.415-91.745 3.625-8.634-15.654-7.253-35.641 4.364-49.787 1.159-1.381 2.248-2.577 3.333-3.639 7.909-7.822 12.276-18.256 12.29-29.38.017-11.263-4.402-21.87-12.442-29.869-.01-.007-.021-.017-.031-.028-.021-.021-.042-.042-.062-.062-8.599-8.599-13.202-20.001-13.043-32.155.01-.18.038-.361.045-.541.007-.208-.014-.413-.01-.621.472-12.123 5.675-23.282 14.742-31.465 16.275-14.676 41.295-15.249 58.049-1.446 1.249 1.044 2.497 2.189 3.607 3.299 7.878 7.964 18.374 12.352 29.557 12.356h.007c11.187 0 21.683-4.388 29.481-12.269 1.2-1.2 2.439-2.338 3.538-3.257 16.907-13.927 41.93-13.351 58.181 1.304 9.119 8.242 14.34 19.48 14.756 31.68 0 .142-.014.281-.007.427.004.132.024.257.031.389.201 12.21-4.416 23.671-13.053 32.301-.028.028-.056.055-.08.08-.024.024-.049.049-.073.073-16.345 16.348-16.345 42.95 0 59.302.225.229.461.451.697.673 13.778 14.281 16.081 35.926 6.837 52.676-36.271-2.636-72.63-3.878-108.969-3.666z"/></g></svg>