<svg viewBox="-18 0 512 512.00104" xmlns="http://www.w3.org/2000/svg"><path d="m179.773438 102.472656c-9.972657 0-19.5 7.636719-19.5 20.496094h-67.113282c-41.394531 0-75.070312 33.675781-75.070312 75.070312v46.617188h-2.183594c-8.773438 0-15.90625 7.136719-15.90625 15.902344v35.070312c0 8.773438 7.136719 15.90625 15.90625 15.90625h96.863281c8.769531 0 15.902344-7.136718 15.902344-15.90625v-35.070312c0-8.769532-7.132813-15.902344-15.902344-15.902344h-2.824219v-18.648438c0-6.167968 5.015626-11.183593 11.179688-11.183593h39.148438c0 12.855469 9.53125 20.496093 19.5 20.496093h116.902343c10.75 0 19.5-8.75 19.5-19.5v-.996093h60.28125c4.398438 0 7.976563 3.578125 7.976563 7.980469v274.332031c0 8.195312 6.671875 14.863281 14.867187 14.863281h62.125c8.195313 0 14.867188-6.667969 14.867188-14.863281v-299.097657c0-41.394531-33.679688-75.070312-75.070313-75.070312h-85.046875c0-12.757812-9.4375-20.496094-19.5-20.496094h-25.121093v-18.226562c9.28125-5.730469 17.601562-14.476563 23.636718-24.839844h3.769532c9.492187 0 17.214843-7.722656 17.214843-17.210938v-24.980468c0-9.492188-7.722656-17.214844-17.214843-17.214844-4.265626 0-117.195313 0-121.476563 0-9.492187 0-17.210937 7.722656-17.210937 17.214844v24.976562c0 9.492188 7.71875 17.214844 17.210937 17.214844h1.234375c6.285156 10.570312 15.359375 19.28125 26.171875 25.109375v17.957031zm-66.101563 158.085938v35.070312c0 .5-.402344.90625-.902344.90625h-96.863281c-.5 0-.90625-.40625-.90625-.90625v-35.070312c0-.496094.40625-.898438.90625-.898438h96.863281c.5 0 .902344.402344.902344.898438zm-18.726563-34.550782v18.648438h-61.855468v-46.617188c0-33.121093 26.945312-60.070312 60.070312-60.070312h67.113282v61.855469h-39.148438c-14.4375 0-26.179688 11.746093-26.179688 26.183593zm366.34375 270.992188h-61.855468v-157.71875h61.855468zm-60.070312-359.03125c33.125 0 60.070312 26.949219 60.070312 60.070312v126.242188h-61.855468v-101.476562c0-12.671876-10.308594-22.980469-22.980469-22.980469h-60.28125c0-6.5 0-54.085938 0-61.855469zm-100.046875-15.992188v53.9375h-45.449219c-4.140625 0-7.5 3.359376-7.5 7.5 0 4.144532 3.359375 7.5 7.5 7.5h45.449219v21.535157c0 4.339843-3.527344 7.871093-7.867187 7.871093h-110.160157c-4.339843 0-7.871093-3.53125-7.871093-7.871093 0-8.949219 0 .6875 0-21.535157h45.449218c4.144532 0 7.5-3.355468 7.5-7.5 0-4.140624-3.355468-7.5-7.5-7.5h-45.449218c0-6.1875 0-47.738281 0-53.9375 0-2.441406 2.0625-4.5 4.5-4.5h116.902343c2.4375 0 4.496094 2.058594 4.496094 4.5zm0-104.761718v24.976562c0 1.222656-.992187 2.214844-2.210937 2.214844-8.949219 0-4.179688 0-27.40625 0v-29.40625h27.40625c1.21875 0 2.210937.992188 2.210937 2.214844zm-44.617187-2.214844v29.40625h-36.664063v-29.40625zm-81.28125 2.214844c0-1.222656.992187-2.214844 2.210937-2.214844h27.40625v29.40625c-17.519531 0-16.996094 0-27.40625 0-1.21875 0-2.210937-.996094-2.210937-2.214844zm21.859374 42.191406h79.953126c-4.339844 5.4375-9.457032 9.910156-14.902344 12.964844h-48.132813c-6.480469-3.136719-12.234375-7.566406-16.917969-12.964844zm22.757813 27.964844h36.664063v15.101562h-36.664063zm0 0"/><path d="m64.335938 338.5625c30.386718 52.46875 28.449218 49.054688 29.195312 50.566406 1.839844 3.710938 6.335938 5.234375 10.050781 3.394532 3.710938-1.839844 5.230469-6.339844 3.394531-10.050782-1.046874-2.117187 1.285157 2.007813-32.132812-55.703125-2.195312-3.792969-6.125-6.058593-10.507812-6.058593-4.378907 0-8.308594 2.265624-10.503907 6.058593l-30.59375 52.828125c-18.335937 31.664063 4.480469 71.292969 41.097657 71.292969 18.339843 0 34.71875-10.273437 42.746093-26.8125 1.808594-3.726563.253907-8.214844-3.472656-10.023437-3.726563-1.808594-8.214844-.253907-10.023437 3.472656-5.496094 11.328125-16.703126 18.363281-29.25 18.363281-25.027344 0-40.671876-27.09375-28.113282-48.777344zm0 0"/></svg>