<svg id="Layer_1" enable-background="new 0 0 72 72" height="512" viewBox="0 0 72 72" width="512" xmlns="http://www.w3.org/2000/svg"><g><path d="m32.2 16.3.8 2.6c.2.5.7.8 1.2.7 3.8-1.1 6.3-4.6 6.3-8.6 0-.6-.4-1-1-1h-2.5v-.5h6c.6 0 1-.4 1-1s-.4-1-1-1h-6c-.4-2.7-2.7-4.5-5.3-4.5-3 0-5.5 2.5-5.5 5.5v2.4c0 3.2 2.8 5.8 6 5.4zm2.4 1c-.9-3.1-.3-1-1.6-5.3h5.5c-.3 2.3-1.8 4.3-3.9 5.3zm-6.4-8.8c0-1.9 1.6-3.5 3.5-3.5 2 0 3.5 1.6 3.5 3.5v1.5h-3.5c-.7 0-1.2.7-1 1.3l.9 3.1c-1.9 0-3.4-1.6-3.4-3.5z"/><path d="m57.5 43.4c.2-.5 0-1.1-.5-1.3-5.4-2.7-10.9-4.2-14-4.9.1-.1.2-.2.2-.4.7-1.7-.1-3.6-1.8-4.2l-7.6-2.6c-2.2-3.4-3.8-13.5-8.7-13.5-2.3 0-4.7.3-5.9 3.9-.1-.1-.2-.2-.3-.3l.5-1.8c.4-1.5-.5-3-2-3.3l-2-.4c-1.4-.3-2.8.5-3.2 1.9l-.6 2c-1.5.3-2.8 1.5-3.1 3.1l-3 13.1c-.5 2 .6 4.4 3.2 4.9 0 2.8 2.1 5.1 5.3 6.7l-8.6 14.5c-1.1 1.7-.9 4 .6 5.4 2 2 5.2 1.6 6.7-.7l7.9-12.5c.1-.1.1-.3.1-.4l.6-3.8c2.2.5 3.3.5 4.9.4l2.7 3.1v12.7c0 2.2 1.8 4 4 4s4-1.8 4-4v-14.1c0-1.2-.4-2.3-1.3-3.1l-1.5-1.6c2-1.8 2-3.5 6.6-7.6 1.8.4 8.8 1.9 15.4 5.2.5.3 1.1.1 1.4-.4zm-32.5-24.9c4.2 1.3 4.5 8.8 7.4 12.9.1.2.3.3.5.4l7.9 2.7c.6.2.9.9.7 1.5-.3.6-.9.8-1.4.6l-9.9-3.3s-1.7-3-4.4-7.9c-.3-.5-.9-.7-1.4-.4s-.7.9-.4 1.4l2.9 5.2-1.6 7.9c-.1.3 0 .7.3.9l5.4 5.6c-1.2.6-2.5 1-4 1.2l-5-5.7c-.2-.2-.5-.3-.7-.3-.1 0-.2 0-.3 0-.4.1-.6.4-.7.8l-.6 4.3c-1.1-.3-2.2-.7-3.2-1.1v-4.5c5.1-22.4 4.3-22.2 8.5-22.2zm-10-2 2 .4c.4.1.6.5.5.8l-.5 1.5c-.8-.2-.5-.1-3.3-.7l.4-1.5c.2-.4.5-.6.9-.5zm-7.5 18.6 3-13.1c.3-1.1 1.4-1.8 2.5-1.6 3 .7 2.3.5 3.7.8 1.1.3 1.8 1.3 1.6 2.5-1.8 7.7-1.1 4.7-3 13.2-.3 1.1-1.4 1.8-2.5 1.6l-3.7-.8c-1.1-.4-1.8-1.5-1.6-2.6zm3.4 4.9c1.3.3 1.8.4 2.4.4.4 0 .9-.1 1.3-.2-.1.4-.1 3.5-.1 4-2-1.1-3.4-2.6-3.6-4.2zm7.9 12.1-7.8 12.3c-.8 1.3-2.6 1.5-3.6.4-.8-.8-.9-2-.3-2.9l8.8-14.7c1.1.5 2.3.9 3.5 1.2zm2.8-5.3.4-2.4 2.5 2.8c-1.2 0-1.9-.1-2.9-.4zm12.6 2.4c.4.5.7 1.1.7 1.7v14.1c0 1.1-.9 2-2 2s-2-.9-2-2v-13.1c0-.2-.1-.5-.3-.7l-2.1-2.3c1.4-.3 2.7-.8 3.9-1.5zm-1.5-4.4-5.5-5.6 1.1-5.1.2.4c.1.2.3.4.6.5l9.3 3.1c-2.5 2.4-5.5 6.5-5.7 6.7z"/><path d="m62.6 45.9c-.4-.4-1-.4-1.4 0s-.4 1 0 1.4l2.5 2.5c.4.4 1 .4 1.4 0s.4-1 0-1.4z"/><path d="m59 47.1c-.1-.5-.7-.9-1.2-.7-.5.1-.9.7-.7 1.2l1 3.6c.1.5.7.8 1.2.7s.9-.7.7-1.2z"/><path d="m66.6 42.7-3.6-1c-.5-.1-1.1.2-1.2.7s.2 1.1.7 1.2l3.6 1c.5.1 1.1-.2 1.2-.7s-.2-1.1-.7-1.2z"/></g></svg>