<svg id="Capa_1" enable-background="new 0 0 512 512" height="512" viewBox="0 0 512 512" width="512" xmlns="http://www.w3.org/2000/svg"><g><path d="m512 270.523v-9.937c0-12.26-9.389-22.365-21.354-23.509l-5.027-18.906c-2.747-10.334-12.134-17.552-22.827-17.552h-.575c-3.566-20.138-21.183-35.485-42.329-35.485h-71.243c.736-.706 1.446-1.442 2.091-2.242.552.012 1.118.019 1.697.019 9.692 0 22.796-1.908 31.603-10.714 6.533-6.533 10.117-16.087 10.653-28.396.375-8.604-.949-15.543-1.006-15.835-.584-3.008-2.936-5.361-5.944-5.944-.292-.057-7.234-1.383-15.835-1.006-3.315.144-6.424.517-9.334 1.102 5.045-6.256 7.835-14.781 8.298-25.404.366-8.404-.928-15.186-.983-15.471-.584-3.008-2.936-5.361-5.944-5.944-.285-.055-7.065-1.347-15.471-.983-11.809.514-21.022 3.907-27.409 10.074-3.665-5.426-9.414-9.119-15.812-10.24-4.526-5.366-11.264-8.572-18.392-8.572-7.164 0-13.921 3.23-18.447 8.636-4.668.821-8.983 3.012-12.4 6.243-3.417-3.231-7.732-5.422-12.4-6.243-4.526-5.406-11.283-8.636-18.447-8.636-7.128 0-13.866 3.206-18.392 8.572-6.398 1.121-12.147 4.815-15.811 10.241-6.387-6.167-15.6-9.56-27.41-10.074-8.408-.364-15.186.928-15.471.983-3.008.584-5.361 2.936-5.944 5.944-.055.285-1.349 7.066-.983 15.471.463 10.626 3.255 19.153 8.301 25.409-2.916-.587-6.032-.962-9.355-1.106-8.606-.375-15.543.949-15.835 1.006-3.008.584-5.361 2.936-5.944 5.944-.057.292-1.381 7.231-1.006 15.835.536 12.31 4.12 21.863 10.653 28.396 8.807 8.807 21.91 10.714 31.603 10.714.578 0 1.144-.007 1.696-.019.646.8 1.355 1.536 2.091 2.242h-71.245c-21.146 0-38.763 15.347-42.329 35.485h-.575c-10.693 0-20.08 7.218-22.827 17.551l-5.027 18.907c-11.964 1.142-21.353 11.247-21.353 23.507v9.937c0 11.67 8.509 21.384 19.647 23.279v115.634c-11.066 1.421-19.647 10.893-19.647 22.339v12.12c0 12.423 10.106 22.529 22.529 22.529h466.942c12.423 0 22.529-10.106 22.529-22.529v-12.12c0-11.445-8.581-20.918-19.647-22.338v-115.635c11.138-1.895 19.647-11.609 19.647-23.279zm-132.42-154.4c.553 7.654-.069 19.344-6.171 25.446-4.349 4.349-11.39 5.815-17.375 6.195-.008-2.807-.494-5.613-1.477-8.28 2.016-5.582 1.895-11.753-.341-17.26 6.124-6.034 17.748-6.648 25.364-6.101zm-54.376-21.105c0-.003 0-.006 0-.009.085-6.852 1.422-14.952 6.102-19.632 5.854-5.854 17.057-6.487 24.467-5.968.516 7.419-.116 18.617-5.967 24.468-5.854 5.854-17.056 6.485-24.467 5.968-.103-1.482-.156-3.117-.135-4.827zm-7.518 19.053c.085 0 .168.014.253.017.496.082 1.211.192 2.122.308 2.244.619 4.21 2.097 5.412 4.159 1.345 2.307 3.814 3.726 6.485 3.729 3.202.003 6.187 1.717 7.793 4.475 1.613 2.771 1.621 6.227.023 9.019-1.332 2.327-1.323 5.189.024 7.507 1.616 2.783 1.63 6.239.035 9.02s-4.585 4.514-7.802 4.524c-2.682.008-5.156 1.445-6.493 3.77-1.604 2.79-4.591 4.528-7.798 4.535h-.019c-3.199 0-6.185-1.723-7.797-4.501-1.345-2.317-3.82-3.742-6.499-3.742-.006.001-.013 0-.02 0-3.214 0-6.207-1.72-7.812-4.491-1.607-2.774-1.608-6.23-.004-9.019 1.338-2.325 1.334-5.186-.008-7.508-1.611-2.786-1.616-6.241-.016-9.019 1.601-2.778 4.595-4.505 7.812-4.508 2.682-.002 5.16-1.434 6.501-3.756 1.611-2.788 4.602-4.519 7.808-4.519zm-52.95-40.683s.001 0 0 0c1.601-2.778 4.595-4.505 7.812-4.508 2.682-.002 5.159-1.434 6.501-3.756 1.61-2.787 4.601-4.518 7.807-4.518 3.19 0 6.174 1.718 7.787 4.484 1.345 2.307 3.814 3.726 6.485 3.729 3.202.003 6.188 1.717 7.793 4.474 1.613 2.771 1.622 6.226.023 9.02-1.332 2.327-1.323 5.188.024 7.507 1.616 2.783 1.63 6.239.035 9.019-1.595 2.781-4.585 4.515-7.802 4.525-2.682.008-5.157 1.445-6.493 3.77-1.604 2.79-4.591 4.527-7.797 4.534-.006 0-.013 0-.02 0-3.198 0-6.185-1.724-7.797-4.501-1.345-2.317-3.82-3.742-6.499-3.742-.007 0-.014 0-.021 0-3.213 0-6.206-1.72-7.81-4.491-1.607-2.774-1.609-6.23-.004-9.019 1.338-2.325 1.334-5.186-.008-7.508-1.611-2.786-1.617-6.242-.016-9.019zm-8.727 40.683c3.206 0 6.197 1.731 7.807 4.518 1.341 2.322 3.819 3.754 6.501 3.756 3.217.003 6.211 1.73 7.812 4.507 1.601 2.778 1.595 6.234-.015 9.02-1.342 2.322-1.345 5.183-.008 7.508 1.604 2.789 1.603 6.245-.004 9.019-1.605 2.771-4.597 4.491-7.812 4.491-.006-.001-.014-.001-.02 0-2.678 0-5.154 1.425-6.499 3.742-1.612 2.778-4.599 4.501-7.797 4.501h-.019c-3.206-.007-6.193-1.744-7.797-4.534-1.336-2.325-3.811-3.762-6.493-3.77-3.218-.01-6.207-1.743-7.802-4.524s-1.582-6.237.035-9.019c1.347-2.319 1.357-5.18.024-7.508-1.598-2.793-1.589-6.249.023-9.02 1.605-2.757 4.59-4.471 7.792-4.474 2.671-.002 5.139-1.422 6.485-3.729 1.613-2.765 4.596-4.484 7.787-4.484zm-52.935-31.759c-1.598-2.793-1.59-6.249.024-9.02 1.605-2.757 4.59-4.471 7.792-4.474 2.671-.002 5.139-1.422 6.485-3.729 1.613-2.766 4.597-4.484 7.787-4.484 3.206 0 6.197 1.731 7.807 4.518 1.342 2.322 3.819 3.754 6.501 3.756 3.217.003 6.211 1.73 7.812 4.507 0 .001.001.001.001.001 1.601 2.777 1.595 6.233-.016 9.019-1.342 2.322-1.345 5.183-.008 7.508 1.604 2.789 1.603 6.245-.004 9.019-1.605 2.771-4.597 4.491-7.811 4.491-.007 0-.014 0-.021 0-2.679 0-5.155 1.426-6.5 3.743-1.612 2.777-4.598 4.501-7.796 4.501-.006 0-.013 0-.02 0-3.206-.007-6.193-1.744-7.797-4.534-1.336-2.325-3.811-3.762-6.493-3.77-3.217-.01-6.207-1.743-7.802-4.524s-1.581-6.237.035-9.02c1.347-2.319 1.356-5.181.024-7.508zm-45.63 57.172c-.983 2.667-1.469 5.474-1.477 8.281-5.985-.379-13.026-1.846-17.375-6.195-6.104-6.104-6.725-17.799-6.172-25.445 7.619-.551 19.243.067 25.366 6.1-2.237 5.506-2.358 11.677-.342 17.259zm4.767-45.608c-5.853-5.853-6.484-17.056-5.968-24.467 7.419-.517 18.617.116 24.468 5.967 4.674 4.674 6.013 12.757 6.102 19.599 0 .021.001.043.001.065.02 1.7-.033 3.325-.136 4.798-7.336.49-18.637-.132-24.467-5.962zm24.251 66.723c-1.336-2.325-3.811-3.762-6.493-3.77-3.217-.01-6.207-1.743-7.802-4.525-1.595-2.78-1.582-6.236.035-9.019 1.347-2.318 1.356-5.18.024-7.507-1.598-2.793-1.589-6.249.024-9.02 1.605-2.757 4.59-4.471 7.792-4.474 2.67-.002 5.139-1.421 6.484-3.728 1.201-2.059 3.163-3.534 5.402-4.156.933-.119 1.661-.231 2.163-.314.075-.002.148-.015.223-.015 3.206 0 6.197 1.731 7.807 4.518 1.342 2.322 3.819 3.754 6.501 3.756 3.217.003 6.211 1.73 7.812 4.508h.001c1.601 2.777 1.595 6.233-.016 9.019-1.342 2.322-1.345 5.184-.008 7.508 1.604 2.789 1.603 6.245-.004 9.019-1.605 2.771-4.598 4.491-7.812 4.491-.006-.001-.013-.001-.02 0-2.678 0-5.155 1.426-6.499 3.742-1.613 2.777-4.598 4.501-7.797 4.501h-.019c-3.206-.007-6.194-1.744-7.798-4.534zm-171.433 109.924v-9.937c0-4.737 3.854-8.591 8.591-8.591h321.677c4.15 0 7.515-3.365 7.515-7.515s-3.365-7.515-7.515-7.515h-308.362l3.971-14.935c1-3.758 4.413-6.384 8.302-6.384h72.476c4.15 0 7.515-3.364 7.515-7.515 0-4.15-3.364-7.515-7.515-7.515h-56.509c3.292-11.784 14.117-20.456 26.937-20.456h327.777c12.82 0 23.645 8.672 26.937 20.456h-295.084c-4.15 0-7.515 3.365-7.515 7.515s3.365 7.515 7.515 7.515h311.05c3.889 0 7.303 2.625 8.302 6.384l3.97 14.934h-99.708c-4.15 0-7.515 3.364-7.515 7.515 0 4.15 3.364 7.515 7.515 7.515h113.024c4.737 0 8.591 3.854 8.591 8.591v9.937c0 4.737-3.854 8.591-8.591 8.591h-464.76c-4.737.001-8.591-3.853-8.591-8.59zm481.942 161.252v12.12c0 4.135-3.364 7.5-7.5 7.5h-466.942c-4.135 0-7.499-3.364-7.499-7.5v-12.12c0-4.135 3.364-7.5 7.499-7.5h164.162c4.15 0 7.515-3.365 7.515-7.515s-3.365-7.515-7.515-7.515h-152.015v-115.102h442.648v115.102h-260.574c-4.15 0-7.515 3.365-7.515 7.515s3.365 7.515 7.515 7.515h272.721c4.135 0 7.5 3.364 7.5 7.5z"/><path d="m202.456 139.602c0-4.495-3.657-8.151-8.151-8.151s-8.151 3.657-8.151 8.151c0 4.495 3.657 8.151 8.151 8.151 4.495 0 8.151-3.656 8.151-8.151z"/><ellipse cx="225.153" cy="86.137" rx="8.151" ry="8.151" transform="matrix(.381 -.925 .925 .381 59.77 261.527)"/><path d="m286.865 94.288c4.495 0 8.151-3.657 8.151-8.151s-3.656-8.151-8.151-8.151-8.151 3.657-8.151 8.151 3.656 8.151 8.151 8.151z"/><ellipse cx="256" cy="139.602" rx="8.151" ry="8.151" transform="matrix(.136 -.991 .991 .136 82.986 374.317)"/><path d="m317.695 147.753c4.494 0 8.151-3.657 8.151-8.151 0-4.495-3.657-8.151-8.151-8.151-4.495 0-8.151 3.657-8.151 8.151-.001 4.495 3.656 8.151 8.151 8.151z"/><path d="m209.235 353.77h93.529v6c0 4.15 3.365 7.515 7.515 7.515s7.515-3.365 7.515-7.515v-6h93.53v6c0 4.15 3.365 7.515 7.515 7.515s7.515-3.365 7.515-7.515v-6h10.222c4.15 0 7.515-3.365 7.515-7.515s-3.364-7.515-7.515-7.515h-10.222v-5.999c0-4.15-3.365-7.515-7.515-7.515s-7.515 3.365-7.515 7.515v5.999h-93.53v-5.999c0-4.15-3.365-7.515-7.515-7.515s-7.515 3.365-7.515 7.515v5.999h-93.529v-5.999c0-4.15-3.365-7.515-7.515-7.515s-7.515 3.365-7.515 7.515v5.999h-93.53v-5.999c0-4.15-3.365-7.515-7.515-7.515s-7.515 3.365-7.515 7.515v5.999h-10.22c-4.15 0-7.515 3.365-7.515 7.515s3.365 7.515 7.515 7.515h10.222v6c0 4.15 3.364 7.515 7.515 7.515 4.15 0 7.515-3.365 7.515-7.515v-6h93.53v6c0 4.15 3.365 7.515 7.515 7.515s7.515-3.365 7.515-7.515v-6z"/></g></svg>