<?xml version="1.0" encoding="iso-8859-1"?>
<!-- Generator: Adobe Illustrator 19.0.0, SVG Export Plug-In . SVG Version: 6.00 Build 0)  -->
<svg fill="#3E7FCA" xmlns="http://www.w3.org/2000/svg" xmlns:xlink="http://www.w3.org/1999/xlink" version="1.1" id="Layer_1" x="0px" y="0px" viewBox="0 0 512.532 512.532" style="enable-background:new 0 0 512.532 512.532;" xml:space="preserve" width="512" height="512">
<g>
	<path d="M464.519,114.304c-16.436-7.909-37.197-5.353-51.31,8.76l-42.426,42.426c-9.561,9.561-13.899,22.388-13.04,34.922H210   c-4.381,0-8.648,0.485-12.764,1.38c-0.98-4.496-2.651-8.863-5.018-12.962l-15-25.981c-1.99-3.448-4.394-6.562-7.13-9.309   c6.194-7.711,9.912-17.491,9.912-28.128c0-24.813-20.187-45-45-45H75c-19.555,0-36.228,12.542-42.42,30H0v30h32.58   c6.192,17.458,22.865,29.99,42.42,29.99h20.81c-4.485,12.801-3,26.248,3.466,37.447l15,25.981   c7.677,13.298,21.161,21.359,35.886,22.401c-0.096,1.383-0.162,2.774-0.162,4.181c0,12.865,4.084,24.788,11.004,34.567   c-6.245,4.375-11.466,10.383-14.914,17.776l-25.357,54.378c-10.486,22.488-0.722,49.315,21.766,59.802   c22.631,10.552,49.382,0.579,59.802-21.766l25.357-54.379c4.481-9.61,5.419-20.261,2.757-30.389h108.218   c-2.985,10.416-2.141,21.439,2.483,31.356l25.357,54.378c10.457,22.426,37.255,32.278,59.802,21.766   c22.488-10.486,32.252-37.313,21.766-59.802l-25.357-54.378c-3.089-6.625-7.642-12.27-13.271-16.607   C417.292,286.963,422,274.231,422,260.413c0-7.355-1.337-14.402-3.769-20.919c5.91-2.179,11.454-5.626,16.192-10.364l42.426-42.426   c14.024-14.023,16.677-34.693,8.843-51.145l26.84-26.465l-21.063-21.362L464.519,114.304z M75,140.413c-8.271,0-15-6.729-15-15   s6.729-15,15-15h60c8.271,0,15,6.729,15,15s-6.729,15-15,15H75z M160.747,224.322c-7.163,4.137-16.354,1.673-20.491-5.49   l-15-25.981c-4.145-7.179-1.69-16.344,5.491-20.49c7.163-4.134,16.355-1.672,20.49,5.49l15,25.981   C170.383,211.01,167.927,220.176,160.747,224.322z M200.469,338.114l-25.357,54.379c-3.502,7.512-12.42,10.76-19.934,7.255   c-7.496-3.495-10.751-12.438-7.255-19.934l25.357-54.378c3.479-7.461,12.403-10.766,19.934-7.255   C200.71,321.676,203.964,330.618,200.469,338.114z M362,290.413H210c-16.542,0-30-13.458-30-30s13.458-30,30-30h152   c16.542,0,30,13.458,30,30S378.542,290.413,362,290.413z M420.853,380.781c3.496,7.496,0.241,16.438-7.255,19.934   c-7.511,3.503-16.43,0.259-19.934-7.255l-25.357-54.378c-3.504-7.512-0.259-16.431,7.255-19.934   c7.543-3.518,16.443-0.23,19.934,7.255L420.853,380.781z M455.636,165.491l-42.426,42.426c-5.849,5.849-15.365,5.848-21.213,0   c-5.848-5.849-5.848-15.365,0-21.213l42.426-42.426c5.863-5.862,15.35-5.863,21.213,0   C461.498,150.141,461.498,159.627,455.636,165.491z"/>
</g>















</svg>
