<svg fill="#3E7FCA" id="Layer_3" enable-background="new 0 0 64 64" height="512" viewBox="0 0 64 64" width="512" xmlns="http://www.w3.org/2000/svg"><g><path d="m61.168 37.367-7.779-3.288c-.123-.053-.255-.079-.389-.079h-1v-3c0-.553-.448-1-1-1h-.168l5.758-8.956 1.227 6.134c-1.63.507-2.817 2.028-2.817 3.822 0 2.206 1.794 4 4 4s4-1.794 4-4h-2c0 1.103-.897 2-2 2s-2-.897-2-2 .897-2 2-2c.3 0 .583-.135.773-.366s.266-.536.207-.83l-1.836-9.179.697-1.084c.295-.459.167-1.07-.287-1.373l-3-2c-.441-.294-1.037-.194-1.354.232l-11.7 15.6h-3.5v-5c0-1.654-1.346-3-3-3h-2v-1c0-1.654-1.346-3-3-3s-3 1.346-3 3v1h-.408c-2.568 0-5.02 1.102-6.727 3.021l-5.354 6.022-7.836.783c-1.374.138-2.668.751-3.646 1.728l-.163.166c-.457.458-.835.982-1.123 1.559l-.109.219c-.415.828-.634 1.756-.634 2.683v3.819c-.552 0-1 .447-1 1v2c0 .155.036.309.105.447l.447.895c.512 1.022 1.54 1.658 2.684 1.658h2.059c.863 2.887 3.541 5 6.705 5s5.842-2.113 6.705-5h23.59c.863 2.887 3.541 5 6.705 5s5.842-2.113 6.705-5h2.295c2.206 0 4-1.794 4-4v-3.869c0-1.208-.719-2.293-1.832-2.764zm-18.168-5.367c.315 0 .611-.148.8-.4l11.433-15.243 1.395.93-.582.905-.026.005.005.026-7.866 12.236c-.198.308-.212.699-.037 1.021.175.32.512.52.878.52h1v2h-11v-2zm-13-11c0-.552.449-1 1-1s1 .448 1 1v1h-2zm-23 16c0 .552-.449 1-1 1h-1.979c.016-.341.08-.674.181-1zm-2.764 9c-.381 0-.724-.212-.894-.553l-.342-.683v-.764h3.295c-.19.634-.295 1.305-.295 2zm8.764 5c-2.757 0-5-2.243-5-5s2.243-5 5-5 5 2.243 5 5-2.243 5-5 5zm0-12c-2.373 0-4.47 1.189-5.736 3h-3.264v-2h2c1.654 0 3-1.346 3-3v-1c0-.553-.448-1-1-1h-2.586l.03-.03c.652-.651 1.515-1.061 2.431-1.152l8.224-.822c.25-.025.481-.144.648-.331l5.613-6.314c1.327-1.493 3.234-2.35 5.231-2.35h8.409c.551 0 1 .448 1 1v10 11h-17c0-3.86-3.14-7.001-7-7.001zm37 12c-2.757 0-5-2.243-5-5s2.243-5 5-5 5 2.243 5 5-2.243 5-5 5zm11-7c0 1.103-.897 2-2 2h-2c0-3.859-3.14-7-7-7s-7 3.141-7 7h-4v-10h13.797l7.591 3.209c.372.157.612.519.612.922z"/><path d="m34 25h-7.16c-1.462 0-2.846.637-3.796 1.746l-4.803 5.604c-.254.296-.312.714-.149 1.068s.517.582.908.582h15c.552 0 1-.447 1-1v-7c0-.553-.448-1-1-1zm-1 7h-11.826l3.388-3.953c.57-.665 1.4-1.047 2.278-1.047h6.16z"/><path d="m13 42c-2.206 0-4 1.794-4 4s1.794 4 4 4 4-1.794 4-4-1.794-4-4-4zm0 6c-1.103 0-2-.897-2-2s.897-2 2-2 2 .897 2 2-.897 2-2 2z"/><path d="m50 42c-2.206 0-4 1.794-4 4s1.794 4 4 4 4-1.794 4-4-1.794-4-4-4zm0 6c-1.103 0-2-.897-2-2s.897-2 2-2 2 .897 2 2-.897 2-2 2z"/><path d="m29 35h3v2h-3z"/><path d="m33 42c0 .552-.449 1-1 1h-9.279l-.025-.077c-.538-1.612-1.457-3.099-2.657-4.299l-.039-3.624h-2v4c0 .265.105.52.292.707l.331.331c.982.982 1.734 2.198 2.174 3.518l.253.761c.138.408.519.683.95.683h10c1.654 0 3-1.346 3-3v-7h-2z"/><path d="m30 10h2v6h-2z"/><path d="m32.146 13h6.708v2h-6.708z" transform="matrix(.447 -.894 .894 .447 7.102 39.491)"/><path d="m35.646 16.5h6.708v2h-6.708z" transform="matrix(.894 -.447 .447 .894 -3.709 19.289)"/><path d="m25.5 10.646h2v6.708h-2z" transform="matrix(.894 -.447 .447 .894 -3.463 13.329)"/><path d="m22 14.146h2v6.708h-2z" transform="matrix(.447 -.894 .894 .447 -2.938 30.246)"/></g></svg>