<svg fill="#3E7FCA" height="511pt" viewBox="-6 0 511 511.99971" width="511pt" xmlns="http://www.w3.org/2000/svg"><path d="m295.355469 234.695312c9.117187-13.453124 14.464843-29.167968 15.328125-45.710937 0-.039063 0-.078125.003906-.117187l.25-6.890626c1.558594.257813 3.132812.394532 4.714844.394532 10.035156 0 18.898437-5.109375 24.125-12.863282 54.363281-13.992187 65.855468-32.839843 65.855468-46.257812 0-17.75-19.824218-32.933594-57.332031-43.917969-9.542969-2.792969-19.949219-5.234375-31.042969-7.304687v-34.941406c0-12.855469-6.507812-24.601563-17.402343-31.417969-10.894531-6.8125-24.300781-7.527344-35.855469-1.90625-14.085938 6.851562-28.648438 13.933593-43.199219 13.933593-14.554687 0-29.117187-7.082031-43.203125-13.933593-11.554687-5.621094-24.957031-4.90625-35.851562 1.90625-10.898438 6.816406-17.402344 18.5625-17.402344 31.417969v34.957031c-20.128906 3.746093-37.683594 8.644531-51.71875 14.507812-24.324219 10.152344-36.65625 22.5-36.65625 36.699219 0 13.425781 11.496094 32.269531 65.851562 46.257812 5.226563 7.753907 14.089844 12.863282 24.125 12.863282 1.585938 0 3.160157-.144532 4.710938-.398438l.253906 6.890625c0 .042969 0 .082031.003906.121094.886719 16.941406 6.429688 32.566406 15.324219 45.703125-17.117187.308594-33.78125 5.820312-47.664062 15.707031-5.0625-5.34375-10.441407-10.140625-16.0625-14.300781-6.289063-4.65625-14.742188-4.65625-21.03125-.003906-35.390625 26.183594-58.179688 73.824218-60.957031 127.441406-.25 4.792969 1.511718 9.542969 4.824218 13.03125 3.335938 3.511719 8.023438 5.527344 12.867188 5.527344h33.722656v122.410156c0 4.144531 3.355469 7.5 7.5 7.5 4.140625 0 7.5-3.355469 7.5-7.5v-159.5c0-2.785156 2.265625-5.050781 5.050781-5.050781 2.785157 0 5.054688 2.265625 5.054688 5.050781v159.5c0 4.144531 3.355469 7.5 7.5 7.5 4.140625 0 7.5-3.355469 7.5-7.5v-122.410156h29.820312v104.953125c0 4.144531 3.355469 7.5 7.5 7.5s7.5-3.355469 7.5-7.5v-85.015625h88.683594c4.144531 0 7.5-3.355469 7.5-7.5 0-4.140625-3.355469-7.5-7.5-7.5h-58.929687v-130.886719c4.609374 3.476563 9.554687 6.515625 14.785156 9.066406v13.605469c0 21.722656 17.671875 39.394531 39.398437 39.394531 21.722657 0 39.394531-17.671875 39.394531-39.394531v-13.605469c5.183594-2.527343 10.132813-5.558593 14.785157-9.074219v130.898438h-11.988281c-4.144532 0-7.5 3.355469-7.5 7.5 0 4.140625 3.355468 7.5 7.5 7.5h41.742187v85.015625c0 4.140625 3.355469 7.5 7.5 7.5s7.5-3.359375 7.5-7.5v-119.925781c0-4.144532-3.355469-7.5-7.5-7.5s-7.5 3.355468-7.5 7.5v19.90625h-14.753906v-137.371094h3.871093c38.46875 0 69.765626 31.292969 69.765626 69.761719v161.097656c0 1.007813-.820313 1.828125-1.828126 1.828125-4.140624 0-7.5 3.355469-7.5 7.5 0 4.140625 3.359376 7.5 7.5 7.5 9.277344 0 16.828126-7.550781 16.828126-16.828125v-161.097656c0-46.234375-37.21875-83.917969-83.261719-84.722657zm20.296875-67.324218c-1.433594 0-2.820313-.234375-4.15625-.644532l.992187-27.148437c1.027344-.234375 2.082031-.355469 3.164063-.355469 7.761718 0 14.074218 6.3125 14.074218 14.074219s-6.3125 14.074219-14.074218 14.074219zm-264.683594-44.121094c0-14.09375 37.664062-33.277344 107.472656-41.078125 4.113282-.457031 7.078125-4.167969 6.621094-8.285156-.460938-4.117188-4.152344-7.078125-8.289062-6.621094-5.96875.667969-11.777344 1.425781-17.429688 2.269531v-32.449218c0-7.652344 3.871094-14.644532 10.359375-18.699219 6.480469-4.058594 14.457031-4.480469 21.335937-1.136719 14.882813 7.238281 31.753907 15.445312 49.761719 15.445312 18.007813 0 34.878907-8.207031 49.761719-15.445312 6.878906-3.34375 14.855469-2.921875 21.335938 1.136719 6.488281 4.058593 10.359374 11.046875 10.359374 18.699219v32.429687c-24.96875-3.722656-52.714843-5.695313-81.457031-5.695313-9.542969 0-19.171875.226563-28.617187.667969-4.140625.195313-7.335938 3.707031-7.140625 7.84375.191406 4.136719 3.6875 7.316407 7.84375 7.140625 9.210937-.433594 18.605469-.652344 27.914062-.652344 105.222657 0 169.832031 25.878907 169.832031 44.429688 0 7.585938-12.269531 19.40625-45.921874 29.339844-.378907-15.703125-13.261719-28.367188-29.058594-28.367188-2.265625 0-4.488282.261719-6.648438.769532-2.472656-3.117188-6.042968-5.355469-10.191406-6.066407-23.59375-4.050781-50.570312-6.1875-78.011719-6.1875-27.445312 0-54.421875 2.136719-78.015625 6.1875-4.152344.710938-7.722656 2.953125-10.195312 6.070313-2.164063-.507813-4.382813-.773438-6.640625-.773438-15.796875 0-28.679688 12.664063-29.058594 28.367188-33.652344-9.933594-45.921875-21.75-45.921875-29.339844zm74.976562 44.121094c-7.757812 0-14.074218-6.3125-14.074218-14.074219s6.316406-14.074219 14.074218-14.074219c1.078126 0 2.132813.132813 3.164063.367188l.992187 27.152344c-1.339843.410156-2.738281.628906-4.15625.628906zm10.917969 219.660156v-8.871094c.617188-.496094 1.21875-1.019531 1.769531-1.597656 3.3125-3.492188 5.070313-8.242188 4.824219-13.03125-.863281-16.613281-3.664062-32.835938-8.324219-48.21875-1.203124-3.964844-5.394531-6.199219-9.355468-5-3.964844 1.199219-6.203125 5.390625-5.003906 9.351562 4.3125 14.222657 6.902343 29.238282 7.699218 44.640626.050782.917968-.363281 1.554687-.71875 1.929687-.304687.320313-.964844.855469-1.992187.855469h-33.71875v-22.085938c0-11.058594-8.996094-20.054687-20.054688-20.054687-11.054687 0-20.050781 8.996093-20.050781 20.054687v22.085938h-33.722656c-1.023438 0-1.6875-.535156-1.988282-.855469-.292968-.308594-.769531-.964844-.722656-1.929687 2.546875-49.1875 23.070313-92.609376 54.898438-116.152344.933594-.691406 2.246094-.691406 3.183594 0 13.226562 9.789062 25.015624 23.683594 34.09375 40.183594 1.996093 3.628906 6.558593 4.953124 10.1875 2.957031 3.628906-2 4.953124-6.558594 2.957031-10.1875-3.757813-6.832031-7.953125-13.273438-12.503907-19.238281 11.546876-7.910157 25.332032-12.210938 39.425782-12.210938h3.875v137.375zm108.332031-108.21875c0 13.453125-10.941406 24.394531-24.394531 24.394531s-24.398437-10.941406-24.398437-24.394531v-7.894531c7.769531 2.183593 15.949218 3.371093 24.398437 3.371093 8.347657 0 16.539063-1.15625 24.398438-3.363281v7.886719zm-24.398437-19.523438c-39.894531 0-72.78125-31.195312-74.898437-71.03125l-1.933594-52.867187c-.027344-.824219.554687-1.546875 1.355468-1.683594 22.769532-3.90625 48.871094-5.972656 75.476563-5.972656 26.609375 0 52.707031 2.0625 75.476563 5.972656.804687.136719 1.386718.859375 1.355468 1.683594l-1.929687 52.867187c-1.019531 19.242188-9.28125 37.152344-23.265625 50.429688-14 13.285156-32.339844 20.601562-51.636719 20.601562zm0 0"/><path d="m182.339844 173.605469c-4.144532 0-7.5 3.40625-7.5 7.550781 0 4.140625 3.355468 7.5 7.5 7.5 4.140625 0 7.5-3.359375 7.5-7.5v-.097656c0-4.140625-3.359375-7.453125-7.5-7.453125zm0 0"/><path d="m259.261719 173.605469c-4.144531 0-7.5 3.40625-7.5 7.550781 0 4.140625 3.355469 7.5 7.5 7.5s7.5-3.359375 7.5-7.5v-.097656c0-4.140625-3.359375-7.453125-7.5-7.453125zm0 0"/><path d="m244.363281 205.351562c-3.976562-1.144531-8.132812 1.152344-9.28125 5.136719-1.820312 6.335938-7.695312 10.761719-14.28125 10.761719-6.589843 0-12.460937-4.425781-14.285156-10.761719-1.144531-3.980469-5.300781-6.28125-9.28125-5.136719-3.976563 1.144532-6.277344 5.300782-5.132813 9.28125 3.660157 12.726563 15.460938 21.613282 28.699219 21.613282s25.039063-8.886719 28.699219-21.613282c1.144531-3.980468-1.152344-8.136718-5.136719-9.28125zm0 0"/><path d="m472.722656 401.683594h-21.296875v-18.9375c1.242188.105468 2.484375.179687 3.726563.179687 11.367187 0 22.476562-4.464843 30.730468-12.71875 11.136719-11.136719 15.375-27.476562 11.058594-42.640625-.710937-2.5-2.664062-4.453125-5.164062-5.164062-14.160156-4.019532-29.339844-.585938-40.351563 8.949218v-11.984374c13.53125-3.367188 23.589844-15.613282 23.589844-30.171876 0-17.144531-13.949219-31.089843-31.09375-31.089843s-31.089844 13.945312-31.089844 31.089843c0 14.558594 10.058594 26.808594 23.59375 30.171876v11.984374c-11.011719-9.535156-26.191406-12.972656-40.355469-8.949218-2.5.710937-4.453124 2.664062-5.164062 5.160156-4.3125 15.167969-.078125 31.503906 11.058594 42.644531 8.253906 8.253907 19.363281 12.714844 30.730468 12.714844 1.242188 0 2.484376-.070313 3.730469-.179687v18.941406h-21.300781c-4.867188 0-9.542969 2.0625-12.824219 5.664062-3.28125 3.601563-4.90625 8.445313-4.453125 13.296875l7.035156 75.605469c.832032 8.976562 8.261719 15.746094 17.277344 15.746094h43.527344c9.015625 0 16.441406-6.769532 17.277344-15.746094l7.035156-75.605469c.453125-4.847656-1.171875-9.695312-4.453125-13.296875-3.277344-3.601562-7.953125-5.664062-12.824219-5.664062zm-12.972656-57.609375c6.25-6.246094 15.007812-9.183594 23.636719-8.109375 1.070312 8.628906-1.859375 17.386718-8.109375 23.636718-6.253906 6.25-15.011719 9.183594-23.632813 8.105469-1.074219-8.628906 1.859375-17.382812 8.105469-23.632812zm-23.542969 23.628906c-8.628906 1.074219-17.382812-1.855469-23.632812-8.105469s-9.183594-15.003906-8.109375-23.636718c8.628906-1.066407 17.386718 1.863281 23.632812 8.113281 6.25 6.25 9.179688 15.003906 8.109375 23.628906zm-8.375-78.507813c0-8.871093 7.21875-16.089843 16.089844-16.089843 8.875 0 16.09375 7.21875 16.09375 16.089843 0 8.875-7.21875 16.09375-16.09375 16.09375-8.871094 0-16.089844-7.21875-16.089844-16.09375zm40.199219 205.664063c-.113281 1.21875-1.121094 2.136719-2.34375 2.136719h-43.527344c-1.222656 0-2.230468-.917969-2.34375-2.136719l-7.035156-75.605469c-.082031-.898437.34375-1.515625.605469-1.800781.261719-.289063.835937-.769531 1.738281-.769531h57.597656c.902344 0 1.476563.480468 1.738282.769531.261718.285156.6875.898437.605468 1.800781zm0 0"/><path d="m443.921875 239.753906c19.117187 0 34.667969-15.550781 34.667969-34.667968 0-16.496094-23.730469-51.871094-28.484375-58.796876-1.402344-2.035156-3.710938-3.253906-6.183594-3.253906s-4.78125 1.21875-6.183594 3.253906c-4.753906 6.925782-28.484375 42.300782-28.484375 58.796876 0 19.117187 15.550782 34.667968 34.667969 34.667968zm.023437-75.609375c13.496094 21.140625 19.644532 36.339844 19.644532 40.941407 0 10.84375-8.820313 19.667968-19.667969 19.667968-10.84375 0-19.667969-8.824218-19.667969-19.667968 0-7.148438 10.128906-25.828126 19.691406-40.941407zm0 0"/><path d="m194.675781 422.277344h-23.855469c-9.570312 0-17.355468 7.785156-17.355468 17.351562v28.433594c0 16.148438 13.136718 29.285156 29.28125 29.285156 16.148437 0 29.285156-13.136718 29.285156-29.285156v-28.433594c0-9.566406-7.785156-17.351562-17.355469-17.351562zm2.355469 45.785156c0 7.875-6.410156 14.285156-14.285156 14.285156s-14.28125-6.410156-14.28125-14.285156v-28.433594c0-1.296875 1.054687-2.351562 2.355468-2.351562h23.855469c1.300781 0 2.355469 1.054687 2.355469 2.351562zm0 0"/><path d="m270.984375 422.277344h-23.859375c-9.566406 0-17.351562 7.785156-17.351562 17.351562v28.433594c0 16.148438 13.132812 29.285156 29.28125 29.285156 16.144531 0 29.28125-13.136718 29.28125-29.285156v-28.433594c.003906-9.566406-7.78125-17.351562-17.351563-17.351562zm2.355469 45.785156c0 7.875-6.410156 14.285156-14.285156 14.285156s-14.28125-6.410156-14.28125-14.285156v-28.433594c0-1.296875 1.054687-2.351562 2.351562-2.351562h23.859375c1.296875 0 2.355469 1.054687 2.355469 2.351562zm0 0"/></svg>