<?xml version="1.0" encoding="UTF-8"?>
<svg xmlns="http://www.w3.org/2000/svg" id="Layer_3" data-name="Layer 3" viewBox="0 0 64 64" width="512" height="512"><path d="M53.414,24a3.5,3.5,0,0,0-4.828,0L41.08,31.506a31.9,31.9,0,0,0,3.128-9.062l.776-4.265a1,1,0,0,0-.537-1.074l-1.488-.744a15.584,15.584,0,0,1-7.98-9.585C34.756,3.469,29.689,1,23,1S11.244,3.469,11.021,6.776a15.584,15.584,0,0,1-7.98,9.585l-1.488.744a1,1,0,0,0-.537,1.074l.777,4.275A32.121,32.121,0,0,0,19,45.373v5.77C15.387,51.407,9,52.259,9,55v4c0,3.888,12.567,4,14,4s14-.112,14-4V55c0-2.741-6.387-3.593-10-3.857V45.375A32.134,32.134,0,0,0,39.006,34.938c0,.021-.006.041-.006.062a3.389,3.389,0,0,0,1,2.414l7,7v6.828c-2.652.335-7,1.264-7,3.758v4c0,2.748,5.7,4,11,4s11-1.252,11-4V55c0-2.5-4.359-3.424-7-3.758V44.414l7-7a3.414,3.414,0,0,0,0-4.828ZM34,24a1,1,0,1,1-1-1A1,1,0,0,1,34,24Zm-.381-2.934A2.942,2.942,0,0,0,33,21a2.994,2.994,0,0,0-2.979,2.792,17.273,17.273,0,0,1-3.159,1.4A4.724,4.724,0,0,0,23,23a4.724,4.724,0,0,0-3.862,2.194,17.273,17.273,0,0,1-3.159-1.4A2.994,2.994,0,0,0,13,21a2.942,2.942,0,0,0-.619.066A17.312,17.312,0,0,1,8.4,14.953,17.594,17.594,0,0,0,12.1,9.58C13.962,11.636,18.031,13,23,13s9.038-1.364,10.9-3.42a17.594,17.594,0,0,0,3.7,5.373A17.312,17.312,0,0,1,33.619,21.066ZM26,29c0,2.206-1.346,4-3,4s-3-1.794-3-4,1.346-4,3-4S26,26.794,26,29ZM13,23a1,1,0,1,1-1,1A1,1,0,0,1,13,23ZM23,3c5.724,0,10,2.112,10,4s-4.276,4-10,4S13,8.888,13,7,17.276,3,23,3Zm0,58c-7.139,0-11.485-1.309-12-2.068V57.271C14.606,58.937,21.927,59,23,59s8.394-.063,12-1.729v1.661C34.485,59.691,30.139,61,23,61Zm0-4c-6.923,0-11.22-1.231-11.943-2,.5-.505,2.906-1.48,7.972-1.857a.983.983,0,0,0,.264.562A4.382,4.382,0,0,0,22.414,55h1.172a4.382,4.382,0,0,0,3.121-1.293.983.983,0,0,0,.264-.562c5.066.377,7.473,1.352,7.972,1.857C34.22,55.769,29.923,57,23,57Zm2-4.458A2.434,2.434,0,0,1,23.586,53H22.414A2.434,2.434,0,0,1,21,52.542V46.289c.555.232,1.113.457,1.684.658a.986.986,0,0,0,.649-.006c.565-.2,1.118-.422,1.667-.652Zm-2-7.606A30.116,30.116,0,0,1,3.761,22.1l-.643-3.538.818-.409A17.4,17.4,0,0,0,6.8,16.339a19.33,19.33,0,0,0,3.848,5.823,2.989,2.989,0,1,0,4.766,3.606,19.236,19.236,0,0,0,2.874,1.252A7.029,7.029,0,0,0,18,29c0,3.309,2.243,6,5,6s5-2.691,5-6a7.029,7.029,0,0,0-.286-1.98,19.293,19.293,0,0,0,2.875-1.252,2.989,2.989,0,1,0,4.765-3.606A19.33,19.33,0,0,0,39.2,16.339a17.4,17.4,0,0,0,2.862,1.811l.818.409-.641,3.527A30.125,30.125,0,0,1,23,44.936Zm26,1.405a3.364,3.364,0,0,0,4,0v6.2A2.434,2.434,0,0,1,51.586,53H50.414A2.434,2.434,0,0,1,49,52.542ZM51,61c-5.85,0-8.849-1.46-9-2V57.428C44.128,58.5,47.643,59,51,59s6.873-.505,9-1.573v1.558C59.849,59.54,56.85,61,51,61Zm9-6.015C59.849,55.54,56.85,57,51,57s-8.839-1.456-9-1.982v-.006c.093-.318,1.518-1.284,5.051-1.758a.985.985,0,0,0,.242.453A4.382,4.382,0,0,0,50.414,55h1.172a4.382,4.382,0,0,0,3.121-1.293.987.987,0,0,0,.243-.453C58.492,53.729,59.915,54.7,60,54.985ZM60.586,36,52,44.586a1.465,1.465,0,0,1-2,0L41.414,36a1.415,1.415,0,0,1,0-2L50,25.414a1.415,1.415,0,0,1,2,0L60.586,34a1.415,1.415,0,0,1,0,2Z"/><path d="M55,33.237V30H53v3.237A4.026,4.026,0,0,0,51,37c0,2.243,1.318,4,3,4s3-1.757,3-4A4.026,4.026,0,0,0,55,33.237ZM54,39c-.408,0-1-.779-1-2s.592-2,1-2,1,.779,1,2S54.408,39,54,39Z"/><path d="M49,33.237V30H47v3.237A4.026,4.026,0,0,0,45,37c0,2.243,1.318,4,3,4s3-1.757,3-4A4.026,4.026,0,0,0,49,33.237ZM48,39c-.408,0-1-.779-1-2s.592-2,1-2,1,.779,1,2S48.408,39,48,39Z"/></svg>
