<?xml version="1.0"?>
<svg xmlns="http://www.w3.org/2000/svg" viewBox="0 0 64 64" width="512" height="512"><g id="Layer_21" data-name="Layer 21"><path d="M12,32a7,7,0,1,0,7,7A7.008,7.008,0,0,0,12,32Zm0,2a5,5,0,0,1,4.58,3.007l-1.873,1.872a1.021,1.021,0,0,1-1.414,0l-1.171-1.172a3.073,3.073,0,0,0-4.243,0l-.832.832A4.989,4.989,0,0,1,12,34Zm0,10a5,5,0,0,1-4.58-3.007l1.873-1.872a1.021,1.021,0,0,1,1.414,0l1.171,1.172a3.073,3.073,0,0,0,4.243,0l.832-.832A4.989,4.989,0,0,1,12,44Z"/><path d="M63,48h-.184A2.966,2.966,0,0,0,63,47V25a3,3,0,0,0-3-3H44a2.981,2.981,0,0,0-2,.78A2.981,2.981,0,0,0,40,22H36.949a2.491,2.491,0,0,0-.45-2,2.472,2.472,0,0,0-.012-3,2.472,2.472,0,0,0,.012-3,2.5,2.5,0,0,0-2-4H27a3.983,3.983,0,0,0-2.618,7,3.926,3.926,0,0,0-.8,5.042A2.98,2.98,0,0,0,22,22.78,2.981,2.981,0,0,0,20,22H17.816A2.966,2.966,0,0,0,18,21V15a3,3,0,0,0-2-2.816V11a3,3,0,0,0-6,0v1.184A3,3,0,0,0,8,15v6a2.966,2.966,0,0,0,.184,1H4a3,3,0,0,0-3,3V47a2.966,2.966,0,0,0,.184,1H1a1,1,0,0,0-1,1v6a1,1,0,0,0,1,1H63a1,1,0,0,0,1-1V49A1,1,0,0,0,63,48ZM44,24H60a1,1,0,0,1,1,1v3H58a1,1,0,0,0,0,2h3V47a1,1,0,0,1-1,1H44a1,1,0,0,1-1-1V30H54a1,1,0,0,0,0-2H43V25A1,1,0,0,1,44,24ZM25,14a2,2,0,0,1,2-2h7.5a.5.5,0,0,1,0,1H28a1,1,0,0,0,0,2h6.5a.5.5,0,0,1,0,1H27A2,2,0,0,1,25,14Zm9.5,4a.5.5,0,0,1,0,1H28a1,1,0,0,0,0,2h6.5a.5.5,0,0,1,0,1H27a2,2,0,0,1,0-4ZM24,24H40a1,1,0,0,1,1,1v3H38a1,1,0,0,0,0,2h3V47a1,1,0,0,1-1,1H24a1,1,0,0,1-1-1V30H34a1,1,0,0,0,0-2H23V25A1,1,0,0,1,24,24ZM12,11a1,1,0,0,1,2,0v1H12ZM10,21V15a1,1,0,0,1,1-1h4a1,1,0,0,1,1,1v6a1,1,0,0,1-1,1H11A1,1,0,0,1,10,21ZM3,47V30H14a1,1,0,0,0,0-2H3V25a1,1,0,0,1,1-1H20a1,1,0,0,1,1,1v3H18a1,1,0,0,0,0,2h3V47a1,1,0,0,1-1,1H4A1,1,0,0,1,3,47Zm59,7H2V50H62Z"/><path d="M10,25H6a1,1,0,0,0,0,2h4a1,1,0,0,0,0-2Z"/><path d="M16,27h2a1,1,0,0,0,0-2H16a1,1,0,0,0,0,2Z"/><path d="M32,32a7,7,0,1,0,7,7A7.008,7.008,0,0,0,32,32Zm0,2a5,5,0,0,1,4.58,3.007l-1.873,1.872a1.021,1.021,0,0,1-1.414,0l-1.171-1.172a3.073,3.073,0,0,0-4.243,0l-.832.832A4.989,4.989,0,0,1,32,34Zm0,10a5,5,0,0,1-4.58-3.007l1.873-1.872a1.021,1.021,0,0,1,1.414,0l1.171,1.172a3.073,3.073,0,0,0,4.243,0l.832-.832A4.989,4.989,0,0,1,32,44Z"/><path d="M26,27h4a1,1,0,0,0,0-2H26a1,1,0,0,0,0,2Z"/><path d="M36,27h2a1,1,0,0,0,0-2H36a1,1,0,0,0,0,2Z"/><path d="M52,32a7,7,0,1,0,7,7A7.008,7.008,0,0,0,52,32Zm0,2a5,5,0,0,1,4.58,3.007l-1.873,1.872a1.021,1.021,0,0,1-1.414,0l-1.171-1.172a3.073,3.073,0,0,0-4.243,0l-.832.832A4.989,4.989,0,0,1,52,34Zm0,10a5,5,0,0,1-4.58-3.007l1.873-1.872a1.021,1.021,0,0,1,1.414,0l1.171,1.172a3.073,3.073,0,0,0,4.243,0l.832-.832A4.989,4.989,0,0,1,52,44Z"/><path d="M46,27h4a1,1,0,0,0,0-2H46a1,1,0,0,0,0,2Z"/><path d="M56,27h2a1,1,0,0,0,0-2H56a1,1,0,0,0,0,2Z"/></g></svg>
