<svg fill="#3E7FCA" id="Icons" height="512" viewBox="0 0 74 74" width="512" xmlns="http://www.w3.org/2000/svg"><path d="m51.79 72h-29.58v-17.13h29.58zm-27.58-2h25.58v-13.13h-25.58z"/><path d="m51.51 72h-.76l.08-2c9.21.37 10.54-7.25 10.59-7.57v-.11c1.88-7-2.88-8.42-3.08-8.47-3.12-1-6.82 2.69-6.85 2.73l-1.44-1.4c.19-.19 4.56-4.62 8.85-3.25a7 7 0 0 1 3.91 3.13c1.19 2 1.38 4.63.56 7.74-.14.84-1.99 9.2-11.86 9.2z"/><path d="m22.49 72c-9.87 0-11.72-8.36-11.88-9.21-.82-3.11-.63-5.71.56-7.74a7 7 0 0 1 4-3.15c4.24-1.36 8.6 3.08 8.79 3.27l-1.44 1.4s-3.69-3.74-6.8-2.75c-.25.07-5 1.45-3.13 8.49v.11c.05.32 1.37 7.94 10.59 7.57l.08 2z"/><path d="m57.35 53c-.13-.5-3.15-12.36-2.34-22.66v-.12a7.66 7.66 0 0 0 -1.31-5.73c-1.32-1.57-3.58-2.39-6.7-2.39h-20c-3.14 0-5.4.82-6.73 2.43a7.66 7.66 0 0 0 -1.27 5.73v.12c.81 10.3-2.21 22.16-2.34 22.66l-1.94-.5c0-.12 3.05-12 2.29-22a9.59 9.59 0 0 1 1.73-7.31c1.73-2.1 4.52-3.17 8.29-3.17h19.97c3.77 0 6.56 1.07 8.29 3.17a9.59 9.59 0 0 1 1.71 7.35c-.76 10 2.25 21.84 2.29 22z"/><path d="m48.07 56.87h-22.14v-35.77h2v33.77h18.14v-33.77h2z"/><path d="m26.93 34.92h20.14v2h-20.14z"/><path d="m42.67 22.1h-11.34v-6.26h11.34zm-9.34-2h7.34v-2.26h-7.34z"/><path d="m44.66 17.84h-15.32a3.61 3.61 0 0 1 -3.59-4l.86-8.61a3.6 3.6 0 0 1 3.6-3.23h13.58a3.6 3.6 0 0 1 3.6 3.26l.86 8.6a3.61 3.61 0 0 1 -3.59 4zm-14.45-13.84a1.61 1.61 0 0 0 -1.61 1.45l-.86 8.61a1.6 1.6 0 0 0 .4 1.25 1.61 1.61 0 0 0 1.2.53h15.32a1.61 1.61 0 0 0 1.2-.53 1.6 1.6 0 0 0 .4-1.25l-.86-8.6a1.61 1.61 0 0 0 -1.61-1.46z"/></svg>