<svg id="Capa_1" enable-background="new 0 0 512 512" height="512" viewBox="0 0 512 512" width="512" xmlns="http://www.w3.org/2000/svg"><g><path d="m496.5 159.74c8.547 0 15.5-6.953 15.5-15.5v-101.48c0-8.547-6.953-15.5-15.5-15.5h-174.577c-16.918-16.838-40.226-27.26-65.923-27.26s-49.005 10.422-65.923 27.26h-174.577c-8.547 0-15.5 6.953-15.5 15.5v101.48c0 8.547 6.953 15.5 15.5 15.5h9.285v337.26h-17.285c-4.143 0-7.5 3.358-7.5 7.5s3.357 7.5 7.5 7.5h497c4.143 0 7.5-3.358 7.5-7.5s-3.357-7.5-7.5-7.5h-17.285v-337.26zm-240.5-144.74c43.285 0 78.5 35.215 78.5 78.5s-35.215 78.5-78.5 78.5-78.5-35.215-78.5-78.5 35.215-78.5 78.5-78.5zm-240.5 129.74c-.275 0-.5-.224-.5-.5v-101.48c0-.276.225-.5.5-.5h162.331c-9.685 14.726-15.331 32.335-15.331 51.24s5.646 36.514 15.331 51.24zm420.555 15h36.16v337.26h-265.625v-154.119c0-4.142-3.357-7.5-7.5-7.5s-7.5 3.358-7.5 7.5v154.119h-121.805v-259.151c0-1.378 1.121-2.5 2.5-2.5h116.805c1.379 0 2.5 1.122 2.5 2.5v70.032c0 4.142 3.357 7.5 7.5 7.5s7.5-3.358 7.5-7.5v-70.032c0-9.649-7.851-17.5-17.5-17.5h-116.805c-9.649 0-17.5 7.851-17.5 17.5v259.151h-15v-337.26h150.292c16.918 16.838 40.226 27.26 65.923 27.26s49.005-10.422 65.923-27.26h79.132c4.143 0 7.5-3.358 7.5-7.5s-3.357-7.5-7.5-7.5h-66.886c9.686-14.726 15.331-32.335 15.331-51.24s-5.646-36.514-15.331-51.24h162.331c.275 0 .5.224.5.5v101.48c0 .276-.225.5-.5.5h-60.445c-4.143 0-7.5 3.358-7.5 7.5s3.357 7.5 7.5 7.5zm-231.13-29.574c3.519 2.333 7.94 2.743 11.831 1.098 4.499-1.902 9.224-2.906 14.043-2.983 9.956-.17 17.508 3.747 21.115 6.09 2.108 1.348 5.311 1.824 8.172 0 3.607-2.343 11.128-6.251 21.115-6.09 4.819.078 9.544 1.081 14.043 2.983 3.891 1.643 8.312 1.235 11.831-1.098 3.518-2.332 5.618-6.246 5.618-10.47v-55.716c0-6.927-5.636-12.562-12.562-12.562h-18.822c-10.177 0-19.286 4.658-25.309 11.953-6.022-7.296-15.132-11.953-25.309-11.953h-18.822c-6.927 0-12.562 5.635-12.562 12.562v55.715c0 4.224 2.1 8.138 5.618 10.471zm58.575-45.938c0-9.82 7.989-17.809 17.809-17.809h16.385v49.728c-5.252-1.813-10.703-2.774-16.252-2.864-6.906-.109-12.964 1.168-17.941 2.886v-31.941zm-49.193-17.81h16.385c9.819 0 17.809 7.989 17.809 17.809v31.941c-4.988-1.724-11.234-2.994-17.941-2.886-5.549.089-11 1.051-16.252 2.864v-49.728zm-45.217 281.562c-4.143 0-7.5 3.358-7.5 7.5v21.388c0 4.142 3.357 7.5 7.5 7.5s7.5-3.358 7.5-7.5v-21.388c0-4.142-3.358-7.5-7.5-7.5zm52.5-110.131v168.425c0 9.649 7.851 17.5 17.5 17.5h200.625c9.649 0 17.5-7.851 17.5-17.5v-168.425c0-9.649-7.851-17.5-17.5-17.5h-200.625c-9.65 0-17.5 7.851-17.5 17.5zm65.425 170.925h-14.775v-50.044h14.775zm59.775 0h-14.775v-50.044h14.775zm59.775 0h-14.775v-50.044h14.775zm35.65-2.5c0 1.378-1.121 2.5-2.5 2.5h-18.149v-53.544c0-6.341-5.159-11.5-11.5-11.5h-21.776c-6.341 0-11.5 5.159-11.5 11.5v53.543h-15v-53.543c0-6.341-5.159-11.5-11.5-11.5h-21.775c-6.341 0-11.5 5.159-11.5 11.5v53.543h-15v-53.543c0-6.341-5.159-11.5-11.5-11.5h-21.775c-6.341 0-11.5 5.159-11.5 11.5v53.543h-18.15c-1.379 0-2.5-1.122-2.5-2.5v-76.712h205.625zm-169.976-91.712v-50.043h14.775v50.043zm59.776 0v-50.043h14.775v50.043zm59.775 0v-50.043h14.775v50.043zm50.425-76.713v76.712h-20.649v-53.543c0-6.341-5.159-11.5-11.5-11.5h-21.776c-6.341 0-11.5 5.159-11.5 11.5v53.543h-15v-53.543c0-6.341-5.159-11.5-11.5-11.5h-21.775c-6.341 0-11.5 5.159-11.5 11.5v53.543h-15v-53.543c0-6.341-5.159-11.5-11.5-11.5h-21.775c-6.341 0-11.5 5.159-11.5 11.5v53.543h-20.65v-76.712c0-1.378 1.121-2.5 2.5-2.5h200.625c1.379 0 2.5 1.122 2.5 2.5z"/></g></svg>