<svg fill="#3E7FCA" id="_x33_0" enable-background="new 0 0 64 64" height="512" viewBox="0 0 64 64" width="512" xmlns="http://www.w3.org/2000/svg"><g><path d="m51 51c-2.206 0-4 1.794-4 4s1.794 4 4 4 4-1.794 4-4-1.794-4-4-4zm0 6c-1.103 0-2-.897-2-2s.897-2 2-2 2 .897 2 2-.897 2-2 2z"/><path d="m63.281 57-1.297-5.184c-.517-2.069-1.572-3.883-2.984-5.324v-4.625-3.867-34c0-1.654-1.346-3-3-3h-8c-1.654 0-3 1.346-3 3v1h-12c-1.103 0-2 .897-2 2v1 1 16h-4c0-.585-.257-1.107-.658-1.473l2.631-15.663c.172-1.027-.488-2.031-1.505-2.285l-2.096-.52c-.544-.138-1.13-.035-1.6.273-.467.308-.788.799-.88 1.348l-2.74 16.32h-1.152v-6c0-1.103-.897-2-2-2h-2.233l-.534-2.848 3.277-.904c1.018-.283 1.655-1.329 1.452-2.382l-.62-3.206c-.108-.564-.447-1.06-.93-1.358-.472-.293-1.047-.376-1.582-.229l-.263.073-.597-2.388-1.94.484.609 2.435-1.113.307-.556-2.226-1.94.484.568 2.273-.952.263-.698-2.094-1.896.632.665 1.994-1.271.351-.476-1.903-1.94.484.488 1.951-.977.27-.593-1.779-1.896.632.631 1.894c-.515.471-.786 1.193-.645 1.924l.62 3.206c.108.564.447 1.06.93 1.358.319.198.687.301 1.056.301.177 0 .354-.023.526-.071l3.219-.888 2.191 10.96h-.58c-1.103 0-2 .897-2 2v2c0 1.103.897 2 2 2h.138l2.7 18h-2.838c-1.103 0-2 .897-2 2v4c0 1.103.897 2 2 2h2c0 3.309 2.691 6 6 6s6-2.691 6-6h20.263c.892 3.445 4.017 6 7.737 6s6.845-2.555 7.737-6zm-6.281-12.144c-1.831-1.18-4.002-1.856-6.307-1.856-3.9 0-7.521 1.938-9.684 5.183l-.544.817h-3.465v-20h8v12.868l7-4.666 5 3.333zm-26-13.856v18h-1.895l1.8-18zm2-2v-2-16h2v38h-2zm20-18h4v21.586l-4-4zm4-2h-10v-2h10zm-6 2v17.586l-4 4v-21.586zm-14 14h8v2h-8zm8-2h-8v-12h8zm12 15.132-5-3.334-5 3.334v-2.718l5-5 5 5v2.586zm-10-34.132c0-.552.448-1 1-1h8c.552 0 1 .448 1 1v1h-10zm-14 3h12v2h-12v-1zm-2 20v2h-4v-2zm-6.108-19.999 2.108.532-2.598 15.467h-2.22zm.108 17.999v12h-2v-6h-2v4h-2v-10zm-8-8v8h-.358l-1.5-8zm-13.379-4.039-.62-3.206c-.008-.044.017-.072.024-.075l13.354-3.641.598 3.281zm5.7.546 2.978-.821 2.309 12.314h-2.988zm-.321 13.493h8v2h-8zm2.161 4h5.839v4c0 1.103.897 2 2 2h2c0 1.103.897 2 2 2h2c1.103 0 2-.897 2-2v-6h1.895l-1.8 18h-13.233zm5.839 30c-2.206 0-4-1.794-4-4h2c0 1.103.897 2 2 2s2-.897 2-2h2c0 2.206-1.794 4-4 4zm-8-6v-4h32.535l1.139-1.708c1.791-2.688 4.789-4.292 8.019-4.292 4.432 0 8.277 3.002 9.352 7.301l.674 2.699h-1.719c0-4.411-3.589-8-8-8s-8 3.589-8 8zm42 6c-3.309 0-6-2.691-6-6s2.691-6 6-6 6 2.691 6 6-2.691 6-6 6z"/></g></svg>