<svg fill="#3E7FCA" id="Capa_1"  enable-background="new 0 0 512 512" height="512" viewBox="0 0 512 512" width="512" xmlns="http://www.w3.org/2000/svg"><g><path d="m240.312 42.38c10.256-1.062 21.12-1.061 31.375 0 .263.027.523.041.781.041 3.795 0 7.052-2.871 7.451-6.728.427-4.12-2.567-7.806-6.688-8.232-11.276-1.168-23.186-1.168-34.465 0-4.12.426-7.114 4.112-6.688 8.232s4.108 7.116 8.234 6.687z"/><path d="m130.051 205.433c-4.1.591-6.944 4.394-6.354 8.493 2.485 17.244 8.224 33.598 17.052 48.602 5.722 9.742 12.704 18.762 20.752 26.811 8.047 8.046 17.061 15.025 26.787 20.738 20.888 12.291 44.302 18.436 67.718 18.435 23.404 0 46.81-6.141 67.679-18.42 9.743-5.724 18.764-12.706 26.812-20.753 8.047-8.047 15.025-17.061 20.738-26.787 24.575-41.766 24.578-93.65.013-135.399-5.723-9.742-12.704-18.762-20.751-26.809-8.047-8.046-17.061-15.025-26.787-20.738-41.766-24.575-93.649-24.579-135.399-.014-9.742 5.723-18.762 12.705-26.809 20.752-8.047 8.046-15.026 17.061-20.739 26.787-8.912 15.145-14.673 31.647-17.125 49.05-.578 4.102 2.279 7.895 6.38 8.473 4.106.579 7.896-2.279 8.473-6.38 2.176-15.446 7.29-30.093 15.202-43.54 5.072-8.634 11.267-16.636 18.415-23.783s15.155-13.347 23.805-18.428c37.063-21.807 83.118-21.803 120.195.014 8.635 5.072 16.636 11.268 23.782 18.414 7.147 7.147 13.347 15.155 18.428 23.805 21.808 37.062 21.804 83.116-.013 120.195-5.071 8.633-11.268 16.635-18.415 23.782-7.147 7.148-15.155 13.347-23.807 18.429-37.062 21.807-83.115 21.802-120.192-.015-8.633-5.072-16.635-11.267-23.783-18.414-7.148-7.148-13.347-15.156-18.428-23.806-7.838-13.32-12.931-27.834-15.137-43.139-.589-4.102-4.395-6.945-8.492-6.355z"/><path d="m395.276 344.411h-239.163c-9.755-6.533-18.929-14.054-27.28-22.404-70.12-70.12-70.12-184.214 0-254.333 33.967-33.967 79.129-52.674 127.167-52.674 48.037 0 93.199 18.707 127.166 52.673 33.665 33.665 52.371 78.421 52.671 126.026.299 47.561-17.793 92.507-50.944 126.557-2.89 2.968-2.825 7.716.143 10.606 2.969 2.89 7.717 2.825 10.605-.142 35.918-36.893 55.52-85.588 55.195-137.116-.324-51.576-20.59-100.066-57.062-136.538-36.801-36.799-85.73-57.066-137.774-57.066s-100.974 20.267-137.773 57.067c-75.968 75.968-75.968 199.578 0 275.546 4.127 4.127 8.449 8.058 12.922 11.798h-14.425c-30.638 0-55.563 24.926-55.563 55.564v56.461c0 30.638 24.926 55.564 55.563 55.564h278.553c30.638 0 55.563-24.926 55.563-55.564v-56.461c0-30.638-24.926-55.564-55.564-55.564zm0 152.589h-5.614l-24.668-35.426c-2.367-3.399-7.039-4.236-10.441-1.869-3.398 2.367-4.235 7.042-1.869 10.44l18.7 26.854h-42.905l-15.205-20.595c-2.46-3.333-7.155-4.04-10.489-1.579-3.332 2.46-4.039 7.156-1.579 10.488l8.626 11.687h-42.276l-24.668-35.426c-2.367-3.399-7.043-4.235-10.44-1.869-3.399 2.367-4.236 7.042-1.869 10.44l18.699 26.855h-42.905l-15.205-20.595c-2.46-3.333-7.156-4.039-10.488-1.579s-4.04 7.156-1.579 10.488l8.627 11.686h-42.277l-24.668-35.426c-2.366-3.4-7.041-4.236-10.44-1.869s-4.236 7.042-1.869 10.44l18.7 26.854h-10.45c-22.367 0-40.563-18.197-40.563-40.564v-20.73h48.81c4.142 0 7.5-3.358 7.5-7.5s-3.358-7.5-7.5-7.5h-48.811v-20.73c0-22.367 18.197-40.564 40.563-40.564h9.951l-8.627 11.686c-2.46 3.333-1.753 8.028 1.579 10.488 1.34.99 2.901 1.467 4.449 1.467 2.299 0 4.569-1.054 6.04-3.046l15.205-20.595h42.906l-18.7 26.854c-2.367 3.399-1.53 8.074 1.869 10.44 1.306.91 2.8 1.346 4.279 1.346 2.371 0 4.704-1.122 6.162-3.215l24.668-35.426h42.276l-8.627 11.686c-2.46 3.333-1.753 8.028 1.579 10.488 1.34.99 2.901 1.467 4.449 1.467 2.299 0 4.569-1.054 6.04-3.046l15.205-20.595h42.905l-18.7 26.854c-2.366 3.399-1.529 8.074 1.869 10.44 1.307.91 2.8 1.346 4.279 1.346 2.371 0 4.704-1.122 6.162-3.215l24.668-35.426h42.276l-8.627 11.686c-2.46 3.333-1.753 8.028 1.579 10.488 1.341.99 2.901 1.467 4.449 1.467 2.299 0 4.569-1.054 6.04-3.046l15.205-20.595h5.745c22.367 0 40.563 18.197 40.563 40.564v20.73h-275.717c-4.142 0-7.5 3.358-7.5 7.5s3.358 7.5 7.5 7.5h275.718v20.73c0 22.37-18.196 40.567-40.564 40.567z"/><path d="m165.754 247.84c4.483 7.629 9.952 14.692 16.252 20.993 6.301 6.301 13.364 11.77 20.993 16.253.008.005.017.008.026.013 16.342 9.608 34.657 14.412 52.976 14.412 18.318 0 36.638-4.805 52.976-14.413.008-.004.016-.007.023-.012 7.628-4.482 14.691-9.951 20.994-16.253 6.302-6.302 11.77-13.365 16.252-20.993.004-.006.006-.013.01-.02 19.221-32.686 19.219-73.289-.004-105.968-.002-.004-.003-.008-.005-.011-4.481-7.627-9.95-14.691-16.253-20.994-6.304-6.303-13.367-11.771-20.993-16.252-.008-.005-.017-.007-.025-.012-32.681-19.216-73.277-19.215-105.954.003-14.377 8.399-28.212 21.705-37.277 37.279-19.217 32.682-19.217 73.275-.002 105.951.003.006.006.016.011.024zm18.166-106.29c5.417-7.252 12.435-14.571 21.816-20.947l11.916 11.917-.422 7.952c-.113 2.125.682 4.197 2.186 5.701l17.067 17.066c-2.417 1.499-4.682 3.28-6.743 5.341-2.079 2.079-3.85 4.351-5.332 6.751l-17.075-17.075c-1.504-1.505-3.588-2.299-5.701-2.186l-7.952.422-11.917-11.916c.503-.721.767-1.121 2.157-3.026zm110.85-1.078-.423-7.952 11.917-11.916c7.544 5.507 14.058 10.053 23.973 23.973l-11.917 11.917-7.952-.422c-2.149-.12-4.198.682-5.702 2.186l-17.066 17.065c-1.499-2.417-3.279-4.682-5.34-6.742-2.061-2.061-4.327-3.842-6.743-5.341l17.067-17.066c1.504-1.505 2.299-3.578 2.186-5.702zm33.306 107.663c-3.801 5.034-10.114 12.879-21.813 20.943l-11.917-11.917.423-7.952c.113-2.125-.682-4.197-2.186-5.702l-17.067-17.067c2.417-1.499 4.682-3.279 6.743-5.34h-.001c2.061-2.061 3.842-4.326 5.341-6.743l17.066 17.067c1.504 1.503 3.551 2.305 5.702 2.186l7.952-.422 11.917 11.917c-.48.691-.764 1.118-2.16 3.03zm-110.846 1.073.422 7.952-11.916 11.917c-8.481-5.83-16.896-13.546-23.973-23.974l11.917-11.916 7.952.422c2.115.121 4.197-.681 5.701-2.186l17.075-17.075c1.482 2.4 3.253 4.672 5.332 6.751 2.061 2.061 4.326 3.842 6.743 5.341l-17.067 17.067c-1.504 1.504-2.299 3.576-2.186 5.701zm38.77-76.505c5.913 0 11.472 2.303 15.653 6.484s6.483 9.74 6.483 15.653-2.303 11.472-6.483 15.653c-.001 0-.001 0-.001 0-4.181 4.181-9.739 6.483-15.652 6.483s-11.472-2.303-15.653-6.483c-8.631-8.631-8.631-22.675 0-31.306 4.181-4.181 9.74-6.484 15.653-6.484zm81.827 58.777-11.263-11.263c-1.505-1.504-3.556-2.306-5.702-2.186l-7.952.422-19.95-19.951c.107-1.617.327-3.371 0-7.324l19.95-19.951 7.952.422c2.148.119 4.198-.682 5.702-2.186l11.264-11.263c10.445 23.285 10.445 49.991-.001 73.28zm-163.654-73.28 11.263 11.263c1.504 1.504 3.588 2.304 5.701 2.186l7.952-.422 19.97 19.969c-.237 2.423-.237 4.864 0 7.287l-19.97 19.97-7.952-.422c-2.111-.118-4.197.682-5.701 2.186l-11.263 11.263c-10.446-23.285-10.447-49.991 0-73.28zm45.187 118.467 11.263-11.263c1.504-1.504 2.299-3.577 2.186-5.701l-.422-7.952 19.951-19.951c1.617.106 3.371.327 7.325 0l19.951 19.951-.423 7.952c-.113 2.125.682 4.197 2.186 5.702l11.264 11.263c-23.286 10.445-49.992 10.446-73.281-.001zm73.28-163.653-11.264 11.263c-1.504 1.504-2.299 3.577-2.186 5.702l.423 7.952-19.951 19.95c-1.617-.107-3.371-.327-7.325 0l-19.951-19.951.422-7.952c.113-2.125-.682-4.197-2.186-5.701l-11.264-11.264c11.643-5.223 24.138-7.844 36.639-7.844s24.999 2.621 36.643 7.845z"/></g></svg>