<svg id="Capa_1" enable-background="new 0 0 513.152 513.152" height="512" viewBox="0 0 513.152 513.152" width="512" xmlns="http://www.w3.org/2000/svg"><g><path d="m121.924 329.272c16.097 0 29.193-13.096 29.193-29.193s-13.096-29.193-29.193-29.193-29.193 13.096-29.193 29.193 13.096 29.193 29.193 29.193zm0-43.386c7.826 0 14.193 6.367 14.193 14.193s-6.367 14.193-14.193 14.193-14.193-6.367-14.193-14.193 6.367-14.193 14.193-14.193z"/><path d="m245.009 320.866c16.097 0 29.193-13.096 29.193-29.193s-13.096-29.193-29.193-29.193-29.193 13.096-29.193 29.193 13.096 29.193 29.193 29.193zm0-43.386c7.826 0 14.193 6.367 14.193 14.193s-6.367 14.193-14.193 14.193-14.193-6.367-14.193-14.193 6.367-14.193 14.193-14.193z"/><path d="m245.009 131.313c-16.097 0-29.193 13.096-29.193 29.193s13.096 29.193 29.193 29.193 29.193-13.096 29.193-29.193-13.096-29.193-29.193-29.193zm0 43.386c-7.826 0-14.193-6.367-14.193-14.193s6.367-14.193 14.193-14.193 14.193 6.367 14.193 14.193-6.367 14.193-14.193 14.193z"/><path d="m489.193 204.202h-9.9c-2.766-26.484-10.103-52.013-21.535-75.586l26.972-21.982c11.672-9.512 13.491-26.814 4.056-38.569l-29.482-36.73c-9.353-11.652-26.868-13.532-38.458-4.086l-26.916 21.935c-39.364-31.158-87.718-48.276-138.157-48.575-39.168-.883-80.352 10.283-115.992 31.461-3.561 2.116-4.732 6.718-2.616 10.279 2.116 3.56 6.718 4.731 10.279 2.616 33.271-19.771 71.659-30.191 108.049-29.359.043.001.087.001.13.002 53.297.301 104.114 20.732 143.091 57.529 36.107 34.088 59.983 81.832 65.49 131.064h-12.509c-4.461-37.726-19.389-73.094-43.405-102.669-25.142-30.963-58.413-53.424-96.217-64.955-6.559-1.999-12.215 5.514-8.475 11.263 6.618 10.175 12.606 22.776 17.797 37.454 11.447 32.36 18.696 74.33 20.593 118.907h-12.443c-1.99-45.96-9.706-88.441-21.903-120.289-17.697-46.208-38.712-55.907-53.224-55.907s-35.526 9.699-53.223 55.905c-12.198 31.847-19.913 74.33-21.904 120.291h-12.441c1.897-44.577 9.146-86.548 20.593-118.907 5.192-14.679 11.181-27.28 17.798-37.454 3.74-5.75-1.916-13.262-8.475-11.263-37.671 11.49-70.857 33.846-95.97 64.651-24.151 29.625-39.174 65.113-43.653 102.974h-12.51c5.975-53.606 31.702-102.321 72.875-137.716 3.141-2.701 3.499-7.436.798-10.577-2.701-3.142-7.436-3.499-10.577-.798-44.497 38.253-72.14 91.044-78.184 149.091h-5.586c-13.211 0-23.959 10.743-23.959 23.948s10.748 23.948 23.959 23.948h5.587c5.659 54.186 30.456 104.381 70.297 141.987 20.658 19.5 44.425 34.707 70.084 45.135l-26.876 29.99c-6.946 7.752-8.625 18.471-4.38 27.975 4.245 9.503 13.348 15.407 23.756 15.407h188.118c10.443 0 19.559-5.932 23.789-15.48 4.229-9.549 2.498-20.286-4.519-28.021l-28.139-31.017c24.602-10.384 47.405-25.193 67.319-43.99 39.841-37.606 64.638-87.801 70.296-141.987h9.9c13.211 0 23.959-10.743 23.959-23.948s-10.746-23.947-23.957-23.947zm-80.181-141.972c-1.138-1.074-2.285-2.134-3.442-3.182l24.752-20.173c5.223-4.255 13.072-3.399 17.283 1.848l29.482 36.73c4.297 5.353 3.474 13.227-1.834 17.552l-24.632 20.075c-11.069-19.381-25.037-37.204-41.609-52.85zm-73.474 18.063c-2.87-8.115-5.985-15.668-9.321-22.61 27.294 11.666 51.381 29.846 70.43 53.305 21.841 26.898 35.558 58.976 39.936 93.214h-79.579c-1.913-46.809-9.3-89.518-21.466-123.909zm-120.333 8.983c11.263-29.405 25.556-46.27 39.215-46.27 13.66 0 27.954 16.866 39.216 46.272 11.579 30.234 18.935 70.799 20.897 114.924h-120.226c1.962-44.126 9.318-84.692 20.898-114.926zm-57.414 53.915c-8.857 2.632-18.251-4.303-18.251-13.603 0-7.826 6.367-14.193 14.193-14.193 3.232 0 6.296 1.078 8.771 3.029-1.778 7.988-3.35 16.255-4.713 24.767zm-45.369-32.485c19.013-23.323 43.019-41.405 70.201-53.023-6.993 14.551-12.216 29.928-16.392 45.505-3.846-1.821-8.097-2.793-12.499-2.793-16.097 0-29.193 13.096-29.193 29.193 0 16.559 14.515 30.177 31.032 29.134-1.842 14.595-3.096 29.807-3.737 45.479h-13.323c2.127-4.077 3.304-8.697 3.304-13.549 0-16.097-13.096-29.193-29.193-29.193s-29.192 13.097-29.192 29.194c0 4.829 1.204 9.457 3.357 13.549h-14.53c4.396-34.363 18.199-66.551 40.165-93.496zm-13.992 79.947c0-7.826 6.367-14.193 14.193-14.193s14.193 6.367 14.193 14.193c0 6.225-3.983 11.666-9.911 13.538-.011.004-.023.008-.034.011h-8.494c-5.876-1.839-9.947-7.353-9.947-13.549zm260.277 288.518c3.017 3.325 3.732 7.761 1.914 11.866s-5.584 6.556-10.074 6.556h-188.118c-4.475 0-8.235-2.439-10.061-6.525-1.825-4.085-1.131-8.514 1.855-11.847l30.883-34.462c45.755 14.847 95.961 14.511 141.513-.958zm39.993-95.994c-38.944 36.759-91.797 58.148-145.484 57.516-53.29-.302-104.102-20.728-143.077-57.516-36.839-34.772-59.909-81.06-65.506-131.079h12.509c4.461 37.726 19.389 73.094 43.405 102.669 25.142 30.964 58.414 53.425 96.218 64.956 6.333 1.931 12.197-5.542 8.475-11.263-6.618-10.174-12.606-22.775-17.798-37.454-11.435-32.327-18.699-74.359-20.593-118.908h12.443c1.99 45.96 9.706 88.442 21.903 120.289 17.697 46.208 38.712 55.907 53.224 55.907 14.473 0 35.414-9.648 53.082-55.537 15.413-37.511 20.306-80.496 22.045-120.659h12.443c-1.897 44.577-9.146 86.548-20.593 118.908-5.191 14.678-11.18 27.279-17.797 37.454-3.72 5.72 2.144 13.195 8.475 11.263 37.309-11.38 70.261-33.451 95.294-63.827 24.522-29.756 39.804-65.572 44.328-103.798h12.509c-5.595 50.018-28.665 96.306-65.505 131.079zm-246.864-131.078c1.917 46.811 9.314 89.556 21.465 123.91 2.871 8.115 5.986 15.668 9.322 22.61-27.294-11.665-51.381-29.845-70.43-53.305-21.841-26.898-35.558-58.976-39.936-93.214h79.579zm142.964 111.811c-8.564 1.758-17.071-5.09-17.071-13.903 0-7.826 6.367-14.193 14.193-14.193 3.889 0 7.559 1.588 10.213 4.338-2.192 8.432-4.642 16.382-7.335 23.758zm11.026-39.575c-4.206-2.279-8.969-3.521-13.905-3.521-16.097 0-29.193 13.096-29.193 29.193 0 14.96 11.31 27.327 25.829 29-10.315 21.957-22.458 34.288-34.138 34.288-9.563 0-19.436-8.266-28.363-23.314 13.521-2.544 23.783-14.441 23.783-28.69 0-16.097-13.096-29.193-29.193-29.193-5.388 0-10.515 1.444-14.946 4.083-6.113-24.844-10.039-53.615-11.394-84.083h120.226c-1.143 25.738-4.123 50.265-8.706 72.237zm-87.211 51.005c-1.164-2.648-2.303-5.422-3.412-8.317-1.837-4.796-3.568-9.853-5.187-15.143 2.67-3.03 6.494-4.781 10.631-4.781 7.826 0 14.193 6.367 14.193 14.193 0 8.438-7.886 15.237-16.225 14.048zm270.578-138.241h-72.707c-4.142 0-7.5 3.358-7.5 7.5s3.358 7.5 7.5 7.5h20.096c-4.441 34.701-18.482 67.19-40.79 94.259-18.912 22.948-42.703 40.769-69.575 52.259 3.335-6.941 6.45-14.494 9.32-22.608 12.165-34.392 19.553-77.101 21.466-123.91h19.557c4.142 0 7.5-3.358 7.5-7.5s-3.358-7.5-7.5-7.5h-352.601c-4.94 0-8.959-4.014-8.959-8.948s4.019-8.948 8.959-8.948h465.233c4.94 0 8.959 4.014 8.959 8.948s-4.018 8.948-8.958 8.948z"/></g></svg>