<svg fill="#3E7FCA" id="Capa_1"  enable-background="new 0 0 512 512" height="512" viewBox="0 0 512 512" width="512" xmlns="http://www.w3.org/2000/svg"><path d="m201.098 355.888c-20.935 0-37.967 17.032-37.967 37.967s17.032 37.967 37.967 37.967 37.967-17.032 37.967-37.967-17.032-37.967-37.967-37.967zm0 60.934c-12.664 0-22.967-10.303-22.967-22.967s10.303-22.967 22.967-22.967 22.967 10.303 22.967 22.967-10.303 22.967-22.967 22.967z"/><path d="m504.5 228.503c4.142 0 7.5-3.357 7.5-7.5v-54.77c0-11.889-5.729-23.197-15.323-30.25-.541-.398-1.112-.754-1.705-1.069l-9.511-53.939 15.733-2.774c4.079-.719 6.803-4.608 6.084-8.688s-4.604-6.806-8.688-6.084l-16.186 2.854c-2.65-7.809-7.689-14.553-14.572-19.373-8.55-5.986-18.923-8.288-29.199-6.473-21.22 3.741-35.439 24.049-31.698 45.269l.254 1.442c.001.004.001.009.002.013l5.011 28.415c2.495 14.152 14.91 24.115 28.831 23.983-12.444 9.664-19.884 24.563-19.884 40.674v8.3h-8.598c-1.335-1.223-3.113-1.97-5.066-1.97h-25.455c-1.953 0-3.731.747-5.066 1.97h-14.634c-15.312 0-27.768 12.456-27.768 27.768v1.765l-54.26-3.82-10.109-44.734 45.015-39.095c13.46-11.688 33.877-10.973 46.482 1.635 1.406 1.406 3.314 2.196 5.303 2.196s3.897-.79 5.303-2.196l21.29-21.29c2.929-2.93 2.929-7.678 0-10.607-29.278-29.276-76.698-30.943-107.956-3.794l-9.849 8.554c-3.127 2.716-3.46 7.453-.745 10.58 2.716 3.127 7.453 3.462 10.581.744l9.849-8.554c23.427-20.347 58.051-20.728 81.899-1.915l-10.78 10.78c-18.17-13.285-43.756-12.619-61.212 2.542l-48.293 41.942c-.063.053-.125.107-.186.162l-54.748 47.548-21.314-1.5 77.617-67.409c3.127-2.716 3.46-7.452.745-10.58-2.716-3.128-7.452-3.462-10.581-.744l-83.483 72.503-32.984-78.068c-11.457-27.116-37.881-44.636-67.318-44.636h-57.328c-4.142 0-7.5 3.357-7.5 7.5v301.764c0 4.143 3.358 7.5 7.5 7.5h61.683c4.142 0 7.5-3.357 7.5-7.5s-3.358-7.5-7.5-7.5h-54.183v-159.12h79.893 30.128c4.142 0 7.5-3.357 7.5-7.5v-17.012c0-12.706-9.716-23.184-22.108-24.395l-11.212-26.536c-7.205-17.054-23.823-28.073-42.336-28.073h-41.865v-24.128h49.828c23.395 0 44.395 13.925 53.5 35.475l36.949 87.454c1.055 2.641 3.54 4.493 6.439 4.698 77.88 5.482 103.231 7.267 187.546 13.202 16.36 1.152 29.458 13.893 31.45 29.804h-43.06-39.128c-4.142 0-7.5 3.357-7.5 7.5v18.649c0 16.923 13.768 30.69 30.69 30.69h15.938 43.323v24.153h-69.252c-4.142 0-7.5 3.357-7.5 7.5v27.639h-26.027c-6.53-36.633-38.617-64.531-77.098-64.531s-70.568 27.898-77.098 64.531h-19.817c-4.142 0-7.5 3.357-7.5 7.5s3.358 7.5 7.5 7.5h18.612c.654 42.621 35.528 77.093 78.302 77.093s77.649-34.472 78.302-77.093h24.823v3.565c0 4.143 3.358 7.5 7.5 7.5h84.715c4.142 0 7.5-3.357 7.5-7.5v-46.204c0-4.143-3.358-7.5-7.5-7.5h-.462v-76.773c0-13.364-5.438-25.602-14.265-34.52h.32 39.119v43.229c0 19.051 9.532 36.631 25.498 47.026l9.648 6.282v48.404c-2.795 1.09-4.775 3.808-4.775 6.989v26.728c0 3.181 1.98 5.899 4.775 6.989v4.926c0 2.784-2.087 5.112-4.855 5.414l-13.076 1.428c-8.93.975-15.664 8.484-15.664 17.467v11.063c0 6.936 5.643 12.578 12.578 12.578h69.222c4.142 0 7.5-3.357 7.5-7.5v-52.365-26.728-129.57c0-4.143-3.358-7.5-7.5-7.5s-7.5 3.357-7.5 7.5v122.07h-25.705v-51.96c0-2.536-1.282-4.901-3.408-6.285l-13.056-8.501c-11.698-7.616-18.682-20.497-18.682-34.456v-43.229h17.111c8.522 0 16.221-4.717 20.093-12.311l6.45-12.652c1.881-3.69.415-8.207-3.275-10.088-3.688-1.883-8.208-.416-10.088 3.275l-6.45 12.651c-1.297 2.544-3.875 4.124-6.729 4.124-13.396 0-25.143 0-38.275 0v-15.108h29.051c2.82 0 5.401-1.581 6.682-4.094l8.44-16.556c1.881-3.69.415-8.207-3.275-10.088-3.69-1.884-8.208-.416-10.088 3.275l-6.353 12.462h-3.292v-8.3c0-13.337 7.195-25.505 18.837-31.961h33.078c5.683 4.305 8.935 10.832 8.935 17.961v54.77c-.001 4.145 3.357 7.502 7.499 7.502zm-386.979-32.06v9.512h-22.628c-5.245 0-9.512-4.267-9.512-9.512s4.267-9.513 9.512-9.513c9.207.003 8.867 0 13.116 0 5.245 0 9.512 4.268 9.512 9.513zm-60.657-64.005c12.471 0 23.666 7.423 28.519 18.911l8.702 20.595c-13.143.428-23.704 11.253-23.704 24.499 0 3.371.684 6.586 1.921 9.512h-57.302v-73.517zm144.234 324.728c-34.91 0-63.312-28.401-63.312-63.312 0-34.835 28.328-63.313 63.312-63.313 34.964 0 63.312 28.457 63.312 63.313 0 34.911-28.402 63.312-63.312 63.312zm187.84-66.027h-69.715v-3.565-27.639h69.252.462v31.204zm-82.915-101.048v-11.149h24.128v26.84h-8.438c-8.651 0-15.69-7.04-15.69-15.691zm74.788 15.691h-35.659v-26.84h35.659zm116.189 151.384h-59.3v-8.642c0-1.314.985-2.412 2.292-2.555l13.076-1.428c10.391-1.135 18.228-9.873 18.228-20.326v-4.415h25.704zm0-64.092v11.728h-30.48v-11.728zm-147.438-176.773c0-7.04 5.728-12.768 12.768-12.768h12.2v15.108h-24.968zm-92.224-35.624 7.337 32.469-41.37-2.912zm132.192 20.887h10.455v17.078h-10.455zm51.708-146.354c1.413-.249 2.827-.372 4.232-.372 4.895 0 9.666 1.495 13.759 4.361 3.581 2.507 6.353 5.861 8.111 9.741l-45.927 8.098c.839-10.678 8.798-19.883 19.825-21.828zm19.255 78.063-.12-.679c-.552-3.129-2.408-5.898-5.092-7.597-2.668-1.689-5.941-2.183-8.982-1.347-1.015.279-2.051.513-3.081.693-.001 0-.001.001-.002.001-7.612 1.342-14.898-3.759-16.24-11.372l-3.708-21.029 47.422-8.362 8.762 49.691h-18.959z"/></svg>