<svg id="Capa_1" enable-background="new 0 0 512.356 512.356" height="512" viewBox="0 0 512.356 512.356" width="512" xmlns="http://www.w3.org/2000/svg"><g><path d="m218.081 312.784h76.195c4.142 0 7.5-3.357 7.5-7.5s-3.358-7.5-7.5-7.5h-76.195c-4.142 0-7.5 3.357-7.5 7.5s3.357 7.5 7.5 7.5z"/><path d="m233.387 142.14c-14.059 0-25.497 11.438-25.497 25.497v4.74h-7.603c-5.769 0-10.606 4.136-11.504 9.834l-7.961 50.52c-1.114 7.069 4.355 13.458 11.504 13.458h82.121c7.157 0 12.617-6.397 11.504-13.458l-7.961-50.52c-.897-5.698-5.735-9.834-11.504-9.834h-7.603v-4.74c.002-14.059-11.436-25.497-25.496-25.497zm-10.497 25.497c0-5.788 4.709-10.497 10.497-10.497 5.789 0 10.498 4.709 10.498 10.497v4.74h-20.995zm47.634 63.552h-74.273l6.904-43.812h60.465z"/><path d="m503.624 271.051h-36.816c-4.142 0-7.5 3.357-7.5 7.5s3.358 7.5 7.5 7.5h30.549v11.732h-140.334v-11.732h74.784c4.142 0 7.5-3.357 7.5-7.5s-3.358-7.5-7.5-7.5h-74.784v-64.713h1.173c6.428 0 11.658-5.23 11.658-11.659v-17.346c0-6.429-5.23-11.659-11.658-11.659h-1.173v-14.336h1.173c6.428 0 11.658-5.23 11.658-11.659v-17.347c0-6.429-5.23-11.658-11.658-11.658h-1.173v-53.643c0-6.328-6.175-10.837-12.205-8.908l-183.335 58.693c-3.892 1.243-6.507 4.823-6.507 8.909v49.033c0 4.143 3.358 7.5 7.5 7.5s7.5-3.357 7.5-7.5v-44.911l172.047-55.08v45.907h-34.916c-6.428 0-11.658 5.229-11.658 11.658v17.347c0 6.429 5.23 11.659 11.658 11.659h34.916v14.336h-34.916c-6.428 0-11.658 5.23-11.658 11.659v17.346c0 6.429 5.23 11.659 11.658 11.659h34.916v243.346h-33.476v-111.653h6.531c6.586 0 11.944-5.358 11.944-11.944v-41.607c0-6.586-5.358-11.944-11.944-11.944h-118.157c-6.586 0-11.944 5.358-11.944 11.944v41.606c0 6.586 5.358 11.944 11.944 11.944h6.531v9.837c0 4.143 3.358 7.5 7.5 7.5s7.5-3.357 7.5-7.5v-9.837h30.226v111.653h-30.226v-66.816c0-4.143-3.358-7.5-7.5-7.5s-7.5 3.357-7.5 7.5v66.816h-33.476v-249.925c0-4.143-3.358-7.5-7.5-7.5s-7.5 3.357-7.5 7.5v71.293h-146.243c-4.815 0-8.733 3.917-8.733 8.732v24.267c0 4.513 3.441 8.237 7.836 8.688v110.259c-4.395.451-7.836 4.175-7.836 8.688v24.267c0 4.815 3.917 8.732 8.733 8.732h494.891c4.815 0 8.733-3.917 8.733-8.732v-24.267c0-4.513-3.441-8.237-7.836-8.688v-110.259c4.396-.45 7.836-4.175 7.836-8.688v-24.267c-.001-4.815-3.918-8.732-8.733-8.732zm-193.175-145.377h44.406v10.664h-44.406zm0 55h44.406v10.664h-44.406zm-224.519 157.109v22.585h-24.047v-22.585zm39.047 0v22.585h-24.047v-22.585zm-63.094 60.169v-22.584h24.047v22.584zm-39.047 0v-22.584h24.047v22.584zm78.094-22.584h24.046v22.584h-24.046zm-54.047-15h-24.047v-22.585h24.047zm-24.047 52.584h108.184c4.938 0 8.956-4.018 8.956-8.956v-72.257c0-4.938-4.018-8.956-8.956-8.956h-108.184v-9.999h132.14v110.168h-132.14zm-7.836-126.901h139.977v11.732h-139.977zm0 151.901h139.977v11.732h-139.977zm184.977-150.416h112.047v35.495h-112.047zm63.701 50.495h29.87v111.653h-29.87zm162.748 59.921v-22.584h24.047v22.584zm-39.046 0v-22.584h24.046v22.584zm63.093-60.169v22.585h-24.047v-22.585zm39.047 0v22.585h-24.047v-22.585zm-78.094 22.585h-24.046v-22.585h24.046zm54.047 15h24.047v22.584h-24.047zm24.047-62.584v9.999h-108.184c-4.938 0-8.956 4.018-8.956 8.956v72.257c0 4.938 4.018 8.956 8.956 8.956h108.184v10h-132.497v-110.168zm7.836 136.9h-140.333v-11.732h140.333z"/></g></svg>