<svg id="Capa_1" enable-background="new 0 0 512 512" height="512" viewBox="0 0 512 512" width="512" xmlns="http://www.w3.org/2000/svg"><g><path d="m202.874 458.904c.468 5.151 4.787 9.096 9.959 9.096h86.334c5.172 0 9.491-3.944 9.959-9.096l11.741-129.313c.254-2.798-.681-5.573-2.575-7.648-1.895-2.074-4.574-3.256-7.384-3.256h-109.816c-2.81 0-5.489 1.182-7.384 3.256-1.895 2.075-2.829 4.851-2.575 7.648zm97.085-120.217-9.925 109.313h-68.067l-9.925-109.313z"/><path d="m411.337 159.67c0-13.606-8.713-25.215-20.851-29.531 3.359-8.021 5.097-16.663 5.097-25.578 0-36.548-29.712-66.282-66.233-66.282-2.564 0-5.125.147-7.663.441-13.127-23.761-38.112-38.72-65.687-38.72s-52.56 14.959-65.688 38.72c-2.539-.294-5.099-.441-7.663-.441-36.521 0-66.233 29.734-66.233 66.282 0 8.915 1.738 17.558 5.097 25.578-12.137 4.316-20.851 15.925-20.851 29.531 0 9.684 4.414 18.355 11.334 24.106v100.91c0 5.522 4.477 10 10 10h21.786l18.905 208.218c.468 5.151 4.787 9.096 9.959 9.096h166.706c5.172 0 9.491-3.944 9.959-9.096l18.905-208.218h21.786c5.523 0 10-4.478 10-10v-100.91c6.921-5.751 11.335-14.422 11.335-24.106zm-279.364-11.329h60.027c5.523 0 10-4.478 10-10s-4.477-10-10-10h-49.027c-4.303-7.158-6.557-15.29-6.557-23.78 0-25.521 20.74-46.282 46.233-46.282 3.715 0 7.411.441 10.985 1.313 4.773 1.162 9.681-1.312 11.585-5.838 8.626-20.505 28.558-33.754 50.781-33.754s42.155 13.249 50.78 33.753c1.904 4.526 6.815 7 11.585 5.838 3.574-.871 7.27-1.313 10.985-1.313 25.493 0 46.233 20.762 46.233 46.282 0 8.491-2.254 16.622-6.557 23.78h-49.026c-5.523 0-10 4.478-10 10s4.477 10 10 10h60.027c6.236 0 11.31 5.082 11.31 11.329 0 6.246-5.074 11.328-11.31 11.328h-248.054c-6.236 0-11.31-5.082-11.31-11.328s5.073-11.328 11.31-11.328zm248.03 74.502h-248.006v-31.845h248.006zm-49.783 269.157h-148.44l-17.915-197.313h184.27zm-198.223-217.313v-31.844h248.006v31.844z"/></g></svg>