<svg height="512" viewBox="0 0 64 64" width="512" xmlns="http://www.w3.org/2000/svg"><g id="Logistic-Truck-Delivery-Transportation-Shipping"><path d="m13 46a3 3 0 1 0 3 3 3 3 0 0 0 -3-3zm0 4a1 1 0 1 1 1-1 1 1 0 0 1 -1 1z"/><path d="m43 46a3 3 0 1 0 3 3 3 3 0 0 0 -3-3zm0 4a1 1 0 1 1 1-1 1 1 0 0 1 -1 1z"/><path d="m52 21v6.975h2v-6.975a3 3 0 0 0 -3-3h-3v2h3a1 1 0 0 1 1 1z"/><path d="m52 42v7a1 1 0 0 1 -1 1h-1.08a6.634 6.634 0 0 0 .08-1 7 7 0 0 0 -14 0 6.634 6.634 0 0 0 .08 1h-14.08v-14h-2v14h-.08a6.634 6.634 0 0 0 .08-1 7 7 0 0 0 -14 0 6.634 6.634 0 0 0 .08 1h-2.08v-7h3v-2h-3v-.65a1 1 0 0 1 .63-.92l3.34-1.34a.746.746 0 0 0 .15-.09h7.88a2.006 2.006 0 0 0 2-2v-4a2.006 2.006 0 0 0 -2-2h-4.12l.8-2h7.32v5.99h2v-12.99a1 1 0 0 1 1-1h3v-2h-3a3.009 3.009 0 0 0 -3 3v5h-7.32a1.99 1.99 0 0 0 -1.86 1.26l-3.59 8.97-3.34 1.34a3.011 3.011 0 0 0 -1.89 2.78v9.65a2.006 2.006 0 0 0 2 2h2.69a6.977 6.977 0 0 0 12.62 0h17.38a6.977 6.977 0 0 0 12.62 0h1.69a3.009 3.009 0 0 0 3-3v-7zm-40.92-10h4.92v4h-6.52zm1.92 22a5 5 0 1 1 5-5 5 5 0 0 1 -5 5zm30 0a5 5 0 1 1 5-5 5 5 0 0 1 -5 5z"/><path d="m48 34h14v2h-14z"/><path d="m44 38h14v2h-14z"/><path d="m38 30h16v2h-16z"/><path d="m29.105 23.171 7 3.5a2.012 2.012 0 0 0 1.79 0l7-3.5a1.99 1.99 0 0 0 1.105-1.789v-3.382h-2v3.382l-6 3v-7.764l6-3v2.382h2v-3.382a1.99 1.99 0 0 0 -1.1-1.789l-7-3.5a2.012 2.012 0 0 0 -1.79 0l-7 3.5a1.99 1.99 0 0 0 -1.11 1.789v8.764a1.99 1.99 0 0 0 1.105 1.789zm.895-9.553 2 1v3.382h2v-2.382l2 1v7.764l-6-3zm5.236.382 5.764-2.882 1.764.882-5.764 2.882zm1.764-4.882 1.764.882-5.764 2.882-1.764-.882z"/><path d="m56 30h2v2h-2z"/><path d="m60 42h2v2h-2z"/><path d="m44 34h2v2h-2z"/><path d="m36 36h2v2h-2z"/><path d="m30 38v-4.586l1.293 1.293 1.414-1.414-3-3a1 1 0 0 0 -1.414 0l-3 3 1.414 1.414 1.293-1.293v4.586z"/></g></svg>