<?xml version="1.0" encoding="UTF-8"?>
<svg xmlns="http://www.w3.org/2000/svg" id="Line_Expand" data-name="Line Expand" viewBox="0 0 64 64" width="512" height="512"><path d="M61,3H31a1,1,0,0,0-1,1V27.41c-.23-.1-.47-.18-.71-.26a36.39,36.39,0,0,0-20.58,0,7,7,0,0,0-5,7.8l.37,2.42A5,5,0,0,0,4,46.58V54a3,3,0,0,0,2,2.82V60a1,1,0,0,0,1,1h3a1,1,0,0,0,1-.76L11.78,57H26.22L27,60.24A1,1,0,0,0,28,61H61a1,1,0,0,0,1-1V4A1,1,0,0,0,61,3ZM32,12H45v2H32Zm0,4H45V47H34v-.42a5,5,0,0,0-.12-9.21L34.25,35A7,7,0,0,0,32,28.67ZM45,49v2H34V49ZM9.28,29.07a34.38,34.38,0,0,1,19.44,0,5,5,0,0,1,3.55,5.57L31.91,37A5,5,0,0,0,27,42H11a5,5,0,0,0-4.91-5l-.36-2.37A5,5,0,0,1,9.28,29.07ZM27,44v3H11V44ZM9.22,59H8V57H9.72ZM30,59H28.78l-.5-2H30Zm1-4H7a1,1,0,0,1-1-1V47a1,1,0,0,0,0-2,3,3,0,1,1,3-3v6a1,1,0,0,0,1,1H28a1,1,0,0,0,1-1V42a3,3,0,1,1,3,3,1,1,0,0,0,0,2v7A1,1,0,0,1,31,55Zm29,4H32V56.82A3,3,0,0,0,34,54V53H60Zm0-8H47V12H60Zm0-41H32V5H60Z"/><path d="M50,34a1,1,0,0,0,1-1V29a1,1,0,0,0-2,0v4A1,1,0,0,0,50,34Z"/></svg>
