<svg id="Capa_1" enable-background="new 0 0 512 512" height="512" viewBox="0 0 512 512" width="512" xmlns="http://www.w3.org/2000/svg"><g><path d="m491.5 457.896h-19.5v-264.285c8.557-8.1 14.304-19.159 15.596-31.611.623-6.576.26-14.531-3.706-22.65l-32.114-59.484v-29.993c0-9.649-7.851-17.5-17.5-17.5h-38.276c-4.142 0-7.5 3.357-7.5 7.5s3.358 7.5 7.5 7.5h38.276c1.378 0 2.5 1.121 2.5 2.5v24.347h-58.236-77.85-87.58-78.75-59.115v-24.347c0-1.378 1.121-2.5 2.498-2.5h104.396c11.647 0 22.861-5.803 29.996-15.522 7.231-9.853 25.223-16.473 44.769-16.473s37.538 6.62 44.77 16.474c7.135 9.719 18.35 15.521 30.001 15.521h29.325c4.142 0 7.5-3.357 7.5-7.5s-3.358-7.5-7.5-7.5h-29.326c-6.998 0-13.525-3.426-17.909-9.397-10.231-13.939-32.019-22.598-56.862-22.598s-46.631 8.659-56.861 22.597c-4.384 5.973-10.91 9.398-17.903 9.398h-104.398c-9.647.002-17.497 7.853-17.497 17.5v29.954l-32.134 59.523c-2.404 5.025-4.485 12.815-3.888 20.353.625 12.008 6.463 25.199 15.779 33.863v72.668c0 4.143 3.358 7.5 7.5 7.5s7.5-3.357 7.5-7.5v-62.773c6.705 3.179 17.744 4.487 26.289 4.065 18.286 0 34.382-9.659 43.344-24.249 8.468 14.519 27.284 25.186 45.141 24.249 18.283 0 34.377-9.656 43.339-24.242 8.586 14.189 25.807 24.7 44.242 24.242 18.283 0 34.376-9.656 43.339-24.242 8.963 14.585 25.056 24.242 43.339 24.242 17.227-.041 33.727-8.824 43.339-24.257 8.779 15.636 30.685 24.257 49.66 24.257 7.081 0 13.829-1.459 19.968-4.08v254.45h-285.824v-23.896c0-4.143-3.358-7.5-7.5-7.5s-7.5 3.357-7.5 7.5v23.896h-70.875v-77.678c0-19.54 15.897-35.437 35.437-35.437 19.541 0 35.438 15.896 35.438 35.437v18.782c0 4.143 3.358 7.5 7.5 7.5s7.5-3.357 7.5-7.5v-18.781c0-27.811-22.626-50.437-50.438-50.437-27.811 0-50.437 22.626-50.437 50.437v77.678h-15.302v-156.53c0-4.143-3.358-7.5-7.5-7.5s-7.5 3.357-7.5 7.5v156.529h-19.5c-11.304 0-20.5 9.197-20.5 20.503v25.723c0 4.143 3.358 7.5 7.5 7.5h497c4.142 0 7.5-3.357 7.5-7.5v-25.723c0-11.305-9.196-20.503-20.5-20.503zm-51.72-368.676 30.81 57.07c.396.937.808 1.712 1.716 5.145h-77.553c-.079-2.063-.292-5.475-.763-10.145l-6.89-52.07zm-60.67 53.96c.305 2.754.509 5.513.63 8.255h-71.55v-62.215h63.78zm-85.92 8.255h-72.58v-62.215h72.58zm-152.34-62.215h64.76v62.215h-73.338c.134-2.717.358-5.44.698-8.145zm-68.63 0h53.47l-7.57 51.98c-.01.05-.02.09-.02.14-.428 3.348-.698 6.726-.843 10.095h-77.57c.381-1.766.955-3.488 1.723-5.155zm9.069 103.306h-6.32c-9.58 0-18.578-3.729-25.344-10.505-4.376-4.37-7.504-9.738-9.154-15.587h75.325c-4.253 15.128-18.142 26.092-34.507 26.092zm88.484 0c-15.697.923-31.829-9.917-36.304-26.092h70.81c-4.252 15.128-18.14 26.092-34.506 26.092zm87.581 0c-16 .554-31.217-10.806-35.409-26.092h69.915c-4.251 15.128-18.14 26.092-34.506 26.092zm112.016-10.498c-6.759 6.77-15.758 10.498-25.337 10.498-16.366 0-30.254-10.964-34.506-26.092h69.004c-1.651 5.849-4.781 11.219-9.161 15.594zm63.832 10.498c-15.154.223-32.62-10.589-36.99-26.092h75.325c-4.251 15.128-18.14 26.092-34.506 26.092zm63.798 304.096h-482v-18.223c0-3.034 2.467-5.503 5.5-5.503h471c3.033 0 5.5 2.469 5.5 5.503z"/><path d="m236.617 37.297c-4.142 0-7.5 3.357-7.5 7.5s3.358 7.5 7.5 7.5h38.766c4.142 0 7.5-3.357 7.5-7.5s-3.358-7.5-7.5-7.5z"/><path d="m144.177 392.5v-12.28c0-12.924-10.514-23.438-23.438-23.438s-23.437 10.514-23.437 23.438v12.28c0 4.143 3.358 7.5 7.5 7.5h31.875c4.142 0 7.5-3.357 7.5-7.5zm-15-7.5h-16.875v-4.78c0-4.652 3.785-8.438 8.437-8.438s8.438 3.785 8.438 8.438z"/><path d="m79.693 308.867h82.092c6.893 0 12.5-5.607 12.5-12.5v-21.404c0-6.893-5.607-12.5-12.5-12.5h-82.092c-6.893 0-12.5 5.607-12.5 12.5v21.404c0 6.893 5.608 12.5 12.5 12.5zm2.5-31.404h77.092v16.404h-77.092z"/><path d="m433.057 259.032c0-9.649-7.851-17.5-17.5-17.5h-198.39c-9.649 0-17.5 7.851-17.5 17.5v123.392c-6.618.863-11.75 6.523-11.75 13.373v15.17c0 7.444 6.056 13.5 13.5 13.5h176.902c4.142 0 7.5-3.357 7.5-7.5s-3.358-7.5-7.5-7.5h-175.402v-12.17h226.889v12.17h-15.806c-4.142 0-7.5 3.357-7.5 7.5s3.358 7.5 7.5 7.5h17.307c7.444 0 13.5-6.056 13.5-13.5v-15.17c0-6.85-5.132-12.511-11.75-13.373zm-215.89-2.5h198.389c1.378 0 2.5 1.121 2.5 2.5v19.406c-1.447-.344-2.949-.545-4.5-.545h-19.803c-5.153 0-9.832 2.023-13.322 5.299-4.083-3.311-9.28-5.299-14.934-5.299-6.284 0-12.002 2.458-16.255 6.457-4.253-3.999-9.971-6.457-16.255-6.457-5.654 0-10.85 1.989-14.934 5.299-3.49-3.276-8.169-5.299-13.322-5.299h-19.803c-5.137 0-9.803 2.012-13.289 5.27-4.078-3.292-9.259-5.27-14.896-5.27-6.284 0-12.002 2.458-16.255 6.457-4.253-3.999-9.971-6.457-16.255-6.457-3.402 0-6.636.724-9.565 2.018v-20.879c-.001-1.379 1.121-2.5 2.499-2.5zm175.854 99.712c-4.253-3.999-9.971-6.457-16.255-6.457-5.654 0-10.85 1.989-14.934 5.299-3.49-3.276-8.169-5.299-13.322-5.299h-19.803c-4.527 0-8.687 1.564-12 4.162-3.313-2.598-7.473-4.162-12-4.162h-19.803c-5.312 0-10.13 2.141-13.651 5.599-4.136-3.49-9.472-5.599-15.295-5.599-6.284 0-12.002 2.458-16.255 6.457-4.253-3.999-9.971-6.457-16.255-6.457-3.101 0-6.062.604-8.78 1.689v-25.668h203.389v25.668c-2.718-1.086-5.679-1.689-8.78-1.689-6.285 0-12.003 2.458-16.256 6.457zm25.036-45.435h-28.803v-13.415c0-2.481 2.019-4.5 4.5-4.5h19.803c2.481 0 4.5 2.019 4.5 4.5zm-52.559-.405c-4.828 0-8.755-3.928-8.755-8.755 0-4.828 3.928-8.756 8.755-8.756s8.755 3.928 8.755 8.756-3.927 8.755-8.755 8.755zm-32.511 0c-4.828 0-8.755-3.928-8.755-8.755 0-4.828 3.928-8.756 8.755-8.756s8.755 3.928 8.755 8.756c.001 4.828-3.927 8.755-8.755 8.755zm-23.755.405h-28.803c-.023-4.065.062-8.553 0-13.415 0-2.481 2.019-4.5 4.5-4.5h19.803c2.481 0 4.5 2.019 4.5 4.5zm-43.803-8.105c-.523 4.331-4.215 7.701-8.686 7.701-4.828 0-8.755-3.928-8.755-8.755 0-4.828 3.928-8.756 8.755-8.756 4.47 0 8.162 3.37 8.686 7.702zm-49.952-1.055c0-4.828 3.928-8.756 8.755-8.756s8.755 3.928 8.755 8.756c0 4.827-3.928 8.755-8.755 8.755s-8.755-3.927-8.755-8.755zm-.785 71.894c0-4.828 3.928-8.756 8.755-8.756s8.755 3.928 8.755 8.756c0 4.827-3.928 8.755-8.755 8.755s-8.755-3.928-8.755-8.755zm32.511 0c0-4.828 3.928-8.756 8.755-8.756s8.755 3.928 8.755 8.756c0 4.827-3.928 8.755-8.755 8.755s-8.755-3.928-8.755-8.755zm33.201-4.256c0-2.481 2.019-4.5 4.5-4.5h19.803c2.481 0 4.5 2.019 4.5 4.5v13.011h-28.803zm43.803 0c0-2.481 2.019-4.5 4.5-4.5h19.803c2.481 0 4.5 2.019 4.5 4.5v13.011h-28.803zm43.803 4.256c0-4.828 3.928-8.756 8.755-8.756s8.755 3.928 8.755 8.756c0 4.827-3.928 8.755-8.755 8.755s-8.755-3.928-8.755-8.755zm32.511 0c0-4.828 3.928-8.756 8.755-8.756s8.755 3.928 8.755 8.756c0 4.827-3.928 8.755-8.755 8.755s-8.755-3.928-8.755-8.755z"/><path d="m104.802 413c-4.142 0-7.5 3.357-7.5 7.5v12c0 4.143 3.358 7.5 7.5 7.5s7.5-3.357 7.5-7.5v-4.5h4.5c4.142 0 7.5-3.357 7.5-7.5s-3.358-7.5-7.5-7.5z"/></g></svg>