<svg fill="#3E7FCA" id="Capa_1"  enable-background="new 0 0 512.018 512.018" height="512" viewBox="0 0 512.018 512.018" width="512" xmlns="http://www.w3.org/2000/svg"><path d="m444.142 408.945c-3.011 0-6.039-.085-9.043.159-17.415-27.616-48.799-45.209-81.394-45.209-9.024 0-17.533 2.229-25.025 6.147-8.719-17.035-26.522-28.293-46.138-28.293-2.713 0-5.407.137-8.077.392 4.012-7.638 7.053-15.696 9.076-24.054l24.479 6.559c16.344 4.378 33.522-6.317 36.824-22.904 3.012-15.129-6.556-30.49-21.448-34.481l-43.611-11.686c-3.176-8.458-7.855-15.788-12.194-23.638 0 0 .76-3.476 1.442-6.021l61.056 16.36c15.641 4.195 32.204-5.39 36.381-21.004 4.186-15.648-5.388-32.198-21.004-36.381l-61.057-16.36 6.695-24.984 61.057 16.36c15.642 4.19 32.203-5.386 36.381-21.004 4.186-15.648-5.388-32.198-21.004-36.381l-61.058-16.361 4.164-15.541c10.701-39.94 51.899-63.728 91.843-53.025 39.459 10.574 63.612 52.326 53.025 91.842l-62.614 233.678c-1.072 4.001 1.302 8.114 5.303 9.186 3.947 1.061 8.13-1.362 9.186-5.303l62.614-233.678c12.716-47.451-16.279-97.526-63.631-110.213-23.217-6.222-47.468-3.028-68.286 8.989-20.816 12.019-35.707 31.424-41.928 54.642l-40.523 151.236c-19.288-19.438-46.004-31.495-75.485-31.495h-35.14c-4.143 0-7.5 3.357-7.5 7.5s3.357 7.5 7.5 7.5h35.14c26.352 0 51.827 11.707 69.077 31.615 18.286 21.104 24.318 47.543 21.093 74.815-2.302 14.011-7.851 27.196-16.359 38.82-7.675 2.761-14.918 6.629-21.506 11.499v-7.027c23.46-21.745 30.627-57.764 18.412-87.201-11.554-27.844-39.475-46.556-69.628-46.556h-71.405c-43.296 0-75.603 36.339-75.344 78.516 0 21.052 8.75 40.986 24.127 55.241v109.926c0 11.791 9.593 21.384 21.385 21.384h38.262c2.036 5.575 6.104 10.148 9.989 14.51h-76.762c-3.728 0-6.761-3.032-6.761-6.76v-131.459c0-1.846-.681-3.627-1.912-5.003-15.015-16.771-23.284-38.41-23.284-60.932 0-50.393 40.997-91.39 91.39-91.39 4.143 0 7.5-3.357 7.5-7.5s-3.357-7.5-7.5-7.5c-58.663 0-106.39 47.727-106.39 106.39 0 25.246 8.928 49.542 25.196 68.742v128.649c0 11.998 9.762 21.76 21.761 21.76h221.271c4.143 0 7.5-3.357 7.5-7.5s-3.357-7.5-7.5-7.5h-63.355v-60.483c0-40.761 30.504-79.787 73.139-79.787 14.722 0 28.009 8.919 33.764 22.174-10.338 9.875-16.799 23.778-16.799 39.17v86.427c0 4.143 3.357 7.5 7.5 7.5h165.479c22.66 0 34.999-19.064 34.999-39.728 0-34.929-28.416-63.346-63.345-63.346zm-71.558-285.085c6.43 11.136-4.125 24.875-16.54 21.557l-61.057-16.36 7.612-28.408 61.056 16.36c3.795 1.016 6.965 3.45 8.929 6.851zm-53.07 157.888c18.271 4.896 10.715 33.308-7.611 28.408l-25.876-6.933c.983-10.291.512-20.695-1.475-30.844zm-38.985-98.73 61.056 16.359c18.174 4.87 10.848 33.343-7.611 28.408l-61.056-16.36zm-200.529 284.491c-3.521 0-6.385-2.863-6.385-6.384v-113.302c0-2.21-.975-4.307-2.663-5.732-42.407-35.782-17.308-109.648 38.88-109.648h71.405c56.186 0 81.289 73.866 38.879 109.648-1.688 1.425-2.663 3.522-2.663 5.732v24.654c-6.24 7.555-11.3 15.941-15.072 24.859-18.482 2.926-36.477 8.752-53.134 17.284-19.636 10.034-32.327 30.823-32.265 52.889zm60.662 20.826c-18.518-18.515-5.145-49.854 15.416-60.361 12.949-6.633 26.772-11.467 41.014-14.424-1.762 7.492-2.689 15.201-2.689 22.985v60.487l-32.784-.004c-7.914 0-15.357-3.084-20.957-8.683zm173.846-70.243c0-21.613 17.584-39.197 39.197-39.197 25.945 0 50.988 13.226 66.087 34.308-14.932 7.098-25.283 22.326-25.283 39.93v43.887h-80.001zm177.979 58.927c0 11.027-8.972 19.999-19.999 19.999h-62.979v-43.887c0-14.046 9.974-25.804 23.211-28.569 29.961-5.826 59.767 16.689 59.767 47.729z"/></svg>