<svg id="Capa_1" enable-background="new 0 0 512 512" height="512" viewBox="0 0 512 512" width="512" xmlns="http://www.w3.org/2000/svg"><g><path d="m485.327 268.109-13.681-3.141c-3.947-.905-7.885 1.56-8.791 5.509-.907 3.949 1.56 7.885 5.509 8.792l13.68 3.14c2.212.508 3.757 2.447 3.757 4.716v72.552c0 .675-.371 1.061-.681 1.267-.31.205-.809.395-1.432.13l-32.12-13.674c-18.246-7.766-38.195-9.955-57.691-6.327l-6.428 1.196c-.417-.865-.856-1.716-1.311-2.558l7.558-2.058c15.889-4.326 32.254-5.703 48.641-4.089l11.585 1.14c4.036.406 7.623-2.55 8.019-6.583.396-4.032-2.551-7.622-6.583-8.019l-11.585-1.14c-15.649-1.541-31.285-.616-46.58 2.735 10.643-6.006 22.348-9.996 34.61-11.707l11.445-1.598c4.013-.56 6.812-4.267 6.251-8.28-.56-4.013-4.275-6.814-8.28-6.251l-11.445 1.597c-21.547 3.008-41.615 12.109-58.08 26.317-1.53-1.318-3.122-2.564-4.774-3.733l14.969-14.563c14.058-13.676 31.736-22.491 51.124-25.49 4.004-.619 6.748-4.367 6.129-8.371s-4.369-6.749-8.372-6.128c-22.417 3.468-42.858 13.659-59.113 29.473l-18.282 17.787c-7.086-2.759-14.781-4.29-22.832-4.29h-21.087c-.128-.931-.204-1.912-.204-2.996 0-5.879 1.792-8.391 4.505-12.194 3.223-4.517 7.233-10.139 7.233-20.715 0-10.575-4.011-16.196-7.233-20.713-2.713-3.802-4.505-6.314-4.505-12.191s1.792-8.389 4.505-12.191c3.222-4.517 7.233-10.138 7.233-20.713s-4.011-16.196-7.233-20.713c-2.713-3.802-4.505-6.314-4.505-12.191s1.792-8.389 4.505-12.19c3.222-4.516 7.233-10.138 7.233-20.712s-4.011-16.194-7.233-20.711c-2.713-3.801-4.505-6.312-4.505-12.188s1.792-8.387 4.505-12.188c3.222-4.516 7.233-10.137 7.233-20.71 0-10.575-4.011-16.196-7.233-20.712-2.713-3.802-4.505-6.314-4.505-12.19s1.792-8.389 4.505-12.19c3.222-4.516 7.233-10.138 7.233-20.712 0-4.052-3.284-7.336-7.336-7.336s-7.336 3.285-7.336 7.336c0 5.877-1.792 8.389-4.505 12.19-3.222 4.516-7.233 10.138-7.233 20.712s4.011 16.196 7.233 20.712c2.713 3.802 4.505 6.314 4.505 12.19 0 5.875-1.792 8.386-4.504 12.188-3.223 4.516-7.234 10.137-7.234 20.711s4.011 16.194 7.233 20.711c2.713 3.801 4.505 6.312 4.505 12.188 0 5.877-1.792 8.389-4.505 12.19-3.222 4.516-7.233 10.138-7.233 20.712s4.011 16.196 7.233 20.713c2.713 3.802 4.505 6.314 4.505 12.191s-1.792 8.389-4.505 12.191c-3.222 4.517-7.233 10.138-7.233 20.713s4.011 16.196 7.233 20.713c2.713 3.802 4.505 6.314 4.505 12.191 0 5.879-1.792 8.391-4.505 12.194-3.223 4.517-7.233 10.139-7.233 20.715 0 1.026.041 2.023.117 2.996h-14.203c-2.65 0-4.805-2.156-4.805-4.805v-90.442c0-23.091-10.906-44.771-29.304-58.56l-10.889-74.11c-1.475-10.037-10.238-17.607-20.383-17.607-10.208 0-18.768 7.32-20.354 17.405l-8.665 55.156-4.182-.811-7.955-54.143c-1.475-10.037-10.238-17.607-20.384-17.607-10.209 0-18.769 7.32-20.353 17.405l-8.628 54.919c-12.208 3.63-23.761 9.568-33.998 17.662l-54.212 42.859c-7.604 6.011-11.965 15.018-11.965 24.711 0 14.265 9.629 26.785 23.417 30.446l75.894 20.151v73.655c0 11.159 2.195 22.003 6.256 32.019 1.38 3.436 3.006 6.775 4.831 9.995 3.51 6.199 7.787 11.959 12.755 17.125v72.677c0 20.644 16.794 37.439 37.438 37.439s37.439-16.795 37.439-37.439v-31.946c7.373 1.609 14.919 2.442 22.496 2.442h73.847v29.504c0 20.644 16.794 37.439 37.438 37.439s37.439-16.795 37.439-37.439v-104.975c0-4.558-.497-9-1.419-13.286l4.309-.802c16.644-3.098 33.679-1.229 49.26 5.402l32.12 13.674c4.995 2.129 10.713 1.623 15.271-1.39 4.547-3.006 7.262-8.055 7.262-13.506v-72.552c.004-9.15-6.224-16.969-15.143-19.017zm-276.071-187.49c.457-2.904 2.92-5.01 5.859-5.01 2.92 0 5.442 2.179 5.867 5.068l11.232 76.446h-34.977zm-61.539-.001c.456-2.902 2.919-5.009 5.858-5.009 2.92 0 5.443 2.179 5.868 5.068l7.236 49.254c-8.943-1.176-17.921-1.151-26.714.031zm-102.233 124.673 6.582-5.204 11.516 11.148c-9.21.551-17.76 4.571-24.053 11.012-.279-1.215-.437-2.47-.437-3.756.001-5.177 2.33-9.988 6.392-13.2zm3.395 28.482c4.118-4.937 10.276-7.93 16.886-7.93 5.636 0 10.643-3.375 12.757-8.599 2.114-5.223.864-11.131-3.185-15.051l-11.659-11.287 13.541-10.706c14.809 11.221 23.513 28.563 23.513 47.337 0 6.672-1.11 13.173-3.267 19.396l-45.864-12.178c-.945-.25-1.854-.582-2.722-.982zm158.899 240.788c0 12.553-10.213 22.766-22.767 22.766-12.553 0-22.766-10.213-22.766-22.766v-1.733h45.532v1.733zm0-16.405h-45.532v-44.099c3.286 2.325 27.474 15.445 31.461 17.735 4.53 2.514 9.239 4.672 14.071 6.488zm-6.95-39.194c-2.74-1.58-28.105-15.438-30.016-16.833-8.984-5.791-16.555-13.582-22.105-22.689h119.279c4.052 0 7.336-3.285 7.336-7.336 0-4.052-3.284-7.336-7.336-7.336h-126.048c-2.303-7.008-3.535-14.427-3.535-22.024v-69.759l14.966 3.974c7.035 1.868 14.293 2.815 21.573 2.815h.011l14.532-.002c4.052 0 7.336-3.286 7.335-7.337-.001-4.052-3.285-7.336-7.337-7.335l-14.532.002c-.004 0-.007 0-.011 0-6.008 0-11.999-.782-17.806-2.324l-45.449-12.067c2.463-7.454 3.72-15.218 3.72-23.172 0-22.141-9.705-42.682-26.372-56.677l10.662-8.429c19.845-15.69 45.47-21.926 70.307-17.11l13.814 2.679-1.519 9.669c-.555 3.536.46 7.124 2.786 9.844 2.326 2.721 5.713 4.281 9.293 4.281h40.668c2.899 0 5.666-1.04 7.853-2.877 11.464 10.95 18.12 26.186 18.12 42.294v53.878l-35.32.006c-4.052 0-7.336 3.286-7.335 7.338s3.286 7.335 7.337 7.335l35.318-.006v21.892c0 10.74 8.738 19.478 19.478 19.478h50.05c25.091 0 45.787 19.172 48.214 43.636h-74.884c-4.052 0-7.336 3.285-7.336 7.336 0 4.052 3.284 7.336 7.336 7.336h75.125v29.406c0 11.876-9.662 21.538-21.538 21.538h-112.515c-15.399-.002-30.655-3.952-44.119-11.424zm156.633 26.095c8.062 0 15.514-2.65 21.538-7.122v20.221h-45.532v-13.099zm21.538 29.504c0 12.553-10.213 22.766-22.767 22.766-12.553 0-22.766-10.213-22.766-22.766v-1.733h45.532v1.733z"/><path d="m128.097 190.116c-4.361 0-7.896 3.535-7.896 7.896s3.535 7.896 7.896 7.896 7.896-3.535 7.896-7.896-3.535-7.896-7.896-7.896z"/><path d="m155.368 297.862c-4.052 0-7.336 3.285-7.336 7.336v14.809c0 4.052 3.284 7.336 7.336 7.336s7.336-3.285 7.336-7.336v-14.809c0-4.051-3.284-7.336-7.336-7.336z"/><path d="m185.326 297.862c-4.052 0-7.336 3.285-7.336 7.336v14.809c0 4.052 3.284 7.336 7.336 7.336s7.336-3.285 7.336-7.336v-14.809c0-4.051-3.284-7.336-7.336-7.336z"/><path d="m215.285 297.862c-4.052 0-7.336 3.285-7.336 7.336v14.809c0 4.052 3.284 7.336 7.336 7.336s7.336-3.285 7.336-7.336v-14.809c0-4.051-3.284-7.336-7.336-7.336z"/><path d="m339.279 190.807v5.602c0 3.458 1.86 6.68 4.855 8.409s6.715 1.729 9.71 0l20.026-11.562c8.373 10.739 24.155 17.838 42.641 17.838 18.382 0 34.092-7.02 42.501-17.657l19.711 11.38c2.994 1.73 6.715 1.73 9.71.001s4.856-4.951 4.856-8.41v-5.603c5.082-3.527 8.089-9.248 8.089-15.476s-3.007-11.949-8.089-15.476v-5.603c0-3.458-1.861-6.681-4.856-8.41-2.997-1.729-6.716-1.728-9.709 0l-19.712 11.381c-8.409-10.638-24.118-17.657-42.501-17.657-18.486 0-34.268 7.1-42.641 17.838l-20.027-11.562c-2.994-1.728-6.715-1.729-9.709 0-2.995 1.729-4.855 4.951-4.855 8.409v5.602c-5.082 3.528-8.09 9.249-8.09 15.477s3.007 11.952 8.09 15.479zm139.504-28.056c.593 3.727 2.727 7.01 5.959 9.039 1.228.771 1.962 2.095 1.962 3.541s-.734 2.77-1.963 3.541c-3.231 2.028-5.365 5.312-5.958 9.039l-13.632-7.87c.267-1.54.419-3.109.419-4.71s-.152-3.17-.419-4.71zm-62.273-8.512c18.64 0 34.387 9.659 34.387 21.092s-15.747 21.092-34.387 21.092c-18.639 0-34.386-9.659-34.386-21.092s15.747-21.092 34.386-21.092zm-68.686 17.551c3.231-2.029 5.366-5.312 5.959-9.039l14.046 8.11c-.24 1.463-.378 2.953-.378 4.471s.138 3.007.378 4.471l-14.046 8.11c-.593-3.727-2.728-7.01-5.959-9.039-1.229-.772-1.963-2.096-1.963-3.542 0-1.447.734-2.771 1.963-3.542z"/><path d="m245.242 297.862c-4.052 0-7.336 3.285-7.336 7.336v14.809c0 4.052 3.284 7.336 7.336 7.336s7.336-3.285 7.336-7.336v-14.809c.001-4.051-3.284-7.336-7.336-7.336z"/><path d="m169.38 172.312h-8.282c-4.259 0-8.382-1.249-11.925-3.613-9.229-6.158-21.023-6.702-30.781-1.424-3.564 1.928-4.89 6.38-2.962 9.944s6.381 4.889 9.943 2.962c4.964-2.686 10.963-2.408 15.657.724 5.962 3.978 12.902 6.081 20.069 6.081h8.282c4.052 0 7.336-3.285 7.336-7.336s-3.285-7.338-7.337-7.338z"/><path d="m122.275 418.456-16.327-4.721c.719-2.81 1.126-5.721 1.184-8.694.199-10.099-3.548-19.673-10.549-26.954-7.001-7.282-16.419-11.402-26.519-11.601-2.678-.052-5.32.182-7.894.673l-3.729-15.1c-.819-3.317-3.366-5.967-6.648-6.917-3.287-.951-6.851-.069-9.317 2.3l-3.708 3.565c-5.824-1.109-11.769.641-16.081 4.785-4.311 4.145-6.294 10.016-5.413 15.88l-3.708 3.565c-2.463 2.368-3.484 5.9-2.665 9.217.82 3.317 3.367 5.967 6.65 6.916l14.94 4.32c-.591 2.552-.928 5.182-.981 7.863-.199 10.1 3.548 19.673 10.55 26.955 7.413 7.711 17.334 11.591 27.27 11.591 2.674 0 5.348-.291 7.976-.855l4.081 16.524c.819 3.317 3.365 5.967 6.648 6.917 3.253.947 6.849.077 9.317-2.3l3.707-3.565c5.825 1.11 11.77-.641 16.08-4.784 4.311-4.144 6.295-10.014 5.415-15.881l3.707-3.564c2.464-2.368 3.485-5.899 2.666-9.216-.821-3.319-3.369-5.97-6.652-6.919zm-92.482-38.82c2.001-2.876 2.757-6.431 2.032-9.917-.256-1.23.13-2.482 1.032-3.349.903-.868 2.169-1.205 3.39-.9 3.451.86 7.035.246 9.988-1.641l2.207 8.937c-1.881 1.25-3.669 2.67-5.331 4.268-1.663 1.599-3.152 3.329-4.476 5.159zm22.842 40.702c-4.285-4.457-6.578-10.316-6.456-16.497.121-6.181 2.643-11.945 7.1-16.231 4.345-4.177 10.02-6.46 16.028-6.46.156 0 .312.001.468.005 6.181.122 11.945 2.643 16.231 7.1 4.284 4.457 6.577 10.316 6.456 16.497s-2.643 11.945-7.1 16.23c-9.2 8.846-23.882 8.556-32.727-.644zm55.367 19.767c.256 1.231-.13 2.483-1.034 3.352-.903.868-2.171 1.203-3.389.899-3.453-.862-7.036-.246-9.987 1.641l-2.638-10.682c1.597-1.115 3.131-2.363 4.578-3.755 1.44-1.384 2.75-2.866 3.937-4.425l10.565 3.055c-2.002 2.875-2.757 6.43-2.032 9.915z"/></g></svg>