<svg id="Capa_1" enable-background="new 0 0 511.977 511.977" height="512" viewBox="0 0 511.977 511.977" width="512" xmlns="http://www.w3.org/2000/svg"><g><g><path d="m497.917 55.462c-7.607-7.607-17.262-12.325-27.727-13.659-1.334-10.466-6.052-20.12-13.658-27.728-18.719-18.717-49.171-18.717-67.89 0-16.534 16.535-18.598 42.01-5.867 60.779l-48.628 48.628-6.938-6.938c-4.156-4.156-9.681-6.444-15.558-6.444s-11.401 2.289-15.556 6.444c-3.914 3.913-6.336 9.771-6.065 16.927.147 3.885-11.42 14.191-11.42 14.191-15.142 15.142-36.111 22.983-57.513 21.527-60.05-4.097-131.333 22.387-173.352 64.407-3.481 3.483-6.837 7.152-9.973 10.906-2.655 3.179-2.231 7.909.948 10.564 3.18 2.655 7.908 2.231 10.563-.948 2.851-3.413 5.902-6.749 9.068-9.917 39.18-39.179 105.687-63.873 161.724-60.048 25.74 1.757 50.935-7.68 69.142-25.886l9.516-9.516c4.019-4.019 6.254-9.407 6.297-15.169.022-3.004.647-5.408 1.672-6.433 1.322-1.322 3.08-2.05 4.949-2.05 1.87 0 3.628.729 4.95 2.051l68.238 68.238c1.323 1.322 2.051 3.081 2.051 4.951s-.728 3.628-2.051 4.95c-.315.315-2.186 1.108-6.482.626-6.664-.747-13.145 1.491-17.797 6.143l-7.138 7.138c-18.532 18.532-27.929 44.234-25.78 70.514.32 3.921 3.601 6.89 7.466 6.89.205 0 .412-.008.62-.025 4.128-.337 7.201-3.957 6.863-8.086-1.788-21.883 6.025-43.274 21.439-58.686 0 0 7.283-9.21 12.653-8.981 10.335.44 15.877-2.042 18.762-4.926 4.156-4.155 6.444-9.68 6.444-15.557s-2.288-11.402-6.443-15.557l-6.938-6.938 48.628-48.628c18.769 12.732 44.245 10.667 60.778-5.868 9.067-9.066 14.061-21.122 14.061-33.944.002-12.82-4.992-24.875-14.058-33.942zm-10.608 57.282c-12.56 12.561-32.624 12.975-45.68.943-2.958-2.726-7.541-2.633-10.387.212l-53.34 53.34-33.149-33.149 53.34-53.341c2.845-2.845 2.938-7.428.211-10.386-12.031-13.054-11.616-33.119.943-45.68 12.868-12.867 33.806-12.868 46.676 0 6.423 6.423 9.849 14.973 9.647 24.075-.046 2.046.747 4.022 2.194 5.469s3.388 2.257 5.47 2.195c9.11-.19 17.652 3.225 24.075 9.647 6.233 6.234 9.667 14.522 9.667 23.337.001 8.816-3.432 17.104-9.667 23.338z"/><path d="m335.483 314.924c-4.132-.405-7.787 2.624-8.184 6.746-4.764 49.459-27.566 100.027-59.51 131.971-28.874 28.874-66.79 43.31-104.719 43.306-37.919-.003-75.851-14.439-104.718-43.306-22.996-22.996-37.507-52.129-41.963-84.25-4.313-31.088 1.477-63.331 16.302-90.792 1.968-3.645.608-8.195-3.036-10.163-3.649-1.97-8.195-.608-10.163 3.037-16.33 30.247-22.709 65.754-17.961 99.979 4.909 35.382 20.89 67.47 46.214 92.795 31.796 31.795 73.561 47.692 115.325 47.692 41.766 0 83.53-15.897 115.326-47.692 34.291-34.293 58.751-88.374 63.834-141.139.397-4.123-2.624-7.787-6.747-8.184z"/></g><circle cx="192.829" cy="440.796" r="7.5"/><circle cx="166.865" cy="408.972" r="7.5"/><circle cx="144.365" cy="440.796" r="7.5"/></g></svg>