<svg id="Layer_1" height="512" viewBox="0 0 64 64" width="512" xmlns="http://www.w3.org/2000/svg" data-name="Layer 1"><path d="m42 44v-2h-20v2h9v15h-4v2h10v-2h-4v-15z"/><path d="m5.09 48.16a4 4 0 0 0 3.91 3.54h5.24l1.08 6.46a1 1 0 0 0 1 .84h3.68a1 1 0 0 0 1-1.15l-1.47-9.91a2.23 2.23 0 0 0 -2.2-1.94h-2.4l.07-5.68a4 4 0 0 0 -3.21-3.9 4 4 0 1 0 -6.25-3.42 4 4 0 0 0 1.91 3.42 4 4 0 0 0 -2 1.19 4 4 0 0 0 -1 3.06zm4.49-17.16a2 2 0 1 1 -2 2 2 2 0 0 1 2-2zm-2.58 8a2 2 0 0 1 1.47-.66h2.63a2 2 0 0 1 2 2l-.19 6.66a1 1 0 0 0 .29.72 1 1 0 0 0 .71.3h3.42a.21.21 0 0 1 .21.19l1.3 8.79h-1.64l-1.08-6.47a1 1 0 0 0 -1-.83h-6.12a2 2 0 0 1 -2-1.73l-.6-7.45a2 2 0 0 1 .6-1.52z"/><path d="m6 54.92v5.08h-2v2h6v-2h-2v-5h4v-2h-5.33a3 3 0 0 1 -3-2.75l-.67-8.33-2 .16.7 8.32a5 5 0 0 0 4.3 4.52z"/><path d="m58.46 33a4 4 0 1 0 -6.29 3.36 4 4 0 0 0 -3.17 3.94l.07 5.7h-2.4a2.23 2.23 0 0 0 -2.19 1.9l-1.48 9.95a1 1 0 0 0 1 1.15h3.65a1 1 0 0 0 1-.84l1.08-6.46h5.27a4 4 0 0 0 3.95-3.57l.6-7.39a4 4 0 0 0 -3-4.28 4 4 0 0 0 1.91-3.46zm-4-2a2 2 0 1 1 -2 2 2 2 0 0 1 1.96-2zm2.54 8a2 2 0 0 1 .49 1.56l-.6 7.4a2 2 0 0 1 -2 1.76h-6.02a1 1 0 0 0 -1 .83l-1.07 6.45h-1.64l1.3-8.77a.21.21 0 0 1 .21-.19h3.42a1 1 0 0 0 .71-.3 1 1 0 0 0 .29-.72l-.09-6.73a2 2 0 0 1 2-2h2.63a2 2 0 0 1 1.37.71z"/><path d="m57.33 53h-5.33v2h4v5h-2v2h6v-2h-2v-5.08a5 5 0 0 0 4.3-4.52l.7-8.32-2-.16-.69 8.31a3 3 0 0 1 -2.98 2.77z"/><path d="m46 12h2v2h-2z"/><path d="m42 12h2v2h-2z"/><path d="m45 16a4 4 0 0 0 -4 4h2a2 2 0 0 1 4 0h2a4 4 0 0 0 -4-4z"/><path d="m54 22v-12a2 2 0 0 0 -2-2h-14a2 2 0 0 0 -2 2v12a2 2 0 0 0 2 2h4.59l4.7 4.71a1 1 0 0 0 .71.29 1 1 0 0 0 1-1.2l-.78-3.8h3.78a2 2 0 0 0 2-2zm-7 0a1 1 0 0 0 -.77.37 1 1 0 0 0 -.21.83l.35 1.8-2.66-2.67a1 1 0 0 0 -.71-.33h-5v-12h14v12z"/><path d="m20 6h7v2h-7z"/><path d="m15 10h12v2h-12z"/><path d="m15 14h12v2h-12z"/><path d="m15 6h3v2h-3z"/><path d="m14.45 25.83a1 1 0 0 0 .55.17 1 1 0 0 0 .66-.25l6.55-5.75h7.79a2 2 0 0 0 2-2v-14a2 2 0 0 0 -2-2h-18a2 2 0 0 0 -2 2v14a2 2 0 0 0 2 2h3.61l-1.56 4.68a1 1 0 0 0 .4 1.15zm-2.45-7.83v-14h18v14h-8.17a1 1 0 0 0 -.66.25l-4.05 3.56.88-2.49a1 1 0 0 0 -.14-.9 1 1 0 0 0 -.86-.42z"/></svg>