<svg height="512" viewBox="0 0 48 48" width="512" xmlns="http://www.w3.org/2000/svg"><g id="_16-arepas_colombia" data-name="16-arepas, colombia"><path d="m31 12c-8.877 0-14.347-1.5-16.256-4.46l1.68-1.084c1.454 2.252 6.766 3.544 14.576 3.544s13.119-1.292 14.575-3.543l1.68 1.086c-1.913 2.957-7.382 4.457-16.255 4.457z"/><path d="m31 20c-11.121 0-17-2.42-17-7v-4h2v4c0 3.178 5.468 5 15 5s15-1.822 15-5v-4h2v4c0 4.58-5.879 7-17 7z"/><path d="m31 16c-6.349 0-17-.779-17-6h2c0 1.991 4.638 4 15 4s15-2.009 15-4h2c0 5.221-10.651 6-17 6z"/><path d="m48 9h-2c0-3.794-6.411-7-14-7h-2c-7.589 0-14 3.206-14 7h-2c0-5.047 7.028-9 16-9h2c8.972 0 16 3.953 16 9z"/><path d="m31 40a43.889 43.889 0 0 1 -10.237-1l.48-1.941a41.921 41.921 0 0 0 9.757.941c7.807 0 13.119-1.291 14.575-3.543l1.68 1.086c-1.912 2.957-7.382 4.457-16.255 4.457z"/><path d="m31 48c-7.539 0-12.643-1.09-15.169-3.238l1.3-1.524c2.09 1.782 7.016 2.762 13.869 2.762 9.532 0 15-1.822 15-5v-4h2v4c0 4.579-5.879 7-17 7z"/><path d="m31 44a49.419 49.419 0 0 1 -10.208-.892l.424-1.955a48.154 48.154 0 0 0 9.784.847c10.362 0 15-2.009 15-4h2c0 5.221-10.651 6-17 6z"/><path d="m48 37h-2c0-3.219-4.775-6.162-11.108-6.847l.214-1.988c7.594.82 12.894 4.453 12.894 8.835z"/><path d="m21 25c-8.873 0-14.341-1.5-16.254-4.456l1.68-1.086c1.456 2.251 6.768 3.542 14.574 3.542s13.119-1.292 14.575-3.543l1.68 1.086c-1.913 2.957-7.382 4.457-16.255 4.457z"/><path d="m21 33c-.687 0-1.364-.01-2.027-.028l.056-2q.971.028 1.971.028c9.532 0 15-1.822 15-5v-5h2v5c0 4.579-5.879 7-17 7z"/><path d="m16 42a4.007 4.007 0 0 1 -3.775-2.677 4 4 0 0 1 -6.225-3.323v-1.05a2.577 2.577 0 0 1 -.5.05 2.5 2.5 0 0 1 -2.111-1.163 2.5 2.5 0 0 1 -3.389-2.337v-2.5c0-4.366 2.19-5.625 4-5.921v-2.079h2v3a1 1 0 0 1 -1 1c-1.483 0-3 .476-3 4v2.5a.5.5 0 0 0 1 0v-1.5a1 1 0 0 1 2 0v2.5a.5.5 0 0 0 1 0v-1.5a1 1 0 0 1 2 0v5a2 2 0 0 0 4 0v-1a1 1 0 0 1 2 0v3a2 2 0 0 0 4 0v-2c0-4.425 0-9 3-9v2c-1 0-1 4.905-1 7v2a4 4 0 0 1 -4 4z"/><path d="m21 29v-2c10.362 0 15-2.009 15-4h2c0 5.221-10.651 6-17 6z"/><path d="m10 27.981a.967.967 0 0 1 -.232-.027c-3.825-.913-5.763-2.244-5.763-3.954h2c0 .172.568.936 3 1.677v-.679h2l-.005 1.986a1 1 0 0 1 -1 1z"/><path d="m38 21h-2a3.587 3.587 0 0 0 -.371-1.563l1.8-.869a5.557 5.557 0 0 1 .571 2.432z"/><path d="m6 21h-2c0-3.944 4.245-7.292 10.815-8.529l.37 1.966c-5.408 1.018-9.185 3.717-9.185 6.563z"/><path d="m37 5h2v2h-2z"/><path d="m30 7h2v2h-2z"/><path d="m10 18h2v2h-2z"/><path d="m15 20h2v2h-2z"/><path d="m37 32h2v2h-2z"/><path d="m31 34h2v2h-2z"/><path d="m26 5h2v2h-2z"/></g></svg>