<svg id="Layer_1" enable-background="new 0 0 512 512" height="512" viewBox="0 0 512 512" width="512" xmlns="http://www.w3.org/2000/svg"><g id="XMLID_1_"><g id="XMLID_3299_"><g id="XMLID_165_"><path id="XMLID_2180_" d="m9 342-8-6 112.6-149.8c1.1-1.5 2.9-2.2 4.8-1.9 1.8.3 3.3 1.6 3.9 3.3.2.6 21.8 64.1 28 122.2l-9.9 1.1c-4.7-44.1-18.5-91.5-24.6-110.9z"/></g><g id="XMLID_1662_"><path id="XMLID_2179_" d="m376.6 506.8c-.2-1-16.6-104.2-16.6-167.8 0-64 28.5-147.9 29.7-151.4.6-1.8 2.1-3 3.9-3.3s3.7.5 4.8 1.9l112.6 149.8-8 6-106.8-142.1c-7.4 23.6-26.2 88.8-26.2 139.1 0 62.8 16.3 165.2 16.5 166.2z"/></g><g id="XMLID_569_"><path id="XMLID_2178_" d="m502.5 250.6c-.2-.3-16.8-35-36.7-72.2l8.8-4.7c20 37.4 36.7 72.2 36.9 72.6z"/></g><g id="XMLID_341_"><path id="XMLID_2177_" d="m321.8 63.7c-8.9-4.2-16.5-9.5-23.3-16.1-1-.9-1.5-2.2-1.5-3.6v-40h10v37.9c5.6 5.2 11.8 9.4 19 12.8z"/></g><g id="XMLID_1663_"><path id="XMLID_2176_" d="m9.5 250.6-9-4.3c2.9-6 70.7-147.3 99-166.4 12.3-8.3 27.8-11 44.2-13.8 21.3-3.8 43.3-7.6 61.3-24.2v-37.9h10v40c0 1.3-.5 2.6-1.5 3.6-20.4 20-45.8 24.4-68.2 28.3-15.3 2.6-29.7 5.1-40.3 12.3-21.5 14.5-76.2 122.1-95.5 162.4z"/></g><g id="XMLID_181_"><g id="XMLID_185_"><path id="XMLID_2173_" d="m275.6 475.3c-.5 0-.9-.1-1.4-.2l-28.8-8.5c-1.3-.4-2.3-1.2-3-2.4-.6-1.2-.8-2.5-.4-3.8 32.8-110.8 14.2-179.4-2.2-239.9-15.4-56.7-29.9-110.2-2.5-183.5.5-1.2 1.4-2.2 2.6-2.8 1.2-.5 2.6-.6 3.8-.1l28.1 10.5c2.6 1 3.9 3.8 2.9 6.4-22.9 61.2-10.6 106.5 3.7 159 17.8 65.6 38 140 2 261.7-.7 2.1-2.7 3.6-4.8 3.6zm-22.6-16.9 19.2 5.7c33.3-116.1 13.8-188-3.5-251.4-14.3-52.8-26.8-98.6-5.1-160.4l-18.7-7c-23.9 67.9-10.1 118.8 4.5 172.7 16.6 60.7 35.3 129.6 3.6 240.4z"/></g></g><g id="XMLID_171_"><path id="XMLID_2170_" d="m231.8 69.4h30.3v10h-30.3z" transform="matrix(.941 .338 -.338 .941 39.606 -78.973)"/></g><g id="XMLID_207_"><path id="XMLID_2165_" d="m227 109h30v10h-30z"/></g><g id="XMLID_211_"><path id="XMLID_2164_" d="m240.1 140.3h10v30.1h-10z" transform="matrix(.208 .978 -.978 .208 345.958 -116.714)"/></g><g id="XMLID_220_"><path id="XMLID_2163_" d="m248.9 180.7h10v30h-10z" transform="matrix(.201 .98 -.98 .201 394.666 -92.257)"/></g><g id="XMLID_221_"><path id="XMLID_2162_" d="m259.1 218.6h10v30.9h-10z" transform="matrix(.48 .877 -.877 .48 342.549 -110.025)"/></g><g id="XMLID_222_"><path id="XMLID_2157_" d="m269.4 264.6h10v30.2h-10z" transform="matrix(.243 .97 -.97 .243 478.944 -54.505)"/></g><g id="XMLID_253_"><path id="XMLID_2156_" d="m264 315h31v10h-31z"/></g><g id="XMLID_257_"><path id="XMLID_2155_" d="m264.9 353.8h30.2v10h-30.2z" transform="matrix(.997 .074 -.074 .997 27.266 -19.699)"/></g><g id="XMLID_258_"><path id="XMLID_2149_" d="m261.7 388.3h30.5v10h-30.5z" transform="matrix(.958 .287 -.287 .958 124.599 -62.958)"/></g><g id="XMLID_259_"><path id="XMLID_2148_" d="m255.3 425.6h30.2v10h-30.2z" transform="matrix(.953 .304 -.304 .953 143.789 -61.832)"/></g><g id="XMLID_369_"><path id="XMLID_2147_" d="m60 508.4-8.2-5.8 58.6-82.6c1.6-36.9 30.7-91.1 31.9-93.4.6-1.1 1.5-1.9 2.6-2.3 55.7-20.9 74.8 9.2 75.6 10.4.8 1.3.9 2.9.4 4.3l-20.3 56.3 9.8-6c3.3-2 7.5-2.3 11.1-.8s6.2 4.8 7 8.6c1 4.8-.9 9.7-5 12.5-4.9 3.3-8.8 7.7-13 12.3-9.1 10.1-19.4 21.5-41.6 23.3l-34.1 62.6-8.8-4.8 35.4-65c.8-1.5 2.4-2.5 4.2-2.6 20-.9 28.5-10.3 37.5-20.2 4.4-4.9 8.9-9.9 14.8-13.9.7-.5 1-1.3.8-2.1-.2-.9-.8-1.3-1.2-1.5s-1.1-.4-1.9.1l-21.9 13.3c-1.8 1.1-4.1.9-5.8-.4-1.6-1.3-2.3-3.6-1.5-5.6l24.2-67.1c-4.6-5.2-21.3-19.2-60.4-5.2-4.9 9.5-29.3 57.6-29.9 88.8 0 1-.3 2-.9 2.8z"/></g><g id="XMLID_340_"><path id="XMLID_2145_" d="m149.7 322.8h10v52.2h-10z" transform="matrix(.94 .342 -.342 .94 128.503 -31.864)"/></g><g id="XMLID_342_"><path id="XMLID_2144_" d="m169.6 320.7h10v52.9h-10z" transform="matrix(.935 .354 -.354 .935 134.127 -39.333)"/></g><g id="XMLID_343_"><path id="XMLID_2143_" d="m189.3 325.8h10v54.9h-10z" transform="matrix(.927 .376 -.376 .927 147.247 -47.162)"/></g><g id="XMLID_20_"><path id="XMLID_2142_" d="m505.5 175.2-94.7-30.5c-17 14.3-32.3 13.6-45.9 12.9-6.2-.3-12.1-.6-17.9.5-4.8.9-9.7-1.1-12.3-5.3-2.1-3.3-2.5-7.4-1.1-11s4.6-6.3 8.4-7.3l11.1-2.7-54.2-25.5c-1.4-.6-2.4-1.9-2.7-3.3-.4-1.5-8.1-36.2 46-60.8 1.1-.5 2.3-.6 3.5-.2 2.5.8 61.4 18.5 88.6 43.5l73.5 12.5-1.7 9.9-75-12.8c-1-.2-1.9-.6-2.6-1.3-22.5-21.6-73.7-38.4-83.9-41.6-37.5 17.7-39.5 39.4-39 46.4l64.6 30.3c1.9.9 3.1 2.9 2.8 5-.2 2.1-1.7 3.9-3.8 4.4l-24.9 6.1c-.9.2-1.3.9-1.4 1.2-.1.4-.3 1.1.2 1.9.5.7 1.3 1.1 2.1.9 7-1.3 13.7-1 20.3-.7 13.4.7 26.1 1.3 40.8-12.2 1.3-1.2 3.2-1.6 4.9-1.1l97.4 31.3z"/></g><g id="XMLID_349_"><path id="XMLID_2141_" d="m326.4 61.5h52.2v10h-52.2z" transform="matrix(.906 .423 -.423 .906 61.249 -142.872)"/></g><g id="XMLID_348_"><path id="XMLID_2140_" d="m310.7 74.4h52.9v10h-52.9z" transform="matrix(.912 .411 -.411 .912 62.456 -131.6)"/></g><g id="XMLID_346_"><path id="XMLID_2139_" d="m300.1 92.6h54.9v10h-54.9z" transform="matrix(.921 .389 -.389 .921 63.777 -119.735)"/></g></g></g></svg>