<svg id="Capa_1"  enable-background="new 0 0 512.121 512.121" height="512" viewBox="0 0 512.121 512.121" width="512" xmlns="http://www.w3.org/2000/svg"><g><path d="m188.678 117.791v-3.716c0-21.207-17.253-38.46-38.46-38.46-21.206 0-38.459 17.253-38.459 38.46v3.692c-13.925 5.109-26.803 13.004-37.873 23.39-3.021 2.834-3.173 7.58-.339 10.601s7.581 3.173 10.601.339c17.968-16.855 41.432-26.138 66.07-26.138 53.262 0 96.594 43.331 96.594 96.593v34.881c0 6.098-4.961 11.059-11.059 11.059h-.587v-49.774c0-4.868-3.644-9.043-8.477-9.711-19.652-2.715-34.351-8.819-44.936-18.662-3.512-3.267-8.829-3.535-12.645-.638-23.255 17.667-53.664 24.155-92.952 19.834-2.777-.303-5.555.588-7.63 2.446-2.07 1.855-3.258 4.514-3.258 7.293v49.212h-.587c-6.098 0-11.059-4.961-11.059-11.059v-34.881c0-17.009 4.484-33.735 12.968-48.369 2.078-3.584.856-8.173-2.727-10.25-3.583-2.074-8.173-.857-10.25 2.727-9.808 16.917-14.991 36.244-14.991 55.893v34.881c0 14.369 11.689 26.059 26.059 26.059h.862c1.448 18.958 9.135 36.188 21.022 49.644l-11.9 5.538c-17.636 8.207-29.031 26.079-29.031 45.531v113.113c0 8.163 6.641 14.804 14.804 14.804h107.598c4.143 0 7.5-3.357 7.5-7.5s-3.357-7.5-7.5-7.5h-107.4v-112.919c0-13.642 7.991-26.176 20.36-31.932l12.1-5.631-14.701 30.973c-.994 2.095-.964 4.531.082 6.6 1.047 2.069 2.991 3.538 5.267 3.979l24.126 4.673 15.564 46.215c.984 2.924 3.658 4.946 6.739 5.098.124.006.247.009.37.009 2.938 0 5.621-1.721 6.837-4.421l12.838-28.515 12.838 28.515c1.216 2.7 3.898 4.421 6.837 4.421.123 0 .246-.003.37-.009 3.081-.151 5.755-2.174 6.739-5.098l15.565-46.215 24.125-4.673c2.275-.441 4.22-1.91 5.267-3.979 1.046-2.069 1.076-4.506.082-6.601l-14.701-30.974 12.099 5.631c12.368 5.757 20.36 18.291 20.36 31.933v112.917h-41.776c-4.143 0-7.5 3.357-7.5 7.5s3.357 7.5 7.5 7.5h41.973c8.163 0 14.804-6.641 14.804-14.804v-113.112c0-19.451-11.396-37.324-29.031-45.532l-11.899-5.538c11.886-13.455 19.573-30.686 21.021-49.643h.862c14.369 0 26.059-11.689 26.059-26.059v-34.881c0-48.022-30.493-89.056-73.134-104.76zm-61.902-4.36c.343-12.638 10.723-22.816 23.443-22.816 12.724 0 23.108 10.185 23.444 22.829-7.562-1.623-15.404-2.485-23.444-2.485-7.958 0-15.808.839-23.443 2.472zm24.996 271.154c-.428.741-1.081.896-1.553.896-.473 0-1.126-.155-1.554-.896l-13.918-24.107c5.021.928 10.186 1.438 15.471 1.438s10.451-.509 15.472-1.438zm-20.223 31.596-10.858-32.24c-.861-2.559-3.031-4.456-5.681-4.97l-18.916-3.664 11.752-24.761c1.817 1.05 3.664 2.056 5.562 2.973l22.266 38.566c1.163 2.014 2.681 3.714 4.449 5.049zm53.878-37.21c-2.649.514-4.819 2.411-5.681 4.97l-10.859 32.24-8.575-19.046c1.769-1.335 3.287-3.035 4.45-5.049l22.266-38.566c1.899-.917 3.745-1.922 5.563-2.973l11.752 24.761zm34.739-102.004c0 38.569-31.379 69.948-69.948 69.948s-69.948-31.379-69.948-69.948v-51.951c38.754 3.349 69.759-3.503 94.491-20.864 11.637 9.607 26.565 15.864 45.405 19.03z"/><path d="m128.936 255.551c0-4.143-3.357-7.5-7.5-7.5s-7.5 3.357-7.5 7.5v.88c0 4.143 3.357 7.5 7.5 7.5s7.5-3.357 7.5-7.5z"/><path d="m171.501 255.551v.88c0 4.143 3.357 7.5 7.5 7.5s7.5-3.357 7.5-7.5v-.88c0-4.143-3.357-7.5-7.5-7.5s-7.5 3.357-7.5 7.5z"/><path d="m160.484 291.27c-7.004 4.189-13.525 4.191-20.529 0-3.552-2.125-8.159-.969-10.287 2.586-2.126 3.555-.969 8.16 2.586 10.287 5.877 3.516 11.92 5.272 17.965 5.272 6.044 0 12.09-1.758 17.965-5.272 3.556-2.127 4.713-6.731 2.587-10.286-2.129-3.557-6.737-4.711-10.287-2.587z"/><path d="m231.366 457.069c0-4.143-3.357-7.5-7.5-7.5h-34.864c-4.143 0-7.5 3.357-7.5 7.5s3.357 7.5 7.5 7.5h34.864c4.142 0 7.5-3.357 7.5-7.5z"/><path d="m426.729 82.799c-1.3-4.002-4.526-6.944-8.633-7.87l-23.227-5.233-12.152-20.471s0 0-.001 0c-2.148-3.618-5.943-5.779-10.151-5.779-4.207 0-8.002 2.161-10.151 5.779l-12.152 20.471-23.227 5.233c-4.105.926-7.332 3.867-8.633 7.87-1.3 4.002-.418 8.278 2.36 11.439l15.714 17.885-2.201 23.706c-.389 4.19 1.412 8.169 4.817 10.643 2.065 1.5 4.475 2.268 6.914 2.268 1.581 0 3.174-.322 4.693-.978l21.866-9.418 21.864 9.418c3.863 1.666 8.203 1.182 11.608-1.29 3.405-2.474 5.206-6.452 4.817-10.644l-2.2-23.705 15.714-17.885c2.779-3.16 3.662-7.436 2.361-11.439zm-30.251 20.458c-2.132 2.429-3.184 5.666-2.885 8.883l1.83 19.718-18.191-7.836c-1.482-.638-3.073-.956-4.665-.956-1.593 0-3.187.318-4.672.958l-18.188 7.834 1.831-19.718c.299-3.217-.753-6.454-2.887-8.884l-13.07-14.877 19.316-4.352c3.152-.71 5.907-2.71 7.559-5.49l10.108-17.028 10.11 17.029c1.651 2.779 4.406 4.78 7.557 5.488l19.318 4.353z"/><path d="m472.844 234.84-32.483-72.682c16.984-17.215 27.485-40.842 27.485-66.878 0-12.049-2.222-23.796-6.604-34.916-1.518-3.854-5.873-5.744-9.727-4.229-3.854 1.519-5.747 5.873-4.229 9.727 3.688 9.362 5.559 19.26 5.559 29.418 0 44.267-36.014 80.28-80.28 80.28s-80.28-36.014-80.28-80.28 36.014-80.28 80.281-80.28c23.148 0 45.177 10.002 60.437 27.442 2.729 3.119 7.468 3.432 10.583.706 3.117-2.728 3.434-7.466.706-10.583-18.109-20.696-44.252-32.565-71.726-32.565-52.538 0-95.28 42.742-95.28 95.28 0 26.036 10.5 49.662 27.484 66.877l-32.482 72.683c-1.084 2.427-.804 5.245.737 7.409 1.54 2.164 4.122 3.359 6.759 3.123l38.213-3.318 18.809 34.08c1.32 2.392 3.836 3.876 6.566 3.876h.038c2.744-.014 5.263-1.526 6.564-3.942l22.592-41.931 22.592 41.931c1.302 2.416 3.82 3.929 6.564 3.942 2.765-.002 5.278-1.474 6.604-3.876l18.808-34.08 38.214 3.318c2.637.234 5.218-.959 6.759-3.123s1.821-4.983.737-7.409zm-49.271-8.152c-2.956-.267-5.783 1.252-7.215 3.848l-14.519 26.309-18.462-34.265c-2.146-3.982-6.29-6.456-10.813-6.455-4.522.001-8.665 2.475-10.811 6.456l-18.461 34.264-14.52-26.309c-1.433-2.596-4.263-4.117-7.215-3.848l-30.376 2.638 25.455-56.958c15.718 11.435 35.047 18.192 55.928 18.192s40.21-6.757 55.927-18.191l25.456 56.957z"/></g></svg>