<svg id="Capa_1" enable-background="new 0 0 480 480" height="512" viewBox="0 0 480 480" width="512" xmlns="http://www.w3.org/2000/svg"><path d="m472 4h-448c-4.418 0-8 3.582-8 8v80h16v-72h64v40c0 4.418 3.582 8 8 8h64c4.418 0 8-3.582 8-8v-40h64v72h16v-72h64v40c0 4.418 3.582 8 8 8h64c4.418 0 8-3.582 8-8v-40h64v144h-136c-4.418 0-8 3.582-8 8v48c0 4.418 3.582 8 8 8h64c4.418 0 8-3.582 8-8v-40h64v144h-88v16h96c4.418 0 8-3.582 8-8v-320c0-4.418-3.582-8-8-8zm-312 48h-48v-32h48zm224 0h-48v-32h48zm0 160h-48v-32h48z"/><path d="m432 132h16v16h-16z"/><path d="m400 132h16v16h-16z"/><path d="m432 292h16v16h-16z"/><path d="m400 292h16v16h-16z"/><path d="m360 308c-.02-17.665-14.335-31.98-32-32h-24v-160c0-4.418-3.582-8-8-8h-288c-4.418 0-8 3.582-8 8v352c0 4.418 3.582 8 8 8h288c4.418 0 8-3.582 8-8v-20.687l26.343 26.344 11.314-11.314-48-48c-14.524-14.559-14.524-38.127 0-52.686 3.124-3.124 3.124-8.189 0-11.314l-36-36c-3.503-3.503-3.503-9.183 0-12.686s9.183-3.503 12.686 0l36 36 11.314-11.314-13.657-13.656v-20.687h24c8.832.01 15.99 7.168 16 16v72c0 2.122.843 4.157 2.343 5.657l40 40 11.314-11.314-37.657-37.656zm-256-184h96v28c0 2.209-1.791 4-4 4h-88c-2.209 0-4-1.791-4-4zm177.657 166.343c-9.709-9.794-25.52-9.863-35.314-.153-9.794 9.709-9.863 25.52-.153 35.314.051.051.102.102.153.153l30.767 30.767c-15.57 21.21-13.348 50.604 5.233 69.233l5.657 5.656v28.687h-272v-336h72v16h-48c-4.418 0-8 3.582-8 8v288c0 4.418 3.582 8 8 8h224v-16h-216v-272h40.4c1.913 9.306 10.099 15.989 19.6 16h88c9.501-.011 17.687-6.694 19.6-16h40.4v112h16v-120c0-4.418-3.582-8-8-8h-48v-16h72v172.687z"/><path d="m88 232.687-10.343-10.344-11.314 11.314 16 16c3.124 3.124 8.189 3.124 11.314 0l32-32-11.314-11.314z"/><path d="m88 296.687-10.343-10.344-11.314 11.314 16 16c3.124 3.124 8.189 3.124 11.314 0l32-32-11.314-11.314z"/><path d="m88 360.687-10.343-10.344-11.314 11.314 16 16c3.124 3.124 8.189 3.124 11.314 0l32-32-11.314-11.314z"/><path d="m144 204h88v16h-88z"/><path d="m144 236h72v16h-72z"/><path d="m144 268h88v16h-88z"/><path d="m144 300h72v16h-72z"/><path d="m144 332h88v16h-88z"/><path d="m144 364h72v16h-72z"/></svg>