<svg id="Layer_1" enable-background="new 0 0 472.016 472.016" height="512" viewBox="0 0 472.016 472.016" width="512" xmlns="http://www.w3.org/2000/svg"><g><g><g><g><path d="m260.223 193.519c-7.532-21.94-17.931-40.748-30.907-55.901l7.596-6.504c13.8 16.115 24.826 36.019 32.77 59.157z"/></g></g><g><g><path d="m219.944 127.726c-2.506-2.386-5.125-4.686-7.783-6.836l6.289-7.775c2.867 2.319 5.689 4.799 8.389 7.369z"/></g></g><g><g><path d="m203.18 114.513c-2.877-1.911-5.854-3.722-8.85-5.379l4.842-8.75c3.231 1.788 6.442 3.74 9.542 5.801z"/></g></g><g><g><path d="m187.331 205.484c-2.298-2.133-4.7-4.218-7.138-6.196l6.301-7.766c2.61 2.118 5.18 4.349 7.64 6.632z"/></g></g><g><g><path d="m172.563 193.512c-2.781-1.962-5.671-3.85-8.589-5.61-15.029-9.068-26.026-19.317-32.688-30.465l8.584-5.129c5.812 9.725 15.659 18.819 29.269 27.031 3.122 1.883 6.213 3.902 9.189 6.003z"/></g></g><g><g><path d="m127.382 149.654c-1.208-2.95-2.157-6.006-2.819-9.08l9.775-2.105c.539 2.5 1.312 4.989 2.297 7.396z"/></g></g></g><g><g><g><g><path d="m348.37 287.41h11.858v9.999h-11.858z" transform="matrix(.482 -.876 .876 .482 -72.724 461.77)"/></g></g><g><g><path d="m336.805 309.517h10.646v9.999h-10.646z" transform="matrix(.482 -.876 .876 .482 -98.392 462.554)"/></g></g><g><g><path d="m220.102 451.729c-.021 0-.041 0-.062 0-9.354-.033-16.991-7.67-17.024-17.024-.016-9.284 7.732-16.976 16.976-16.976 9.354.033 16.991 7.67 17.024 17.024.032 9.176-7.717 16.976-16.914 16.976zm-7.086-17.06c.014 3.879 3.181 7.046 7.06 7.06 3.801.014 6.953-3.142 6.94-6.94-.014-3.879-3.181-7.046-7.06-7.06-3.802-.024-6.953 3.144-6.94 6.94z"/></g></g><g><g><ellipse cx="274.441" cy="340.078" rx="4.495" ry="4.591"/></g></g></g><g><g><path d="m328.609 451.729c-9.175 0-16.947-7.778-16.914-16.976.033-9.354 7.67-16.991 17.024-17.024 9.232 0 17.007 7.691 16.976 16.976-.033 9.354-7.67 16.991-17.024 17.024-.021 0-.041 0-.062 0zm.171-24c-.008 0-.017 0-.025 0-3.879.014-7.046 3.181-7.06 7.06-.014 3.727 3.23 6.94 6.94 6.94 3.879-.014 7.046-3.181 7.06-7.06.013-3.791-3.123-6.94-6.915-6.94z"/></g></g></g><g id="XMLID_142_"><g id="XMLID_145_"><g><path d="m461.667 192.008h10.35v10h-10.35z"/></g></g><g id="XMLID_144_"><g><path d="m460.666 301.794h10.991v10h-10.991z"/></g></g></g><g><g><g><g><path d="m411.27 160.008h12.794v10h-12.794z"/></g></g><g><g><path d="m307.238 160.008h12.794v10h-12.794z"/></g></g></g><g><g><g><g><path d="m462.137 92.327-9.678-2.52c2.128-8.175 3.208-16.426 3.208-24.523 0-13.134-3.044-25.736-9.048-37.459l8.9-4.559c6.733 13.146 10.147 27.283 10.147 42.018 0 8.947-1.187 18.045-3.529 27.043z"/></g></g><g><g><path d="m455.646 110.905-9.159-4.016c1.245-2.839 2.378-5.716 3.369-8.55l9.44 3.299c-1.075 3.075-2.303 6.192-3.65 9.267z"/></g></g><g><g><path d="m447.791 126.239-8.627-5.057c1.262-2.153 2.466-4.33 3.578-6.472l8.875 4.607c-1.19 2.294-2.478 4.623-3.826 6.922z"/></g></g><g><path d="m436.324 65.284c0-35.993-30.918-65.275-68.923-65.275s-68.923 29.282-68.923 65.275c0 42.582 38.381 79.539 56.66 94.725h-21.839v10h65.437v-10h-18.706c18.477-14.878 56.294-50.703 56.294-94.725zm-127.846 0c0-30.479 26.433-55.275 58.923-55.275s58.923 24.797 58.923 55.275c0 45.166-46.712 82.744-58.858 91.749-12.111-9.35-58.988-48.355-58.988-91.749z"/></g><g><g><path d="m367.401 100.217c-18.423 0-33.411-14.657-33.411-32.673s14.988-32.673 33.411-32.673c18.422 0 33.41 14.657 33.41 32.673s-14.987 32.673-33.41 32.673zm0-55.346c-12.909 0-23.411 10.171-23.411 22.673s10.502 22.673 23.411 22.673c12.908 0 23.41-10.171 23.41-22.673s-10.502-22.673-23.41-22.673z"/></g></g></g></g></g><g><g><g><path d="m461.666 462.008h10.35v10h-10.35z"/></g></g><g><path d="m472.016 229.036v-10h-50.021v-17.027h28.671v-10l-32.88.08c-.259-.042-.52-.08-.791-.08-19.984 0-36.243 16.258-36.243 36.242v223.137c0 3.888 1.093 7.518 2.974 10.621h-29.789c7.385-6.942 12.023-16.901 12.023-27.95 0-18.903-14.465-35.352-33.703-35.852l-15.585-27.091 20.4-37.054-8.76-4.822-17.473 31.737-11.874-20.64 37.407-67.944c13.032-23.67 15.07-51.784 5.593-77.135-1.453-3.888-6.947-4.339-9.018-.742l-58.935 102.447-23.62-41.06c.44-14.167-1.183-28.304-4.871-42.043-15.116-56.319-55.207-118.971-160.343-97.587-.045.009-.087.03-.132.04-.042.01-.084.009-.126.02-35.388 9.169-60.498 32.224-74.633 68.522-14.328 36.805-13.671 77.26 1.853 113.912 16.619 39.238 47.881 67.396 86.494 84.203 5.279 2.329 9.779-5.56 4.706-8.792-8.769-5.584-14.465-14.641-16.98-26.966 13.251-1.366 26.759-10.568 37.233-18.25-2.429 32.62-16.752 59.568-36.274 85.001-2.418 3.152.025 8.045 3.971 8.045l92.766-.085c-4.701 13.987-.704 29.984 10.054 40.085h-151.413v10h408.969v-10h-32.641c1.878-3.105 2.97-6.735 2.97-10.621v-84.421h49.421v-10h-49.421v-17.586h49.541v-10h-49.541v-17.586h27.67v-10h-27.67v-17.587h49.781v-10h-49.781v-17.586h49.901v-10h-49.901v-17.586h50.021zm-136.19-19.465c4.417 19.583 1.587 40.201-8.211 57.999l-34.48 62.628-13.351-23.209zm-225.472-86.935c4.604-.409 9.08-.61 13.455-.646-.331 2.78-.495 5.526-.443 8.199l9.998-.193c-.048-2.514.119-5.117.482-7.768 51.811 3.146 86.042 34.686 102.021 94.222 1.848 6.884 3.135 13.875 3.868 20.92l-24.653-42.855c-2.07-3.598-7.564-3.146-9.018.742-9.477 25.351-7.438 53.465 5.593 77.135l17.835 32.395c-4.767 11.164-10.913 21.517-18.232 30.893 1.482-8.685 1.663-18.57.525-29.615-4.563-44.279-30.955-84.997-70.599-108.92-40.517-24.448-39.614-53.524-30.832-74.509zm125.144 193.059 13.566 24.642-20.879 36.293c-4.228-12.282-6.399-25.076-6.466-38.175 5.232-7.114 9.849-14.72 13.779-22.76zm-146.274-190.032c3.378-.656 6.7-1.22 9.971-1.701-2.956 8.821-4.921 20-2.679 32.047 3.596 19.33 16.887 36.051 39.504 49.698 36.971 22.309 61.576 60.209 65.818 101.383 2.199 21.342-.839 37.476-9.015 47.978-3.968 3.43-8.13 6.651-12.491 9.626 4.906-11.557 6.458-26.313 4.618-44.161-4.563-44.28-30.955-84.998-70.6-108.92-19.217-11.596-30.67-25.682-34.042-41.865-4.249-20.402 5.625-38.715 8.916-44.085zm-69.614 62.82c11.288-28.989 30.166-48.703 56.209-58.753-3.126 7.061-6.282 16.891-6.544 28.101-10.732 11.96-17.362 26.868-19.186 43.26-1.684 15.128-8.374 29.551-18.837 40.613-6.155 6.482-3.771 17.917 3.68 22.201l11.472 6.593c-5.767 8.71-5.707 19.327 5.095 23.746-2.183 5.851-.2 11.835 5.241 14.945-3.395 9.396-1.631 19.878 4.985 27.85 3.855 4.646 8.862 7.818 14.321 9.325 1.019 6.218 2.691 11.83 5.023 16.804-60.136-35.482-87.05-108.967-61.459-174.685zm81.823 223.516c20.755-26.805 32.638-59.665 32.54-93.687-.013-4.186-5.084-6.509-8.259-3.777-4.177 3.59-19.121 15.767-36.021 21.751-8.889 3.147-16.302-.846-20.275-5.635-4.014-4.835-6.601-12.936-1.828-21.165 1.725-3.058.745-7.39-3.228-8.035-1.47-.238-3.425-1.126-3.743-1.913-.208-.518.03-2.341 2.427-5.54 2.321-3.097.251-7.676-3.606-7.982-2.113-.168-6.265-1.381-7.016-3.202-.607-1.472.438-5.02 5.194-10.562 2.059-2.397 1.247-6.127-1.304-7.591l-16.401-9.427c-2.802-1.611-2.542-4.84-.994-7.091 11.716-12.575 19.205-28.868 21.105-45.948 1.233-11.077 4.803-21.078 10.624-29.869 4.094 18.784 17.045 34.882 38.534 47.849 36.971 22.309 61.576 60.208 65.818 101.383 2.863 27.79-3.122 46.617-17.791 55.959-5.011 3.193-.616 11.14 4.706 8.792 19.449-8.59 36.513-20.982 50.375-36.308 1.212 13.004 4.37 25.672 9.455 37.82l-5.975 10.386c-10.456.271-20.297 5.299-26.524 13.712zm117.702 50.009c-14.923 0-27.064-12.538-27.064-27.95 0-14.478 11.494-26.709 26.269-25.814 1.896.118 3.688-.854 4.633-2.498l31.733-55.161 13.603 24.708-24.513 44.525c-.808 1.466-.828 3.239-.053 4.724 8.827 16.923-6.616 37.466-24.608 37.466zm25.025 0c10.327-9.696 15.448-26.235 9.634-39.617l20.222-36.731 20.222 36.731c-5.81 13.375-.698 29.919 9.619 39.617zm84.738 0c-17.99 0-33.438-20.543-24.608-37.467.774-1.484.754-3.258-.053-4.724l-83.82-152.248c-9.798-17.798-12.628-38.416-8.211-57.999l112.854 196.176c.946 1.644 2.736 2.617 4.633 2.498 14.768-.883 26.269 11.322 26.269 25.814 0 15.412-12.14 27.95-27.064 27.95zm83.098-10.621c0 5.856-4.765 10.621-10.621 10.621-5.856 0-10.621-4.765-10.621-10.621v-223.137c0-12.761 9.155-23.424 21.243-25.765v248.902z"/></g><g><g><path d="m20.084 462.008h11.613v10h-11.613z"/></g></g><g><g><path d="m.016 462.008h10.068v10h-10.068z"/></g></g></g><g><g><g><path d="m152.389 38.33h10v14.169h-10z"/></g></g><g><g><path d="m152.389 71.33h10v14.169h-10z"/></g></g><g><g><path d="m166.805 56.915h14.169v10h-14.169z"/></g></g><g><g><path d="m133.805 56.915h14.169v10h-14.169z"/></g></g></g><g><g><g><path d="m62.389.008h10v14.17h-10z"/></g></g><g><g><path d="m62.389 33.008h10v14.17h-10z"/></g></g><g><g><path d="m76.805 18.593h14.169v10h-14.169z"/></g></g><g><g><path d="m43.805 18.593h14.169v10h-14.169z"/></g></g></g><g><g><g><path d="m18.601 70.008h10v14.17h-10z"/></g></g><g><g><path d="m18.601 103.008h10v14.17h-10z"/></g></g><g><g><path d="m33.016 88.593h14.169v10h-14.169z"/></g></g><g><g><path d="m.016 88.593h14.169v10h-14.169z"/></g></g></g></g></svg>