<?xml version="1.0"?>
<svg xmlns="http://www.w3.org/2000/svg" id="Layer_1" data-name="Layer 1" viewBox="0 0 512 512" width="512" height="512"><path d="M486.09,453.06h-4.439l-.268-91.692A18.452,18.452,0,0,0,492.94,344.22V310.46a18.347,18.347,0,0,0-18.21-18.44l-13.86,0V281.5h.17a6,6,0,0,0,0-12H427.71a6,6,0,0,0,0,12h.18v10.531l-121.3.027c-.965-1.258-1.944-2.476-2.934-3.631A87.7,87.7,0,0,0,236.98,257.72H220.56V240.006a87.041,87.041,0,0,0,33.98-68.886V135.78h11.6a6,6,0,0,0,6-6c0-20.633-6.931-40.135-19.516-54.914a69.744,69.744,0,0,0-20.976-16.852c.086-.093.18-.176.263-.272A17.788,17.788,0,0,0,236.14,46.09V27a6,6,0,0,0-6-6H140.27c-16.018,0-31.021,7.143-42.246,20.112C87.008,53.831,80.94,70.692,80.94,88.59v82.53a86.3,86.3,0,0,0,30.32,65.893V257.72H95.43A87.819,87.819,0,0,0,7.71,345.44v75.84a6,6,0,0,0,6,6H275.585l0,3.6a6,6,0,0,0,5.994,6.006h.006a6,6,0,0,0,6-5.994l0-3.616H318.7a6,6,0,0,0,6-6V363.938a6.25,6.25,0,0,1,3.8-1.278h68.069l-28.919,90.4H249.11a18.351,18.351,0,0,0-18.2,18.481l.09,13.35a6,6,0,0,0,6,5.959l261.1.15h0a6,6,0,0,0,6-5.916l.191-13.584A18.342,18.342,0,0,0,486.09,453.06ZM439.89,281.5h8.98v10.526l-8.98,0ZM92.94,88.59c0-15.013,5.027-29.084,14.157-39.623C116.008,38.67,127.789,33,140.27,33h83.87V46.09a5.867,5.867,0,0,1-1.3,3.795,2.956,2.956,0,0,1-2.17,1.135H204.263q-.567-.011-1.133-.01a6,6,0,0,0,0,12c.328,0,.651,0,1.017.009,29.15.595,53.169,27.325,55.761,60.761H229.664a63.146,63.146,0,0,0,8.857-15.666,6,6,0,1,0-11.1-4.549c-7.24,17.674-15.2,19.912-20.551,20.058-9.638.277-22.745-6.462-42.509-21.8-11.8-9.156-23.96-12.229-36.15-9.131C113,96.553,100.962,109.5,92.94,120.961Zm68.18,326.69H84.18V382.62a6,6,0,0,0-12,0v32.66H19.71V345.44a75.806,75.806,0,0,1,75.72-75.72h16.613A93.431,93.431,0,0,0,133.765,318.5l27.355,31.741ZM142.855,310.664a81.315,81.315,0,0,1-19.409-47.359c-.124-1.829-.186-3.644-.186-5.395V236.338a6,6,0,0,0-1.963-6.59A74.415,74.415,0,0,1,92.94,171.12V144.783a118.9,118.9,0,0,1,10.794-18.29c6.134-8.5,15.874-19.248,27.45-22.179,8.532-2.16,16.975.124,25.817,6.986,22.311,17.319,37.271,24.61,50.029,24.319v.161h35.51v35.34a74.853,74.853,0,0,1-99.249,70.713,6,6,0,1,0-3.922,11.341,87.014,87.014,0,0,0,69.191-5.437V259.13c0,1.416-.038,2.852-.111,4.261a80.3,80.3,0,0,1-18.209,46.955l-23.234,28.34ZM247.89,415.28H173.12V350.155l26.4-32.2a92.113,92.113,0,0,0,20.418-48.234H236.98a75.658,75.658,0,0,1,49.16,18.14H265.99a6,6,0,0,0-5.73,4.217l-4.22-.057a18.347,18.347,0,0,0-18.21,18.44v78.93a6,6,0,0,0,6,6h4.06ZM291.2,299.86v37.37c0,2.829-2.781,5.13-6.2,5.13h-6.81c-3.419,0-6.2-2.3-6.2-5.13V299.86Zm-41.37,77.21h60.33v6.32H249.83Zm10.06,38.21v-2.4a18.232,18.232,0,0,0,5.673,2.4Zm9.85-11.5a6.351,6.351,0,0,1-6.34-6.31l-.009-2.08H299.83v2.04a6.352,6.352,0,0,1-6.34,6.35Zm42.96,11.5H297.672a18.367,18.367,0,0,0,14.158-17.85v-2.04h.87Zm15.8-64.62a18.387,18.387,0,0,0-14.86,7.6,18.193,18.193,0,0,0-3.047,6.808H249.83V310.46a6.321,6.321,0,0,1,6.129-6.44l4.031.054V337.23c0,9.445,8.165,17.13,18.2,17.13H285c10.035,0,18.2-7.685,18.2-17.13V304.059l171.53-.039a6.335,6.335,0,0,1,6.21,6.44v33.76a6.335,6.335,0,0,1-6.21,6.44ZM492.184,479l-249.224-.143-.05-7.354a6.33,6.33,0,0,1,6.2-6.44H392.092a6,6,0,0,0,0-12H380.249l28.919-90.4h60.219l.265,90.4H422.17a6,6,0,0,0,0,12h63.92a6.312,6.312,0,0,1,6.2,6.356Z"/><path d="M462.13,312.48H382.21a6,6,0,0,0-6,6v18.35a6,6,0,0,0,6,6h79.92a6,6,0,0,0,6-6V318.48A6,6,0,0,0,462.13,312.48Zm-6,18.35H388.21v-6.35h67.92Z"/><path d="M433.41,447.07a20.827,20.827,0,1,0-20.54-20.83A20.715,20.715,0,0,0,433.41,447.07Zm0-29.65a8.83,8.83,0,1,1-8.54,8.82A8.7,8.7,0,0,1,433.41,417.42Z"/><path d="M414.78,377.78h3.52a6,6,0,0,0,0-12h-3.52a6,6,0,0,0,0,12Z"/><path d="M435.89,377.78h3.52a6,6,0,1,0,0-12h-3.52a6,6,0,0,0,0,12Z"/><path d="M457,377.78h3.52a6,6,0,0,0,0-12H457a6,6,0,0,0,0,12Z"/><path d="M418.3,393.49a6,6,0,0,0,0-12h-3.52a6,6,0,0,0,0,12Z"/><path d="M435.89,393.49h3.52a6,6,0,1,0,0-12h-3.52a6,6,0,0,0,0,12Z"/><path d="M457,393.49h3.52a6,6,0,0,0,0-12H457a6,6,0,0,0,0,12Z"/></svg>
