<svg id="Layer_1" enable-background="new 0 0 66 66" height="512" viewBox="0 0 66 66" width="512" xmlns="http://www.w3.org/2000/svg"><g><g><path d="m65.6 42.4c-1-2.1-3.4-3.1-5.5-1.9l-15.6 10.2c-.5.3-.6.9-.3 1.4s.9.6 1.4.3l15.5-10.2c.9-.5 2.1-.2 2.7 1 .5 1.2.1 2.7-1 3.3-18.6 12.2-13.2 8.8-25.6 16.5-1.5.9-3.3 1.1-4.9.6l-13.4-4.8c-.1 0-.2-.1-.4-.1l-4.5.3v-18.5c2.3-.6 9.5-2 12.7 2.1.6.7 1.5 1.2 2.5 1.2h11.5c1.1 0 2 1.1 2 2.4s-.9 2.4-2 2.4h-11c-1.1 0-2.1.6-2.7 1.7s-.5 2.5.2 3.6c.3.5.9.5 1.4.2s.5-1 .2-1.4c-.3-.5-.3-1.1-.1-1.5.1-.1.4-.6.9-.6h11c2.2 0 4-2 4-4.4s-1.8-4.4-4-4.4h-11.4c-.2 0-.7-.1-1-.4-3.6-4.8-11.2-3.6-14.2-3v-2.1c0-.6-.4-1-1-1h-12c-.6 0-1 .4-1 1v26.1c0 .6.4 1 1 1h12c.6 0 1-.4 1-1v-1.4l4.4-.2 13.2 4.7c2.2.8 4.6.5 6.7-.8 13.9-8.8 6-3.6 25.6-16.5 1.9-1 2.6-3.7 1.7-5.8zm-53.6 19.1h-10v-24.1h10z"/></g><g><path d="m2.9 21.3 3 .4c.3 1.3.8 2.4 1.5 3.5l-1.8 2.4c-.3.4-.3 1 .1 1.3l2.5 2.5c.4.4.9.4 1.3.1l2.4-1.8c1.1.7 2.3 1.2 3.5 1.5l.4 3c.1.5.5.9 1 .9h3.5c.5 0 .9-.4 1-.9l.4-3c.9-.2 1.8-.6 2.6-1v5.8c0 .6.4 1 1 1h37.1c.6 0 1-.4 1-1v-26-9c0-.6-.4-1-1-1h-37.1c-.6 0-1 .4-1 1v5.9c-.8-.4-1.7-.7-2.6-1l-.4-3c-.1-.5-.5-.9-1-.9h-3.5c-.5 0-.9.4-1 .9l-.4 3c-1.3.3-2.4.8-3.5 1.5l-2.5-1.8c-.4-.3-.9-.3-1.3 0l-2.4 2.5c-.4.4-.4.9-.1 1.3l1.8 2.4c-.7 1.1-1.2 2.3-1.5 3.5l-3 .4c-.5.1-.9.5-.9 1v3.5c.1.6.4 1 .9 1.1zm23.4 13.7v-4.6l1.3 1c.2.1.4.2.6.2.3 0 .6-.1.8-.3l2.4-2.4c.4-.4.4-.9.1-1.3l-1.8-2.4c.7-1.1 1.2-2.3 1.5-3.5l3-.4c.5-.1.9-.5.9-1v-3.5c0-.5-.4-.9-.9-1l-3-.4c-.3-1.3-.8-2.4-1.5-3.5l.7-.9h7.1v7c0 .4.3.8.6.9.4.1.8 0 1.1-.3l4.7-5.2 4.7 5.2c.3.3.7.4 1.1.3s.6-.5.6-.9v-7h11.1v24zm13.1-25c0-.1 0-.1 0 0v-8h8.8v13.4l-3.7-4.1c-.2-.2-.5-.3-.7-.3-.3 0-.6.1-.7.3l-3.7 4.1zm21.9-1.1h-11.1v-6.9h11.1zm-23.9-6.9v7h-5.8c0-.3-.1-.7-.3-.9l-2.4-2.4c-.4-.4-.9-.4-1.3-.1l-1.3 1v-4.6zm-33.3 15.6 2.8-.4c.4-.1.8-.4.9-.8.2-1.4.8-2.8 1.7-4 .2-.4.2-.8 0-1.2l-1.8-2.3 1.2-1.2 2.2 1.7c.3.3.9.3 1.2 0 1.3-.8 2.7-1.4 4.2-1.7.4-.1.7-.4.8-.9l.4-2.8h1.7l.4 2.8c.1.4.4.8.8.9 1.5.3 2.9.9 4.1 1.7.4.3.9.2 1.2 0l2.3-1.7 1.2 1.2-1.7 2.3c-.3.3-.3.8 0 1.2.8 1.2 1.4 2.6 1.7 4.1.1.4.4.7.9.8l2.8.4v1.7l-2.8.4c-.4.1-.8.4-.9.8-.3 1.5-.9 2.9-1.7 4.1-.2.4-.2.8 0 1.2l1.7 2.3-1.2 1.2-2.3-1.7c-.3-.3-.8-.3-1.2 0-1.2.8-2.6 1.4-4.1 1.7-.4.1-.7.4-.8.9l-.4 2.7h-1.7l-.4-2.8c-.1-.4-.4-.8-.8-.9-1.5-.3-2.9-.9-4.1-1.7-.4-.2-.8-.2-1.2 0l-2.3 1.7-1.2-1.2 1.7-2.2c.3-.3.3-.9 0-1.3-.8-1.2-1.4-2.6-1.6-4-.1-.4-.4-.7-.9-.8l-2.8-.4z"/></g><g><path d="m18.5 26.5c4.4 0 8-3.6 8-8s-3.6-8-8-8-8 3.6-8 8 3.6 8 8 8zm0-14c3.3 0 6 2.7 6 6s-2.7 6-6 6-6-2.7-6-6 2.7-6 6-6z"/></g></g></svg>