<?xml version="1.0" encoding="UTF-8"?>
<svg fill="#3E7FCA" xmlns="http://www.w3.org/2000/svg" id="Icons" viewBox="0 0 60 60" width="512" height="512"><path d="M58,54H54.562l2.3-7.685a3.325,3.325,0,0,0-.526-2.967c-.065-.087-.148-.154-.22-.234a6,6,0,1,0-10.224,0c-.018.021-.038.039-.056.06a23.327,23.327,0,0,0-3.026-1.759A5.9,5.9,0,0,0,43,40a5.988,5.988,0,0,0-9.108-5.123,14.964,14.964,0,0,1-.132-1.713l2.532-2.216A5,5,0,0,0,38,27.185V25.9A5.006,5.006,0,0,0,42,21a4.948,4.948,0,0,0-1.026-3H44a2,2,0,0,0,2-2V14a2,2,0,0,0-2-2H40V3a3,3,0,0,0-3-3H15a3,3,0,0,0-3,3v9H8a2,2,0,0,0-2,2v2a2,2,0,0,0,2,2h3.027A4.97,4.97,0,0,0,14,25.9v1.285a5,5,0,0,0,1.708,3.763l2.536,2.219a14.448,14.448,0,0,1-1,5.025c-1.957.64-9.743,3.31-12.442,6.115-2.253,2.341-3.321,7.586-3.7,9.912A2,2,0,0,0,0,56v2a2,2,0,0,0,2,2H58a2,2,0,0,0,2-2V56A2,2,0,0,0,58,54Zm-3.058-8.256L52.475,54h-2.95l-2.466-8.256A1.354,1.354,0,0,1,48.35,44h5.3a1.337,1.337,0,0,1,1.079.543A1.351,1.351,0,0,1,54.942,45.744ZM51,36a4,4,0,0,1,4,4,3.958,3.958,0,0,1-.6,2.086A3.429,3.429,0,0,0,53.65,42h-5.3a3.429,3.429,0,0,0-.747.086A3.958,3.958,0,0,1,47,40,4,4,0,0,1,51,36Zm-8.607,7.452a17.679,17.679,0,0,1,2.638,1.63,3.365,3.365,0,0,0,.111,1.234L47.438,54H40.562l2.3-7.685A3.319,3.319,0,0,0,42.393,43.452ZM38.475,54h-2.95l-2.466-8.256A1.354,1.354,0,0,1,34.35,44h5.3a1.337,1.337,0,0,1,1.079.543,1.351,1.351,0,0,1,.213,1.2ZM37,36a4,4,0,0,1,4,4,3.958,3.958,0,0,1-.6,2.086A3.429,3.429,0,0,0,39.65,42h-5.3a3.429,3.429,0,0,0-.747.086A3.958,3.958,0,0,1,33,40,4,4,0,0,1,37,36ZM14,3a1,1,0,0,1,1-1H37a1,1,0,0,1,1,1V8H14Zm0,7H38v2H14ZM8,16V14H44v2Zm9.025,13.443A3,3,0,0,1,16,27.185V25a1,1,0,0,0-1-1,3,3,0,0,1,0-6H37a3,3,0,1,1,0,6,1,1,0,0,0-1,1v2.185a3,3,0,0,1-1.025,2.258l-5.5,4.815A3,3,0,0,1,27.5,35H24.5a3,3,0,0,1-1.975-.742ZM31.086,46H20a1,1,0,0,1-1-1V41.2A12.655,12.655,0,0,0,26,43a14.083,14.083,0,0,0,5.366-.966,5.937,5.937,0,0,0,.522,1.08c-.072.08-.155.147-.22.234A3.311,3.311,0,0,0,31.086,46ZM31,40v0a11.683,11.683,0,0,1-5,1c-4.115,0-6.115-1.475-6.839-2.185a15.866,15.866,0,0,0,.973-3.994l1.076.942A5,5,0,0,0,24.5,37H27.5a5,5,0,0,0,3.293-1.237l1.075-.941a16.047,16.047,0,0,0,.288,1.656A5.961,5.961,0,0,0,31,40ZM15,41.106c.727-.274,1.406-.518,2-.722V45a3,3,0,0,0,3,3H31.645l1.793,6H12.171A9.48,9.48,0,0,0,15,47ZM6.248,45.693C7.491,44.4,10.307,43.012,13,41.9V47a7.569,7.569,0,0,1-4.215,7H3.178C3.846,50.174,5.011,46.978,6.248,45.693ZM58,58H2V56H58Z"/></svg>
