<svg id="Capa_1" enable-background="new 0 0 511.891 511.891" height="512" viewBox="0 0 511.891 511.891" width="512" xmlns="http://www.w3.org/2000/svg"><g><path d="m221.306 213.682c0 4.142 3.358 7.5 7.5 7.5h71.748c4.142 0 7.5-3.358 7.5-7.5s-3.358-7.5-7.5-7.5h-71.748c-4.142 0-7.5 3.358-7.5 7.5z"/><path d="m143.456 87.703c0 26.358 21.444 47.803 47.803 47.803 26.358 0 47.803-21.444 47.803-47.803 0-26.006-20.878-47.213-46.751-47.777v-5.614c0-8.503-4.025-16.674-10.767-21.856l-14.182-10.902c-3.284-2.524-7.992-1.909-10.517 1.375-2.524 3.284-1.909 7.992 1.375 10.517l14.182 10.902c3.073 2.362 4.908 6.087 4.908 9.964v7.669c-19.575 5.984-33.854 24.215-33.854 45.722zm80.606 0c0 18.087-14.715 32.803-32.803 32.803s-32.803-14.715-32.803-32.803c0-13.102 7.724-24.429 18.854-29.681v5.499c0 4.142 3.358 7.5 7.5 7.5s7.5-3.358 7.5-7.5v-8.594c17.602.558 31.752 15.041 31.752 32.776z"/><path d="m435.223 19.807c-1.808-3.446-4.85-5.981-8.564-7.139l-36.4-11.348c-3.715-1.159-7.658-.801-11.104 1.008-3.446 1.808-5.981 4.85-7.139 8.564l-31.081 99.698c-20.571-20.781-48.018-34.88-78.991-38.502-4.111-.479-7.839 2.464-8.32 6.578s2.464 7.839 6.578 8.32c59.458 6.953 104.296 57.406 104.296 117.359v1.836h-31.981c-4.142 0-7.5 3.358-7.5 7.5s3.358 7.5 7.5 7.5h40.852c9.673 0 17.542 7.869 17.542 17.542 0 9.672-7.869 17.541-17.542 17.541h-254.667c-9.673 0-17.542-7.869-17.542-17.541 0-9.673 7.869-17.542 17.542-17.542h44.089c4.142 0 7.5-3.358 7.5-7.5s-3.358-7.5-7.5-7.5h-34.644v-1.836c0-22.762 6.486-44.862 18.758-63.91 2.244-3.482 1.239-8.124-2.243-10.367s-8.124-1.24-10.367 2.243c-13.835 21.476-21.148 46.384-21.148 72.034v2.32c-15.306 2.645-26.987 16.009-26.987 32.058 0 6.457 1.898 12.475 5.154 17.541h-2.485c-7.63 0-13.837 6.207-13.837 13.837 0 83.604 60.122 153.418 139.397 168.509v21.129l-58.767 28.904c-5.141 2.528-7.824 8.19-6.526 13.77s6.206 9.477 11.934 9.477h171.009c5.729 0 10.636-3.897 11.934-9.477s-1.386-11.242-6.526-13.77l-58.767-28.903v-21.129c79.276-15.091 139.397-84.906 139.397-168.509 0-7.63-6.207-13.837-13.837-13.837h-3.485c3.256-5.066 5.154-11.084 5.154-17.541 0-15.213-10.495-28.018-24.625-31.563l28.955-92.877c1.233-3.954-.974-8.159-4.928-9.392-3.954-1.232-8.16.973-9.393 4.928l-1.863 5.976-40.711 9.253c-.281-.379-.57-.752-.855-1.128l15.146-48.583 42.009-9.549-4.212 13.512c-1.233 3.954.974 8.159 4.928 9.392 3.953 1.231 8.16-.974 9.393-4.928l16.477-52.854c1.159-3.714.801-7.658-1.007-11.104zm-167.106 294.356v36.527c0 8.01-6.517 14.527-14.528 14.527s-14.528-6.517-14.528-14.527v-79.424h64.706v7.247c0 12.098-9.842 21.939-21.939 21.939-7.56 0-13.711 6.151-13.711 13.711zm-.247 156.977 52.357 25.751h-147.384l52.357-25.751c2.565-1.262 4.19-3.872 4.19-6.73v-23.619c5.64.563 11.359.854 17.145.854s11.505-.292 17.145-.854v23.619c0 2.858 1.625 5.468 4.19 6.73zm-21.335-44.495c-58.025 0-108.772-31.741-135.809-78.767 9.391-1.585 24.421-3.837 40.842-5.181 4.128-.338 7.201-3.958 6.863-8.087s-3.959-7.196-8.087-6.863c-20.151 1.65-37.925 4.551-46.749 6.138-8.583-19.16-13.434-40.341-13.598-62.62h134.065v61.715l-1.768-.616c-9.995-3.483-23.189-5.423-39.215-5.765-4.156-.101-7.57 3.197-7.659 7.338-.088 4.141 3.197 7.57 7.338 7.658 14.452.309 26.092 1.968 34.599 4.933l6.705 2.337v1.825c0 16.281 13.246 29.527 29.528 29.527 11.911 0 22.19-7.093 26.854-17.273 5.495.51 11.002.771 16.503.771 23.768 0 47.414-4.731 69.431-13.989l19.408-8.161c-26.011 50.478-78.665 85.08-139.251 85.08zm147.798-104.945-33.769 14.2c-24.444 10.277-51.075 14.447-77.446 12.211v-32.681c19.774-.682 35.65-16.98 35.65-36.917v-7.247h84.305c-.13 17.653-3.202 34.618-8.74 50.434zm-5.438-189.349-12.925 41.458c-2.944-12.541-7.668-24.425-13.898-35.362zm25.913-83.118-42.009 9.549 13.409-43.012 35.575 11.091z"/><path d="m189.245 151.004c-3.341-2.449-8.035-1.728-10.483 1.613-2.449 3.34-1.727 8.034 1.613 10.483l6.449 4.729c1.337.98 2.89 1.452 4.429 1.452 2.308 0 4.585-1.062 6.054-3.065 2.449-3.34 1.727-8.034-1.613-10.483z"/><path d="m241.572 162.676c1.426 1.258 3.196 1.876 4.959 1.876 2.077 0 4.144-.858 5.626-2.538l3.875-4.391c2.741-3.105 2.445-7.845-.661-10.586s-7.846-2.445-10.586.661l-3.875 4.391c-2.739 3.107-2.443 7.846.662 10.587z"/><path d="m291.279 124.739-4.729-3.041c-3.483-2.24-8.124-1.233-10.365 2.251-2.241 3.483-1.232 8.124 2.251 10.365l4.729 3.041c1.255.807 2.66 1.193 4.05 1.193 2.466 0 4.882-1.216 6.315-3.444 2.241-3.484 1.233-8.124-2.251-10.365z"/><path d="m291.94 167.71c-2.135 3.549-.988 8.158 2.562 10.292l5.742 3.453c1.209.728 2.542 1.074 3.858 1.074 2.545 0 5.027-1.296 6.435-3.636 2.135-3.549.988-8.158-2.562-10.292l-5.742-3.453c-3.551-2.136-8.159-.987-10.293 2.562z"/></g></svg>