<svg id="Capa_1" enable-background="new 0 0 512 512" height="512" viewBox="0 0 512 512" width="512" xmlns="http://www.w3.org/2000/svg"><g><path d="m494.77 124.38c9.407 0 17.061-7.653 17.061-17.06v-37.03c0-9.407-7.653-17.06-17.061-17.06h-93.61c-4.143 0-7.5 3.358-7.5 7.5s3.357 7.5 7.5 7.5h93.609c1.136 0 2.061.924 2.061 2.06v37.03c0 1.136-.925 2.06-2.061 2.06h-121.307v-83.676c0-14.173-11.531-25.704-25.704-25.704h-183.516c-14.173 0-25.703 11.531-25.703 25.704v27.526h-121.309c-9.407 0-17.06 7.653-17.06 17.06v37.03c0 9.407 7.653 17.06 17.06 17.06h8.941v372.62h-18.498c-4.142 0-7.5 3.358-7.5 7.5s3.358 7.5 7.5 7.5h496.653c4.143 0 7.5-3.358 7.5-7.5s-3.357-7.5-7.5-7.5h-18.497v-372.62zm-121.308 53.248v-14.008h62.618v24.783h-64.994c1.521-3.28 2.376-6.929 2.376-10.775zm-297.542-14.008h62.619v14.008c0 3.847.855 7.495 2.376 10.775h-64.995zm62.619-15h-62.619v-24.24h62.619zm-62.619 54.783h360.16v24.777h-360.16zm360.16-79.023v24.24h-62.618v-24.24zm-271.838-109.38h183.516c5.902 0 10.704 4.802 10.704 10.704v151.924c0 5.902-4.802 10.704-10.704 10.704h-183.516c-5.902 0-10.703-4.802-10.703-10.704v-151.924c0-5.902 4.801-10.704 10.703-10.704zm-149.072 92.32v-37.03c0-1.136.924-2.06 2.06-2.06h121.309v41.15h-121.309c-1.136 0-2.06-.924-2.06-2.06zm143.44 389.68c-2.363 0-4.286-1.923-4.286-4.286v-22.395h32.574v22.395c0 2.363-1.923 4.286-4.286 4.286zm-16.194-157.5c.611-.683 1.269-1.457 1.763-2.868l17.953-53.342c1.913-5.684 7.228-9.502 13.225-9.502h161.287c5.997 0 11.312 3.819 13.225 9.502l17.954 53.342c.625 1.307.256 1.1 1.763 2.868l19.736 20.058c6.041 6.139 9.368 14.263 9.368 22.876v60.089c0 7.057-5.74 12.798-12.797 12.798h-156.373c-4.142 0-7.5 3.358-7.5 7.5s3.358 7.5 7.5 7.5h80.582v22.395c0 1.475.182 2.905.497 4.286h-109.198c.315-1.381.497-2.811.497-4.286v-29.895c0-4.142-3.358-7.5-7.5-7.5h-68.29c-7.057 0-12.798-5.741-12.798-12.798v-60.089c0-8.612 3.327-16.737 9.368-22.876zm186.973 157.5c-2.364 0-4.287-1.923-4.287-4.286v-22.395h32.574v22.395c0 2.363-1.923 4.286-4.286 4.286zm42.79 0c.315-1.381.497-2.811.497-4.286v-22.395h13.217c15.327 0 27.797-12.47 27.797-27.798v-60.089c0-12.575-4.857-24.436-13.677-33.397l-13.887-14.113 10.691-8.501c3.242-2.578 3.78-7.296 1.202-10.538-2.577-3.242-7.296-3.781-10.538-1.202l-8.85 7.038-14.545-43.215c-3.97-11.793-14.998-19.717-27.441-19.717h-161.289c-12.444 0-23.472 7.924-27.441 19.717l-14.544 43.212-8.847-7.035c-3.242-2.579-7.96-2.041-10.538 1.202-2.578 3.242-2.04 7.96 1.202 10.538l10.688 8.499-13.89 14.115c-8.82 8.963-13.677 20.823-13.677 33.397v60.089c0 15.328 12.47 27.798 27.798 27.798h13.216v22.395c0 1.475.182 2.905.497 4.286h-63.903v-226.171c0-4.142-3.358-7.5-7.5-7.5s-7.5 3.358-7.5 7.5v226.171h-19.746v-372.62h19.746v111.3c0 4.142 3.358 7.5 7.5 7.5h.001s.001 0 .001 0h367.663v253.82zm98.65 0h-19.746v-372.62h19.746z"/><path d="m215.396 85.818c3.914 0 7.826-.926 11.385-2.766l7.828 7.828c-3.035 1.207-5.879 3.029-8.332 5.481l-22.29 22.29c-9.657 9.657-9.657 25.37 0 35.027 4.829 4.828 11.171 7.242 17.513 7.242 6.343 0 12.685-2.414 17.514-7.242l22.29-22.29c2.414-2.414 4.264-5.242 5.493-8.32l7.761 7.761c-4.818 9.324-3.331 21.089 4.477 28.898l5.113 5.113c1.465 1.464 3.385 2.197 5.304 2.197s3.839-.732 5.304-2.197c2.929-2.929 2.929-7.678 0-10.606l-5.113-5.113c-3.809-3.809-3.809-10.005 0-13.814 1.845-1.845 4.297-2.861 6.906-2.861s5.062 1.016 6.906 2.861l5.113 5.113c2.93 2.929 7.678 2.929 10.607 0s2.929-7.678 0-10.606l-5.113-5.113c-4.678-4.678-10.897-7.254-17.514-7.254-4.032 0-7.914.962-11.393 2.768l-18.549-18.549 46.465-46.464c2.929-2.929 2.929-7.678 0-10.606s-7.677-2.93-10.607 0l-46.464 46.463-18.613-18.613c4.818-9.324 3.33-21.089-4.477-28.898-9.657-9.657-25.37-9.657-35.028 0-9.656 9.657-9.656 25.37 0 35.027 4.828 4.828 11.171 7.243 17.514 7.243zm38.162 28.057c0 2.609-1.016 5.062-2.861 6.907l-22.29 22.29c-3.809 3.808-10.005 3.809-13.814 0-3.809-3.809-3.809-10.006 0-13.814l22.29-22.289c3.804-3.805 9.992-3.808 13.801-.012l.025.025c1.837 1.843 2.849 4.29 2.849 6.893zm-45.07-59.721c1.905-1.904 4.406-2.856 6.907-2.856s5.003.952 6.907 2.856c3.809 3.809 3.809 10.005 0 13.814-3.809 3.808-10.006 3.809-13.814 0-3.808-3.808-3.808-10.005 0-13.814z"/><path d="m159.875 358.474c31.892 4.549 64.008 6.824 96.125 6.824 32.116 0 64.233-2.275 96.125-6.824 2.206-.314 4.158-1.594 5.327-3.491 1.168-1.896 1.434-4.215.723-6.327l-19.113-56.782c-1.027-3.052-3.889-5.107-7.108-5.107h-151.908c-3.22 0-6.081 2.056-7.108 5.107l-19.112 56.782c-.71 2.112-.446 4.43.723 6.327s3.12 3.176 5.326 3.491zm25.56-56.707h141.129l14.498 43.071c-56.487 7.278-113.636 7.278-170.125 0z"/><path d="m164.044 441.636h19.311c12.686 0 23.006-10.32 23.006-23.006 0-11.157-7.971-20.681-18.953-22.646l-19.009-3.402c-7.226-1.292-14.594.667-20.22 5.376-5.627 4.709-8.854 11.619-8.854 18.957-.001 13.632 11.089 24.721 24.719 24.721zm-6.238-32.174c1.766-1.478 3.968-2.267 6.23-2.267.572 0 1.147.051 1.721.153l19.009 3.402c3.821.684 6.595 3.998 6.595 7.88 0 4.415-3.591 8.006-8.006 8.006h-19.311c-5.359 0-9.72-4.36-9.72-9.72 0-2.885 1.269-5.602 3.482-7.454z"/><path d="m339.955 392.583-19.009 3.402c-10.982 1.965-18.953 11.489-18.953 22.646 0 12.686 10.32 23.006 23.006 23.006h19.312c13.631 0 24.72-11.089 24.72-24.72 0-7.338-3.228-14.247-8.854-18.957s-12.998-6.67-20.222-5.377zm10.594 16.879c2.213 1.852 3.481 4.568 3.481 7.454 0 5.36-4.36 9.72-9.72 9.72h-19.312c-4.414 0-8.006-3.591-8.006-8.006 0-3.882 2.773-7.197 6.596-7.88l19.009-3.402c.573-.103 1.148-.153 1.721-.153 2.262 0 4.464.789 6.231 2.267z"/><path d="m276.814 416.776h-41.629c-4.142 0-7.5 3.358-7.5 7.5s3.358 7.5 7.5 7.5h41.629c4.143 0 7.5-3.358 7.5-7.5s-3.357-7.5-7.5-7.5z"/></g></svg>