<svg id="_x30_1" enable-background="new 0 0 496 496" height="512" viewBox="0 0 496 496" width="512" xmlns="http://www.w3.org/2000/svg"><g><path d="m111.957 432h.044c4.266 0 8.276-1.658 11.298-4.671 3.031-3.024 4.701-7.047 4.701-11.329h241.376c3.302 9.311 12.195 16 22.624 16h48c10.429 0 19.321-6.689 22.624-16h33.376v-16h-32.805c-2.463-12.086-10.399-22.198-21.091-27.651l-57.164-90.51c-21.441-33.948-57.257-55.073-96.939-57.586v-11.52c14.06-8.4 24.244-21.492 28.997-36.733h3.002c17.645 0 32-14.355 32-32 0-2.876-.388-5.663-1.103-8.317l2.283-1.522c9.279-6.187 14.819-16.538 14.819-27.69 0-6.629-1.926-12.964-5.512-18.362 3.583-5.176 5.512-11.31 5.512-17.739 0-11.914-6.619-22.624-17.274-27.95l-.356-.179c-6.713-15.829-22.245-26.241-39.667-26.241h-3.389l-2.847-2.848c-8.482-8.481-19.758-13.152-31.753-13.152-6.936 0-13.88 1.64-20.084 4.741l-4.629 2.315-4.629-2.314c-6.204-3.102-13.148-4.742-20.084-4.742-11.995 0-23.271 4.671-31.754 13.152l-2.846 2.848h-3.389c-17.422 0-32.954 10.412-39.667 26.24l-.355.178c-10.657 5.327-17.276 16.037-17.276 27.951 0 6.43 1.929 12.563 5.512 17.739-3.586 5.399-5.512 11.734-5.512 18.363 0 11.152 5.54 21.504 14.819 27.69l2.283 1.522c-.715 2.654-1.103 5.44-1.103 8.317 0 17.645 14.355 32 32 32h3.003c4.753 15.241 14.937 28.333 28.997 36.733v11.52c-30.081 1.903-58.095 14.528-79.599 36.031l-16.4 16.402v-148.686c0-8.822-7.178-16-16-16h-41.833c-7.263 0-13.625 4.905-15.473 11.928l-36.976 140.51c-1.14 4.33-1.718 8.795-1.718 13.274 0 10.188 2.913 19.924 8.326 28.276-4.957 2.722-8.326 7.991-8.326 14.033v95.718c0 8.799 7.158 15.977 15.957 16h.043v48.261c0 8.822 7.178 16 16 16h464v-16h-464v-16h464v-16h-464v-16.217zm-95.957-16.261v-95.718h96v17.376c-2.98 1.057-5.691 2.685-8 4.755-4.25-3.809-9.858-6.131-16-6.131h-40c-8.822 0-16 7.178-16 16v32c0 8.822 7.178 16 16 16h40c11.052 0 20.378-7.512 23.154-17.697.28.111.561.219.846.32v33.356zm49.376-31.718h-17.376v-32h17.376c-.888 2.504-1.376 5.196-1.376 8v16c0 2.805.488 5.497 1.376 8zm14.624-8v-16c0-4.411 3.589-8 8-8s8 3.589 8 8v16c0 4.411-3.589 8-8 8s-8-3.588-8-8zm40-8c-4.411 0-8-3.589-8-8s3.589-8 8-8h8l.01 16s-.003 0-.01 0zm8 16c8.822 0 16-7.178 16-16v-12.688l32-32.014v76.681h-48zm247.093 1.275c-3.015 4.357-5.194 9.334-6.288 14.704h-48.805v-75.306zm-71.093 14.704h-112v-96h112zm-32-112h-48v-24.316c6.654 5.25 15.027 8.316 24 8.316s17.345-3.066 24-8.315zm-64 0h-16v-45.334c5.231-1.183 10.575-1.98 16-2.375zm232 128h-48c-4.411 0-8-3.589-8-8 0-13.233 10.767-24 24-24h16c13.233 0 24 10.767 24 24 0 4.411-3.589 8-8 8zm-19.566-48h-12.434c-7.852 0-15.177 2.283-21.362 6.208l-45.144-49.658 29.644-34.585c.09.141.185.278.274.419zm-59.118-91.162-30.669 35.78-10.647-11.712v-53.308c15.796 6.262 29.958 16.227 41.316 29.24zm-57.316-34.179v45.341h-16v-47.698c5.43.395 10.777 1.18 16 2.357zm0-146.659v48h-32c-1.885 0-3.58-1.048-4.421-2.729l-.847-1.694c-3.571-7.141-10.749-11.577-18.732-11.577s-15.161 4.436-18.735 11.581l-.841 1.685c-.844 1.686-2.539 2.734-4.424 2.734h-32v-48zm16 64h-.113c.07-1.252.113-2.511.113-3.777v-28.223c8.822 0 16 7.178 16 16s-7.178 16-16 16zm-168.306-39.151c-4.817-3.212-7.694-8.587-7.694-14.378 0-4.615 1.798-8.954 5.062-12.218l6.251-6.253-6.847-6.848c-2.881-2.88-4.467-6.71-4.467-10.783 0-5.813 3.23-11.04 8.431-13.64l6.111-3.057 1.048-3.144c3.694-11.082 14.026-18.528 25.709-18.528h10.016l7.534-7.533c5.459-5.46 12.719-8.467 20.439-8.467 4.465 0 8.935 1.056 12.928 3.052l11.785 5.892 11.785-5.893c3.993-1.996 8.463-3.052 12.928-3.052 7.721 0 14.98 3.007 20.439 8.467l7.535 7.534h10.016c11.683 0 22.015 7.446 25.708 18.529l1.048 3.144 6.112 3.058c5.199 2.599 8.43 7.825 8.43 13.639 0 4.073-1.586 7.903-4.467 10.783l-6.847 6.847 6.252 6.253c3.264 3.264 5.062 7.603 5.062 12.218 0 5.791-2.877 11.166-7.694 14.378l-1.344.896c-5.822-6.003-13.962-9.745-22.963-9.745v-16c0-8.822-7.178-16-16-16h-5.594c1.048-1.825 1.947-3.759 2.632-5.814l2.552-7.656-15.18-5.059-2.552 7.655c-2.168 6.504-8.23 10.874-15.086 10.874-6.063 0-11.513-3.368-14.224-8.791l-8.548-17.098-8.549 17.098c-2.711 5.423-8.161 8.791-14.223 8.791-6.855 0-12.918-4.37-15.086-10.873l-2.552-7.656-15.18 5.059 2.552 7.657c.685 2.055 1.584 3.989 2.632 5.813h-5.594c-8.822 0-16 7.178-16 16v16c-9.001 0-17.141 3.742-22.961 9.745zm24.306 39.151c-8.822 0-16-7.178-16-16s7.178-16 16-16v28.223c0 1.266.042 2.525.113 3.777zm16.143 0h31.857c7.983 0 15.161-4.436 18.735-11.581l.841-1.685c.844-1.686 2.539-2.734 4.424-2.734s3.58 1.048 4.421 2.729l.847 1.694c3.571 7.141 10.749 11.577 18.732 11.577h31.857c-1.299 17.483-11.559 32.906-27.435 40.845l-4.422 2.211v27.959l-1.939 7.762c-2.536 10.14-11.608 17.223-22.061 17.223s-19.524-7.083-22.06-17.223l-1.94-7.763v-27.958l-4.422-2.211c-15.876-7.939-26.136-23.362-27.435-40.845zm-16.143 87.635v53.052l-11.238 11.243-30.174-35.204 5.128-5.128c10.53-10.53 22.856-18.608 36.284-23.963zm-52.759 40.439 30.177 35.207-15.902 15.909c-2.663-1.98-5.949-3.167-9.516-3.167v-16c0-8.822-7.178-16-16-16v-4.707zm-27.241 15.947h-68.664l-.747-.747c-4.329-4.329-7.419-9.563-9.106-15.274h16.271c7.356 0 13.739-4.984 15.521-12.119l36.971-147.881h9.754zm-49.134-84.469-13.293-13.293.188-.714 17.222-2.46zm12.8-51.2-11.016-11.016 14.369-2.394zm-4.638 17.991-16.848 2.407 4.011-15.244zm-13.839 50.16-17.073 5.691 4.742-18.022zm-23.999 32.009 2.06-7.828 18.908-6.303-4.404 17.619h-17.281c.188-1.172.415-2.339.717-3.488zm52.564-140.512-2.504 10.014-16.44 2.74 3.357-12.754z"/><circle cx="216" cy="120" r="8"/><circle cx="280" cy="120" r="8"/><path d="m248 192c12.92 0 24.534-7.178 30.311-18.732l.845-1.689-14.311-7.156-.845 1.69c-3.05 6.099-9.181 9.888-16 9.888s-12.95-3.789-16-9.889l-.845-1.689-14.311 7.156.845 1.688c5.777 11.555 17.391 18.733 30.311 18.733z"/><path d="m248 384c22.056 0 40-17.944 40-40v-8c0-8.822-7.178-16-16-16h-48c-8.822 0-16 7.178-16 16v8c0 22.056 17.944 40 40 40zm-24-48h48v8c0 13.233-10.767 24-24 24s-24-10.767-24-24z"/></g></svg>