<svg id="Capa_1"  enable-background="new 0 0 512 512" height="512" viewBox="0 0 512 512" width="512" xmlns="http://www.w3.org/2000/svg"><g><path d="m391.94 10.18h-302.22c-10.752 0-19.5 8.748-19.5 19.5v40.89h-16.58c-7.444 0-13.5 6.056-13.5 13.5v46.84c0 7.444 6.056 13.5 13.5 13.5h16.58v74.989h-27.968c-7.858 0-14.25 6.393-14.25 14.25v11.24h-13.002v-104.079c0-4.143-3.358-7.5-7.5-7.5s-7.5 3.357-7.5 7.5v104.53c0 8.022 6.527 14.55 14.55 14.55h13.452v11.249c0 7.858 6.393 14.251 14.25 14.251h27.968v78.41c0 4.143 3.358 7.5 7.5 7.5s7.5-3.357 7.5-7.5v-78.41h18.68v169.24c0 7.444 6.056 13.5 13.5 13.5h246.86c7.444 0 13.5-6.056 13.5-13.5v-397.26c0-7.444-6.056-13.5-13.5-13.5h-96.32c-7.995 0-14.5 6.505-14.5 14.5v15.38c0 1.379-1.122 2.5-2.5 2.5h-20.23c-1.378 0-2.5-1.121-2.5-2.5v-15.38c0-7.995-6.505-14.5-14.5-14.5h-96.31c-7.444 0-13.5 6.056-13.5 13.5v162.029h-18.68v-189.719c0-2.481 2.019-4.5 4.5-4.5h302.22c2.481 0 4.5 2.019 4.5 4.5v452.64c0 2.481-2.019 4.5-4.5 4.5h-302.22c-2.481 0-4.5-2.019-4.5-4.5v-83.52c0-4.143-3.358-7.5-7.5-7.5s-7.5 3.357-7.5 7.5v83.521c0 10.752 8.748 19.5 19.5 19.5h302.22c10.752 0 19.5-8.748 19.5-19.5v-452.641c0-10.752-8.748-19.5-19.5-19.5zm-348.938 224.219h78.804v35.99h-78.804zm117.731 17.933c0 .02-.003.039-.003.058s.003.039.003.058v6.945l-23.927 8.826v-31.65l23.927 8.827zm63.955 110.286h17.984v45.916h-17.984c0-14.089 0-8.398 0-45.916zm32.984 16.962h20.147c6.44 0 11.68-5.244 11.68-11.69v-16.22c0-8.63 7.021-15.65 15.65-15.65h57.61v12h-49.57c-6.446 0-11.69 5.24-11.69 11.681v16.229c0 8.63-7.021 15.65-15.65 15.65h-28.178v-12zm-138.772-320.71h94.31v14.88c0 9.649 7.851 17.5 17.5 17.5h20.23c9.649 0 17.5-7.851 17.5-17.5v-14.88h94.32v20.57h-60.99c-1.989 0-3.897.79-5.304 2.197l-46.537 46.545c-2.94-1.411-6.231-2.202-9.704-2.202-12.409 0-22.504 10.095-22.504 22.504s10.095 22.505 22.504 22.505 22.504-10.096 22.504-22.505c0-3.468-.79-6.755-2.197-9.692l44.344-44.352h57.883v16.439h-26.99c-1.99 0-3.898.791-5.305 2.198l-14.836 14.844c-2.94-1.411-6.23-2.202-9.703-2.202-12.409 0-22.504 10.095-22.504 22.504s10.095 22.505 22.504 22.505 22.504-10.096 22.504-22.505c0-3.469-.79-6.756-2.197-9.692l12.645-12.651h23.882v195.14h-57.61c-16.9 0-30.65 13.75-30.65 30.65v12.91h-16.828v-4.462c0-6.893-5.607-12.5-12.5-12.5h-22.984c-6.893 0-12.5 5.607-12.5 12.5v1.062h-12.017c-4.142 0-7.5 3.357-7.5 7.5s3.358 7.5 7.5 7.5h12.019v18.79h-12.019c-4.142 0-7.5 3.357-7.5 7.5s3.358 7.5 7.5 7.5h12.019v1.064c0 6.893 5.607 12.5 12.5 12.5h22.984c6.893 0 12.5-5.607 12.5-12.5v-4.454h28.178c16.9 0 30.65-13.75 30.65-30.65v-12.91h46.26v90.11h-243.861v-167.74h10.572c2.743 0 5.437-.481 8.007-1.431l30.142-11.119c4.852-1.788 8.112-6.465 8.112-11.637v-1.313h11.549v21.605c0 7.195 5.854 13.049 13.048 13.049h5.15v7.406c0 4.143 3.358 7.5 7.5 7.5s7.5-3.357 7.5-7.5v-7.406h12.85v7.406c0 4.143 3.358 7.5 7.5 7.5s7.5-3.357 7.5-7.5v-7.406h12.85v7.406c0 4.143 3.358 7.5 7.5 7.5s7.5-3.357 7.5-7.5v-7.406h5.146c7.195 0 13.048-5.854 13.048-13.049v-58.202c0-7.195-5.854-13.049-13.048-13.049h-5.146v-7.404c0-4.143-3.358-7.5-7.5-7.5s-7.5 3.357-7.5 7.5v7.404h-12.85v-7.404c0-4.143-3.358-7.5-7.5-7.5s-7.5 3.357-7.5 7.5v7.404h-12.85v-7.404c0-4.143-3.358-7.5-7.5-7.5s-7.5 3.357-7.5 7.5v7.404h-5.15c-7.195 0-13.048 5.854-13.048 13.049v21.597h-11.549v-1.305c0-5.17-3.259-9.846-8.11-11.636l-30.146-11.121c-2.572-.948-5.265-1.429-8.005-1.429h-10.572zm128.83 89.614c0 4.139-3.367 7.505-7.504 7.505s-7.504-3.366-7.504-7.505c0-4.138 3.367-7.504 7.504-7.504s7.504 3.367 7.504 7.504zm65.701-.26c0 4.139-3.366 7.505-7.504 7.505s-7.504-3.366-7.504-7.505c0-4.138 3.367-7.504 7.504-7.504s7.504 3.366 7.504 7.504zm-96.241 96.666h-14.908v-19.646h77.092v54.3c-9.627 0-68.309 0-77.092 0v-19.654h14.908c4.142 0 7.5-3.357 7.5-7.5s-3.358-7.5-7.5-7.5zm-162.05-115.48v-43.84h15.08v43.84z"/><path d="m504.5 203.772c4.142 0 7.5-3.357 7.5-7.5v-48.042c0-19.314-14.115-35.385-32.57-38.46v-71.3c0-4.143-3.358-7.5-7.5-7.5s-7.5 3.357-7.5 7.5v71.3c-18.456 3.074-32.573 19.146-32.573 38.461v185.711c0 7.444 6.056 13.5 13.5 13.5h3.253v84.738c0 9.054 6.969 16.5 15.82 17.273v44.867c0 4.143 3.358 7.5 7.5 7.5s7.5-3.357 7.5-7.5v-44.868c8.852-.778 15.82-8.222 15.82-17.273v-84.738h3.25c7.444 0 13.5-6.056 13.5-13.5v-102.669c0-4.143-3.358-7.5-7.5-7.5s-7.5 3.357-7.5 7.5v101.169c-10.181 0-38.375 0-50.143 0v-184.211c0-13.233 10.766-24 24-24h2.143c13.233 0 24 10.767 24 24v48.042c0 4.143 3.358 7.5 7.5 7.5zm-24.25 228.408c0 1.296-1.054 2.351-2.35 2.351h-11.95c-1.291 0-2.34-1.055-2.34-2.351v-84.738h16.64z"/></g></svg>