<svg id="Capa_1"  enable-background="new 0 0 511.887 511.887" height="512" viewBox="0 0 511.887 511.887" width="512" xmlns="http://www.w3.org/2000/svg"><g><path d="m477.403 0h-442.919c-13.797 0-25.022 11.226-25.022 25.022v472.835c0 7.736 6.293 14.029 14.029 14.029h29.365c5.807 0 10.931-3.491 13.057-8.896l10.144-25.8h39.542c4.142 0 7.501-3.358 7.501-7.5s-3.358-7.5-7.501-7.5h-91.136v-31.17h462.961v31.169h-337.155c-4.142 0-7.501 3.358-7.501 7.5s3.358 7.5 7.501 7.5h285.561l10.145 25.801c2.125 5.404 7.25 8.895 13.057 8.895h29.365c7.736 0 14.029-6.293 14.029-14.029v-472.834c-.001-13.796-11.226-25.022-25.023-25.022zm-417.481 477.232-7.728 19.654h-27.731v-19.654zm427.502 19.653h-27.731l-7.728-19.654h35.459zm0-80.866h-462.961v-259.181h24.941v23.74c0 7.324 5.958 13.281 13.281 13.281h386.517c7.323 0 13.281-5.958 13.281-13.281v-23.74h24.941zm-423.019-237.161v-22.02h383.077v22.02zm423.019-37.021h-32.441-398.079-32.441v-21.708h462.961zm0-36.709h-462.961v-80.106c0-5.526 4.495-10.021 10.021-10.021h442.919c5.526 0 10.021 4.496 10.021 10.021z"/><path d="m449.202 221.1h-386.517c-7.323 0-13.281 5.958-13.281 13.281v141.116c0 7.324 5.958 13.281 13.281 13.281h386.517c7.323 0 13.281-5.958 13.281-13.281v-141.115c0-7.324-5.958-13.282-13.281-13.282zm-1.72 152.678h-383.077v-137.676h329.948l-61.929 76.674c-2.603 3.223-2.101 7.945 1.122 10.549 1.388 1.12 3.053 1.665 4.708 1.665 2.188 0 4.357-.953 5.839-2.787l69.543-86.1h33.846z"/><path d="m403.277 276.689c-3.223-2.602-7.945-2.099-10.548 1.122l-18.104 22.415c-2.603 3.223-2.101 7.946 1.122 10.548 1.388 1.12 3.053 1.665 4.708 1.665 2.188 0 4.357-.953 5.839-2.787l18.104-22.415c2.604-3.222 2.102-7.945-1.121-10.548z"/><path d="m411.297 266.794c1.388 1.12 3.053 1.665 4.708 1.665 2.188 0 4.357-.953 5.839-2.787l6.189-7.663c2.603-3.223 2.101-7.946-1.122-10.549-3.223-2.602-7.944-2.1-10.548 1.122l-6.189 7.663c-2.602 3.224-2.1 7.946 1.123 10.549z"/><path d="m174.793 299.104c-3.222-2.601-7.944-2.099-10.548 1.122l-18.103 22.414c-2.603 3.223-2.101 7.945 1.122 10.549 1.387 1.12 3.053 1.665 4.708 1.665 2.188 0 4.357-.953 5.839-2.787l18.103-22.414c2.604-3.223 2.102-7.945-1.121-10.549z"/><path d="m139.244 343.086c-3.222-2.604-7.945-2.102-10.548 1.121l-6.189 7.662c-2.603 3.223-2.101 7.945 1.122 10.548 1.388 1.121 3.053 1.666 4.709 1.666 2.188 0 4.357-.953 5.839-2.787l6.189-7.662c2.603-3.223 2.101-7.945-1.122-10.548z"/><path d="m87.279 32.37c-15.271 0-27.695 12.424-27.695 27.694 0 15.272 12.424 27.696 27.695 27.696s27.695-12.424 27.695-27.696c-.001-15.271-12.424-27.694-27.695-27.694zm0 40.388c-7 0-12.694-5.695-12.694-12.694s5.695-12.693 12.694-12.693c7 0 12.694 5.694 12.694 12.693s-5.695 12.694-12.694 12.694z"/><path d="m424.608 32.37c-15.271 0-27.695 12.424-27.695 27.694 0 15.272 12.424 27.696 27.695 27.696s27.695-12.424 27.695-27.696c.001-15.271-12.424-27.694-27.695-27.694zm0 40.388c-7 0-12.694-5.695-12.694-12.694s5.694-12.693 12.694-12.693 12.694 5.694 12.694 12.693-5.694 12.694-12.694 12.694z"/><path d="m361.968 32.37h-23.709c-4.142 0-7.501 3.358-7.501 7.5 0 4.143 3.358 7.5 7.501 7.5h23.709c.253 0 .46.206.46.459v24.469c0 .254-.206.46-.46.46h-212.05c-.253 0-.459-.206-.459-.46v-24.468c0-.253.206-.459.459-.459h153.654c4.142 0 7.501-3.357 7.501-7.5s-3.358-7.5-7.501-7.5h-153.654c-8.525 0-15.461 6.935-15.461 15.46v24.469c0 8.525 6.936 15.461 15.461 15.461h212.05c8.525 0 15.461-6.936 15.461-15.461v-24.47c0-8.525-6.936-15.46-15.461-15.46z"/></g></svg>