<svg fill="#3E7FCA" id="_x30_10-pc_1" enable-background="new 0 0 512 512" height="512" viewBox="0 0 512 512" width="512" xmlns="http://www.w3.org/2000/svg"><path d="m284.918 367.704h-212.783c-10.194 0-18.486 8.293-18.486 18.486v66.536c0 10.193 8.292 18.486 18.486 18.486h212.784c10.194 0 18.486-8.293 18.486-18.486v-66.536c-.001-10.193-8.293-18.486-18.487-18.486zm3.913 85.022c0 2.121-1.792 3.913-3.913 3.913h-212.783c-2.12 0-3.913-1.792-3.913-3.913v-66.536c0-2.121 1.792-3.913 3.913-3.913h212.784c2.121 0 3.913 1.792 3.913 3.913v66.536zm-188.698-64.27h-11.858c-4.025 0-7.287 3.262-7.287 7.287 0 4.024 3.262 7.287 7.287 7.287h11.858c4.025 0 7.287-3.262 7.287-7.287-.001-4.025-3.263-7.287-7.287-7.287zm30.303 14.573h11.858c4.025 0 7.287-3.262 7.287-7.287 0-4.024-3.262-7.287-7.287-7.287h-11.858c-4.025 0-7.287 3.262-7.287 7.287.001 4.025 3.263 7.287 7.287 7.287zm42.162 0h11.858c4.025 0 7.287-3.262 7.287-7.287 0-4.024-3.262-7.287-7.287-7.287h-11.858c-4.025 0-7.287 3.262-7.287 7.287s3.262 7.287 7.287 7.287zm54.02-14.573h-11.859c-4.025 0-7.287 3.262-7.287 7.287 0 4.024 3.262 7.287 7.287 7.287h11.859c4.025 0 7.287-3.262 7.287-7.287-.001-4.025-3.263-7.287-7.287-7.287zm42.161 0h-11.858c-4.025 0-7.287 3.262-7.287 7.287 0 4.024 3.262 7.287 7.287 7.287h11.858c4.025 0 7.287-3.262 7.287-7.287-.001-4.025-3.262-7.287-7.287-7.287zm-168.646 23.716h-11.858c-4.025 0-7.287 3.262-7.287 7.287s3.262 7.287 7.287 7.287h11.858c4.025 0 7.287-3.262 7.287-7.287s-3.263-7.287-7.287-7.287zm30.303 14.573h11.858c4.025 0 7.287-3.262 7.287-7.287s-3.262-7.287-7.287-7.287h-11.858c-4.025 0-7.287 3.262-7.287 7.287s3.263 7.287 7.287 7.287zm42.162 0h11.858c4.025 0 7.287-3.262 7.287-7.287s-3.262-7.287-7.287-7.287h-11.858c-4.025 0-7.287 3.262-7.287 7.287s3.262 7.287 7.287 7.287zm54.02-14.573h-11.859c-4.025 0-7.287 3.262-7.287 7.287s3.262 7.287 7.287 7.287h11.859c4.025 0 7.287-3.262 7.287-7.287s-3.263-7.287-7.287-7.287zm42.161 0h-11.858c-4.025 0-7.287 3.262-7.287 7.287s3.262 7.287 7.287 7.287h11.858c4.025 0 7.287-3.262 7.287-7.287s-3.262-7.287-7.287-7.287zm-168.646 23.716h-11.858c-4.025 0-7.287 3.262-7.287 7.287s3.262 7.287 7.287 7.287h11.858c4.025 0 7.287-3.262 7.287-7.287s-3.263-7.287-7.287-7.287zm168.646 0h-11.858c-4.025 0-7.287 3.262-7.287 7.287s3.262 7.287 7.287 7.287h11.858c4.025 0 7.287-3.262 7.287-7.287s-3.262-7.287-7.287-7.287zm-42.161 0h-96.181c-4.025 0-7.287 3.262-7.287 7.287s3.262 7.287 7.287 7.287h96.181c4.025 0 7.287-3.262 7.287-7.287s-3.263-7.287-7.287-7.287zm168.78-66.003c-18.889 0-34.257 15.368-34.257 34.257v30.304c0 18.889 15.368 34.257 34.257 34.257s34.257-15.368 34.257-34.257v-30.304c.001-18.889-15.368-34.257-34.257-34.257zm19.685 64.56c0 10.853-8.83 19.684-19.684 19.684s-19.684-8.83-19.684-19.684v-30.304c0-10.853 8.83-19.684 19.684-19.684s19.684 8.83 19.684 19.684zm-19.382-43.584c-4.025 0-7.287 3.262-7.287 7.287v5.692c0 4.024 3.262 7.287 7.287 7.287s7.287-3.262 7.287-7.287v-5.692c0-4.025-3.262-7.287-7.287-7.287zm-90.978-332.289h-274.709c-16.55 0-30.014 13.465-30.014 30.014v171.169c0 16.55 13.464 30.014 30.014 30.014h130.068v30.997h-64.677c-4.025 0-7.287 3.262-7.287 7.287 0 4.024 3.262 7.286 7.287 7.286h143.927c4.025 0 7.287-3.262 7.287-7.286s-3.262-7.287-7.287-7.287h-64.676v-30.996h130.067c16.55 0 30.014-13.464 30.014-30.014v-171.17c0-16.549-13.464-30.014-30.014-30.014zm0 216.625h-274.709c-8.032 0-15.441-6.259-15.441-15.947h305.591c0 9.62-7.362 15.947-15.441 15.947zm15.441-30.52h-305.591v-156.091c0-8.514 6.927-15.441 15.441-15.441h274.709c8.514 0 15.441 6.927 15.441 15.441zm172.692-203.889h-109.357c-10.556 0-19.144 8.588-19.144 19.145v256.263c0 10.556 8.588 19.145 19.144 19.145h109.357c10.556 0 19.144-8.588 19.144-19.145v-256.263c0-10.557-8.588-19.145-19.144-19.145zm4.571 275.407c0 2.478-2.093 4.572-4.571 4.572h-109.357c-2.478 0-4.571-2.093-4.571-4.572v-183.758h118.499zm0-198.331h-118.499v-17.707h118.499zm0-32.28h-118.499v-25.651c0-2.478 2.093-4.572 4.571-4.572h109.357c2.478 0 4.571 2.093 4.571 4.572zm-59.25 213.426c12.319 0 22.342-10.022 22.342-22.342 0-12.319-10.023-22.341-22.342-22.341s-22.342 10.022-22.342 22.341c.001 12.32 10.024 22.342 22.342 22.342zm0-30.109c4.284 0 7.768 3.485 7.768 7.768 0 4.284-3.485 7.768-7.768 7.768-4.284 0-7.769-3.485-7.769-7.768.001-4.283 3.486-7.768 7.769-7.768zm.001-27.806c5.094 0 9.223-4.129 9.223-9.223s-4.129-9.223-9.223-9.223-9.223 4.129-9.223 9.223 4.129 9.223 9.223 9.223z"/></svg>