<?xml version="1.0"?>
<svg fill="#3E7FCA" xmlns="http://www.w3.org/2000/svg" viewBox="0 0 64 64" width="512" height="512"><g id="Outline"><g><path d="M40,60H4V8H18v7a1,1,0,0,0,1,1H35a1,1,0,0,0,1-1V11a1,1,0,0,0-2,0v3H20V8H50V18H7a1,1,0,0,0,0,2H50V33a1,1,0,0,0,2,0V7a1,1,0,0,0-1-1H3A1,1,0,0,0,2,7V61a1,1,0,0,0,1,1H40a1,1,0,0,0,0-2Z"/><path d="M42.753,33.624a17,17,0,1,0-3,17.612,1,1,0,0,0-1.5-1.322A15,15,0,1,1,40.9,34.376a1,1,0,0,0,1.854-.752Z"/><path d="M16.412,32.475a13.019,13.019,0,1,0,3.063-3.064,1,1,0,1,0,1.159,1.629,11.035,11.035,0,1,1-2.593,2.595,1,1,0,1,0-1.629-1.16Z"/><path d="M27,33a7.008,7.008,0,0,1,7,7,1,1,0,0,0,2,0,9.01,9.01,0,0,0-9-9,1,1,0,0,0,0,2Z"/><path d="M19,39a1,1,0,0,0-1,1,9.01,9.01,0,0,0,9,9,1,1,0,0,0,0-2,7.008,7.008,0,0,1-7-7A1,1,0,0,0,19,39Z"/><path d="M27,37a3,3,0,0,1,3,3,1,1,0,0,0,2,0,5.006,5.006,0,0,0-5-5,1,1,0,0,0,0,2Z"/><path d="M24,40a1,1,0,0,0-2,0,5.006,5.006,0,0,0,5,5,1,1,0,0,0,0-2A3,3,0,0,1,24,40Z"/><path d="M14,13a3,3,0,1,0-3,3A3,3,0,0,0,14,13Zm-4,0a1,1,0,1,1,1,1A1,1,0,0,1,10,13Z"/><circle cx="39" cy="15" r="1"/><circle cx="43" cy="15" r="1"/><circle cx="39" cy="11" r="1"/><circle cx="31" cy="11" r="1"/><circle cx="43" cy="11" r="1"/><circle cx="47" cy="15" r="1"/><path d="M61,43a1,1,0,0,0,1-1V39a3,3,0,0,0-3-3H45a3,3,0,0,0-3,3V59a3,3,0,0,0,3,3H59a3,3,0,0,0,3-3V46a1,1,0,0,0-2,0V59a1,1,0,0,1-1,1H45a1,1,0,0,1-1-1V39a1,1,0,0,1,1-1H59a1,1,0,0,1,1,1v3A1,1,0,0,0,61,43Z"/><path d="M49,57a1,1,0,0,0,1,1h4a1,1,0,0,0,0-2H50A1,1,0,0,0,49,57Z"/><path d="M54.828,48.172a4.093,4.093,0,0,0-5.656,0,1,1,0,0,0,1.414,1.414,2.047,2.047,0,0,1,2.828,0,1,1,0,0,0,1.414-1.414Z"/><path d="M56.95,47.05a1,1,0,0,0,.707-1.707,8.01,8.01,0,0,0-11.314,0,1,1,0,0,0,1.414,1.414,6.007,6.007,0,0,1,8.486,0A1,1,0,0,0,56.95,47.05Z"/><circle cx="52" cy="52" r="1"/><path d="M23,10a1,1,0,0,0,0,2h4a1,1,0,0,0,0-2Z"/></g></g></svg>
