<svg fill="#3E7FCA" id="Capa_1"  enable-background="new 0 0 512 512" height="512" viewBox="0 0 512 512" width="512" xmlns="http://www.w3.org/2000/svg"><g><g><path d="m274.764 78.211v202.033c0 4.142 3.358 7.5 7.5 7.5s7.5-3.358 7.5-7.5v-202.033c0-4.142-3.358-7.5-7.5-7.5s-7.5 3.358-7.5 7.5z"/><path d="m338.833 257.439h70.711c4.142 0 7.5-3.358 7.5-7.5v-80.813c0-4.142-3.358-7.5-7.5-7.5h-70.711c-4.142 0-7.5 3.358-7.5 7.5v80.813c0 4.142 3.358 7.5 7.5 7.5zm7.5-80.813h55.711v65.813h-55.711z"/><path d="m338.833 146.321h70.711c4.142 0 7.5-3.358 7.5-7.5v-70.711c0-4.142-3.358-7.5-7.5-7.5h-70.711c-4.142 0-7.5 3.358-7.5 7.5v70.711c0 4.142 3.358 7.5 7.5 7.5zm7.5-35.356h20.355v20.356h-20.355zm55.712 20.356h-20.356v-20.356h20.356zm0-35.356h-20.356v-20.355h20.356zm-55.712-20.355h20.355v20.355h-20.355z"/><path d="m447.35 280.244v-242.439c0-4.142-3.358-7.5-7.5-7.5h-131.322c-4.142 0-7.5 3.358-7.5 7.5v242.439c0 4.142 3.358 7.5 7.5 7.5h131.322c4.142 0 7.5-3.358 7.5-7.5zm-15-7.5h-116.322v-227.439h116.322z"/><path d="m470.154 106.05c4.142 0 7.5-3.358 7.5-7.5v-91.05c0-4.142-3.358-7.5-7.5-7.5h-428.308c-4.142 0-7.5 3.358-7.5 7.5v292.706c0 4.142 3.358 7.5 7.5 7.5s7.5-3.358 7.5-7.5v-285.206h199.154v451.695h-199.154v-131.374c0-4.142-3.358-7.5-7.5-7.5s-7.5 3.358-7.5 7.5v138.874c0 4.142 3.358 7.5 7.5 7.5h4.622v22.805c0 4.142 3.358 7.5 7.5 7.5h50.508c3.228 0 6.094-2.066 7.115-5.128l8.392-25.176h272.034l8.392 25.176c1.021 3.063 3.887 5.128 7.115 5.128h50.508c4.142 0 7.5-3.358 7.5-7.5v-22.805h4.622c4.142 0 7.5-3.358 7.5-7.5v-340.624c0-4.142-3.358-7.5-7.5-7.5s-7.5 3.358-7.5 7.5v333.124h-199.154v-451.695h199.154v83.55c0 4.142 3.358 7.5 7.5 7.5zm-19.621 390.95h-37.603l-5.102-15.305h42.704v15.305zm-351.463 0h-37.603v-15.305h42.704z"/><path d="m189.329 287.744c4.142 0 7.5-3.358 7.5-7.5v-90.915c0-26.416-21.491-47.906-47.906-47.906-26.416 0-47.907 21.491-47.907 47.906v90.915c0 4.142 3.358 7.5 7.5 7.5zm-7.5-15h-65.813v-15.305h65.813zm-65.813-83.415c0-18.145 14.762-32.906 32.907-32.906s32.906 14.762 32.906 32.906v53.11h-65.813z"/><path d="m159.024 180.819h-20.203c-4.142 0-7.5 3.358-7.5 7.5s3.358 7.5 7.5 7.5h2.602v12.703c0 4.142 3.358 7.5 7.5 7.5s7.5-3.358 7.5-7.5v-12.703h2.602c4.142 0 7.5-3.358 7.5-7.5s-3.358-7.5-7.501-7.5z"/><path d="m237.236 280.244v-202.033c0-4.142-3.358-7.5-7.5-7.5s-7.5 3.358-7.5 7.5v202.033c0 4.142 3.358 7.5 7.5 7.5s7.5-3.358 7.5-7.5z"/><path d="m312.569 325.272c-4.142 0-7.5 3.358-7.5 7.5s3.358 7.5 7.5 7.5h101.016c4.142 0 7.5-3.358 7.5-7.5s-3.358-7.5-7.5-7.5z"/><path d="m90.915 332.772c0 4.142 3.358 7.5 7.5 7.5h101.016c4.142 0 7.5-3.358 7.5-7.5s-3.358-7.5-7.5-7.5h-101.016c-4.143 0-7.5 3.358-7.5 7.5z"/></g></g></svg>