<svg height="512" viewBox="0 0 96 96" width="512" xmlns="http://www.w3.org/2000/svg"><g id="TV_with_Remote" data-name="TV with Remote"><path d="m92.25 22.66h-20.35l-4.9-4a5.78 5.78 0 0 0 -3.65-1.3h-12.94l10-10a1 1 0 0 0 0-1.42 1 1 0 0 0 -1.41 0l-11 11-11-11a1 1 0 0 0 -1.41 0 1 1 0 0 0 0 1.42l10 10h-12.94a5.78 5.78 0 0 0 -3.65 1.27l-4.9 4h-20.35a3.5 3.5 0 0 0 -3.5 3.5v47.87a3.5 3.5 0 0 0 3.5 3.5h30.46v4.47h-18a3.91 3.91 0 0 0 -3.91 3.91v1.4a1 1 0 0 0 1 1h40l.29.29a6.34 6.34 0 0 0 9 0l.29-.29h19.86a1 1 0 0 0 1-1v-1.4a3.91 3.91 0 0 0 -3.91-3.91h-10.69l4.48-4.47h18.63a3.5 3.5 0 0 0 3.5-3.5v-47.84a3.5 3.5 0 0 0 -3.5-3.5zm-62-2.48a3.75 3.75 0 0 1 2.38-.85h30.7a3.75 3.75 0 0 1 2.38.85l3 2.48h-41.46zm-16 66.06v-.4a1.92 1.92 0 0 1 1.91-1.91h32.78l2.32 2.31zm33-4.31h-11.04v-4.47h10.44a6.3 6.3 0 0 0 .65 4.47zm32.53 2a1.92 1.92 0 0 1 1.91 1.91v.4h-16.86l2.31-2.31zm-17.78 2.31a6 6 0 0 1 -2.81 2 4.35 4.35 0 0 1 -2.32 0c-1.42-.4-1.48-.68-7.11-6.31a4.34 4.34 0 0 1 -1.06-4.47 4.57 4.57 0 0 1 1.35-2c21.73-21.72 20.26-20.46 20.77-20.46s-.47-.84 10.8 10.47a.8.8 0 0 1 0 1.13zm21-22.16-2.23-2.22a4.11 4.11 0 0 0 -5.77-5.79l-2.2-2.22a2.86 2.86 0 0 0 -4 0l-17.17 17.21h-45v-42h82.7v42h-9.33l3-3a2.81 2.81 0 0 0 0-3.98zm-3.65-3.65-2.9-2.93a2.12 2.12 0 0 1 2.94 2.93zm14.4 13.57a1.5 1.5 0 0 1 -1.5 1.5h-16.63l2.4-2.4h12.33a1 1 0 0 0 1-1v-44a1 1 0 0 0 -1-1h-84.7a1 1 0 0 0 -1 1v44a1 1 0 0 0 1 1h44a13.19 13.19 0 0 0 -2.16 2.4h-43.74a1.5 1.5 0 0 1 -1.5-1.5v-47.84a1.5 1.5 0 0 1 1.5-1.5h88.5a1.5 1.5 0 0 1 1.5 1.5z"/><path d="m64.18 75.46a5.8 5.8 0 1 0 -2.4 7.54 5.8 5.8 0 0 0 2.4-7.54zm-2.39 5a3.68 3.68 0 0 1 -2 1.19 3.8 3.8 0 1 1 2-1.19z"/><path d="m77.28 66.18-.4-.4a1 1 0 0 0 -1.41 1.41l.39.4a1 1 0 0 0 1.42 0 1 1 0 0 0 0-1.41z"/><path d="m73.79 62.69a1 1 0 0 0 -1.41 0 1 1 0 0 0 0 1.42c.47.46.64.69 1.1.69a1 1 0 0 0 .71-1.71z"/><path d="m70.71 59.61a1 1 0 1 0 -1.42 1.39c.45.45.62.69 1.11.69a1 1 0 0 0 .7-1.69z"/><path d="m73.69 69a1 1 0 0 0 -1.42 1.42c.46.45.69.77 1.3.67a1 1 0 0 0 .51-1.69z"/><path d="m70.6 65.88a1 1 0 0 0 -1.41 0 1 1 0 0 0 0 1.42c.43.44.62.69 1.1.69a1 1 0 0 0 .71-1.71z"/><path d="m67.51 62.8a1 1 0 0 0 -1.41 1.41c.42.42.62.69 1.1.69a1 1 0 0 0 .71-1.7z"/><path d="m70.89 72.56-.39-.4a1 1 0 0 0 -1.42 1.42c.43.43.62.69 1.11.69a1 1 0 0 0 .7-1.71z"/><path d="m67.41 69.08a1 1 0 0 0 -1.41 0 1 1 0 0 0 0 1.41c.36.37.45.49.63.57a1 1 0 0 0 .94 0 1 1 0 0 0 .24-1.59z"/><path d="m64.32 66a1 1 0 1 0 -1.41 1.41c.46.45.62.69 1.1.69a1 1 0 0 0 .71-1.7z"/></g></svg>