<svg id="Layer_1" enable-background="new 0 0 472 472" height="512" viewBox="0 0 472 472" width="512" xmlns="http://www.w3.org/2000/svg"><g><g><path d="m113.37 336.891c-18.54 0-33.623 15.13-33.623 33.727s15.083 33.727 33.623 33.727 33.624-15.13 33.624-33.727-15.084-33.727-33.624-33.727zm-23.623 33.727c0-11.36 7.992-20.876 18.623-23.187v46.374c-10.631-2.311-18.623-11.828-18.623-23.187zm28.623 23.187v-46.375c10.632 2.311 18.624 11.827 18.624 23.187s-7.992 20.877-18.624 23.188z"/><g><g><g><path d="m425.238 308.397h-28.588c-2.762 0-5-2.239-5-5s2.238-5 5-5h28.588c2.762 0 5 2.239 5 5s-2.238 5-5 5z"/></g><g><path d="m425.238 269.712h-28.588c-2.762 0-5-2.239-5-5s2.238-5 5-5h28.588c2.762 0 5 2.239 5 5s-2.238 5-5 5z"/></g><g><path d="m425.238 347.083h-28.588c-2.762 0-5-2.239-5-5s2.238-5 5-5h28.588c2.762 0 5 2.239 5 5s-2.238 5-5 5z"/></g><g><path d="m410.944 408.712c-10.666 0-19.343-8.441-19.343-18.816s8.677-18.816 19.343-18.816 19.343 8.441 19.343 18.816-8.677 18.816-19.343 18.816zm0-27.633c-5.151 0-9.343 3.955-9.343 8.816s4.191 8.816 9.343 8.816 9.343-3.955 9.343-8.816-4.191-8.816-9.343-8.816z"/></g></g><g><path d="m344.53 410.494h-145.47c-2.762 0-5-2.239-5-5v-142.564c0-2.761 2.238-5 5-5h145.47c2.762 0 5 2.239 5 5v142.564c0 2.761-2.238 5-5 5zm-140.47-10h135.47v-132.564h-135.47z"/></g><path d="m437 227.93h-251.304l6.378-53.489h16.879c7.863 0 14.238 7.182 13.387 15.006-.299 2.746 1.685 5.213 4.43 5.512.184.02.366.03.547.03 2.52 0 4.687-1.898 4.965-4.459 1.484-13.64-9.578-26.088-23.328-26.088h-15.686l3.036-25.464h2.435c2.762 0 5-2.239 5-5s-2.238-5-5-5h-5.414c-.709-20.817-17.853-37.536-38.84-37.536h-22.758c3.068-4.116 4.896-9.206 4.896-14.72 0-8.255-4.076-15.572-10.32-20.064v-15.927h64.57c1.586 7.165 7.979 12.543 15.614 12.543h54.027c7.635 0 14.028-5.379 15.614-12.543h69.57v122.199c0 2.761 2.238 5 5 5s5-2.239 5-5v-127.199c0-2.761-2.238-5-5-5h-74.184v-20.731h70.986c13.785 0 25 11.215 25 25v157.93c0 2.761 2.238 5 5 5s5-2.239 5-5v-157.93c0-19.299-15.701-35-35-35h-223c-19.299 0-35 15.701-35 35v31.147c-1.526 3.208-2.384 6.792-2.384 10.573 0 5.514 1.828 10.604 4.896 14.72h-19.724c-20.986 0-38.13 16.719-38.839 37.536h-8.449c-2.762 0-5 2.239-5 5 0 2.533 1.891 4.605 4.335 4.933l8.296 18.46 15.152 127.07c1.038 8.696 5.424 16.253 11.759 21.461-5.909 3.006-10.446 8.454-12.146 15.245l-21.906 87.48c-3.261 13.023 5.598 26.748 18.888 28.946v29.429c0 2.761 2.238 5 5 5h37.428c2.762 0 5-2.239 5-5v-29.108h50.544c2.762 0 5-2.239 5-5s-2.238-5-5-5h-94.1c-8.594 0-15.147-8.5-13.059-16.837l21.906-87.48c1.508-6.024 6.879-10.231 13.06-10.231h68.582c2.762 0 5-2.239 5-5s-2.238-5-5-5h-58.487c-11.483 0-21.173-8.637-22.539-20.089l-7.282-61.071h125.88l-.736 6.171c-6.593 1.577-11.515 7.505-11.515 14.575v182.564c0 8.271 6.729 15 15 15h25.217v26.506c0 2.761 2.238 5 5 5h31.507c2.762 0 5-2.239 5-5v-26.506h124.493v26.506c0 2.761 2.238 5 5 5h31.507c2.762 0 5-2.239 5-5v-26.506h25.216c8.271 0 15-6.729 15-15v-182.564c0-8.271-6.729-15-15-15zm-236.514-217.93h66.027v27.275c0 3.309-2.691 6-6 6h-54.027c-3.309 0-6-2.691-6-6zm-146.109 427.892h27.428v24.108h-27.428zm45.123-402.892c0-13.785 11.215-25 25-25h65.986v20.731h-69.184c-2.762 0-5 2.239-5 5v16.674c-5.747-1.043-11.747-.01-16.803 2.917v-20.322zm12.369 27c8.136 0 14.754 6.604 14.754 14.72s-6.618 14.72-14.754 14.72c-8.135 0-14.753-6.604-14.753-14.72s6.618-14.72 14.753-14.72zm-39.581 39.44h82.196c15.472 0 28.138 12.234 28.84 27.536h-139.875c.702-15.302 13.367-27.536 28.839-27.536zm-23.05 110.744-6.768-56.758c-.061-.504-.196-.995-.404-1.458l-6.737-14.992h150.904l-8.729 73.208zm186.545 249.816h-21.507v-21.506h21.507zm133.747-31.506h-190.47c-2.757 0-5-2.243-5-5v-182.564c0-2.757 2.243-5 5-5h190.47zm32.253 31.506h-21.507v-21.506h21.507zm40.217-36.506c0 2.757-2.243 5-5 5h-57.47v-192.564h57.47c2.757 0 5 2.243 5 5z"/></g></g><g><g><path d="m437.678 136.788c-2.762 0-5-2.239-5-5v-6.643c0-2.761 2.238-5 5-5s5 2.239 5 5v6.643c0 2.761-2.239 5-5 5z"/></g><g><path d="m437.678 168.781c-2.762 0-5-2.239-5-5v-5.643c0-2.761 2.238-5 5-5s5 2.239 5 5v5.643c0 2.761-2.239 5-5 5z"/></g><g><path d="m457 149.463h-5.645c-2.762 0-5-2.239-5-5s2.238-5 5-5h5.645c2.762 0 5 2.239 5 5s-2.238 5-5 5z"/></g><g><path d="m424 149.463h-5.645c-2.762 0-5-2.239-5-5s2.238-5 5-5h5.645c2.762 0 5 2.239 5 5s-2.238 5-5 5z"/></g></g><g><g><path d="m34.322 16.788c-2.762 0-5-2.239-5-5v-6.643c0-2.761 2.238-5 5-5s5 2.239 5 5v6.643c0 2.761-2.238 5-5 5z"/></g><g><path d="m34.322 48.781c-2.762 0-5-2.239-5-5v-5.643c0-2.761 2.238-5 5-5s5 2.239 5 5v5.643c0 2.761-2.238 5-5 5z"/></g><g><path d="m53.645 29.463h-5.645c-2.762 0-5-2.239-5-5s2.238-5 5-5h5.645c2.762 0 5 2.239 5 5s-2.239 5-5 5z"/></g><g><path d="m20.645 29.463h-5.645c-2.762 0-5-2.239-5-5s2.238-5 5-5h5.645c2.762 0 5 2.239 5 5s-2.239 5-5 5z"/></g></g><g><ellipse cx="350.697" cy="191.185" rx="6.458" ry="6.452"/></g><g><ellipse cx="224.697" cy="213.185" rx="6.458" ry="6.452"/></g></g></svg>