<svg height="512" viewBox="0 0 64 64" width="512" xmlns="http://www.w3.org/2000/svg"><g id="Layer_18" data-name="Layer 18"><path d="m35 12h-26a5 5 0 0 0 -5 5v26a5 5 0 0 0 3 4.58v1.42a3 3 0 0 0 3 3h4a3 3 0 0 0 3-3v-1h9v1a3 3 0 0 0 3 3h4a3 3 0 0 0 3-3v-1.1a5 5 0 0 0 4-4.9v-26a5 5 0 0 0 -5-5zm-26 2h26a3 3 0 0 1 3 3v4a4.92 4.92 0 0 0 -3-1h-26a4.92 4.92 0 0 0 -3 1v-4a3 3 0 0 1 3-3zm29 17a3 3 0 0 1 -3 3h-12v-12h12a3 3 0 0 1 3 3zm-29 3a3 3 0 0 1 -3-3v-6a3 3 0 0 1 3-3h12v12zm6 15a1 1 0 0 1 -1 1h-4a1 1 0 0 1 -1-1v-1h6zm19 0a1 1 0 0 1 -1 1h-4a1 1 0 0 1 -1-1v-1h6zm1-3h-26a3 3 0 0 1 -3-3v-8a4.92 4.92 0 0 0 3 1h26a4.92 4.92 0 0 0 3-1v8a3 3 0 0 1 -3 3z"/><path d="m32.74 38.31-3.16.46a3 3 0 0 0 -2.58 3v.23a2 2 0 0 0 2 2h4.14a2.86 2.86 0 1 0 -.4-5.69zm.4 3.69h-4.14v-.27a1 1 0 0 1 .86-1l3.14-.44a.9.9 0 0 1 .68.2.86.86 0 0 1 .3.65.85.85 0 0 1 -.84.86z"/><path d="m24 40h-4a1 1 0 0 0 0 2h4a1 1 0 0 0 0-2z"/><path d="m59 50h-15v-2h15a1 1 0 0 0 0-2h-5v-3a3 3 0 0 0 -2-2.82v-10.27a6 6 0 1 0 -2 0v10.27a3 3 0 0 0 -2 2.82v3h-5a1 1 0 0 0 -1 1v4a1 1 0 0 0 1 1h16a1 1 0 0 0 0-2zm-12-26a4 4 0 1 1 4 4 4 4 0 0 1 -4-4zm3 19a1 1 0 0 1 2 0v3h-2z"/><path d="m13 18h18a1 1 0 0 0 0-2h-18a1 1 0 0 0 0 2z"/><path d="m14.42 38.77-3.16-.46a2.86 2.86 0 1 0 -.4 5.69h4.14a2 2 0 0 0 2-2v-.27a3 3 0 0 0 -2.58-2.96zm-3.56 3.23a.85.85 0 0 1 -.86-.86.86.86 0 0 1 .3-.65.9.9 0 0 1 .68-.2l3.16.45a1 1 0 0 1 .86 1v.26z"/></g></svg>