<?xml version="1.0" encoding="UTF-8"?>
<svg xmlns="http://www.w3.org/2000/svg" id="Layer_3" data-name="Layer 3" viewBox="0 0 64 64" width="512" height="512"><path d="M27,15v4a1,1,0,0,0,1,1h8a1,1,0,0,0,1-1V15h2a1,1,0,0,0,1-1V11.414A4.415,4.415,0,0,0,35.586,7H34a1,1,0,0,0-1,1,1,1,0,0,1-2,0,1,1,0,0,0-1-1H28.414A4.415,4.415,0,0,0,24,11.414V14a1,1,0,0,0,1,1Zm-1-3.586A2.414,2.414,0,0,1,28.414,9h.757a3,3,0,0,0,5.658,0h.757A2.414,2.414,0,0,1,38,11.414V13H36a1,1,0,0,0-1,1v4H29V14a1,1,0,0,0-1-1H26Z"/><path d="M62,29a1,1,0,0,0,1-1V20a.984.984,0,0,0-.357-.75l.008-.009-7-6A1,1,0,0,0,55,13H44a12,12,0,0,0-24,0H9a1,1,0,0,0-.651.241l-7,6,.008.009A.984.984,0,0,0,1,20v8a1,1,0,0,0,1,1H3V57H2a1,1,0,0,0-1,1v4a1,1,0,0,0,1,1H62a1,1,0,0,0,1-1V58a1,1,0,0,0-1-1H61V29Zm-1-2H3V21H23.081a11.944,11.944,0,0,0,17.838,0H61ZM54.63,15,59.3,19H42.376a11.887,11.887,0,0,0,1.443-4ZM32,3A10,10,0,1,1,22,13,10.011,10.011,0,0,1,32,3ZM9.37,15H20.181a11.887,11.887,0,0,0,1.443,4H4.7ZM61,61H3V59H61ZM23,57H9V41H23Zm36,0H25V40a1,1,0,0,0-1-1H8a1,1,0,0,0-1,1V57H5V29H59Z"/><path d="M8,37H24a1,1,0,0,0,1-1V32a1,1,0,0,0-1-1H8a1,1,0,0,0-1,1v4A1,1,0,0,0,8,37Zm1-4H23v2H9Z"/><path d="M28,55H56a1,1,0,0,0,1-1V32a1,1,0,0,0-1-1H28a1,1,0,0,0-1,1V54A1,1,0,0,0,28,55Zm1-2V37h8.382l-1.033,2.066A4.991,4.991,0,0,0,32,44v2a1,1,0,0,0,1,1h2v4a1,1,0,0,0,1,1H48a1,1,0,0,0,1-1V47h2a1,1,0,0,0,1-1V44a4.991,4.991,0,0,0-4.349-4.934L46.618,37H55V53Zm7-8H34V44a3.006,3.006,0,0,1,2.211-2.9,3,3,0,0,0,5.578,0A3.006,3.006,0,0,1,44,44v1H42a1,1,0,0,0-1,1v4H37V46A1,1,0,0,0,36,45Zm3.966-4.832a.977.977,0,0,1-1.932,0L39,38.236Zm5,.821a4.967,4.967,0,0,0-.89-.9L45,38.236l.975,1.95A1.044,1.044,0,0,1,44.965,40.989ZM43,47h2a1,1,0,0,0,1-1V44a4.943,4.943,0,0,0-.14-1.129,3.011,3.011,0,0,0,1.929-1.766A3.006,3.006,0,0,1,50,44v1H48a1,1,0,0,0-1,1v4H43Zm-.713-7.811a4.765,4.765,0,0,0-.636-.123L40.618,37h2.764ZM55,33v2H29V33Z"/><rect x="11" y="47" width="2" height="4"/></svg>
