<svg id="svg8" enable-background="new 0 0 512 512" height="512" viewBox="0 0 512 512" width="512" xmlns="http://www.w3.org/2000/svg" xmlns:svg="http://www.w3.org/2000/svg"><g id="layer1" transform="translate(0 -161.533)"><path id="path5034" clip-rule="evenodd" d="m364.627 199.422c-62.141.002-112.784 50.199-112.786 111.972-.001.087-.001.175 0 .262.942 34.309 18.295 70.346 39.987 104.945 21.693 34.6 48.113 67.738 68.499 94.583 3.288 4.33 9.463 5.175 13.793 1.887.712-.54 1.346-1.175 1.887-1.887 10.722-14.188 22.392-29.448 33.843-45.413 5.726-7.983 11.367-16.166 16.86-24.456 3.142-4.437 2.091-10.581-2.346-13.723s-10.581-2.091-13.723 2.346c-.115.163-.225.329-.33.498-5.327 8.039-10.837 16.016-16.454 23.846-8.57 11.949-17.139 23.174-25.582 34.344-19.216-25.101-41.239-53.002-59.723-82.483-20.849-33.255-36.177-67.11-36.975-94.895.079-50.971 41.52-92.126 93.05-92.127 51.593-.008 93.156 41.222 93.158 92.277 0 29.271-13.195 62.181-32.255 94.745-2.962 4.559-1.666 10.656 2.893 13.618s10.656 1.666 13.618-2.893c.165-.254.318-.514.458-.782 19.939-34.064 34.99-69.644 34.968-104.688-.002-61.78-50.691-111.967-112.84-111.958zm48.986 90.947c-8.339-20.183-27.931-32.486-48.559-32.689h-.017c-6.877-.079-13.877 1.207-20.604 3.988-5.079 1.946-7.619 7.642-5.673 12.721s7.642 7.619 12.721 5.673c.166-.064.331-.132.493-.204 17.077-7.058 36.362.976 43.418 18.054 7.057 17.078-.963 36.361-18.04 43.419s-36.376-.963-43.432-18.04c-3.529-8.54-3.215-17.559.079-25.433 2.258-4.949.077-10.791-4.871-13.049-4.949-2.258-10.791-.077-13.049 4.871-.097.213-.187.43-.269.65-5.188 12.497-5.561 27.033 0 40.489 11.119 26.911 42.185 39.837 69.095 28.715 26.619-11.002 39.514-41.574 29.027-68.282m-335.003 1.884c-4.22-.006-7.973 2.679-9.333 6.673l-34.398 100.321c-.658 1.774-.791 3.7-.383 5.548 1.391 25.655 22.662 46.23 48.574 46.24h.079c13.381-.004 24.822-6.809 33.883-16.209 9.052 9.395 20.514 16.191 33.883 16.209 14.185-.023 26.071-7.59 35.171-17.945 9.104 10.35 20.989 17.929 35.172 17.945 13.217-.011 24.54-6.647 33.571-15.843 8.274 9.162 18.602 16.284 31.944 16.304 5.439.03 9.872-4.355 9.902-9.793.03-5.439-4.355-9.872-9.793-9.902-.01 0-.02 0-.029 0-10.293-.011-17.428-5.284-23.073-15.382-1.036-1.836-2.633-3.291-4.557-4.151h5.479c5.435.139 9.953-4.155 10.092-9.589.139-5.435-4.154-9.953-9.589-10.092-.168-.004-.335-.004-.503 0h-206.677l27.657-80.639h145.339c5.439.013 9.858-4.385 9.871-9.824s-4.385-9.858-9.824-9.871c-.016 0-.032 0-.048 0zm-20.455 120.016h54.907c-1.973.854-3.612 2.331-4.666 4.205-5.15 9.207-14.777 14.844-25.269 14.866-12.196-.004-20.638-8.436-24.972-19.071zm62.856 0h57.62c-.602.696-1.104 1.472-1.491 2.307-4.802 10.258-14.983 16.749-26.247 16.765-10.502-.011-20.116-5.654-25.27-14.866-1.04-1.865-2.659-3.34-4.611-4.205zm72.432 0h57.62c-1.904.87-3.482 2.323-4.503 4.151-5.154 9.222-14.814 14.911-25.324 14.921-11.266-.011-21.443-6.505-26.247-16.765-.404-.838-.924-1.615-1.546-2.307zm-121.548 38.087c-5.434.087-9.77 4.562-9.685 9.997v118.835h-18.148c-5.437-.002-9.846 4.404-9.848 9.84v.007 35.891c.006 5.434 4.414 9.836 9.848 9.834h162.349c5.435.142 9.956-4.149 10.098-9.584s-4.149-9.956-9.584-10.098c-.171-.004-.343-.004-.514 0h-152.515v-16.196h334.205v16.196h-143.127c-5.435-.142-9.956 4.149-10.098 9.584s4.149 9.956 9.584 10.098c.171.005.343.005.514 0h152.976c5.429-.006 9.828-4.405 9.834-9.834v-35.891c.002-5.434-4.4-9.842-9.834-9.848h-20.712v-41.52c.085-5.436-4.253-9.912-9.689-9.997-.103-.002-.205-.002-.308 0-5.436.08-9.778 4.551-9.699 9.987v.009 41.52h-228.949v-93.864h42.198v74.969c-.184 13.311 19.87 13.311 19.682 0v-84.814c-.001-5.436-4.411-9.834-9.848-9.834h-61.879c-5.436.001-9.834 4.398-9.834 9.834v103.711h-27.02v-118.835c.085-5.436-4.253-9.912-9.689-9.997-.103-.001-.205-.001-.308 0zm145.136 15.898c-5.437-.002-9.846 4.404-9.847 9.841v.007 73.355c-.002 5.437 4.404 9.846 9.841 9.848h.007 94.379c5.437.002 9.845-4.404 9.847-9.841 0-.002 0-.004 0-.006v-73.355c.002-5.437-4.404-9.846-9.841-9.848-.002 0-.004 0-.006 0h-53.782c-5.435-.141-9.955 4.15-10.097 9.585-.141 5.435 4.15 9.955 9.585 10.097.171.004.341.004.512 0h43.934v53.687h-74.698v-53.687h3.025c5.435.141 9.955-4.15 10.097-9.585.141-5.435-4.15-9.955-9.585-10.097-.171-.004-.341-.004-.512 0h-12.859z" fill-rule="evenodd"/></g></svg>