<svg fill="#3E7FCA" id="Layer_1" enable-background="new 0 0 52 52" height="512" viewBox="0 0 52 52" width="512" xmlns="http://www.w3.org/2000/svg"><linearGradient id="SVGID_1_" gradientUnits="userSpaceOnUse" x1="-372" x2="-371.293" y1="-248" y2="-247.293"><stop offset="0" stop-color="#dedfe3"/><stop offset=".1783311" stop-color="#dadbdf"/><stop offset=".3611409" stop-color="#cecfd3"/><stop offset=".546043" stop-color="#b9bcbf"/><stop offset=".7323959" stop-color="#9ca0a2"/><stop offset=".9181451" stop-color="#787d7e"/><stop offset="1" stop-color="#656b6c"/></linearGradient><g id="_x31_8"><path d="m49.0981445 48.1091919v-44.3987427c0-.9921875-.8076172-1.7998047-1.7998047-1.7998047h-6.9902344c-.9921875 0-1.7998047.8076172-1.7998047 1.7998047v44.3789063h-4.8641967c.5557251-.8044434.7330933-1.8554077.3798218-2.8427734l-7.3833008-23.8867799c.4223633-.1170044.7387695-.4876099.7387695-.9472046v-5.2099609h.1870117c1.2744141 0 2.3115234-1.0371094 2.3115234-2.3115234v-.6152344h.6782227c2.1089783 0 3.7182617-1.7126398 3.7182617-3.7182617 0-2.050293-1.6679688-3.7182617-3.7182617-3.7182617h-.6782227v-.6152344c0-1.2744141-1.0371094-2.3115234-2.3115234-2.3115234h-18.7172851c-1.2744141 0-2.3110352 1.0371094-2.3110352 2.3115234v8.6669922c0 1.2744141 1.0366211 2.3115234 2.3110352 2.3115234h.8803711v5.2099609c0 .4595947.3164673.8302612.7388306.9472656l-7.3735962 23.859375c-.3658447.9954224-.190979 2.0585327.3695068 2.8701172h-.4642334c-.5522461 0-1 .4477539-1 1s.4477539 1 1 1c.1199503 0 45.2216034 0 45.1054077 0h.8945923c.5522461 0 1-.4477539 1-1 0-.517456-.3980713-.9285888-.9018555-.9801635zm-8.5898437-1.7722778h1.3076172c.5522461 0 1-.4477539 1-1s-.4477539-1-1-1h-1.3076172v-1.8671875h2.2280273c.5522461 0 1-.4477539 1-1s-.4477539-1-1-1h-2.2280273v-1.8671875h1.3076172c.5522461 0 1-.4477539 1-1s-.4477539-1-1-1h-1.3076172v-1.8671875h2.2280273c.5522461 0 1-.4477539 1-1s-.4477539-1-1-1h-2.2280273v-1.8671875h1.3076172c.5522461 0 1-.4477539 1-1s-.4477539-1-1-1h-1.3076172v-1.8676758h2.2280273c.5522461 0 1-.4477539 1-1s-.4477539-1-1-1h-2.2280273v-1.8671875h1.3076172c.5522461 0 1-.4477539 1-1s-.4477539-1-1-1h-1.3076172v-1.8671875h2.2280273c.5522461 0 1-.4477539 1-1s-.4477539-1-1-1h-2.2280273v-1.8671875h1.3076172c.5522461 0 1-.4477539 1-1s-.4477539-1-1-1h-1.3076172v-1.8671875h2.2280273c.5522461 0 1-.4477539 1-1s-.4477539-1-1-1h-2.2280273v-1.8676758h1.3076172c.5522461 0 1-.4477539 1-1s-.4477539-1-1-1h-1.3076172v-1.753418h6.5898438v44.1787109h-6.5898438zm-21.9609375 1.7524414c-.6165314-.0043182-1.1254883-.4994507-1.1254883-1.1308594v-25.5458984h2.2651367v25.5458984c0 .6219482-.5040894 1.126709-1.125061 1.1308594zm3.1396484-1.1308594v-20.1983643l6.4453125 20.6368408c.0924072.2510376.2242432.4779663.3727417.6923828h-7.0375366c.137146-.3518066.2194824-.7311401.2194824-1.1308593zm10.4501953-1.0488281c.2089844.5683594-.0615234 1.1977539-.6044922 1.4321289-.0234375.0068359-.0463867.0141602-.0688477.0229492-.2841797.1074219-.5927734.0957031-.8696289-.0307617-.2744141-.1254883-.4819336-.3481445-.5688477-.5800781l-7.9133911-25.3413086h2.4511719l7.5569458 24.4472656c.0053712.0166015.0112306.0332031.0170899.0498047zm-1.5810547-39.0703125c.9472656 0 1.7182617.7709961 1.7182617 1.7182617 0 .9171152-.7388573 1.7182617-1.7182617 1.7182617h-.6782227v-3.4365234zm-22.0180664 6.0517578v-8.6669922c0-.171875.1396484-.3115234.3110352-.3115234h18.7172852c.171875 0 .3115234.1396484.3115234.3115234 0 .1747251 0 9.1124191 0 8.6669922 0 .171875-.1396484.3115234-.3115234.3115234-3.7604752 0-14.9525585 0-18.7172852 0-.1713867 0-.3110352-.1396484-.3110352-.3115234zm16.8413086 2.3115234v4.2099609c-3.3513184-.0020981-10.2374268-.0006962-13.6499023 0v-4.2099609zm-20.390625 30.6572266 7.5569458-24.4472656h2.4511719l-7.8972778 25.2939453c-.2133856.5784683-.8693156.8794403-1.4545898.6582031-.0209961-.0078011-.0429688-.0151367-.0649414-.0219727-.5454102-.2329101-.8168946-.8652343-.5913087-1.4829101zm4.0039063 1.4897461 6.4291992-20.588501v20.1973877c0 .3939819.078064.7745361.2160645 1.1308594h-7.0406495c.1560059-.2257691.2953492-.4668579.3953858-.7397461z"/><path d="m18.2036133 11.6376953c1.7006836 0 3.0844727-1.3837891 3.0844727-3.0844727 0-1.6962757-1.3837891-3.0761719-3.0844727-3.0761719-1.6962891 0-3.0761719 1.3798962-3.0761719 3.0761719 0 1.7006837 1.3798828 3.0844727 3.0761719 3.0844727zm0-4.1606445c.5981445 0 1.0844727.4829102 1.0844727 1.0761719 0 .5981445-.4863281 1.0844727-1.0844727 1.0844727-.5932617 0-1.0761719-.4863281-1.0761719-1.0844727 0-.5932618.4829102-1.0761719 1.0761719-1.0761719z"/><path d="m18.5541992 18.359375c.5522461 0 1.0522461-.5 1.0522461-1.0522461s-.5-1.0517578-1.0522461-1.0517578-1.0517578.4995117-1.0517578 1.0517578.4995117 1.0522461 1.0517578 1.0522461z"/><path d="m10.9077148 7.4770508h1.2099609c.5522461 0 1-.4477539 1-1s-.4477539-1-1-1h-1.2099609c-.5522461 0-1 .4477539-1 1s.447754 1 1 1z"/><path d="m12.1176758 11.7631836c.5522461 0 1-.4477539 1-1s-.4477539-1-1-1h-1.2099609c-.5522461 0-1 .4477539-1 1s.4477539 1 1 1z"/></g></svg>