<?xml version="1.0"?>
<svg xmlns="http://www.w3.org/2000/svg" viewBox="0 0 64 64" width="512" height="512"><g id="main"><path d="M12.00976,26.00418a2.99791,2.99791,0,1,0-2.99854-2.99791A3.0015,3.0015,0,0,0,12.00976,26.00418Zm0-3.99721a.99931.99931,0,1,1-.99951.9993A1.00039,1.00039,0,0,1,12.00976,22.007Z"/><path d="M43.99414,20.00836a2.99791,2.99791,0,1,0,2.99854,2.99791A3.0015,3.0015,0,0,0,43.99414,20.00836Zm0,3.99722a.99931.99931,0,1,1,.99952-.99931A1.0004,1.0004,0,0,1,43.99414,24.00558Z"/><path d="M62.6818,31.12463,53.44949,12.66485A2.99678,2.99678,0,0,0,50.75451,11H4.01367A3.01661,3.01661,0,0,0,1,14.01255V43.99164a3.0166,3.0166,0,0,0,3.01367,3.01254H7.079a7.00253,7.00253,0,0,0,13.85957,0H43.06143a7.00253,7.00253,0,0,0,13.85957,0h3.06533A3.0166,3.0166,0,0,0,63,43.99164V32.47135A3.01944,3.01944,0,0,0,62.6818,31.12463Zm-48.673,19.84749a4.98188,4.98188,0,1,1,4.98244-4.98188A4.98782,4.98782,0,0,1,14.00878,50.97212Zm35.98244,0a4.98188,4.98188,0,1,1,4.98243-4.98188A4.98782,4.98782,0,0,1,49.99122,50.97212Zm10.9795-6.98048a.98592.98592,0,0,1-.98439.98466H56.921a7.00253,7.00253,0,0,0-13.85957,0H20.93857a7.00253,7.00253,0,0,0-13.85957,0H4.01367a.98592.98592,0,0,1-.98439-.98466V14.01255a.98593.98593,0,0,1,.98439-.98467H50.75451a.97924.97924,0,0,1,.88043.54454L60.86725,32.0322a.98778.98778,0,0,1,.10347.43915Z"/><circle cx="14.00878" cy="45.99024" r="2.0137"/><circle cx="49.99122" cy="45.99024" r="2.0137"/><path d="M49.45193,16.66207a2.99677,2.99677,0,0,0-2.695-1.66486H39.9961a3.01661,3.01661,0,0,0-3.01367,3.01255V30.00139a3.01661,3.01661,0,0,0,3.01367,3.01255H52.754a3.01261,3.01261,0,0,0,2.695-4.36024Zm-6.4573,14.324v-1.984h3.38019l.99219,1.984ZM53.591,30.51861a.96907.96907,0,0,1-.837.46745H49.60224l-1.71547-3.43023a.99937.99937,0,0,0-.89409-.55234H41.99512a.99914.99914,0,0,0-.99951.9993v2.98327H39.9961a.98593.98593,0,0,1-.98439-.98467V18.00976a.98593.98593,0,0,1,.98439-.98467H46.757a.97923.97923,0,0,1,.88043.54455l5.99708,11.99163A.96919.96919,0,0,1,53.591,30.51861Z"/><path d="M24.0039,33.11153H32a3.114,3.114,0,0,0,3.1103-3.11014V18.00976A3.114,3.114,0,0,0,32,14.89962H24.0039a3.114,3.114,0,0,0-3.11029,3.11014V30.00139A3.114,3.114,0,0,0,24.0039,33.11153Zm-.88775-15.10177a.88856.88856,0,0,1,.88775-.88708H32a.88856.88856,0,0,1,.88775.88708V30.00139A.88856.88856,0,0,1,32,30.88847H24.0039a.88856.88856,0,0,1-.88775-.88708Z"/><path d="M16.00781,14.89962H8.01171a3.114,3.114,0,0,0-3.11029,3.11014V30.00139a3.114,3.114,0,0,0,3.11029,3.11014h7.9961a2.83825,2.83825,0,0,0,3.1103-3.11014V18.00976A3.114,3.114,0,0,0,16.00781,14.89962ZM7.124,30.00139V18.00976a.88856.88856,0,0,1,.88775-.88708h7.9961a.88856.88856,0,0,1,.88775.88708v11.532l-.99317-1.98592a.99937.99937,0,0,0-.89409-.55234H10.01074a.99915.99915,0,0,0-.99952.9993v2.88568H8.01171A.88856.88856,0,0,1,7.124,30.00139Zm3.88629.88708V29.00209h3.38018l.94339,1.88638Z"/><path d="M39.9961,36.98188H22.00488a1.01394,1.01394,0,1,0,0,2.02788H39.9961a1.01394,1.01394,0,1,0,0-2.02788Z"/><path d="M39.9961,40.97909H30.001a1.01394,1.01394,0,1,0,0,2.02788H39.9961a1.01394,1.01394,0,1,0,0-2.02788Z"/></g></svg>
