<svg fill="#3E7FCA" id="Layer_1" enable-background="new 0 0 512 512" height="512" viewBox="0 0 512 512" width="512" xmlns="http://www.w3.org/2000/svg"><g><path d="m404.305 316.881c-11.025-10.978-38.187-41.115-59.535-90.049-14.922-35.815-49.646-58.951-88.484-58.951-38.827 0-73.546 23.142-88.472 58.964-26.718 61.25-63.287 93.634-63.647 93.948-.027.023-.053.046-.079.07-20.299 18.161-31.942 44.177-31.942 71.377 0 18.244 4.969 35.834 14.369 50.868 2.196 3.512 6.824 4.579 10.335 2.383 3.512-2.196 4.579-6.823 2.383-10.335-8.021-12.828-12.088-27.267-12.088-42.916 0-22.923 9.806-44.849 26.907-60.167 2.139-1.869 39.595-35.204 67.536-99.292.017-.039.034-.078.05-.118 12.578-30.243 41.879-49.785 74.648-49.785 32.779 0 62.085 19.537 74.66 49.773.017.04.033.079.05.118 22.593 51.814 51.629 83.75 63.065 95.076.214.211.44.41.678.595 22.935 17.808 34.352 45.936 30.542 75.236-3.062 23.385-16.004 43.702-36.443 57.208-22.078 14.588-49.324 18.876-74.743 11.763-17.398-4.863-37.447-7.434-57.983-7.434-20.191 0-39.941 2.486-57.116 7.19-26.006 7.126-54.666 2.218-76.665-13.128-3.396-2.369-8.072-1.537-10.442 1.86s-1.537 8.072 1.86 10.442c25.609 17.865 58.958 23.58 89.21 15.293 15.902-4.355 34.281-6.657 53.153-6.657 19.19 0 37.844 2.379 53.943 6.879 9.384 2.625 18.978 3.918 28.529 3.917 20.586 0 40.961-6.007 58.523-17.612 24.124-15.94 39.412-40.01 43.049-67.782 4.482-34.478-8.915-67.615-35.851-88.734z"/><path d="m116.663 237.588c-.151-4.14-3.65-7.382-7.768-7.222-4.14.151-7.372 3.629-7.221 7.769.633 17.349-5.974 31.313-17.676 37.355-4.209 2.173-8.79 3.203-13.531 3.202-17.031-.001-36.103-13.299-47.162-34.682-7.031-13.601-9.729-28.312-7.598-41.423 1.997-12.285 8.04-21.604 17.02-26.239 19.327-9.986 46.552 4.137 60.691 31.481 1.902 3.679 6.426 5.119 10.107 3.217 3.68-1.903 5.119-6.428 3.217-10.107-8.503-16.443-21.339-29.496-36.144-36.752-15.557-7.625-31.452-8.039-44.754-1.167-13.306 6.87-22.164 20.067-24.942 37.161-2.643 16.266.581 34.278 9.08 50.719 8.502 16.438 21.338 29.488 36.143 36.745 8.206 4.022 16.503 6.039 24.467 6.038 7.134 0 14.001-1.619 20.288-4.865 16.994-8.774 26.633-27.926 25.783-51.23z"/><path d="m511.1 200.182c-2.778-17.094-11.636-30.291-24.941-37.159-13.303-6.874-29.199-6.46-44.757 1.165-14.805 7.257-27.641 20.309-36.144 36.752v.001c-8.499 16.439-11.723 34.452-9.08 50.717 2.778 17.094 11.636 30.291 24.943 37.161 6.287 3.246 13.152 4.864 20.288 4.864 7.963 0 16.262-2.017 24.467-6.038 14.804-7.256 27.641-20.306 36.144-36.746 8.499-16.44 11.723-34.452 9.08-50.717zm-22.403 43.827c-14.139 27.337-41.367 41.458-60.695 31.48-8.977-4.634-15.021-13.953-17.018-26.238-2.131-13.111.568-27.822 7.598-41.423 14.14-27.345 41.368-41.467 60.694-31.479 8.977 4.634 15.021 13.953 17.018 26.238 2.131 13.112-.568 27.823-7.597 41.422z"/><path d="m328.826 160.207c1.468.189 2.934.283 4.402.283 11.639 0 23.155-5.913 32.836-16.971 2.727-3.117 2.413-7.855-.703-10.583-3.118-2.729-7.853-2.414-10.584.703-4.345 4.963-13.252 13.085-24.116 11.681-8.322-.979-15.862-7.301-21.23-17.801-5.789-11.323-8.119-26.177-6.393-40.753 2.144-18.108 11.019-35.65 22.611-44.689 5.915-4.613 11.924-6.563 17.943-5.789 8.326.983 15.868 7.307 21.238 17.806 5.791 11.322 8.123 26.175 6.399 40.747-.39 3.28-1.007 6.595-1.833 9.853-1.019 4.015 1.41 8.096 5.425 9.114 4.011 1.018 8.095-1.409 9.114-5.425.986-3.887 1.723-7.849 2.189-11.776 2.096-17.711-.724-35.234-7.94-49.343-7.608-14.876-19.576-24.307-32.753-25.862-9.912-1.28-19.946 1.78-29.006 8.847-14.814 11.553-25.651 32.533-28.282 54.754-2.097 17.712.722 35.236 7.934 49.345 7.607 14.88 19.573 24.309 32.749 25.859z"/><path d="m179.459 160.303c14.023 0 26.972-8.564 35.528-23.499 8.158-14.247 11.557-33.189 9.325-51.973-4.23-35.8-27.562-63.844-53.119-63.844-14.024 0-26.97 8.558-35.52 23.481-8.153 14.237-11.551 33.182-9.325 51.973 4.232 35.811 27.561 63.862 53.111 63.862zm-30.769-108.379c3.41-5.952 10.867-15.937 22.504-15.937 17.478 0 34.982 23.174 38.223 50.604v.005c1.861 15.657-.853 31.24-7.446 42.752-3.413 5.958-10.878 15.954-22.513 15.954-17.473 0-34.973-23.182-38.215-50.624-1.855-15.666.86-31.25 7.447-42.754z"/><path d="m279.223 263.816h-45.284c-4.142 0-7.5 3.358-7.5 7.5v44.667h-44.694c-4.142 0-7.5 3.358-7.5 7.5v45.26c0 4.142 3.358 7.5 7.5 7.5h44.694v44.667c0 4.142 3.357 7.5 7.5 7.5h45.284c4.142 0 7.5-3.358 7.5-7.5v-44.667h44.694c4.142 0 7.5-3.358 7.5-7.5v-45.26c0-4.142-3.357-7.5-7.5-7.5h-44.694v-44.667c-.001-4.142-3.358-7.5-7.5-7.5zm44.694 67.167v30.26h-44.694c-4.142 0-7.5 3.358-7.5 7.5v44.667h-30.284v-44.667c0-4.142-3.357-7.5-7.5-7.5h-44.694v-30.26h44.694c4.142 0 7.5-3.358 7.5-7.5v-44.667h30.284v44.667c0 4.142 3.357 7.5 7.5 7.5z"/></g></svg>