<svg id="Capa_1"  enable-background="new 0 0 512 512" height="512" viewBox="0 0 512 512" width="512" xmlns="http://www.w3.org/2000/svg"><g><path d="m468.492 334.005c-2.073-3.449-6.55-4.564-10-2.49-3.449 2.074-4.564 6.551-2.49 9.999 11.436 19.019 17.481 40.871 17.481 63.192v37.368h-57.338v-141.274c6.774 4.278 13.136 9.202 18.98 14.739 2.917 2.764 7.529 2.647 10.301-.278 2.768-2.921 2.644-7.533-.278-10.301-8.726-8.268-18.48-15.326-29.004-21.042v-9.696c0-9.86-8.021-17.881-17.881-17.881h-41.551c-7.412 0-13.783 4.534-16.49 10.973h-13.892v-26.82c11.895-11.864 20.272-26.747 24.347-42.857 17.997-.216 32.572-14.915 32.572-32.961v-24.945c0-10.889-8.413-19.786-21.083-20.348v-67.219c0-28.763-23.4-52.163-52.163-52.163h-69.847c-4.024 0-7.287 3.262-7.287 7.287s3.262 7.287 7.287 7.287h69.847c20.727 0 37.59 16.862 37.59 37.59v21.684h-62.391c5.053-8.039 7.621-15.022 7.621-20.866 0-18.663-14.111-30.257-36.825-30.257s-36.825 11.594-36.825 30.257c0 5.844 2.568 12.827 7.621 20.866h-62.391v-21.685c0-20.727 16.862-37.59 37.59-37.59h3.661c9.457.138 9.452-14.712 0-14.573h-3.661c-28.763 0-52.163 23.4-52.163 52.163v67.241c-10.536.787-18.874 9.591-18.874 20.325v24.945c0 17.293 13.384 31.508 30.336 32.857 4.066 16.15 12.453 31.073 24.374 42.962v26.82h-13.892c-2.707-6.439-9.079-10.973-16.49-10.973h-41.551c-9.86 0-17.881 8.021-17.881 17.881v9.695c-44.417 24.104-71.911 70.139-71.911 120.79v95.15c0 6.696 5.448 12.144 12.144 12.144h104.239c15.803 0 28.66-12.857 28.66-28.66v-78.825c0-13.977-10.061-25.643-23.319-28.153v-44.369c0-4.024-3.262-7.286-7.287-7.286s-7.287 3.262-7.287 7.286v43.862h-20.668v-101.635c0-1.824 1.484-3.308 3.308-3.308h41.551c1.824 0 3.308 1.484 3.308 3.308v27.814c0 19.48 7.584 37.795 21.356 51.572l63.404 63.427c1.571 1.572 3.39 2.799 5.36 3.679v76.713h-57.806c-4.024 0-7.287 3.262-7.287 7.287 0 4.024 3.262 7.286 7.287 7.286h285.005c6.696 0 12.144-5.448 12.144-12.144v-95.15c.003-24.965-6.762-49.413-19.561-70.7zm-429.975 122.642h20.248v27.3c0 4.883 1.257 9.477 3.459 13.48h-23.707zm115.897-52.132v78.825c0 7.768-6.32 14.087-14.087 14.087h-53.509c-7.433 0-13.48-6.047-13.48-13.48v-80.039c0-7.433 6.047-13.48 13.48-13.48h53.509c7.767 0 14.087 6.319 14.087 14.087zm-67.596-28.66c-15.469 0-28.053 12.584-28.053 28.053v38.166h-20.248v-37.368c0-42.575 21.733-81.501 57.338-103.917v75.065h-9.037zm86.252-200.783v-21.402c16.776-.738 33.346-6.116 48.157-15.682 10.356-6.689 22.381-10.225 34.773-10.225s24.417 3.536 34.774 10.225c14.811 9.566 31.381 14.944 48.156 15.682v21.402c0 21.585-9.079 42.381-24.908 57.055l-30.734 28.49c-15.302 14.185-39.274 14.185-54.576 0l-30.734-28.49c-15.829-14.674-24.908-35.47-24.908-57.055zm27.171 79.024 18.564 17.209c20.857 19.334 53.533 19.334 74.39 0l18.564-17.209v29.137c0 23.396-19.034 42.43-42.43 42.43h-26.658c-23.396 0-42.43-19.034-42.43-42.43zm162.608-120.196c3.214 0 5.829 2.615 5.829 5.829v24.945c0 9.16-6.736 16.756-15.51 18.149.218-2.57.335-5.156.335-7.752v-24.081c5.676-3.451 9.113-10.081 8.665-17.065.227-.011.453-.025.681-.025zm-106.849-96.602c10.151 0 22.252 2.721 22.252 15.684 0 5.057-5.732 16.517-21.817 33.512-.045.047-.181.191-.435.191s-.39-.144-.435-.191c-16.085-16.995-21.817-28.455-21.817-33.512 0-12.963 12.101-15.684 22.252-15.684zm-18.295 51.123c2.233 2.618 4.642 5.308 7.276 8.091 5.695 6.268 16.344 6.268 22.039 0 2.633-2.782 5.042-5.473 7.276-8.091h73.3v47.033c.023 2.511-2.329 4.056-4.683 3.741-15.316 0-30.611-4.65-44.232-13.447-12.718-8.214-27.477-12.556-42.68-12.556s-29.962 4.342-42.68 12.556c-13.621 8.797-28.916 13.447-44.232 13.447-2.353.315-4.706-1.23-4.683-3.741v-47.033zm-92.173 76.254v-24.945c0-2.685 1.827-4.945 4.301-5.619-.407 6.932 3.054 13.456 8.665 16.879v24.082c0 2.429.098 4.849.289 7.256-7.648-2.233-13.255-9.295-13.255-17.653zm44.724 178.63c-11.02-11.025-17.09-25.681-17.09-41.269v-20.149h12.501c-.743 31.891 25.081 58.393 57.003 58.349h26.658c31.922.044 57.746-26.459 57.003-58.349h12.501v20.149c0 15.588-6.069 30.245-17.09 41.269l-63.404 63.427c-1.854 1.376-2.825 1.376-4.679 0zm73.03 77.409c1.97-.88 3.789-2.108 5.36-3.679l63.404-63.427c13.772-13.777 21.357-32.092 21.357-51.572v-27.815c0-1.824 1.484-3.308 3.308-3.308h41.551c1.824 0 3.308 1.484 3.308 3.308v223.206h-138.288zm152.86 76.713v-40.78h57.338v40.78z"/><circle cx="97.832" cy="417.11" r="9.135"/><path d="m128.427 443.695h-30.595c-4.024 0-7.287 3.262-7.287 7.286s3.262 7.286 7.287 7.286h30.595c4.024 0 7.287-3.262 7.287-7.286s-3.263-7.286-7.287-7.286z"/><path d="m128.427 474.684h-30.595c-4.024 0-7.287 3.262-7.287 7.287 0 4.024 3.262 7.286 7.287 7.286h30.595c4.024 0 7.287-3.262 7.287-7.286 0-4.025-3.263-7.287-7.287-7.287z"/><path d="m377.215 421.64h-72.259c-7.232 0-13.116 5.884-13.116 13.116v29.21c0 7.232 5.884 13.116 13.116 13.116h72.259c7.232 0 13.116-5.884 13.116-13.116v-29.21c0-7.233-5.884-13.116-13.116-13.116zm-1.457 40.868h-69.344v-26.295h69.344z"/><path d="m236.57 230.288h38.86c4.024 0 7.286-3.262 7.286-7.287s-3.262-7.287-7.286-7.287h-38.86c-4.024 0-7.287 3.262-7.287 7.287s3.263 7.287 7.287 7.287z"/><circle cx="215.134" cy="161.424" r="9.478"/><circle cx="296.866" cy="161.424" r="9.478"/></g></svg>