<svg id="Briefcase" enable-background="new 0 0 128 128" height="512" viewBox="0 0 128 128" width="512" xmlns="http://www.w3.org/2000/svg"><g><path id="_x34_" d="m46.2 60.655c0 1.105-.878 2.012-1.983 2.012s-2.013-.907-2.013-2.012v-10.714c0-.822.34-1.559.879-2.098s1.304-.879 2.126-.879h11.563c1.105 0 2.013.879 2.013 1.984s-.907 2.013-2.013 2.013h-10.572zm-8.078 0c0 1.105-.907 2.012-2.013 2.012-1.105 0-1.983-.907-1.983-2.012v-12.755c0-4.677 3.826-8.531 8.503-8.531h14.143c1.105 0 2.013.907 2.013 2.012s-.907 1.984-2.013 1.984h-14.143c-1.248 0-2.381.51-3.203 1.333-.794.822-1.304 1.956-1.304 3.203zm56.064 0c0 1.105-.879 2.012-1.984 2.012s-2.012-.907-2.012-2.012v-12.755c0-2.494-2.012-4.535-4.506-4.535h-4.734c-1.105 0-2.012-.878-2.012-1.984 0-1.105.906-2.012 2.012-2.012h4.734c4.676 0 8.502 3.854 8.502 8.531zm-8.079 0c0 1.105-.906 2.012-2.012 2.012s-1.984-.907-1.984-2.012v-9.693h-1.162c-1.105 0-2.012-.907-2.012-2.013s.906-1.984 2.012-1.984h2.154c1.645 0 3.004 1.333 3.004 2.977z"/><path id="_x33_" d="m58.955 80.212h9.327c2.238 0 4.107 1.871 4.107 4.139v15.477c0 4.619-3.768 8.389-8.389 8.389h-.396c-4.847 0-8.786-3.968-8.786-8.786v-15.08c-.001-2.268 1.869-4.139 4.137-4.139zm4.648 15.986c1.106 0 1.985.879 1.985 1.984 0 1.077-.879 1.955-1.985 1.955-1.077 0-1.984-.878-1.984-1.955 0-1.105.907-1.984 1.984-1.984zm4.678-11.961h-9.327c-.085 0-.142.028-.142.113v15.08c0 2.636 2.154 4.79 4.79 4.79h.398c2.411 0 4.395-1.984 4.395-4.393v-15.476c0-.085-.057-.114-.114-.114z"/><path id="_x32_" d="m20.775 58.671h86.42c2.836 0 5.385 1.134 7.229 3.004 1.928 1.899 3.004 4.479 3.004 7.2v48.894c0 2.805-1.162 5.385-3.004 7.227-1.844 1.843-4.393 3.005-7.229 3.005h-86.42c-2.806 0-5.357-1.162-7.199-3.005-1.871-1.842-3.005-4.422-3.005-7.227v-48.894c0-2.381.822-4.563 2.183-6.292.199-.312.567-.652.822-.907 1.842-1.871 4.394-3.005 7.199-3.005zm92.657 14.257c-.34.283-.766.652-1.135.907l-31.858 21.144c-.908.624-2.154.368-2.777-.539-.596-.935-.34-2.183.566-2.777l31.83-21.145c1.189-.879 1.898-1.87 2.154-2.862.283-1.021.17-2.381-.625-3.175-1.133-1.105-2.662-1.814-4.393-1.814h-86.42c-1.7 0-3.259.708-4.393 1.814-.085.113-.198.227-.283.34-.454.936-.567 1.899-.312 2.835.255.992.964 1.983 2.126 2.862l31.858 21.145c.907.595 1.162 1.843.539 2.777-.595.907-1.842 1.163-2.75.539l-31.942-21.201c-.368-.283-.737-.567-1.048-.851v44.841c0 1.7.708 3.259 1.813 4.393 1.134 1.134 2.693 1.842 4.393 1.842h86.42c1.73 0 3.26-.708 4.393-1.842 1.135-1.134 1.844-2.692 1.844-4.393z"/><path id="_x31_" d="m54.789 35.882c0-1.105.878-2.012 1.983-2.012s2.013.907 2.013 2.012v9.326 4.648c0 .198.028.396.085.539.085.142.199.283.34.425.113.085.255.142.397.17.255.057.539.057.878.028l16.44-1.219c.594-.057 1.133-.34 1.502-.737.396-.454.623-1.049.596-1.701l-.285-22.533v-.028h-.027v-8.702h-19.331v2.069c0 .936-.17 1.814-.567 2.636-.368.822-.907 1.531-1.644 2.154-.992.851-2.777 2.069-4.421 3.203l-1.077.737c-.68.454-1.36.936-1.814 1.446-.312.312-.51.652-.51.992l-.17 12.074c-.028 1.077-.936 1.956-2.013 1.956-1.105 0-1.984-.907-1.984-2.012l.199-12.074c0-1.474.624-2.665 1.53-3.628.737-.822 1.644-1.445 2.494-2.012l1.106-.765c1.558-1.077 3.259-2.239 4.081-2.948.284-.227.482-.51.595-.793.142-.284.199-.595.199-.964v-2.296c-.539-.198-1.049-.539-1.446-.935-.737-.709-1.162-1.701-1.162-2.807v-8.163c0-1.077.425-2.069 1.162-2.778v-.028c.737-.709 1.729-1.162 2.806-1.162h26.076c1.076 0 2.068.453 2.807 1.162v.028c.709.708 1.162 1.701 1.162 2.778v8.163c0 1.106-.453 2.098-1.162 2.807-.057.057-.113.085-.17.142-.709.623-1.617 1.02-2.637 1.02h-.086v8.7h-.027l.311 22.505c.029 1.701-.594 3.231-1.615 4.393-1.049 1.162-2.492 1.956-4.193 2.069l-16.412 1.247c-.68.028-1.333.028-1.984-.113-.765-.17-1.446-.482-2.126-.992-.623-.51-1.077-1.134-1.417-1.814s-.482-1.445-.482-2.239v-4.648zm28.002-31.886h-26.019v8.106h.624 23.327 2.068z"/></g></svg>