<?xml version="1.0"?>
<svg fill="#3E7FCA" xmlns="http://www.w3.org/2000/svg" id="Layer_3" data-name="Layer 3" viewBox="0 0 64 64" width="512" height="512"><path d="M60,31H14V29h4a1,1,0,0,0,1-1V24a1,1,0,0,0-1-1H17V21h1a1,1,0,0,0,1-1V18h8a1,1,0,0,0,.941,1L56.96,20.7c.116.007.231.011.346.011A5.712,5.712,0,1,0,56.959,9.3L27.941,11A1,1,0,0,0,27,12H19V10a1,1,0,0,0-1-1H16a1,1,0,0,1,0-2h2a1,1,0,0,0,1-1V2a1,1,0,0,0-1-1H14.828A7.829,7.829,0,0,0,7,8.828V20a1,1,0,0,0,1,1H9v2H8a1,1,0,0,0-1,1v4a1,1,0,0,0,1,1h4v2H9.313A8.937,8.937,0,0,0,2.95,33.636L1.293,35.293A1,1,0,0,0,1,36v4.361a10.058,10.058,0,0,0,5.637,9L34.563,62.9A.993.993,0,0,0,35,63h4a1,1,0,0,0,.832-.445l3.109-4.664A2,2,0,0,1,44.605,57H51a1,1,0,0,1,1,1v2a3,3,0,0,0,3,3h5a3,3,0,0,0,3-3V34A3,3,0,0,0,60,31Zm1.006-16A3.615,3.615,0,0,1,59,18.276V11.72A3.6,3.6,0,0,1,61.006,15ZM57,11.3v7.4l-2-.118V11.413ZM29,12.943l24-1.412v6.933L29,17.057ZM27,14v2H19V14ZM9,8.828A5.828,5.828,0,0,1,14.828,3H17V5H16a3,3,0,0,0,0,6h1v8H9ZM11,21h4v2H11ZM9,25h8v2H9Zm.313,8H60a1,1,0,0,1,1,1v1H4.415A6.952,6.952,0,0,1,9.313,33ZM53,37h8v6H55a2,2,0,0,1-2-2ZM3,40.361V37H26.586l-5,5H16a1,1,0,0,0-.707.293L9.2,48.382,7.51,47.561A8.052,8.052,0,0,1,3,40.361ZM60,61H55a1,1,0,0,1-1-1V58a3,3,0,0,0-3-3h-6.4a3.993,3.993,0,0,0-3.328,1.781L38.465,61H35.229l-3.916-1.9,3.394-3.394-1.414-1.414-3.885,3.885L26.6,56.815l3.108-3.108-1.414-1.414-3.6,3.6-2.81-1.362,2.823-2.823-1.414-1.414L19.98,53.606l-2.81-1.362,2.537-2.537-1.414-1.414-3.028,3.028-4.156-2.016L16.414,44H22a1,1,0,0,0,.707-.293L29.414,37H51v4a4,4,0,0,0,4,4h6V60A1,1,0,0,1,60,61Z"/><rect x="23" y="27" width="4" height="2"/><rect x="21.379" y="22.5" width="4.243" height="2" transform="translate(-9.734 23.5) rotate(-45)"/></svg>
